<?xml version="1.0" encoding="UTF-8" standalone="no"?>
<!-- Created with Inkscape (http://www.inkscape.org/) -->

<svg
   xmlns:dc="http://purl.org/dc/elements/1.1/"
   xmlns:cc="http://creativecommons.org/ns#"
   xmlns:rdf="http://www.w3.org/1999/02/22-rdf-syntax-ns#"
   xmlns:svg="http://www.w3.org/2000/svg"
   xmlns="http://www.w3.org/2000/svg"
   xmlns:sodipodi="http://sodipodi.sourceforge.net/DTD/sodipodi-0.dtd"
   xmlns:inkscape="http://www.inkscape.org/namespaces/inkscape"
   width="395.28571"
   height="395.28571"
   id="svg2"
   version="1.1"
   inkscape:version="0.47 r22583"
   sodipodi:docname="circle and saw.svg">
  <defs
     id="defs4">
    <inkscape:perspective
       sodipodi:type="inkscape:persp3d"
       inkscape:vp_x="0 : 526.18109 : 1"
       inkscape:vp_y="0 : 1000 : 0"
       inkscape:vp_z="744.09448 : 526.18109 : 1"
       inkscape:persp3d-origin="372.04724 : 350.78739 : 1"
       id="perspective10" />
  </defs>
  <sodipodi:namedview
     id="base"
     pagecolor="#ffffff"
     bordercolor="#666666"
     borderopacity="1.0"
     inkscape:pageopacity="0.0"
     inkscape:pageshadow="2"
     inkscape:zoom="0.49497475"
     inkscape:cx="212.34886"
     inkscape:cy="587.67935"
     inkscape:document-units="px"
     inkscape:current-layer="layer1"
     showgrid="false"
     inkscape:window-width="1440"
     inkscape:window-height="828"
     inkscape:window-x="0"
     inkscape:window-y="25"
     inkscape:window-maximized="1" />
  <metadata
     id="metadata7">
    <rdf:RDF>
      <cc:Work
         rdf:about="">
        <dc:format>image/svg+xml</dc:format>
        <dc:type
           rdf:resource="http://purl.org/dc/dcmitype/StillImage" />
      </cc:Work>
    </rdf:RDF>
  </metadata>
  <g
     inkscape:label="Layer 1"
     inkscape:groupmode="layer"
     id="layer1"
     transform="translate(2.1679688e-7,-657.07648)">
    <path
       sodipodi:type="arc"
       style="fill:none;stroke:#000000;stroke-width:1;stroke-miterlimit:4;stroke-opacity:1;stroke-dasharray:none"
       id="path2816"
       sodipodi:cx="294.28571"
       sodipodi:cy="435.21933"
       sodipodi:rx="197.14285"
       sodipodi:ry="197.14285"
       d="m 491.42856,435.21933 c 0,108.87899 -88.26386,197.14285 -197.14285,197.14285 -108.879,0 -197.142857,-88.26386 -197.142857,-197.14285 0,-108.87899 88.263857,-197.14285 197.142857,-197.14285 108.87899,0 197.14285,88.26386 197.14285,197.14285 z"
       transform="translate(-96.642853,419.5)" />
    <path
       sodipodi:type="star"
       style="fill:none;stroke:#000000;stroke-width:1.48649073;stroke-miterlimit:4;stroke-opacity:1;stroke-dasharray:none"
       id="path3590"
       sodipodi:sides="17"
       sodipodi:cx="197.14285"
       sodipodi:cy="375.21933"
       sodipodi:r1="292.00223"
       sodipodi:r2="213.96658"
       sodipodi:arg1="0.63958723"
       sodipodi:arg2="0.5453243"
       inkscape:flatsided="false"
       inkscape:rounded="0"
       inkscape:randomized="0"
       d="m 431.42856,549.50504 -51.35302,-63.30223 -27.42703,136.16686 -25.01787,-77.57842 -74.76408,117.06403 4.69609,-81.37722 -112.00384,82.15106 33.77582,-74.18557 -134.116855,36.14312 58.293935,-56.97475 -138.116648,-14.74614 74.93913,-32.06918 -123.463019,-63.64384 81.4633816,-2.83249 -92.1350276,-103.9461 76.985552,26.78675 -48.36369,-130.20987 62.1103974,52.7883 1.9394325,-138.88807 38.8468891,71.66048 51.980623,-128.80866 10.336889,80.85453 95.00155,-101.332936 -19.56916,79.128716 125.19198,-60.17163 -46.83229,66.71613 138.47455,-10.88381 -67.77046,45.29317 133.05536,39.87392 -79.55585,17.75311 109.6663,85.24646 -80.59678,-12.1846 71.46621,119.10599 -70.75267,-40.47672 23.6142,136.87961 z"
       transform="matrix(0.67272533,0,0,0.67272533,65.150567,603.84195)" />
  </g>
</svg>
