<?xml version="1.0" encoding="UTF-8" standalone="no"?>
<!-- Created with Inkscape (http://www.inkscape.org/) -->

<svg
   xmlns:dc="http://purl.org/dc/elements/1.1/"
   xmlns:cc="http://creativecommons.org/ns#"
   xmlns:rdf="http://www.w3.org/1999/02/22-rdf-syntax-ns#"
   xmlns:svg="http://www.w3.org/2000/svg"
   xmlns="http://www.w3.org/2000/svg"
   xmlns:sodipodi="http://sodipodi.sourceforge.net/DTD/sodipodi-0.dtd"
   xmlns:inkscape="http://www.inkscape.org/namespaces/inkscape"
   width="885.82672"
   height="885.82672"
   id="svg2"
   version="1.1"
   inkscape:version="0.47 r22583"
   sodipodi:docname="testpattern.svg">
  <defs
     id="defs4">
    <inkscape:perspective
       sodipodi:type="inkscape:persp3d"
       inkscape:vp_x="0 : 526.18109 : 1"
       inkscape:vp_y="0 : 1000 : 0"
       inkscape:vp_z="744.09448 : 526.18109 : 1"
       inkscape:persp3d-origin="372.04724 : 350.78739 : 1"
       id="perspective10" />
    <inkscape:perspective
       id="perspective2834"
       inkscape:persp3d-origin="0.5 : 0.33333333 : 1"
       inkscape:vp_z="1 : 0.5 : 1"
       inkscape:vp_y="0 : 1000 : 0"
       inkscape:vp_x="0 : 0.5 : 1"
       sodipodi:type="inkscape:persp3d" />
    <inkscape:perspective
       id="perspective2856"
       inkscape:persp3d-origin="0.5 : 0.33333333 : 1"
       inkscape:vp_z="1 : 0.5 : 1"
       inkscape:vp_y="0 : 1000 : 0"
       inkscape:vp_x="0 : 0.5 : 1"
       sodipodi:type="inkscape:persp3d" />
    <inkscape:perspective
       id="perspective2856-6"
       inkscape:persp3d-origin="0.5 : 0.33333333 : 1"
       inkscape:vp_z="1 : 0.5 : 1"
       inkscape:vp_y="0 : 1000 : 0"
       inkscape:vp_x="0 : 0.5 : 1"
       sodipodi:type="inkscape:persp3d" />
    <inkscape:perspective
       id="perspective2856-9"
       inkscape:persp3d-origin="0.5 : 0.33333333 : 1"
       inkscape:vp_z="1 : 0.5 : 1"
       inkscape:vp_y="0 : 1000 : 0"
       inkscape:vp_x="0 : 0.5 : 1"
       sodipodi:type="inkscape:persp3d" />
    <inkscape:perspective
       id="perspective2856-8"
       inkscape:persp3d-origin="0.5 : 0.33333333 : 1"
       inkscape:vp_z="1 : 0.5 : 1"
       inkscape:vp_y="0 : 1000 : 0"
       inkscape:vp_x="0 : 0.5 : 1"
       sodipodi:type="inkscape:persp3d" />
    <inkscape:perspective
       id="perspective2856-86"
       inkscape:persp3d-origin="0.5 : 0.33333333 : 1"
       inkscape:vp_z="1 : 0.5 : 1"
       inkscape:vp_y="0 : 1000 : 0"
       inkscape:vp_x="0 : 0.5 : 1"
       sodipodi:type="inkscape:persp3d" />
    <inkscape:perspective
       id="perspective2856-4"
       inkscape:persp3d-origin="0.5 : 0.33333333 : 1"
       inkscape:vp_z="1 : 0.5 : 1"
       inkscape:vp_y="0 : 1000 : 0"
       inkscape:vp_x="0 : 0.5 : 1"
       sodipodi:type="inkscape:persp3d" />
    <inkscape:perspective
       id="perspective2856-0"
       inkscape:persp3d-origin="0.5 : 0.33333333 : 1"
       inkscape:vp_z="1 : 0.5 : 1"
       inkscape:vp_y="0 : 1000 : 0"
       inkscape:vp_x="0 : 0.5 : 1"
       sodipodi:type="inkscape:persp3d" />
    <inkscape:perspective
       id="perspective2995"
       inkscape:persp3d-origin="0.5 : 0.33333333 : 1"
       inkscape:vp_z="1 : 0.5 : 1"
       inkscape:vp_y="0 : 1000 : 0"
       inkscape:vp_x="0 : 0.5 : 1"
       sodipodi:type="inkscape:persp3d" />
    <inkscape:perspective
       id="perspective3027"
       inkscape:persp3d-origin="0.5 : 0.33333333 : 1"
       inkscape:vp_z="1 : 0.5 : 1"
       inkscape:vp_y="0 : 1000 : 0"
       inkscape:vp_x="0 : 0.5 : 1"
       sodipodi:type="inkscape:persp3d" />
    <inkscape:perspective
       id="perspective3251"
       inkscape:persp3d-origin="0.5 : 0.33333333 : 1"
       inkscape:vp_z="1 : 0.5 : 1"
       inkscape:vp_y="0 : 1000 : 0"
       inkscape:vp_x="0 : 0.5 : 1"
       sodipodi:type="inkscape:persp3d" />
  </defs>
  <sodipodi:namedview
     id="base"
     pagecolor="#ffffff"
     bordercolor="#666666"
     borderopacity="1.0"
     inkscape:pageopacity="0.0"
     inkscape:pageshadow="2"
     inkscape:zoom="0.49497475"
     inkscape:cx="607.23541"
     inkscape:cy="354.44896"
     inkscape:document-units="mm"
     inkscape:current-layer="layer1"
     showgrid="true"
     units="mm"
     inkscape:window-width="1114"
     inkscape:window-height="742"
     inkscape:window-x="268"
     inkscape:window-y="97"
     inkscape:window-maximized="0">
    <inkscape:grid
       type="xygrid"
       id="grid2816"
       empspacing="5"
       visible="true"
       enabled="true"
       snapvisiblegridlinesonly="true"
       units="mm"
       spacingx="1mm"
       spacingy="1mm" />
  </sodipodi:namedview>
  <metadata
     id="metadata7">
    <rdf:RDF>
      <cc:Work
         rdf:about="">
        <dc:format>image/svg+xml</dc:format>
        <dc:type
           rdf:resource="http://purl.org/dc/dcmitype/StillImage" />
        <dc:title></dc:title>
      </cc:Work>
    </rdf:RDF>
  </metadata>
  <g
     inkscape:label="Layer 1"
     inkscape:groupmode="layer"
     id="layer1"
     transform="translate(0,-166.53544)">
    <path
       transform="translate(0,166.53544)"
       style="fill:none;stroke:#000000;stroke-width:1;stroke-miterlimit:4;stroke-opacity:1"
       d="m 0,-5.0462138e-5 885.82678,0 0,885.826780462138 L 0,885.82673 0,-5.0462138e-5 z"
       id="rect2818" />
    <path
       style="fill:none;stroke:#000000;stroke-width:1;stroke-miterlimit:4;stroke-opacity:1"
       d="m 88.582687,609.44879 88.582683,0 0,88.58268 -88.582683,0 0,-88.58268 z"
       id="rect2820-16" />
    <path
       style="fill:none;stroke:#000000;stroke-width:1;stroke-miterlimit:4;stroke-opacity:1"
       d="m 265.74802,609.44879 88.58268,0 0,88.58268 -88.58268,0 0,-88.58268 z"
       id="rect2822-2" />
    <path
       style="fill:none;stroke:#000000;stroke-width:1;stroke-miterlimit:4;stroke-opacity:1"
       d="m 88.58268,786.61414 88.58268,0 0,88.58268 -88.58268,0 0,-88.58268 z"
       id="rect2820-56" />
    <path
       style="fill:none;stroke:#000000;stroke-width:1;stroke-miterlimit:4;stroke-opacity:1"
       d="m 265.74802,786.61414 88.58268,0 0,88.58268 -88.58268,0 0,-88.58268 z"
       id="rect2822-7" />
    <path
       style="fill:none;stroke:#000000;stroke-width:1;stroke-miterlimit:4;stroke-opacity:1"
       d="m 620.07867,786.61414 88.58268,0 0,88.58268 -88.58268,0 0,-88.58268 z"
       id="rect2824-2-40" />
    <path
       style="fill:none;stroke:#000000;stroke-width:1;stroke-miterlimit:4;stroke-opacity:1"
       d="m 708.66138,875.19684 88.58268,0 0,88.58268 -88.58268,0 0,-88.58268 z"
       id="rect2824-2-0" />
    <path
       transform="translate(0,166.53544)"
       style="fill:none;stroke:#000000;stroke-width:1;stroke-miterlimit:4;stroke-opacity:1"
       d="m 265.74803,176.7771 c 0,49.13726 -40.04251,88.97089 -89.43745,88.97089 -49.39494,0 -89.437457,-39.83363 -89.437457,-88.97089 0,-49.13726 40.042517,-88.970887 89.437457,-88.970887 49.39494,0 89.43745,39.833627 89.43745,88.970887 z"
       id="path2969" />
    <path
       transform="translate(0,166.53544)"
       style="fill:none;stroke:#000000;stroke-width:1;stroke-miterlimit:4;stroke-opacity:1"
       d="m 442.9134,354.33066 c 0,48.92286 -39.65982,88.58268 -88.58268,88.58268 -48.92286,0 -88.58268,-39.65982 -88.58268,-88.58268 0,-48.92287 39.65982,-88.58268 88.58268,-88.58268 48.92286,0 88.58268,39.65981 88.58268,88.58268 z"
       id="path2971" />
    <path
       transform="translate(0,166.53544)"
       style="fill:none;stroke:#000000;stroke-width:1;stroke-miterlimit:4;stroke-opacity:1"
       d="m 620.07872,533.74957 c 0,47.67824 -39.76426,86.32909 -88.81596,86.32909 -49.05171,0 -88.81597,-38.65085 -88.81597,-86.32909 0,-47.67824 39.76426,-86.32908 88.81597,-86.32908 49.0517,0 88.81596,38.65084 88.81596,86.32908 z"
       id="path2973" />
    <path
       transform="translate(0,166.53544)"
       style="fill:none;stroke:#000000;stroke-width:1;stroke-miterlimit:4;stroke-opacity:1"
       d="m 797.24412,708.66138 c 0,48.92286 -39.65982,88.58268 -88.58268,88.58268 -48.92287,0 -88.58268,-39.65982 -88.58268,-88.58268 0,-48.92287 39.65981,-88.58268 88.58268,-88.58268 48.92286,0 88.58268,39.65981 88.58268,88.58268 z"
       id="path2975" />
    <path
       transform="translate(0,166.53544)"
       style="fill:none;stroke:#000000;stroke-width:1;stroke-miterlimit:4;stroke-opacity:1"
       d="m 265.74804,708.66138 c 0,48.92286 -39.65982,88.58268 -88.58268,88.58268 -48.92286,0 -88.58268,-39.65982 -88.58268,-88.58268 0,-48.92287 39.65982,-88.58268 88.58268,-88.58268 48.92286,0 88.58268,39.65981 88.58268,88.58268 z"
       id="path2977" />
    <path
       transform="translate(0,166.53544)"
       style="fill:none;stroke:#000000;stroke-width:1;stroke-miterlimit:4;stroke-opacity:1"
       d="m 797.24411,442.91333 c 0,195.69145 -158.63927,354.33072 -354.33072,354.33072 -195.69145,0 -354.330718,-158.63927 -354.330718,-354.33072 0,-195.69145 158.639268,-354.330719 354.330718,-354.330719 195.69145,0 354.33072,158.639269 354.33072,354.330719 z"
       id="path2981" />
    <path
       transform="translate(0,166.53544)"
       style="fill:none;stroke:#000000;stroke-width:1;stroke-miterlimit:4;stroke-opacity:1"
       d="m 35.433071,35.433022 814.960629,0 0,814.960628 -814.960629,0 0,-814.960628 z"
       id="rect2983" />
    <path
       transform="translate(0,166.53544)"
       style="fill:none;stroke:#000000;stroke-width:1;stroke-miterlimit:4;stroke-opacity:1"
       d="m 53.149605,53.149555 779.527585,0 0,779.527585 -779.527585,0 0,-779.527585 z"
       id="rect2985" />
    <path
       transform="translate(-2.0665447e-5,-364.96063)"
       style="fill:none;stroke:#000000;stroke-width:1;stroke-miterlimit:4;stroke-opacity:1"
       d="m 797.24412,708.66138 c 0,48.92286 -39.65982,88.58268 -88.58268,88.58268 -48.92287,0 -88.58268,-39.65982 -88.58268,-88.58268 0,-48.92287 39.65981,-88.58268 88.58268,-88.58268 48.92286,0 88.58268,39.65981 88.58268,88.58268 z"
       id="path2975-8" />
    <path
       style="fill:none;stroke:#000000;stroke-width:1px;stroke-linecap:butt;stroke-linejoin:miter;stroke-opacity:1"
       d="M 88.582677,88.582627 797.24409,797.24404"
       id="path3011"
       transform="translate(0,166.53544)" />
    <path
       style="fill:none;stroke:#000000;stroke-width:1px;stroke-linecap:butt;stroke-linejoin:miter;stroke-opacity:1"
       d="M 797.24409,88.582627 88.582677,797.24404"
       id="path3013"
       transform="translate(0,166.53544)" />
    <g
       style="font-size:60px;font-style:normal;font-variant:normal;font-weight:bold;font-stretch:normal;fill:#000000;fill-opacity:1;stroke:none;font-family:Arial Black;-inkscape-font-specification:'Arial Black, Bold'"
       id="text3015">
      <path
         d="m 178.54231,300.75153 40.3418,0 0,10.60546 -13.53516,0 0,32.34375 -13.27148,0 0,-32.34375 -13.53516,0 0,-10.60546"
         style=""
         id="path3072" />
      <path
         d="m 255.03645,331.10309 -23.90625,0 c 0.21483,1.91407 0.73241,3.33985 1.55274,4.27734 1.15232,1.34767 2.65623,2.02149 4.51172,2.02149 1.17185,0 2.28513,-0.29297 3.33984,-0.87891 0.64451,-0.37109 1.33787,-1.02538 2.08008,-1.96289 l 11.74805,1.08398 c -1.79692,3.12501 -3.96488,5.3711 -6.50391,6.73829 -2.53909,1.34765 -6.18167,2.02148 -10.92774,2.02148 -4.12111,0 -7.36329,-0.57617 -9.72656,-1.72852 -2.36329,-1.17187 -4.32618,-3.01757 -5.88867,-5.53711 -1.54297,-2.53905 -2.31446,-5.51756 -2.31445,-8.93554 -10e-6,-4.86326 1.55273,-8.79881 4.6582,-11.80664 3.12499,-3.00779 7.43163,-4.51169 12.91992,-4.51172 4.4531,3e-5 7.96872,0.67386 10.54688,2.02148 2.57809,1.34769 4.54098,3.30081 5.88867,5.85938 1.34762,2.55861 2.02145,5.88869 2.02148,9.99023 l 0,1.34766 m -12.1289,-5.71289 c -0.2344,-2.30467 -0.8594,-3.95506 -1.875,-4.95117 -0.99612,-0.99607 -2.31448,-1.49412 -3.95508,-1.49414 -1.89455,2e-5 -3.40822,0.75197 -4.54102,2.25585 -0.72267,0.93753 -1.18165,2.33401 -1.37695,4.18946 l 11.74805,0"
         style=""
         id="path3074" />
      <path
         d="m 258.46419,335.08746 11.83594,-1.11328 c 0.48826,1.40626 1.17186,2.41212 2.05078,3.01758 0.87889,0.60548 2.05076,0.90821 3.51562,0.9082 1.60154,10e-6 2.84178,-0.34179 3.7207,-1.02539 0.68357,-0.5078 1.02537,-1.14257 1.0254,-1.90429 -3e-5,-0.85937 -0.44925,-1.52343 -1.34766,-1.99219 -0.64455,-0.33202 -2.35354,-0.74218 -5.12695,-1.23047 -4.14064,-0.72264 -7.0215,-1.38671 -8.64258,-1.99219 -1.60157,-0.62498 -2.95899,-1.6699 -4.07227,-3.13476 -1.09375,-1.46483 -1.64063,-3.13475 -1.64062,-5.00977 -1e-5,-2.05076 0.5957,-3.81833 1.78711,-5.30273 1.1914,-1.48435 2.83202,-2.58786 4.92187,-3.31055 2.08983,-0.74216 4.89257,-1.11325 8.4082,-1.11328 3.71092,3e-5 6.44529,0.28323 8.20313,0.84961 1.77732,0.56643 3.25192,1.44534 4.42383,2.63672 1.19137,1.19143 2.1777,2.80276 2.95898,4.83398 l -11.30859,1.11328 c -0.29299,-0.99607 -0.78127,-1.72849 -1.46485,-2.19726 -0.93752,-0.62498 -2.07033,-0.93748 -3.39843,-0.9375 -1.34768,2e-5 -2.334,0.24416 -2.95899,0.73242 -0.60548,0.46877 -0.90821,1.04494 -0.9082,1.72851 -1e-5,0.76175 0.39061,1.33792 1.17187,1.72852 0.78124,0.39065 2.48046,0.74221 5.09766,1.05469 3.96482,0.44924 6.91404,1.07424 8.84766,1.875 1.93356,0.8008 3.40817,1.94337 4.42383,3.42773 1.03512,1.48439 1.55269,3.11525 1.55273,4.89258 -4e-5,1.79688 -0.54691,3.54493 -1.64063,5.24414 -1.07425,1.69922 -2.78323,3.05664 -5.12695,4.07227 -2.32424,0.99609 -5.49807,1.49414 -9.52148,1.49414 -5.68361,0 -9.73634,-0.81055 -12.15821,-2.43164 -2.40234,-1.62109 -3.94531,-3.92578 -4.6289,-6.91407"
         style=""
         id="path3076" />
      <path
         d="m 311.63802,300.75153 0,11.83593 6.5625,0 0,8.70118 -6.5625,0 0,11.04492 c -2e-5,1.32813 0.12693,2.20704 0.38086,2.63672 0.3906,0.66407 1.07419,0.9961 2.05078,0.99609 0.87888,1e-5 2.10935,-0.2539 3.6914,-0.76172 l 0.87891,8.23242 c -2.94924,0.64453 -5.70315,0.9668 -8.26172,0.9668 -2.96876,0 -5.15626,-0.38086 -6.5625,-1.14258 -1.40626,-0.76172 -2.45118,-1.91406 -3.13477,-3.45703 -0.66406,-1.56249 -0.9961,-4.08202 -0.99609,-7.55859 l 0,-10.95703 -4.39453,0 0,-8.70118 4.39453,0 0,-5.71289 11.95313,-6.12304"
         style=""
         id="path3078" />
      <path
         d="m 344.6263,300.75153 22.06054,0 c 4.80466,4e-5 8.39841,1.14262 10.78125,3.42773 2.40231,2.28519 3.60348,5.53714 3.60352,9.75586 -4e-5,4.33596 -1.30863,7.72463 -3.92578,10.16602 -2.59769,2.44142 -6.5723,3.66212 -11.92383,3.6621 l -7.26562,0 0,15.9375 -13.33008,0 0,-42.94921 m 13.33008,18.31054 3.25195,0 c 2.55857,3e-5 4.35544,-0.43943 5.39062,-1.31836 1.03513,-0.89841 1.55271,-2.04098 1.55274,-3.42773 -3e-5,-1.34763 -0.44925,-2.4902 -1.34766,-3.42774 -0.89846,-0.93746 -2.58791,-1.40621 -5.06836,-1.40625 l -3.77929,0 0,9.58008"
         style=""
         id="path3080" />
      <path
         d="m 397.0677,322.66559 -11.39648,-1.20117 c 0.42968,-1.99217 1.04492,-3.55467 1.8457,-4.6875 0.82031,-1.15232 1.99218,-2.14841 3.51563,-2.98828 1.09374,-0.60544 2.59764,-1.07419 4.51172,-1.40625 1.91404,-0.332 3.98435,-0.49802 6.21093,-0.49805 3.5742,3e-5 6.44529,0.20511 8.61328,0.61523 2.16794,0.39066 3.97458,1.22074 5.41993,2.49024 1.01559,0.87893 1.81637,2.12893 2.40234,3.75 0.5859,1.60158 0.87887,3.13478 0.87891,4.59961 l 0,13.74023 c -4e-5,1.46485 0.0879,2.61719 0.26367,3.45703 0.19527,0.82032 0.60543,1.875 1.23047,3.16406 l -11.19141,0 c -0.44924,-0.80078 -0.74221,-1.40624 -0.87891,-1.8164 -0.13674,-0.42969 -0.27346,-1.09375 -0.41015,-1.99219 -1.56253,1.50391 -3.11526,2.57813 -4.6582,3.22266 -2.1094,0.85937 -4.56057,1.28906 -7.35352,1.28906 -3.71095,0 -6.53321,-0.85938 -8.4668,-2.57813 -1.91406,-1.71874 -2.87109,-3.83788 -2.87109,-6.35742 0,-2.36327 0.69336,-4.30663 2.08008,-5.83008 1.38671,-1.52342 3.9453,-2.65623 7.67578,-3.39843 4.47264,-0.89842 7.37303,-1.52342 8.70117,-1.875 1.3281,-0.37108 2.73435,-0.84959 4.21875,-1.43555 -2e-5,-1.46482 -0.30276,-2.49021 -0.9082,-3.07617 -0.6055,-0.58591 -1.66995,-0.87888 -3.19336,-0.87891 -1.95315,3e-5 -3.41799,0.31253 -4.39453,0.9375 -0.76174,0.48831 -1.37697,1.40627 -1.84571,2.75391 m 10.3418,6.26953 c -1.64065,0.58595 -3.34963,1.10353 -5.12695,1.55273 -2.4219,0.64455 -3.9551,1.27931 -4.59961,1.9043 -0.66408,0.64454 -0.99611,1.37696 -0.9961,2.19727 -1e-5,0.9375 0.32226,1.70899 0.9668,2.31445 0.66405,0.58594 1.63084,0.87891 2.90039,0.87891 1.32811,0 2.55857,-0.32226 3.69141,-0.9668 1.15232,-0.64452 1.96286,-1.42577 2.43164,-2.34375 0.48825,-0.93749 0.7324,-2.14843 0.73242,-3.63281 l 0,-1.9043"
         style=""
         id="path3082" />
      <path
         d="m 439.60677,300.75153 0,11.83593 6.5625,0 0,8.70118 -6.5625,0 0,11.04492 c -2e-5,1.32813 0.12693,2.20704 0.38086,2.63672 0.3906,0.66407 1.07419,0.9961 2.05078,0.99609 0.87888,1e-5 2.10935,-0.2539 3.6914,-0.76172 l 0.87891,8.23242 c -2.94924,0.64453 -5.70315,0.9668 -8.26172,0.9668 -2.96876,0 -5.15626,-0.38086 -6.5625,-1.14258 -1.40626,-0.76172 -2.45118,-1.91406 -3.13477,-3.45703 -0.66406,-1.56249 -0.9961,-4.08202 -0.99609,-7.55859 l 0,-10.95703 -4.39453,0 0,-8.70118 4.39453,0 0,-5.71289 11.95313,-6.12304"
         style=""
         id="path3084" />
      <path
         d="m 466.20833,300.75153 0,11.83593 6.5625,0 0,8.70118 -6.5625,0 0,11.04492 c -2e-5,1.32813 0.12693,2.20704 0.38086,2.63672 0.3906,0.66407 1.0742,0.9961 2.05078,0.99609 0.87888,1e-5 2.10935,-0.2539 3.69141,-0.76172 l 0.8789,8.23242 c -2.94924,0.64453 -5.70314,0.9668 -8.26172,0.9668 -2.96876,0 -5.15626,-0.38086 -6.5625,-1.14258 -1.40626,-0.76172 -2.45118,-1.91406 -3.13476,-3.45703 -0.66407,-1.56249 -0.9961,-4.08202 -0.9961,-7.55859 l 0,-10.95703 -4.39453,0 0,-8.70118 4.39453,0 0,-5.71289 11.95313,-6.12304"
         style=""
         id="path3086" />
      <path
         d="m 512.96614,331.10309 -23.90625,0 c 0.21483,1.91407 0.73241,3.33985 1.55274,4.27734 1.15232,1.34767 2.65623,2.02149 4.51171,2.02149 1.17186,0 2.28514,-0.29297 3.33985,-0.87891 0.6445,-0.37109 1.33786,-1.02538 2.08008,-1.96289 l 11.74804,1.08398 c -1.79691,3.12501 -3.96487,5.3711 -6.5039,6.73829 -2.53909,1.34765 -6.18167,2.02148 -10.92774,2.02148 -4.12111,0 -7.36329,-0.57617 -9.72656,-1.72852 -2.36329,-1.17187 -4.32618,-3.01757 -5.88867,-5.53711 -1.54297,-2.53905 -2.31446,-5.51756 -2.31446,-8.93554 0,-4.86326 1.55274,-8.79881 4.65821,-11.80664 3.12499,-3.00779 7.43162,-4.51169 12.91992,-4.51172 4.4531,3e-5 7.96872,0.67386 10.54687,2.02148 2.5781,1.34769 4.54099,3.30081 5.88868,5.85938 1.34762,2.55861 2.02144,5.88869 2.02148,9.99023 l 0,1.34766 m -12.12891,-5.71289 c -0.2344,-2.30467 -0.8594,-3.95506 -1.875,-4.95117 -0.99611,-0.99607 -2.31447,-1.49412 -3.95507,-1.49414 -1.89455,2e-5 -3.40822,0.75197 -4.54102,2.25585 -0.72267,0.93753 -1.18165,2.33401 -1.37695,4.18946 l 11.74804,0"
         style=""
         id="path3088" />
      <path
         d="m 518.62044,312.58746 11.16211,0 0,5.09766 c 1.0742,-2.207 2.17771,-3.72067 3.31054,-4.54102 1.15233,-0.83981 2.56834,-1.25973 4.24805,-1.25976 1.75779,3e-5 3.68162,0.5469 5.77149,1.64062 l -3.69141,8.4961 c -1.40627,-0.58592 -2.51955,-0.87889 -3.33984,-0.87891 -1.56252,2e-5 -2.77346,0.64455 -3.63282,1.93359 -1.23048,1.81643 -1.84572,5.21486 -1.8457,10.19532 l 0,10.42968 -11.98242,0 0,-31.11328"
         style=""
         id="path3090" />
      <path
         d="m 548.15169,312.58746 11.10351,0 0,5.06836 c 1.66014,-2.07028 3.33983,-3.54489 5.03907,-4.42383 1.69919,-0.8984 3.7695,-1.34762 6.21093,-1.34765 3.30076,3e-5 5.87888,0.98636 7.73438,2.95898 1.87496,1.95315 2.81246,4.9805 2.8125,9.08203 l 0,19.77539 -11.98242,0 0,-17.10937 c -3e-5,-1.95311 -0.36136,-3.33006 -1.08399,-4.13086 -0.72268,-0.82029 -1.7383,-1.23045 -3.04687,-1.23047 -1.44533,2e-5 -2.61721,0.5469 -3.51563,1.64063 -0.89845,1.09377 -1.34767,3.05665 -1.34765,5.88867 l 0,14.9414 -11.92383,0 0,-31.11328"
         style=""
         id="path3092" />
      <path
         d="m 604.72395,312.58746 12.42188,0 6.03515,19.7168 6.24024,-19.7168 12.04101,0 -13.21289,31.11328 -10.57617,0 -12.94922,-31.11328"
         style=""
         id="path3094" />
      <path
         d="m 643.80598,322.05035 c 0,-8.16403 1.46484,-13.87691 4.39454,-17.13867 2.9492,-3.26167 7.43162,-4.89253 13.44726,-4.89258 2.8906,5e-5 5.26365,0.36138 7.11914,1.08399 1.85544,0.70317 3.36911,1.6309 4.54102,2.7832 1.17184,1.13285 2.08981,2.33402 2.7539,3.60352 0.68356,1.25003 1.23044,2.71487 1.64063,4.39453 0.80074,3.20315 1.20113,6.54299 1.20117,10.01953 -4e-5,7.79298 -1.31839,13.4961 -3.95508,17.10937 -2.63675,3.61329 -7.17776,5.41993 -13.62304,5.41993 -3.6133,0 -6.53322,-0.57618 -8.75977,-1.72852 -2.22657,-1.15234 -4.05274,-2.84179 -5.47852,-5.06836 -1.03516,-1.58202 -1.8457,-3.74022 -2.43164,-6.47461 -0.56641,-2.75389 -0.84961,-5.791 -0.84961,-9.11133 m 11.83594,0.0293 c -10e-6,5.46877 0.4785,9.209 1.43555,11.2207 0.97654,1.9922 2.38279,2.98829 4.21875,2.98829 1.21092,0 2.25584,-0.41992 3.13476,-1.25977 0.89842,-0.85937 1.55271,-2.20702 1.9629,-4.04297 0.42966,-1.83592 0.6445,-4.69725 0.64453,-8.58398 -3e-5,-5.7031 -0.48831,-9.53122 -1.46485,-11.48438 -0.95705,-1.97262 -2.40236,-2.95895 -4.33593,-2.95898 -1.97268,3e-5 -3.39846,1.00589 -4.27735,3.01758 -0.87892,1.99221 -1.31837,5.69338 -1.31836,11.10351"
         style=""
         id="path3096" />
      <path
         d="m 685.05598,331.74762 12.74415,0 0,11.95312 -12.74415,0 0,-11.95312"
         style=""
         id="path3098" />
      <path
         d="m 730.96419,300.0191 0,43.68164 -12.07031,0 0,-28.62304 c -1.95315,1.4844 -3.84767,2.68557 -5.6836,3.60351 -1.81641,0.918 -4.10157,1.7969 -6.85547,2.63672 l 0,-9.78515 c 4.06249,-1.30856 7.21679,-2.88083 9.46289,-4.7168 2.24608,-1.8359 4.00389,-4.10152 5.27344,-6.79688 l 9.87305,0"
         style=""
         id="path3100" />
    </g>
    <g
       style="font-size:30px;font-style:normal;font-variant:normal;font-weight:bold;font-stretch:normal;fill:#000000;fill-opacity:1;stroke:none;font-family:Arial Black;-inkscape-font-specification:'Arial Black, Bold'"
       id="text3015-1">
      <path
         d="m 177.85384,410.80881 20.17089,0 0,5.30273 -6.76757,0 0,16.17188 -6.63575,0 0,-16.17188 -6.76757,0 0,-5.30273"
         style=""
         id="path3103" />
      <path
         d="m 216.10091,425.98459 -11.95313,0 c 0.10742,0.95704 0.3662,1.66993 0.77637,2.13867 0.57616,0.67383 1.32811,1.01075 2.25586,1.01074 0.58592,10e-6 1.14256,-0.14648 1.66992,-0.43945 0.32225,-0.18554 0.66893,-0.51269 1.04004,-0.98145 l 5.87402,0.542 c -0.89845,1.5625 -1.98244,2.68554 -3.25195,3.36914 -1.26955,0.67383 -3.09083,1.01074 -5.46387,1.01074 -2.06055,0 -3.68164,-0.28809 -4.86328,-0.86426 -1.18164,-0.58593 -2.16309,-1.50879 -2.94434,-2.76855 -0.77148,-1.26953 -1.15722,-2.75879 -1.15722,-4.46778 0,-2.43163 0.77636,-4.3994 2.3291,-5.90332 1.56249,-1.50389 3.71581,-2.25584 6.45996,-2.25586 2.22655,2e-5 3.98436,0.33693 5.27344,1.01075 1.28904,0.67384 2.27049,1.6504 2.94433,2.92968 0.67381,1.27931 1.01073,2.94435 1.01075,4.99512 l 0,0.67383 m -6.06446,-2.85645 c -0.1172,-1.15233 -0.4297,-1.97752 -0.9375,-2.47558 -0.49806,-0.49804 -1.15723,-0.74706 -1.97754,-0.74707 -0.94727,1e-5 -1.70411,0.37599 -2.2705,1.12793 -0.36134,0.46876 -0.59083,1.167 -0.68848,2.09472 l 5.87402,0"
         style=""
         id="path3105" />
      <path
         d="m 217.81477,427.97678 5.91797,-0.55664 c 0.24414,0.70312 0.58593,1.20605 1.02539,1.50878 0.43945,0.30274 1.02538,0.45411 1.75782,0.45411 0.80077,0 1.42088,-0.1709 1.86035,-0.5127 0.34178,-0.2539 0.51268,-0.57128 0.51269,-0.95215 -1e-5,-0.42968 -0.22462,-0.76171 -0.67383,-0.99609 -0.32227,-0.16601 -1.17676,-0.37109 -2.56347,-0.61524 -2.07032,-0.36132 -3.51075,-0.69335 -4.32129,-0.99609 -0.80079,-0.31249 -1.4795,-0.83495 -2.03613,-1.56738 -0.54688,-0.73241 -0.82032,-1.56738 -0.82032,-2.50489 0,-1.02537 0.29785,-1.90916 0.89356,-2.65136 0.5957,-0.74218 1.41601,-1.29393 2.46094,-1.65528 1.04491,-0.37107 2.44628,-0.55662 4.2041,-0.55664 1.85545,2e-5 3.22264,0.14162 4.10156,0.42481 0.88866,0.28322 1.62596,0.72267 2.21191,1.31836 0.59569,0.59571 1.08885,1.40138 1.4795,2.41699 l -5.6543,0.55664 c -0.1465,-0.49803 -0.39064,-0.86425 -0.73242,-1.09863 -0.46876,-0.31249 -1.03517,-0.46874 -1.69922,-0.46875 -0.67384,10e-6 -1.167,0.12208 -1.47949,0.36621 -0.30275,0.23439 -0.45411,0.52247 -0.45411,0.86426 0,0.38087 0.19531,0.66895 0.58594,0.86425 0.39062,0.19533 1.24023,0.37111 2.54883,0.52735 1.98241,0.22462 3.45702,0.53712 4.42383,0.9375 0.96678,0.4004 1.70408,0.97169 2.21191,1.71387 0.51756,0.74219 0.77635,1.55762 0.77637,2.44628 -2e-5,0.89845 -0.27346,1.77247 -0.82031,2.62207 -0.53713,0.84962 -1.39162,1.52833 -2.56348,2.03614 -1.16212,0.49804 -2.74903,0.74707 -4.76074,0.74707 -2.8418,0 -4.86817,-0.40528 -6.0791,-1.21582 -1.20118,-0.81055 -1.97266,-1.96289 -2.31446,-3.45703"
         style=""
         id="path3107" />
      <path
         d="m 244.40169,410.80881 0,5.91797 3.28125,0 0,4.35058 -3.28125,0 0,5.52246 c -1e-5,0.66407 0.0635,1.10352 0.19043,1.31836 0.1953,0.33204 0.5371,0.49805 1.02539,0.49805 0.43944,0 1.05467,-0.12695 1.8457,-0.38086 l 0.43945,4.11621 c -1.47462,0.32227 -2.85157,0.4834 -4.13086,0.4834 -1.48438,0 -2.57813,-0.19043 -3.28125,-0.57129 -0.70312,-0.38086 -1.22558,-0.95703 -1.56738,-1.72852 -0.33203,-0.78124 -0.49805,-2.04101 -0.49804,-3.77929 l 0,-5.47852 -2.19727,0 0,-4.35058 2.19727,0 0,-2.85645 5.97656,-3.06152"
         style=""
         id="path3109" />
      <path
         d="m 260.89583,410.80881 11.03027,0 c 2.40233,2e-5 4.1992,0.57131 5.39063,1.71386 1.20115,1.1426 1.80173,2.76858 1.80175,4.87793 -2e-5,2.16799 -0.65431,3.86232 -1.96289,5.08301 -1.29884,1.22071 -3.28614,1.83106 -5.96191,1.83106 l -3.63281,0 0,7.96875 -6.66504,0 0,-21.47461 m 6.66504,9.15527 1.62597,0 c 1.27929,10e-6 2.17773,-0.21971 2.69532,-0.65918 0.51756,-0.4492 0.77635,-1.02049 0.77636,-1.71387 -1e-5,-0.67381 -0.22462,-1.2451 -0.67382,-1.71386 -0.44924,-0.46874 -1.29396,-0.70311 -2.53418,-0.70313 l -1.88965,0 0,4.79004"
         style=""
         id="path3111" />
      <path
         d="m 287.11653,421.76584 -5.69824,-0.60059 c 0.21484,-0.99608 0.52246,-1.77733 0.92285,-2.34375 0.41015,-0.57616 0.99609,-1.0742 1.75781,-1.49414 0.54687,-0.30272 1.29883,-0.53709 2.25586,-0.70312 0.95703,-0.166 1.99218,-0.24901 3.10547,-0.24903 1.7871,2e-5 3.22264,0.10256 4.30664,0.30762 1.08397,0.19533 1.98729,0.61037 2.70996,1.24512 0.5078,0.43947 0.90819,1.06446 1.20117,1.875 0.29296,0.80079 0.43944,1.56739 0.43946,2.2998 l 0,6.87012 c -2e-5,0.73242 0.0439,1.3086 0.13183,1.72852 0.0976,0.41015 0.30272,0.9375 0.61524,1.58203 l -5.5957,0 c -0.22463,-0.40039 -0.37111,-0.70313 -0.43946,-0.90821 -0.0684,-0.21484 -0.13673,-0.54687 -0.20508,-0.99609 -0.78126,0.75195 -1.55762,1.28906 -2.3291,1.61133 -1.05469,0.42969 -2.28028,0.64453 -3.67676,0.64453 -1.85547,0 -3.2666,-0.42969 -4.23339,-1.28906 -0.95704,-0.85938 -1.43555,-1.91895 -1.43555,-3.17871 0,-1.18164 0.34668,-2.15332 1.04004,-2.91504 0.69335,-0.76171 1.97265,-1.32812 3.83789,-1.69922 2.23632,-0.44921 3.68651,-0.76171 4.35058,-0.9375 0.66406,-0.18554 1.36718,-0.4248 2.10938,-0.71778 -10e-6,-0.73241 -0.15138,-1.2451 -0.4541,-1.53808 -0.30275,-0.29296 -0.83497,-0.43944 -1.59668,-0.43945 -0.97657,10e-6 -1.70899,0.15626 -2.19727,0.46875 -0.38086,0.24415 -0.68848,0.70313 -0.92285,1.37695 m 5.1709,3.13476 c -0.82032,0.29298 -1.67482,0.55177 -2.56348,0.77637 -1.21094,0.32227 -1.97754,0.63966 -2.2998,0.95215 -0.33204,0.32227 -0.49806,0.68848 -0.49805,1.09863 -1e-5,0.46876 0.16113,0.8545 0.4834,1.15723 0.33202,0.29297 0.81542,0.43946 1.4502,0.43945 0.66405,10e-6 1.27928,-0.16113 1.8457,-0.4834 0.57616,-0.32226 0.98143,-0.71288 1.21582,-1.17187 0.24413,-0.46875 0.3662,-1.07421 0.36621,-1.81641 l 0,-0.95215"
         style=""
         id="path3113" />
      <path
         d="m 308.38606,410.80881 0,5.91797 3.28125,0 0,4.35058 -3.28125,0 0,5.52246 c -10e-6,0.66407 0.0635,1.10352 0.19043,1.31836 0.19531,0.33204 0.5371,0.49805 1.02539,0.49805 0.43945,0 1.05468,-0.12695 1.84571,-0.38086 l 0.43945,4.11621 c -1.47462,0.32227 -2.85157,0.4834 -4.13086,0.4834 -1.48438,0 -2.57813,-0.19043 -3.28125,-0.57129 -0.70313,-0.38086 -1.22559,-0.95703 -1.56738,-1.72852 -0.33204,-0.78124 -0.49805,-2.04101 -0.49805,-3.77929 l 0,-5.47852 -2.19727,0 0,-4.35058 2.19727,0 0,-2.85645 5.97656,-3.06152"
         style=""
         id="path3115" />
      <path
         d="m 321.68684,410.80881 0,5.91797 3.28125,0 0,4.35058 -3.28125,0 0,5.52246 c -1e-5,0.66407 0.0635,1.10352 0.19043,1.31836 0.19531,0.33204 0.5371,0.49805 1.02539,0.49805 0.43945,0 1.05468,-0.12695 1.84571,-0.38086 l 0.43945,4.11621 c -1.47462,0.32227 -2.85157,0.4834 -4.13086,0.4834 -1.48438,0 -2.57813,-0.19043 -3.28125,-0.57129 -0.70313,-0.38086 -1.22559,-0.95703 -1.56738,-1.72852 -0.33204,-0.78124 -0.49805,-2.04101 -0.49805,-3.77929 l 0,-5.47852 -2.19726,0 0,-4.35058 2.19726,0 0,-2.85645 5.97656,-3.06152"
         style=""
         id="path3117" />
      <path
         d="m 345.06575,425.98459 -11.95312,0 c 0.10741,0.95704 0.3662,1.66993 0.77636,2.13867 0.57617,0.67383 1.32812,1.01075 2.25586,1.01074 0.58593,10e-6 1.14257,-0.14648 1.66992,-0.43945 0.32226,-0.18554 0.66894,-0.51269 1.04004,-0.98145 l 5.87403,0.542 c -0.89846,1.5625 -1.98244,2.68554 -3.25196,3.36914 -1.26954,0.67383 -3.09083,1.01074 -5.46386,1.01074 -2.06056,0 -3.68165,-0.28809 -4.86329,-0.86426 -1.18164,-0.58593 -2.16308,-1.50879 -2.94433,-2.76855 -0.77149,-1.26953 -1.15723,-2.75879 -1.15723,-4.46778 0,-2.43163 0.77637,-4.3994 2.3291,-5.90332 1.5625,-1.50389 3.71582,-2.25584 6.45996,-2.25586 2.22655,2e-5 3.98437,0.33693 5.27344,1.01075 1.28905,0.67384 2.27049,1.6504 2.94434,2.92968 0.67381,1.27931 1.01072,2.94435 1.01074,4.99512 l 0,0.67383 m -6.06445,-2.85645 c -0.1172,-1.15233 -0.4297,-1.97752 -0.9375,-2.47558 -0.49806,-0.49804 -1.15724,-0.74706 -1.97754,-0.74707 -0.94728,1e-5 -1.70411,0.37599 -2.27051,1.12793 -0.36134,0.46876 -0.59083,1.167 -0.68848,2.09472 l 5.87403,0"
         style=""
         id="path3119" />
      <path
         d="m 347.8929,416.72678 5.58105,0 0,2.54882 c 0.5371,-1.1035 1.08886,-1.86033 1.65528,-2.2705 0.57616,-0.41991 1.28417,-0.62987 2.12402,-0.62989 0.87889,2e-5 1.84081,0.27346 2.88574,0.82032 l -1.8457,4.24804 c -0.70314,-0.29295 -1.25978,-0.43944 -1.66992,-0.43945 -0.78126,10e-6 -1.38673,0.32228 -1.81641,0.9668 -0.61524,0.90821 -0.92286,2.60743 -0.92285,5.09765 l 0,5.21485 -5.99121,0 0,-15.55664"
         style=""
         id="path3121" />
      <path
         d="m 362.65852,416.72678 5.55176,0 0,2.53418 c 0.83007,-1.03515 1.66991,-1.77245 2.51953,-2.21192 0.8496,-0.4492 1.88476,-0.67381 3.10547,-0.67383 1.65038,2e-5 2.93944,0.49318 3.86719,1.4795 0.93748,0.97657 1.40623,2.49024 1.40625,4.54101 l 0,9.8877 -5.99121,0 0,-8.55469 c -10e-6,-0.97655 -0.18068,-1.66503 -0.54199,-2.06543 -0.36134,-0.41015 -0.86916,-0.61522 -1.52344,-0.61523 -0.72267,1e-5 -1.3086,0.27344 -1.75781,0.82031 -0.44923,0.54688 -0.67384,1.52833 -0.67383,2.94433 l 0,7.47071 -5.96192,0 0,-15.55664"
         style=""
         id="path3123" />
      <path
         d="m 390.94466,416.72678 6.21093,0 3.01758,9.85839 3.12012,-9.85839 6.02051,0 -6.60645,15.55664 -5.28808,0 -6.47461,-15.55664"
         style=""
         id="path3125" />
      <path
         d="m 410.48567,421.45822 c 0,-4.08201 0.73242,-6.93846 2.19727,-8.56933 1.4746,-1.63084 3.71581,-2.44627 6.72363,-2.44629 1.4453,2e-5 2.63182,0.18068 3.55957,0.54199 0.92772,0.35158 1.68456,0.81545 2.27051,1.3916 0.58592,0.56643 1.0449,1.16701 1.37695,1.80176 0.34178,0.62502 0.61522,1.35744 0.82031,2.19726 0.40038,1.60158 0.60057,3.2715 0.60059,5.00977 -2e-5,3.89649 -0.6592,6.74805 -1.97754,8.55469 -1.31837,1.80664 -3.58888,2.70996 -6.81152,2.70996 -1.80665,0 -3.26661,-0.28809 -4.37989,-0.86426 -1.11328,-0.57617 -2.02637,-1.4209 -2.73925,-2.53418 -0.51758,-0.79101 -0.92286,-1.87011 -1.21582,-3.2373 -0.28321,-1.37695 -0.42481,-2.8955 -0.42481,-4.55567 m 5.91797,0.0147 c -10e-6,2.73438 0.23925,4.6045 0.71777,5.61035 0.48828,0.9961 1.1914,1.49415 2.10938,1.49414 0.60546,10e-6 1.12792,-0.20995 1.56738,-0.62988 0.44921,-0.42968 0.77636,-1.10351 0.98145,-2.02149 0.21483,-0.91796 0.32225,-2.34862 0.32226,-4.29199 -10e-6,-2.85155 -0.24415,-4.76561 -0.73242,-5.74218 -0.47853,-0.98632 -1.20118,-1.47948 -2.16797,-1.4795 -0.98633,2e-5 -1.69922,0.50295 -2.13867,1.50879 -0.43946,0.99611 -0.65919,2.8467 -0.65918,5.55176"
         style=""
         id="path3127" />
      <path
         d="m 431.11067,426.30685 6.37207,0 0,5.97657 -6.37207,0 0,-5.97657"
         style=""
         id="path3129" />
      <path
         d="m 454.06477,410.4426 0,21.84082 -6.03515,0 0,-14.31153 c -0.97657,0.7422 -1.92384,1.34279 -2.8418,1.80176 -0.90821,0.459 -2.05078,0.89845 -3.42773,1.31836 l 0,-4.89258 c 2.03124,-0.65428 3.60839,-1.44041 4.73144,-2.3584 1.12304,-0.91795 2.00195,-2.05076 2.63672,-3.39843 l 4.93652,0"
         style=""
         id="path3131" />
    </g>
    <path
       transform="translate(0,166.53544)"
       style="fill:none;stroke:#000000;stroke-width:1;stroke-miterlimit:4;stroke-opacity:1"
       d="m 283.46457,460.62988 53.1496,0 0,53.14961 -53.1496,0 0,-53.14961 z"
       id="rect3227" />
    <path
       transform="translate(0,166.53544)"
       style="fill:none;stroke:#000000;stroke-width:1;stroke-miterlimit:4;stroke-opacity:1"
       d="m 301.18109,478.34641 17.71654,0 0,17.71653 -17.71654,0 0,-17.71653 z"
       id="rect3229" />
    <path
       transform="translate(0,166.53544)"
       style="fill:none;stroke:#000000;stroke-width:1;stroke-miterlimit:4;stroke-opacity:1"
       d="m 272.83466,627.16528 74.40944,0 0,74.40945 -74.40944,0 0,-74.40945 z"
       id="rect3231" />
    <path
       transform="translate(0,166.53544)"
       style="fill:none;stroke:#000000;stroke-width:1;stroke-miterlimit:4;stroke-opacity:1"
       d="m 279.92126,634.25189 60.23623,0 0,60.23622 -60.23623,0 0,-60.23622 z"
       id="rect3233" />
    <path
       transform="translate(0,166.53544)"
       style="fill:none;stroke:#000000;stroke-width:1;stroke-miterlimit:4;stroke-opacity:1"
       d="m 287.00787,641.33856 46.063,0 0,46.06296 -46.063,0 0,-46.06296 z"
       id="rect3235" />
    <path
       transform="translate(0,166.53544)"
       style="fill:none;stroke:#000000;stroke-width:1;stroke-miterlimit:4;stroke-opacity:1"
       d="m 294.09448,648.42517 31.88977,0 0,31.88976 -31.88977,0 0,-31.88976 z"
       id="rect3237" />
    <path
       transform="translate(0,166.53544)"
       style="fill:none;stroke:#000000;stroke-width:1;stroke-miterlimit:4;stroke-opacity:1"
       d="m 301.18109,655.51178 17.71654,0 0,17.71654 -17.71654,0 0,-17.71654 z"
       id="rect3239" />
    <path
       transform="translate(0,166.53544)"
       style="fill:none;stroke:#000000;stroke-width:1;stroke-miterlimit:4;stroke-opacity:1"
       d="m 308.26773,662.59839 3.54331,0 0,3.54331 -3.54331,0 0,-3.54331 z"
       id="rect3241" />
    <path
       style="fill:none;stroke:#000000;stroke-width:1;stroke-miterlimit:4;stroke-opacity:1"
       d="m 424.56732,830.90549 62.63741,-62.63741 62.63741,62.63741 -62.63741,62.63741 -62.63741,-62.63741 z"
       id="rect2822-7-3" />
    <path
       transform="matrix(0.70710678,-0.70710678,0.70710678,0.70710678,0,0)"
       style="fill:none;stroke:#000000;stroke-width:1;stroke-miterlimit:4;stroke-opacity:1"
       d="m -280.23782,894.83984 74.40944,0 0,74.40945 -74.40944,0 0,-74.40945 z"
       id="rect3231-6" />
    <path
       transform="matrix(0.70710678,-0.70710678,0.70710678,0.70710678,0,0)"
       style="fill:none;stroke:#000000;stroke-width:1;stroke-miterlimit:4;stroke-opacity:1"
       d="m -273.15121,901.92645 60.23622,0 0,60.23622 -60.23622,0 0,-60.23622 z"
       id="rect3233-8" />
    <path
       transform="matrix(0.70710678,-0.70710678,0.70710678,0.70710678,0,0)"
       style="fill:none;stroke:#000000;stroke-width:1;stroke-miterlimit:4;stroke-opacity:1"
       d="m -266.06461,909.01312 46.063,0 0,46.06296 -46.063,0 0,-46.06296 z"
       id="rect3235-1" />
    <path
       transform="matrix(0.70710678,-0.70710678,0.70710678,0.70710678,0,0)"
       style="fill:none;stroke:#000000;stroke-width:1;stroke-miterlimit:4;stroke-opacity:1"
       d="m -258.978,916.09973 31.88977,0 0,31.88976 -31.88977,0 0,-31.88976 z"
       id="rect3237-4" />
    <path
       transform="matrix(0.70710678,-0.70710678,0.70710678,0.70710678,0,0)"
       style="fill:none;stroke:#000000;stroke-width:1;stroke-miterlimit:4;stroke-opacity:1"
       d="m -251.8914,923.18634 17.71653,0 0,17.71654 -17.71653,0 0,-17.71654 z"
       id="rect3239-3" />
    <path
       transform="matrix(0.70710678,-0.70710678,0.70710678,0.70710678,0,0)"
       style="fill:none;stroke:#000000;stroke-width:1;stroke-miterlimit:4;stroke-opacity:1"
       d="m -244.80476,930.27295 3.5433,0 0,3.54331 -3.5433,0 0,-3.54331 z"
       id="rect3241-4" />
  </g>
</svg>
