  0
SECTION
  2
BLOCKS
  0
ENDSEC
  0
SECTION
  2
ENTITIES
  0
LINE
  8
0
 10
-9.125
 11
-9.072
 20
3
 21
3.987
  0
LINE
  8
0
 10
-9.072
 11
-8.912
 20
3.987
 21
4.962
  0
LINE
  8
0
 10
-8.912
 11
-8.647
 20
4.962
 21
5.914
  0
LINE
  8
0
 10
-8.647
 11
-8.282
 20
5.914
 21
6.831
  0
LINE
  8
0
 10
-8.282
 11
-7.819
 20
6.831
 21
7.704
  0
LINE
  8
0
 10
-7.819
 11
-7.264
 20
7.704
 21
8.522
  0
LINE
  8
0
 10
-7.264
 11
-6.625
 20
8.522
 21
9.275
  0
LINE
  8
0
 10
-6.625
 11
-5.907
 20
9.275
 21
9.955
  0
LINE
  8
0
 10
-5.907
 11
-5.121
 20
9.955
 21
10.553
  0
LINE
  8
0
 10
-5.121
 11
-4.274
 20
10.553
 21
11.062
  0
LINE
  8
0
 10
-4.274
 11
-3.378
 20
11.062
 21
11.477
  0
LINE
  8
0
 10
-3.378
 11
-2.441
 20
11.477
 21
11.792
  0
LINE
  8
0
 10
-2.441
 11
-1.476
 20
11.792
 21
12.005
  0
LINE
  8
0
 10
-1.476
 11
-0.494
 20
12.005
 21
12.112
  0
LINE
  8
0
 10
-0.494
 11
0.494
 20
12.112
 21
12.112
  0
LINE
  8
0
 10
0.494
 11
1.476
 20
12.112
 21
12.005
  0
LINE
  8
0
 10
1.476
 11
2.441
 20
12.005
 21
11.792
  0
LINE
  8
0
 10
2.441
 11
3.378
 20
11.792
 21
11.477
  0
LINE
  8
0
 10
3.378
 11
4.274
 20
11.477
 21
11.062
  0
LINE
  8
0
 10
4.274
 11
5.121
 20
11.062
 21
10.553
  0
LINE
  8
0
 10
5.121
 11
5.907
 20
10.553
 21
9.955
  0
LINE
  8
0
 10
5.907
 11
6.625
 20
9.955
 21
9.275
  0
LINE
  8
0
 10
6.625
 11
7.264
 20
9.275
 21
8.522
  0
LINE
  8
0
 10
7.264
 11
7.819
 20
8.522
 21
7.704
  0
LINE
  8
0
 10
7.819
 11
8.282
 20
7.704
 21
6.831
  0
LINE
  8
0
 10
8.282
 11
8.647
 20
6.831
 21
5.914
  0
LINE
  8
0
 10
8.647
 11
8.912
 20
5.914
 21
4.962
  0
LINE
  8
0
 10
8.912
 11
9.072
 20
4.962
 21
3.987
  0
LINE
  8
0
 10
9.072
 11
9.125
 20
3.987
 21
3
  0
LINE
  8
0
 10
9.125
 11
9.072
 20
3
 21
2.013
  0
LINE
  8
0
 10
9.072
 11
8.912
 20
2.013
 21
1.038
  0
LINE
  8
0
 10
8.912
 11
8.647
 20
1.038
 21
0.086
  0
LINE
  8
0
 10
8.647
 11
8.282
 20
0.086
 21
-0.831
  0
LINE
  8
0
 10
8.282
 11
7.819
 20
-0.831
 21
-1.704
  0
LINE
  8
0
 10
7.819
 11
7.264
 20
-1.704
 21
-2.522
  0
LINE
  8
0
 10
7.264
 11
6.625
 20
-2.522
 21
-3.275
  0
LINE
  8
0
 10
6.625
 11
5.907
 20
-3.275
 21
-3.955
  0
LINE
  8
0
 10
5.907
 11
5.121
 20
-3.955
 21
-4.553
  0
LINE
  8
0
 10
5.121
 11
4.274
 20
-4.553
 21
-5.062
  0
LINE
  8
0
 10
4.274
 11
3.378
 20
-5.062
 21
-5.477
  0
LINE
  8
0
 10
3.378
 11
2.441
 20
-5.477
 21
-5.792
  0
LINE
  8
0
 10
2.441
 11
1.476
 20
-5.792
 21
-6.005
  0
LINE
  8
0
 10
1.476
 11
0.494
 20
-6.005
 21
-6.112
  0
LINE
  8
0
 10
0.494
 11
-0.494
 20
-6.112
 21
-6.112
  0
LINE
  8
0
 10
-0.494
 11
-1.476
 20
-6.112
 21
-6.005
  0
LINE
  8
0
 10
-1.476
 11
-2.441
 20
-6.005
 21
-5.792
  0
LINE
  8
0
 10
-2.441
 11
-3.378
 20
-5.792
 21
-5.477
  0
LINE
  8
0
 10
-3.378
 11
-4.274
 20
-5.477
 21
-5.062
  0
LINE
  8
0
 10
-4.274
 11
-5.121
 20
-5.062
 21
-4.553
  0
LINE
  8
0
 10
-5.121
 11
-5.907
 20
-4.553
 21
-3.955
  0
LINE
  8
0
 10
-5.907
 11
-6.625
 20
-3.955
 21
-3.275
  0
LINE
  8
0
 10
-6.625
 11
-7.264
 20
-3.275
 21
-2.522
  0
LINE
  8
0
 10
-7.264
 11
-7.819
 20
-2.522
 21
-1.704
  0
LINE
  8
0
 10
-7.819
 11
-8.282
 20
-1.704
 21
-0.831
  0
LINE
  8
0
 10
-8.282
 11
-8.647
 20
-0.831
 21
0.086
  0
LINE
  8
0
 10
-8.647
 11
-8.912
 20
0.086
 21
1.038
  0
LINE
  8
0
 10
-8.912
 11
-9.072
 20
1.038
 21
2.013
  0
LINE
  8
0
 10
-9.072
 11
-9.125
 20
2.013
 21
3
  0
LINE
  8
0
 10
-2.4
 11
-2.217
 20
0
 21
0.918
  0
LINE
  8
0
 10
-2.217
 11
-1.697
 20
0.918
 21
1.697
  0
LINE
  8
0
 10
-1.697
 11
-0.918
 20
1.697
 21
2.217
  0
LINE
  8
0
 10
-0.918
 11
0
 20
2.217
 21
2.4
  0
LINE
  8
0
 10
0
 11
0.918
 20
2.4
 21
2.217
  0
LINE
  8
0
 10
0.918
 11
1.697
 20
2.217
 21
1.697
  0
LINE
  8
0
 10
1.697
 11
2.217
 20
1.697
 21
0.918
  0
LINE
  8
0
 10
2.217
 11
2.4
 20
0.918
 21
0
  0
LINE
  8
0
 10
2.4
 11
2.217
 20
0
 21
-0.918
  0
LINE
  8
0
 10
2.217
 11
1.697
 20
-0.918
 21
-1.697
  0
LINE
  8
0
 10
1.697
 11
0.918
 20
-1.697
 21
-2.217
  0
LINE
  8
0
 10
0.918
 11
0
 20
-2.217
 21
-2.4
  0
LINE
  8
0
 10
0
 11
-0.918
 20
-2.4
 21
-2.217
  0
LINE
  8
0
 10
-0.918
 11
-1.697
 20
-2.217
 21
-1.697
  0
LINE
  8
0
 10
-1.697
 11
-2.217
 20
-1.697
 21
-0.918
  0
LINE
  8
0
 10
-2.217
 11
-2.4
 20
-0.918
 21
0
  0
ENDSEC
  0
SECTION
  2
OBJECTS
  0
DICTIONARY
  0
ENDSEC
  0
EOF
