  0
SECTION
  2
BLOCKS
  0
ENDSEC
  0
SECTION
  2
ENTITIES
  0
LINE
  8
0
 10
-60
 11
-59.943
 20
0
 21
2.617
  0
LINE
  8
0
 10
-59.943
 11
-59.772
 20
2.617
 21
5.229
  0
LINE
  8
0
 10
-59.772
 11
-59.487
 20
5.229
 21
7.832
  0
LINE
  8
0
 10
-59.487
 11
-59.088
 20
7.832
 21
10.419
  0
LINE
  8
0
 10
-59.088
 11
-58.578
 20
10.419
 21
12.986
  0
LINE
  8
0
 10
-58.578
 11
-57.956
 20
12.986
 21
15.529
  0
LINE
  8
0
 10
-57.956
 11
-57.223
 20
15.529
 21
18.042
  0
LINE
  8
0
 10
-57.223
 11
-56.382
 20
18.042
 21
20.521
  0
LINE
  8
0
 10
-56.382
 11
-55.433
 20
20.521
 21
22.961
  0
LINE
  8
0
 10
-55.433
 11
-54.378
 20
22.961
 21
25.357
  0
LINE
  8
0
 10
-54.378
 11
-53.221
 20
25.357
 21
27.705
  0
LINE
  8
0
 10
-53.221
 11
-51.962
 20
27.705
 21
30
  0
LINE
  8
0
 10
-51.962
 11
-50.603
 20
30
 21
32.238
  0
LINE
  8
0
 10
-50.603
 11
-49.149
 20
32.238
 21
34.415
  0
LINE
  8
0
 10
-49.149
 11
-47.601
 20
34.415
 21
36.526
  0
LINE
  8
0
 10
-47.601
 11
-45.963
 20
36.526
 21
38.567
  0
LINE
  8
0
 10
-45.963
 11
-44.237
 20
38.567
 21
40.535
  0
LINE
  8
0
 10
-44.237
 11
-42.426
 20
40.535
 21
42.426
  0
LINE
  8
0
 10
-42.426
 11
-40.535
 20
42.426
 21
44.237
  0
LINE
  8
0
 10
-40.535
 11
-38.567
 20
44.237
 21
45.963
  0
LINE
  8
0
 10
-38.567
 11
-36.526
 20
45.963
 21
47.601
  0
LINE
  8
0
 10
-36.526
 11
-34.415
 20
47.601
 21
49.149
  0
LINE
  8
0
 10
-34.415
 11
-32.238
 20
49.149
 21
50.603
  0
LINE
  8
0
 10
-32.238
 11
-30
 20
50.603
 21
51.962
  0
LINE
  8
0
 10
-30
 11
-27.705
 20
51.962
 21
53.221
  0
LINE
  8
0
 10
-27.705
 11
-25.357
 20
53.221
 21
54.378
  0
LINE
  8
0
 10
-25.357
 11
-22.961
 20
54.378
 21
55.433
  0
LINE
  8
0
 10
-22.961
 11
-20.521
 20
55.433
 21
56.382
  0
LINE
  8
0
 10
-20.521
 11
-18.042
 20
56.382
 21
57.223
  0
LINE
  8
0
 10
-18.042
 11
-15.529
 20
57.223
 21
57.956
  0
LINE
  8
0
 10
-15.529
 11
-12.986
 20
57.956
 21
58.578
  0
LINE
  8
0
 10
-12.986
 11
-10.419
 20
58.578
 21
59.088
  0
LINE
  8
0
 10
-10.419
 11
-7.832
 20
59.088
 21
59.487
  0
LINE
  8
0
 10
-7.832
 11
-5.229
 20
59.487
 21
59.772
  0
LINE
  8
0
 10
-5.229
 11
-2.617
 20
59.772
 21
59.943
  0
LINE
  8
0
 10
-2.617
 11
0
 20
59.943
 21
60
  0
LINE
  8
0
 10
0
 11
2.617
 20
60
 21
59.943
  0
LINE
  8
0
 10
2.617
 11
5.229
 20
59.943
 21
59.772
  0
LINE
  8
0
 10
5.229
 11
7.832
 20
59.772
 21
59.487
  0
LINE
  8
0
 10
7.832
 11
10.419
 20
59.487
 21
59.088
  0
LINE
  8
0
 10
10.419
 11
12.986
 20
59.088
 21
58.578
  0
LINE
  8
0
 10
12.986
 11
15.529
 20
58.578
 21
57.956
  0
LINE
  8
0
 10
15.529
 11
18.042
 20
57.956
 21
57.223
  0
LINE
  8
0
 10
18.042
 11
20.521
 20
57.223
 21
56.382
  0
LINE
  8
0
 10
20.521
 11
22.961
 20
56.382
 21
55.433
  0
LINE
  8
0
 10
22.961
 11
25.357
 20
55.433
 21
54.378
  0
LINE
  8
0
 10
25.357
 11
27.705
 20
54.378
 21
53.221
  0
LINE
  8
0
 10
27.705
 11
30
 20
53.221
 21
51.962
  0
LINE
  8
0
 10
30
 11
32.238
 20
51.962
 21
50.603
  0
LINE
  8
0
 10
32.238
 11
34.415
 20
50.603
 21
49.149
  0
LINE
  8
0
 10
34.415
 11
36.526
 20
49.149
 21
47.601
  0
LINE
  8
0
 10
36.526
 11
38.567
 20
47.601
 21
45.963
  0
LINE
  8
0
 10
38.567
 11
40.535
 20
45.963
 21
44.237
  0
LINE
  8
0
 10
40.535
 11
42.426
 20
44.237
 21
42.426
  0
LINE
  8
0
 10
42.426
 11
44.237
 20
42.426
 21
40.535
  0
LINE
  8
0
 10
44.237
 11
45.963
 20
40.535
 21
38.567
  0
LINE
  8
0
 10
45.963
 11
47.601
 20
38.567
 21
36.526
  0
LINE
  8
0
 10
47.601
 11
49.149
 20
36.526
 21
34.415
  0
LINE
  8
0
 10
49.149
 11
50.603
 20
34.415
 21
32.238
  0
LINE
  8
0
 10
50.603
 11
51.962
 20
32.238
 21
30
  0
LINE
  8
0
 10
51.962
 11
53.221
 20
30
 21
27.705
  0
LINE
  8
0
 10
53.221
 11
54.378
 20
27.705
 21
25.357
  0
LINE
  8
0
 10
54.378
 11
55.433
 20
25.357
 21
22.961
  0
LINE
  8
0
 10
55.433
 11
56.382
 20
22.961
 21
20.521
  0
LINE
  8
0
 10
56.382
 11
57.223
 20
20.521
 21
18.042
  0
LINE
  8
0
 10
57.223
 11
57.956
 20
18.042
 21
15.529
  0
LINE
  8
0
 10
57.956
 11
58.578
 20
15.529
 21
12.986
  0
LINE
  8
0
 10
58.578
 11
59.088
 20
12.986
 21
10.419
  0
LINE
  8
0
 10
59.088
 11
59.487
 20
10.419
 21
7.832
  0
LINE
  8
0
 10
59.487
 11
59.772
 20
7.832
 21
5.229
  0
LINE
  8
0
 10
59.772
 11
59.943
 20
5.229
 21
2.617
  0
LINE
  8
0
 10
59.943
 11
60
 20
2.617
 21
0
  0
LINE
  8
0
 10
60
 11
59.943
 20
0
 21
-2.617
  0
LINE
  8
0
 10
59.943
 11
59.772
 20
-2.617
 21
-5.229
  0
LINE
  8
0
 10
59.772
 11
59.487
 20
-5.229
 21
-7.832
  0
LINE
  8
0
 10
59.487
 11
59.088
 20
-7.832
 21
-10.419
  0
LINE
  8
0
 10
59.088
 11
58.578
 20
-10.419
 21
-12.986
  0
LINE
  8
0
 10
58.578
 11
57.956
 20
-12.986
 21
-15.529
  0
LINE
  8
0
 10
57.956
 11
57.223
 20
-15.529
 21
-18.042
  0
LINE
  8
0
 10
57.223
 11
56.382
 20
-18.042
 21
-20.521
  0
LINE
  8
0
 10
56.382
 11
55.433
 20
-20.521
 21
-22.961
  0
LINE
  8
0
 10
55.433
 11
54.378
 20
-22.961
 21
-25.357
  0
LINE
  8
0
 10
54.378
 11
53.221
 20
-25.357
 21
-27.705
  0
LINE
  8
0
 10
53.221
 11
51.962
 20
-27.705
 21
-30
  0
LINE
  8
0
 10
51.962
 11
50.603
 20
-30
 21
-32.238
  0
LINE
  8
0
 10
50.603
 11
49.149
 20
-32.238
 21
-34.415
  0
LINE
  8
0
 10
49.149
 11
47.601
 20
-34.415
 21
-36.526
  0
LINE
  8
0
 10
47.601
 11
45.963
 20
-36.526
 21
-38.567
  0
LINE
  8
0
 10
45.963
 11
44.237
 20
-38.567
 21
-40.535
  0
LINE
  8
0
 10
44.237
 11
42.426
 20
-40.535
 21
-42.426
  0
LINE
  8
0
 10
42.426
 11
40.535
 20
-42.426
 21
-44.237
  0
LINE
  8
0
 10
40.535
 11
38.567
 20
-44.237
 21
-45.963
  0
LINE
  8
0
 10
38.567
 11
36.526
 20
-45.963
 21
-47.601
  0
LINE
  8
0
 10
36.526
 11
34.415
 20
-47.601
 21
-49.149
  0
LINE
  8
0
 10
34.415
 11
32.238
 20
-49.149
 21
-50.603
  0
LINE
  8
0
 10
32.238
 11
30
 20
-50.603
 21
-51.962
  0
LINE
  8
0
 10
30
 11
27.705
 20
-51.962
 21
-53.221
  0
LINE
  8
0
 10
27.705
 11
25.357
 20
-53.221
 21
-54.378
  0
LINE
  8
0
 10
25.357
 11
22.961
 20
-54.378
 21
-55.433
  0
LINE
  8
0
 10
22.961
 11
20.521
 20
-55.433
 21
-56.382
  0
LINE
  8
0
 10
20.521
 11
18.042
 20
-56.382
 21
-57.223
  0
LINE
  8
0
 10
18.042
 11
15.529
 20
-57.223
 21
-57.956
  0
LINE
  8
0
 10
15.529
 11
12.986
 20
-57.956
 21
-58.578
  0
LINE
  8
0
 10
12.986
 11
10.419
 20
-58.578
 21
-59.088
  0
LINE
  8
0
 10
10.419
 11
7.832
 20
-59.088
 21
-59.487
  0
LINE
  8
0
 10
7.832
 11
5.229
 20
-59.487
 21
-59.772
  0
LINE
  8
0
 10
5.229
 11
2.617
 20
-59.772
 21
-59.943
  0
LINE
  8
0
 10
2.617
 11
0
 20
-59.943
 21
-60
  0
LINE
  8
0
 10
0
 11
-2.617
 20
-60
 21
-59.943
  0
LINE
  8
0
 10
-2.617
 11
-5.229
 20
-59.943
 21
-59.772
  0
LINE
  8
0
 10
-5.229
 11
-7.832
 20
-59.772
 21
-59.487
  0
LINE
  8
0
 10
-7.832
 11
-10.419
 20
-59.487
 21
-59.088
  0
LINE
  8
0
 10
-10.419
 11
-12.986
 20
-59.088
 21
-58.578
  0
LINE
  8
0
 10
-12.986
 11
-15.529
 20
-58.578
 21
-57.956
  0
LINE
  8
0
 10
-15.529
 11
-18.042
 20
-57.956
 21
-57.223
  0
LINE
  8
0
 10
-18.042
 11
-20.521
 20
-57.223
 21
-56.382
  0
LINE
  8
0
 10
-20.521
 11
-22.961
 20
-56.382
 21
-55.433
  0
LINE
  8
0
 10
-22.961
 11
-25.357
 20
-55.433
 21
-54.378
  0
LINE
  8
0
 10
-25.357
 11
-27.705
 20
-54.378
 21
-53.221
  0
LINE
  8
0
 10
-27.705
 11
-30
 20
-53.221
 21
-51.962
  0
LINE
  8
0
 10
-30
 11
-32.238
 20
-51.962
 21
-50.603
  0
LINE
  8
0
 10
-32.238
 11
-34.415
 20
-50.603
 21
-49.149
  0
LINE
  8
0
 10
-34.415
 11
-36.526
 20
-49.149
 21
-47.601
  0
LINE
  8
0
 10
-36.526
 11
-38.567
 20
-47.601
 21
-45.963
  0
LINE
  8
0
 10
-38.567
 11
-40.535
 20
-45.963
 21
-44.237
  0
LINE
  8
0
 10
-40.535
 11
-42.426
 20
-44.237
 21
-42.426
  0
LINE
  8
0
 10
-42.426
 11
-44.237
 20
-42.426
 21
-40.535
  0
LINE
  8
0
 10
-44.237
 11
-45.963
 20
-40.535
 21
-38.567
  0
LINE
  8
0
 10
-45.963
 11
-47.601
 20
-38.567
 21
-36.526
  0
LINE
  8
0
 10
-47.601
 11
-49.149
 20
-36.526
 21
-34.415
  0
LINE
  8
0
 10
-49.149
 11
-50.603
 20
-34.415
 21
-32.238
  0
LINE
  8
0
 10
-50.603
 11
-51.962
 20
-32.238
 21
-30
  0
LINE
  8
0
 10
-51.962
 11
-53.221
 20
-30
 21
-27.705
  0
LINE
  8
0
 10
-53.221
 11
-54.378
 20
-27.705
 21
-25.357
  0
LINE
  8
0
 10
-54.378
 11
-55.433
 20
-25.357
 21
-22.961
  0
LINE
  8
0
 10
-55.433
 11
-56.382
 20
-22.961
 21
-20.521
  0
LINE
  8
0
 10
-56.382
 11
-57.223
 20
-20.521
 21
-18.042
  0
LINE
  8
0
 10
-57.223
 11
-57.956
 20
-18.042
 21
-15.529
  0
LINE
  8
0
 10
-57.956
 11
-58.578
 20
-15.529
 21
-12.986
  0
LINE
  8
0
 10
-58.578
 11
-59.088
 20
-12.986
 21
-10.419
  0
LINE
  8
0
 10
-59.088
 11
-59.487
 20
-10.419
 21
-7.832
  0
LINE
  8
0
 10
-59.487
 11
-59.772
 20
-7.832
 21
-5.229
  0
LINE
  8
0
 10
-59.772
 11
-59.943
 20
-5.229
 21
-2.617
  0
LINE
  8
0
 10
-59.943
 11
-60
 20
-2.617
 21
0
  0
LINE
  8
0
 10
-30
 11
-30
 20
-28
 21
28
  0
LINE
  8
0
 10
-30
 11
-29.942
 20
28
 21
28
  0
LINE
  8
0
 10
-29.942
 11
-29.942
 20
28
 21
28.479
  0
LINE
  8
0
 10
-29.942
 11
-29.497
 20
28.479
 21
29.326
  0
LINE
  8
0
 10
-29.497
 11
-28.709
 20
29.326
 21
29.87
  0
LINE
  8
0
 10
-28.709
 11
-28
 20
29.87
 21
29.956
  0
LINE
  8
0
 10
-28
 11
-28
 20
29.956
 21
30
  0
LINE
  8
0
 10
-28
 11
28
 20
30
 21
30
  0
LINE
  8
0
 10
28
 11
28
 20
30
 21
29.956
  0
LINE
  8
0
 10
28
 11
28.241
 20
29.956
 21
29.985
  0
LINE
  8
0
 10
28.241
 11
29.136
 20
29.985
 21
29.646
  0
LINE
  8
0
 10
29.136
 11
29.771
 20
29.646
 21
28.929
  0
LINE
  8
0
 10
29.771
 11
30
 20
28.929
 21
28
  0
LINE
  8
0
 10
30
 11
30
 20
28
 21
-28
  0
LINE
  8
0
 10
30
 11
29.771
 20
-28
 21
-28.929
  0
LINE
  8
0
 10
29.771
 11
29.136
 20
-28.929
 21
-29.646
  0
LINE
  8
0
 10
29.136
 11
28.241
 20
-29.646
 21
-29.985
  0
LINE
  8
0
 10
28.241
 11
28
 20
-29.985
 21
-29.956
  0
LINE
  8
0
 10
28
 11
28
 20
-29.956
 21
0
  0
LINE
  8
0
 10
28
 11
27.81
 20
0
 21
0.957
  0
LINE
  8
0
 10
27.81
 11
27.268
 20
0.957
 21
1.768
  0
LINE
  8
0
 10
27.268
 11
26.457
 20
1.768
 21
2.31
  0
LINE
  8
0
 10
26.457
 11
25.5
 20
2.31
 21
2.5
  0
LINE
  8
0
 10
25.5
 11
24.543
 20
2.5
 21
2.31
  0
LINE
  8
0
 10
24.543
 11
23.732
 20
2.31
 21
1.768
  0
LINE
  8
0
 10
23.732
 11
23.19
 20
1.768
 21
0.957
  0
LINE
  8
0
 10
23.19
 11
23
 20
0.957
 21
0
  0
LINE
  8
0
 10
23
 11
23
 20
0
 21
-30
  0
LINE
  8
0
 10
23
 11
21
 20
-30
 21
-30
  0
LINE
  8
0
 10
21
 11
21
 20
-30
 21
7
  0
LINE
  8
0
 10
21
 11
20.964
 20
7
 21
7.999
  0
LINE
  8
0
 10
20.964
 11
20.857
 20
7.999
 21
8.992
  0
LINE
  8
0
 10
20.857
 11
20.68
 20
8.992
 21
9.976
  0
LINE
  8
0
 10
20.68
 11
20.433
 20
9.976
 21
10.944
  0
LINE
  8
0
 10
20.433
 11
20.117
 20
10.944
 21
11.892
  0
LINE
  8
0
 10
20.117
 11
19.735
 20
11.892
 21
12.816
  0
LINE
  8
0
 10
19.735
 11
19.288
 20
12.816
 21
13.709
  0
LINE
  8
0
 10
19.288
 11
18.778
 20
13.709
 21
14.569
  0
LINE
  8
0
 10
18.778
 11
18.208
 20
14.569
 21
15.39
  0
LINE
  8
0
 10
18.208
 11
17.58
 20
15.39
 21
16.168
  0
LINE
  8
0
 10
17.58
 11
16.899
 20
16.168
 21
16.899
  0
LINE
  8
0
 10
16.899
 11
16.168
 20
16.899
 21
17.58
  0
LINE
  8
0
 10
16.168
 11
15.39
 20
17.58
 21
18.208
  0
LINE
  8
0
 10
15.39
 11
14.569
 20
18.208
 21
18.778
  0
LINE
  8
0
 10
14.569
 11
13.709
 20
18.778
 21
19.288
  0
LINE
  8
0
 10
13.709
 11
12.816
 20
19.288
 21
19.735
  0
LINE
  8
0
 10
12.816
 11
11.892
 20
19.735
 21
20.117
  0
LINE
  8
0
 10
11.892
 11
10.944
 20
20.117
 21
20.433
  0
LINE
  8
0
 10
10.944
 11
9.976
 20
20.433
 21
20.68
  0
LINE
  8
0
 10
9.976
 11
8.992
 20
20.68
 21
20.857
  0
LINE
  8
0
 10
8.992
 11
7.999
 20
20.857
 21
20.964
  0
LINE
  8
0
 10
7.999
 11
7
 20
20.964
 21
21
  0
LINE
  8
0
 10
7
 11
-7
 20
21
 21
21
  0
LINE
  8
0
 10
-7
 11
-7.999
 20
21
 21
20.964
  0
LINE
  8
0
 10
-7.999
 11
-8.992
 20
20.964
 21
20.857
  0
LINE
  8
0
 10
-8.992
 11
-9.976
 20
20.857
 21
20.68
  0
LINE
  8
0
 10
-9.976
 11
-10.944
 20
20.68
 21
20.433
  0
LINE
  8
0
 10
-10.944
 11
-11.892
 20
20.433
 21
20.117
  0
LINE
  8
0
 10
-11.892
 11
-12.816
 20
20.117
 21
19.735
  0
LINE
  8
0
 10
-12.816
 11
-13.709
 20
19.735
 21
19.288
  0
LINE
  8
0
 10
-13.709
 11
-14.569
 20
19.288
 21
18.778
  0
LINE
  8
0
 10
-14.569
 11
-15.39
 20
18.778
 21
18.208
  0
LINE
  8
0
 10
-15.39
 11
-16.168
 20
18.208
 21
17.58
  0
LINE
  8
0
 10
-16.168
 11
-16.899
 20
17.58
 21
16.899
  0
LINE
  8
0
 10
-16.899
 11
-17.58
 20
16.899
 21
16.168
  0
LINE
  8
0
 10
-17.58
 11
-18.208
 20
16.168
 21
15.39
  0
LINE
  8
0
 10
-18.208
 11
-18.778
 20
15.39
 21
14.569
  0
LINE
  8
0
 10
-18.778
 11
-19.288
 20
14.569
 21
13.709
  0
LINE
  8
0
 10
-19.288
 11
-19.735
 20
13.709
 21
12.816
  0
LINE
  8
0
 10
-19.735
 11
-20.117
 20
12.816
 21
11.892
  0
LINE
  8
0
 10
-20.117
 11
-20.433
 20
11.892
 21
10.944
  0
LINE
  8
0
 10
-20.433
 11
-20.68
 20
10.944
 21
9.976
  0
LINE
  8
0
 10
-20.68
 11
-20.857
 20
9.976
 21
8.992
  0
LINE
  8
0
 10
-20.857
 11
-20.964
 20
8.992
 21
7.999
  0
LINE
  8
0
 10
-20.964
 11
-21
 20
7.999
 21
7
  0
LINE
  8
0
 10
-21
 11
-21
 20
7
 21
-30
  0
LINE
  8
0
 10
-21
 11
-23
 20
-30
 21
-30
  0
LINE
  8
0
 10
-23
 11
-23
 20
-30
 21
0
  0
LINE
  8
0
 10
-23
 11
-23.19
 20
0
 21
0.957
  0
LINE
  8
0
 10
-23.19
 11
-23.732
 20
0.957
 21
1.768
  0
LINE
  8
0
 10
-23.732
 11
-24.543
 20
1.768
 21
2.31
  0
LINE
  8
0
 10
-24.543
 11
-25.5
 20
2.31
 21
2.5
  0
LINE
  8
0
 10
-25.5
 11
-26.457
 20
2.5
 21
2.31
  0
LINE
  8
0
 10
-26.457
 11
-27.268
 20
2.31
 21
1.768
  0
LINE
  8
0
 10
-27.268
 11
-27.81
 20
1.768
 21
0.957
  0
LINE
  8
0
 10
-27.81
 11
-28
 20
0.957
 21
0
  0
LINE
  8
0
 10
-28
 11
-28
 20
0
 21
-29.956
  0
LINE
  8
0
 10
-28
 11
-28.709
 20
-29.956
 21
-29.87
  0
LINE
  8
0
 10
-28.709
 11
-29.497
 20
-29.87
 21
-29.326
  0
LINE
  8
0
 10
-29.497
 11
-29.942
 20
-29.326
 21
-28.479
  0
LINE
  8
0
 10
-29.942
 11
-29.942
 20
-28.479
 21
-28
  0
LINE
  8
0
 10
-29.942
 11
-30
 20
-28
 21
-28
  0
LINE
  8
0
 10
-26.333
 11
-26.333
 20
-30
 21
-9
  0
LINE
  8
0
 10
-26.333
 11
-24.667
 20
-9
 21
-9
  0
LINE
  8
0
 10
-24.667
 11
-24.667
 20
-9
 21
-30
  0
LINE
  8
0
 10
-24.667
 11
-26.333
 20
-30
 21
-30
  0
LINE
  8
0
 10
-22.25
 11
-21.884
 20
-36
 21
-35.116
  0
LINE
  8
0
 10
-21.884
 11
-21
 20
-35.116
 21
-34.75
  0
LINE
  8
0
 10
-21
 11
-20.116
 20
-34.75
 21
-35.116
  0
LINE
  8
0
 10
-20.116
 11
-19.75
 20
-35.116
 21
-36
  0
LINE
  8
0
 10
-19.75
 11
-20.116
 20
-36
 21
-36.884
  0
LINE
  8
0
 10
-20.116
 11
-21
 20
-36.884
 21
-37.25
  0
LINE
  8
0
 10
-21
 11
-21.884
 20
-37.25
 21
-36.884
  0
LINE
  8
0
 10
-21.884
 11
-22.25
 20
-36.884
 21
-36
  0
LINE
  8
0
 10
-15
 11
-15
 20
39.225
 21
41.875
  0
LINE
  8
0
 10
-15
 11
15
 20
41.875
 21
41.875
  0
LINE
  8
0
 10
15
 11
15
 20
41.875
 21
39.225
  0
LINE
  8
0
 10
15
 11
-15
 20
39.225
 21
39.225
  0
LINE
  8
0
 10
-12.49
 11
-12.49
 20
-0.497
 21
0.497
  0
LINE
  8
0
 10
-12.49
 11
-12.411
 20
0.497
 21
1.488
  0
LINE
  8
0
 10
-12.411
 11
-12.254
 20
1.488
 21
2.469
  0
LINE
  8
0
 10
-12.254
 11
-12.019
 20
2.469
 21
3.435
  0
LINE
  8
0
 10
-12.019
 11
-11.708
 20
3.435
 21
4.379
  0
LINE
  8
0
 10
-11.708
 11
-11.323
 20
4.379
 21
5.295
  0
LINE
  8
0
 10
-11.323
 11
-10.867
 20
5.295
 21
6.178
  0
LINE
  8
0
 10
-10.867
 11
-10.341
 20
6.178
 21
7.022
  0
LINE
  8
0
 10
-10.341
 11
-9.751
 20
7.022
 21
7.821
  0
LINE
  8
0
 10
-9.751
 11
-9.098
 20
7.821
 21
8.571
  0
LINE
  8
0
 10
-9.098
 11
-8.389
 20
8.571
 21
9.267
  0
LINE
  8
0
 10
-8.389
 11
-7.626
 20
9.267
 21
9.904
  0
LINE
  8
0
 10
-7.626
 11
-6.815
 20
9.904
 21
10.479
  0
LINE
  8
0
 10
-6.815
 11
-5.961
 20
10.479
 21
10.987
  0
LINE
  8
0
 10
-5.961
 11
-5.069
 20
10.987
 21
11.426
  0
LINE
  8
0
 10
-5.069
 11
-4.145
 20
11.426
 21
11.793
  0
LINE
  8
0
 10
-4.145
 11
-3.195
 20
11.793
 21
12.085
  0
LINE
  8
0
 10
-3.195
 11
-2.225
 20
12.085
 21
12.3
  0
LINE
  8
0
 10
-2.225
 11
-1.241
 20
12.3
 21
12.438
  0
LINE
  8
0
 10
-1.241
 11
-0.249
 20
12.438
 21
12.498
  0
LINE
  8
0
 10
-0.249
 11
0.745
 20
12.498
 21
12.478
  0
LINE
  8
0
 10
0.745
 11
1.734
 20
12.478
 21
12.379
  0
LINE
  8
0
 10
1.734
 11
2.712
 20
12.379
 21
12.202
  0
LINE
  8
0
 10
2.712
 11
3.673
 20
12.202
 21
11.948
  0
LINE
  8
0
 10
3.673
 11
4.611
 20
11.948
 21
11.619
  0
LINE
  8
0
 10
4.611
 11
5.519
 20
11.619
 21
11.215
  0
LINE
  8
0
 10
5.519
 11
6.393
 20
11.215
 21
10.742
  0
LINE
  8
0
 10
6.393
 11
7.226
 20
10.742
 21
10.2
  0
LINE
  8
0
 10
7.226
 11
8.014
 20
10.2
 21
9.593
  0
LINE
  8
0
 10
8.014
 11
8.751
 20
9.593
 21
8.926
  0
LINE
  8
0
 10
8.751
 11
9.432
 20
8.926
 21
8.203
  0
LINE
  8
0
 10
9.432
 11
10.054
 20
8.203
 21
7.428
  0
LINE
  8
0
 10
10.054
 11
10.612
 20
7.428
 21
6.605
  0
LINE
  8
0
 10
10.612
 11
11.104
 20
6.605
 21
5.741
  0
LINE
  8
0
 10
11.104
 11
11.525
 20
5.741
 21
4.841
  0
LINE
  8
0
 10
11.525
 11
11.873
 20
4.841
 21
3.91
  0
LINE
  8
0
 10
11.873
 11
12.146
 20
3.91
 21
2.954
  0
LINE
  8
0
 10
12.146
 11
12.342
 20
2.954
 21
1.98
  0
LINE
  8
0
 10
12.342
 11
12.46
 20
1.98
 21
0.993
  0
LINE
  8
0
 10
12.46
 11
12.5
 20
0.993
 21
0
  0
LINE
  8
0
 10
12.5
 11
12.46
 20
0
 21
-0.993
  0
LINE
  8
0
 10
12.46
 11
12.342
 20
-0.993
 21
-1.98
  0
LINE
  8
0
 10
12.342
 11
12.146
 20
-1.98
 21
-2.954
  0
LINE
  8
0
 10
12.146
 11
11.873
 20
-2.954
 21
-3.91
  0
LINE
  8
0
 10
11.873
 11
11.525
 20
-3.91
 21
-4.841
  0
LINE
  8
0
 10
11.525
 11
11.104
 20
-4.841
 21
-5.741
  0
LINE
  8
0
 10
11.104
 11
10.612
 20
-5.741
 21
-6.605
  0
LINE
  8
0
 10
10.612
 11
10.054
 20
-6.605
 21
-7.428
  0
LINE
  8
0
 10
10.054
 11
9.432
 20
-7.428
 21
-8.203
  0
LINE
  8
0
 10
9.432
 11
8.751
 20
-8.203
 21
-8.926
  0
LINE
  8
0
 10
8.751
 11
8.014
 20
-8.926
 21
-9.593
  0
LINE
  8
0
 10
8.014
 11
7.226
 20
-9.593
 21
-10.2
  0
LINE
  8
0
 10
7.226
 11
6.393
 20
-10.2
 21
-10.742
  0
LINE
  8
0
 10
6.393
 11
5.519
 20
-10.742
 21
-11.215
  0
LINE
  8
0
 10
5.519
 11
4.611
 20
-11.215
 21
-11.619
  0
LINE
  8
0
 10
4.611
 11
3.673
 20
-11.619
 21
-11.948
  0
LINE
  8
0
 10
3.673
 11
2.712
 20
-11.948
 21
-12.202
  0
LINE
  8
0
 10
2.712
 11
1.734
 20
-12.202
 21
-12.379
  0
LINE
  8
0
 10
1.734
 11
0.745
 20
-12.379
 21
-12.478
  0
LINE
  8
0
 10
0.745
 11
-0.249
 20
-12.478
 21
-12.498
  0
LINE
  8
0
 10
-0.249
 11
-1.241
 20
-12.498
 21
-12.438
  0
LINE
  8
0
 10
-1.241
 11
-2.225
 20
-12.438
 21
-12.3
  0
LINE
  8
0
 10
-2.225
 11
-3.195
 20
-12.3
 21
-12.085
  0
LINE
  8
0
 10
-3.195
 11
-4.145
 20
-12.085
 21
-11.793
  0
LINE
  8
0
 10
-4.145
 11
-5.069
 20
-11.793
 21
-11.426
  0
LINE
  8
0
 10
-5.069
 11
-5.961
 20
-11.426
 21
-10.987
  0
LINE
  8
0
 10
-5.961
 11
-6.815
 20
-10.987
 21
-10.479
  0
LINE
  8
0
 10
-6.815
 11
-7.626
 20
-10.479
 21
-9.904
  0
LINE
  8
0
 10
-7.626
 11
-8.389
 20
-9.904
 21
-9.267
  0
LINE
  8
0
 10
-8.389
 11
-9.098
 20
-9.267
 21
-8.571
  0
LINE
  8
0
 10
-9.098
 11
-9.751
 20
-8.571
 21
-7.821
  0
LINE
  8
0
 10
-9.751
 11
-10.341
 20
-7.821
 21
-7.022
  0
LINE
  8
0
 10
-10.341
 11
-10.867
 20
-7.022
 21
-6.178
  0
LINE
  8
0
 10
-10.867
 11
-11.323
 20
-6.178
 21
-5.295
  0
LINE
  8
0
 10
-11.323
 11
-11.708
 20
-5.295
 21
-4.379
  0
LINE
  8
0
 10
-11.708
 11
-12.019
 20
-4.379
 21
-3.435
  0
LINE
  8
0
 10
-12.019
 11
-12.254
 20
-3.435
 21
-2.469
  0
LINE
  8
0
 10
-12.254
 11
-12.411
 20
-2.469
 21
-1.488
  0
LINE
  8
0
 10
-12.411
 11
-12.49
 20
-1.488
 21
-0.497
  0
LINE
  8
0
 10
-5.738
 11
-5.738
 20
49.2
 21
52
  0
LINE
  8
0
 10
-5.738
 11
5.738
 20
52
 21
52
  0
LINE
  8
0
 10
5.738
 11
5.738
 20
52
 21
49.2
  0
LINE
  8
0
 10
5.738
 11
-5.738
 20
49.2
 21
49.2
  0
LINE
  8
0
 10
19.75
 11
20.116
 20
-36
 21
-35.116
  0
LINE
  8
0
 10
20.116
 11
21
 20
-35.116
 21
-34.75
  0
LINE
  8
0
 10
21
 11
21.884
 20
-34.75
 21
-35.116
  0
LINE
  8
0
 10
21.884
 11
22.25
 20
-35.116
 21
-36
  0
LINE
  8
0
 10
22.25
 11
21.884
 20
-36
 21
-36.884
  0
LINE
  8
0
 10
21.884
 11
21
 20
-36.884
 21
-37.25
  0
LINE
  8
0
 10
21
 11
20.116
 20
-37.25
 21
-36.884
  0
LINE
  8
0
 10
20.116
 11
19.75
 20
-36.884
 21
-36
  0
LINE
  8
0
 10
24.667
 11
24.667
 20
-30
 21
-9
  0
LINE
  8
0
 10
24.667
 11
26.333
 20
-9
 21
-9
  0
LINE
  8
0
 10
26.333
 11
26.333
 20
-9
 21
-30
  0
LINE
  8
0
 10
26.333
 11
24.667
 20
-30
 21
-30
  0
ENDSEC
  0
SECTION
  2
OBJECTS
  0
DICTIONARY
  0
ENDSEC
  0
EOF
