  0
SECTION
  2
BLOCKS
  0
ENDSEC
  0
SECTION
  2
ENTITIES
  0
LINE
  8
0
 10
-28
 11
-28
 20
-12.5
 21
25.5
  0
LINE
  8
0
 10
-28
 11
-27.942
 20
25.5
 21
25.5
  0
LINE
  8
0
 10
-27.942
 11
-27.942
 20
25.5
 21
25.979
  0
LINE
  8
0
 10
-27.942
 11
-27.497
 20
25.979
 21
26.826
  0
LINE
  8
0
 10
-27.497
 11
-26.709
 20
26.826
 21
27.37
  0
LINE
  8
0
 10
-26.709
 11
-26
 20
27.37
 21
27.456
  0
LINE
  8
0
 10
-26
 11
-26
 20
27.456
 21
27.5
  0
LINE
  8
0
 10
-26
 11
26
 20
27.5
 21
27.5
  0
LINE
  8
0
 10
26
 11
26
 20
27.5
 21
27.456
  0
LINE
  8
0
 10
26
 11
26.241
 20
27.456
 21
27.485
  0
LINE
  8
0
 10
26.241
 11
27.136
 20
27.485
 21
27.146
  0
LINE
  8
0
 10
27.136
 11
27.771
 20
27.146
 21
26.429
  0
LINE
  8
0
 10
27.771
 11
28
 20
26.429
 21
25.5
  0
LINE
  8
0
 10
28
 11
28
 20
25.5
 21
-12.5
  0
LINE
  8
0
 10
28
 11
27.771
 20
-12.5
 21
-13.429
  0
LINE
  8
0
 10
27.771
 11
27.136
 20
-13.429
 21
-14.146
  0
LINE
  8
0
 10
27.136
 11
26.241
 20
-14.146
 21
-14.485
  0
LINE
  8
0
 10
26.241
 11
26
 20
-14.485
 21
-14.456
  0
LINE
  8
0
 10
26
 11
26
 20
-14.456
 21
-14.5
  0
LINE
  8
0
 10
26
 11
23
 20
-14.5
 21
-14.5
  0
LINE
  8
0
 10
23
 11
23
 20
-14.5
 21
9
  0
LINE
  8
0
 10
23
 11
22.964
 20
9
 21
9.999
  0
LINE
  8
0
 10
22.964
 11
22.857
 20
9.999
 21
10.992
  0
LINE
  8
0
 10
22.857
 11
22.68
 20
10.992
 21
11.976
  0
LINE
  8
0
 10
22.68
 11
22.433
 20
11.976
 21
12.944
  0
LINE
  8
0
 10
22.433
 11
22.117
 20
12.944
 21
13.892
  0
LINE
  8
0
 10
22.117
 11
21.735
 20
13.892
 21
14.816
  0
LINE
  8
0
 10
21.735
 11
21.288
 20
14.816
 21
15.709
  0
LINE
  8
0
 10
21.288
 11
20.778
 20
15.709
 21
16.569
  0
LINE
  8
0
 10
20.778
 11
20.208
 20
16.569
 21
17.39
  0
LINE
  8
0
 10
20.208
 11
19.58
 20
17.39
 21
18.168
  0
LINE
  8
0
 10
19.58
 11
18.899
 20
18.168
 21
18.899
  0
LINE
  8
0
 10
18.899
 11
18.168
 20
18.899
 21
19.58
  0
LINE
  8
0
 10
18.168
 11
17.39
 20
19.58
 21
20.208
  0
LINE
  8
0
 10
17.39
 11
16.569
 20
20.208
 21
20.778
  0
LINE
  8
0
 10
16.569
 11
15.709
 20
20.778
 21
21.288
  0
LINE
  8
0
 10
15.709
 11
14.816
 20
21.288
 21
21.735
  0
LINE
  8
0
 10
14.816
 11
13.892
 20
21.735
 21
22.117
  0
LINE
  8
0
 10
13.892
 11
12.944
 20
22.117
 21
22.433
  0
LINE
  8
0
 10
12.944
 11
11.976
 20
22.433
 21
22.68
  0
LINE
  8
0
 10
11.976
 11
10.992
 20
22.68
 21
22.857
  0
LINE
  8
0
 10
10.992
 11
9.999
 20
22.857
 21
22.964
  0
LINE
  8
0
 10
9.999
 11
9
 20
22.964
 21
23
  0
LINE
  8
0
 10
9
 11
-9
 20
23
 21
23
  0
LINE
  8
0
 10
-9
 11
-9.999
 20
23
 21
22.964
  0
LINE
  8
0
 10
-9.999
 11
-10.992
 20
22.964
 21
22.857
  0
LINE
  8
0
 10
-10.992
 11
-11.976
 20
22.857
 21
22.68
  0
LINE
  8
0
 10
-11.976
 11
-12.944
 20
22.68
 21
22.433
  0
LINE
  8
0
 10
-12.944
 11
-13.892
 20
22.433
 21
22.117
  0
LINE
  8
0
 10
-13.892
 11
-14.816
 20
22.117
 21
21.735
  0
LINE
  8
0
 10
-14.816
 11
-15.709
 20
21.735
 21
21.288
  0
LINE
  8
0
 10
-15.709
 11
-16.569
 20
21.288
 21
20.778
  0
LINE
  8
0
 10
-16.569
 11
-17.39
 20
20.778
 21
20.208
  0
LINE
  8
0
 10
-17.39
 11
-18.168
 20
20.208
 21
19.58
  0
LINE
  8
0
 10
-18.168
 11
-18.899
 20
19.58
 21
18.899
  0
LINE
  8
0
 10
-18.899
 11
-19.58
 20
18.899
 21
18.168
  0
LINE
  8
0
 10
-19.58
 11
-20.208
 20
18.168
 21
17.39
  0
LINE
  8
0
 10
-20.208
 11
-20.778
 20
17.39
 21
16.569
  0
LINE
  8
0
 10
-20.778
 11
-21.288
 20
16.569
 21
15.709
  0
LINE
  8
0
 10
-21.288
 11
-21.735
 20
15.709
 21
14.816
  0
LINE
  8
0
 10
-21.735
 11
-22.117
 20
14.816
 21
13.892
  0
LINE
  8
0
 10
-22.117
 11
-22.433
 20
13.892
 21
12.944
  0
LINE
  8
0
 10
-22.433
 11
-22.68
 20
12.944
 21
11.976
  0
LINE
  8
0
 10
-22.68
 11
-22.857
 20
11.976
 21
10.992
  0
LINE
  8
0
 10
-22.857
 11
-22.964
 20
10.992
 21
9.999
  0
LINE
  8
0
 10
-22.964
 11
-23
 20
9.999
 21
9
  0
LINE
  8
0
 10
-23
 11
-23
 20
9
 21
-14.5
  0
LINE
  8
0
 10
-23
 11
-26
 20
-14.5
 21
-14.5
  0
LINE
  8
0
 10
-26
 11
-26
 20
-14.5
 21
-14.456
  0
LINE
  8
0
 10
-26
 11
-26.709
 20
-14.456
 21
-14.37
  0
LINE
  8
0
 10
-26.709
 11
-27.497
 20
-14.37
 21
-13.826
  0
LINE
  8
0
 10
-27.497
 11
-27.942
 20
-13.826
 21
-12.979
  0
LINE
  8
0
 10
-27.942
 11
-27.942
 20
-12.979
 21
-12.5
  0
LINE
  8
0
 10
-27.942
 11
-28
 20
-12.5
 21
-12.5
  0
ENDSEC
  0
SECTION
  2
OBJECTS
  0
DICTIONARY
  0
ENDSEC
  0
EOF
