  0
SECTION
  2
BLOCKS
  0
ENDSEC
  0
SECTION
  2
ENTITIES
  0
LINE
  8
0
 10
-30
 11
-30
 20
-27.4
 21
-1.4
  0
LINE
  8
0
 10
-30
 11
-15
 20
-1.4
 21
-1.4
  0
LINE
  8
0
 10
-15
 11
-15
 20
-1.4
 21
1.4
  0
LINE
  8
0
 10
-15
 11
15
 20
1.4
 21
1.4
  0
LINE
  8
0
 10
15
 11
15
 20
1.4
 21
-1.4
  0
LINE
  8
0
 10
15
 11
30
 20
-1.4
 21
-1.4
  0
LINE
  8
0
 10
30
 11
30
 20
-1.4
 21
-27.4
  0
LINE
  8
0
 10
30
 11
29.649
 20
-27.4
 21
-28.249
  0
LINE
  8
0
 10
29.649
 11
28.8
 20
-28.249
 21
-28.6
  0
LINE
  8
0
 10
28.8
 11
24.55
 20
-28.6
 21
-28.6
  0
LINE
  8
0
 10
24.55
 11
24.55
 20
-28.6
 21
-25.951
  0
LINE
  8
0
 10
24.55
 11
24.757
 20
-25.951
 21
-25.91
  0
LINE
  8
0
 10
24.757
 11
25.568
 20
-25.91
 21
-25.368
  0
LINE
  8
0
 10
25.568
 11
26.11
 20
-25.368
 21
-24.557
  0
LINE
  8
0
 10
26.11
 11
26.3
 20
-24.557
 21
-23.6
  0
LINE
  8
0
 10
26.3
 11
26.11
 20
-23.6
 21
-22.643
  0
LINE
  8
0
 10
26.11
 11
25.568
 20
-22.643
 21
-21.832
  0
LINE
  8
0
 10
25.568
 11
24.757
 20
-21.832
 21
-21.29
  0
LINE
  8
0
 10
24.757
 11
23.8
 20
-21.29
 21
-21.1
  0
LINE
  8
0
 10
23.8
 11
22.843
 20
-21.1
 21
-21.29
  0
LINE
  8
0
 10
22.843
 11
22.032
 20
-21.29
 21
-21.832
  0
LINE
  8
0
 10
22.032
 11
21.49
 20
-21.832
 21
-22.643
  0
LINE
  8
0
 10
21.49
 11
21.3
 20
-22.643
 21
-23.6
  0
LINE
  8
0
 10
21.3
 11
21.49
 20
-23.6
 21
-24.557
  0
LINE
  8
0
 10
21.49
 11
22.032
 20
-24.557
 21
-25.368
  0
LINE
  8
0
 10
22.032
 11
22.843
 20
-25.368
 21
-25.91
  0
LINE
  8
0
 10
22.843
 11
23.05
 20
-25.91
 21
-25.951
  0
LINE
  8
0
 10
23.05
 11
23.05
 20
-25.951
 21
-28.6
  0
LINE
  8
0
 10
23.05
 11
-23.05
 20
-28.6
 21
-28.6
  0
LINE
  8
0
 10
-23.05
 11
-23.05
 20
-28.6
 21
-25.951
  0
LINE
  8
0
 10
-23.05
 11
-22.843
 20
-25.951
 21
-25.91
  0
LINE
  8
0
 10
-22.843
 11
-22.032
 20
-25.91
 21
-25.368
  0
LINE
  8
0
 10
-22.032
 11
-21.49
 20
-25.368
 21
-24.557
  0
LINE
  8
0
 10
-21.49
 11
-21.3
 20
-24.557
 21
-23.6
  0
LINE
  8
0
 10
-21.3
 11
-21.49
 20
-23.6
 21
-22.643
  0
LINE
  8
0
 10
-21.49
 11
-22.032
 20
-22.643
 21
-21.832
  0
LINE
  8
0
 10
-22.032
 11
-22.843
 20
-21.832
 21
-21.29
  0
LINE
  8
0
 10
-22.843
 11
-23.8
 20
-21.29
 21
-21.1
  0
LINE
  8
0
 10
-23.8
 11
-24.757
 20
-21.1
 21
-21.29
  0
LINE
  8
0
 10
-24.757
 11
-25.568
 20
-21.29
 21
-21.832
  0
LINE
  8
0
 10
-25.568
 11
-26.11
 20
-21.832
 21
-22.643
  0
LINE
  8
0
 10
-26.11
 11
-26.3
 20
-22.643
 21
-23.6
  0
LINE
  8
0
 10
-26.3
 11
-26.11
 20
-23.6
 21
-24.557
  0
LINE
  8
0
 10
-26.11
 11
-25.568
 20
-24.557
 21
-25.368
  0
LINE
  8
0
 10
-25.568
 11
-24.757
 20
-25.368
 21
-25.91
  0
LINE
  8
0
 10
-24.757
 11
-24.55
 20
-25.91
 21
-25.951
  0
LINE
  8
0
 10
-24.55
 11
-24.55
 20
-25.951
 21
-28.6
  0
LINE
  8
0
 10
-24.55
 11
-28.8
 20
-28.6
 21
-28.6
  0
LINE
  8
0
 10
-28.8
 11
-29.649
 20
-28.6
 21
-28.249
  0
LINE
  8
0
 10
-29.649
 11
-30
 20
-28.249
 21
-27.4
  0
LINE
  8
0
 10
-11.45
 11
-11.45
 20
-16.45
 21
-4.2
  0
LINE
  8
0
 10
-11.45
 11
11.5
 20
-4.2
 21
-4.2
  0
LINE
  8
0
 10
11.5
 11
11.5
 20
-4.2
 21
-7.89
  0
LINE
  8
0
 10
11.5
 11
11.968
 20
-7.89
 21
-7.983
  0
LINE
  8
0
 10
11.968
 11
12.747
 20
-7.983
 21
-8.503
  0
LINE
  8
0
 10
12.747
 11
13.267
 20
-8.503
 21
-9.282
  0
LINE
  8
0
 10
13.267
 11
13.45
 20
-9.282
 21
-10.2
  0
LINE
  8
0
 10
13.45
 11
13.267
 20
-10.2
 21
-11.118
  0
LINE
  8
0
 10
13.267
 11
12.747
 20
-11.118
 21
-11.897
  0
LINE
  8
0
 10
12.747
 11
11.968
 20
-11.897
 21
-12.417
  0
LINE
  8
0
 10
11.968
 11
11.5
 20
-12.417
 21
-12.51
  0
LINE
  8
0
 10
11.5
 11
11.5
 20
-12.51
 21
-16.45
  0
LINE
  8
0
 10
11.5
 11
-11.45
 20
-16.45
 21
-16.45
  0
ENDSEC
  0
SECTION
  2
OBJECTS
  0
DICTIONARY
  0
ENDSEC
  0
EOF
