  0
SECTION
  2
BLOCKS
  0
ENDSEC
  0
SECTION
  2
ENTITIES
  0
LINE
  8
0
 10
-31.2
 11
-31.2
 20
-37.45
 21
0.15
  0
LINE
  8
0
 10
-31.2
 11
-30.849
 20
0.15
 21
0.999
  0
LINE
  8
0
 10
-30.849
 11
-30
 20
0.999
 21
1.35
  0
LINE
  8
0
 10
-30
 11
30
 20
1.35
 21
1.35
  0
LINE
  8
0
 10
30
 11
30.849
 20
1.35
 21
0.999
  0
LINE
  8
0
 10
30.849
 11
31.2
 20
0.999
 21
0.15
  0
LINE
  8
0
 10
31.2
 11
31.2
 20
0.15
 21
-37.45
  0
LINE
  8
0
 10
31.2
 11
30.849
 20
-37.45
 21
-38.299
  0
LINE
  8
0
 10
30.849
 11
30
 20
-38.299
 21
-38.65
  0
LINE
  8
0
 10
30
 11
25.75
 20
-38.65
 21
-38.65
  0
LINE
  8
0
 10
25.75
 11
25.75
 20
-38.65
 21
-36.001
  0
LINE
  8
0
 10
25.75
 11
25.957
 20
-36.001
 21
-35.96
  0
LINE
  8
0
 10
25.957
 11
26.768
 20
-35.96
 21
-35.418
  0
LINE
  8
0
 10
26.768
 11
27.31
 20
-35.418
 21
-34.607
  0
LINE
  8
0
 10
27.31
 11
27.5
 20
-34.607
 21
-33.65
  0
LINE
  8
0
 10
27.5
 11
27.31
 20
-33.65
 21
-32.693
  0
LINE
  8
0
 10
27.31
 11
26.768
 20
-32.693
 21
-31.882
  0
LINE
  8
0
 10
26.768
 11
25.957
 20
-31.882
 21
-31.34
  0
LINE
  8
0
 10
25.957
 11
25
 20
-31.34
 21
-31.15
  0
LINE
  8
0
 10
25
 11
24.043
 20
-31.15
 21
-31.34
  0
LINE
  8
0
 10
24.043
 11
23.232
 20
-31.34
 21
-31.882
  0
LINE
  8
0
 10
23.232
 11
22.69
 20
-31.882
 21
-32.693
  0
LINE
  8
0
 10
22.69
 11
22.5
 20
-32.693
 21
-33.65
  0
LINE
  8
0
 10
22.5
 11
22.69
 20
-33.65
 21
-34.607
  0
LINE
  8
0
 10
22.69
 11
23.232
 20
-34.607
 21
-35.418
  0
LINE
  8
0
 10
23.232
 11
24.043
 20
-35.418
 21
-35.96
  0
LINE
  8
0
 10
24.043
 11
24.25
 20
-35.96
 21
-36.001
  0
LINE
  8
0
 10
24.25
 11
24.25
 20
-36.001
 21
-38.65
  0
LINE
  8
0
 10
24.25
 11
-24.25
 20
-38.65
 21
-38.65
  0
LINE
  8
0
 10
-24.25
 11
-24.25
 20
-38.65
 21
-36.001
  0
LINE
  8
0
 10
-24.25
 11
-24.043
 20
-36.001
 21
-35.96
  0
LINE
  8
0
 10
-24.043
 11
-23.232
 20
-35.96
 21
-35.418
  0
LINE
  8
0
 10
-23.232
 11
-22.69
 20
-35.418
 21
-34.607
  0
LINE
  8
0
 10
-22.69
 11
-22.5
 20
-34.607
 21
-33.65
  0
LINE
  8
0
 10
-22.5
 11
-22.69
 20
-33.65
 21
-32.693
  0
LINE
  8
0
 10
-22.69
 11
-23.232
 20
-32.693
 21
-31.882
  0
LINE
  8
0
 10
-23.232
 11
-24.043
 20
-31.882
 21
-31.34
  0
LINE
  8
0
 10
-24.043
 11
-25
 20
-31.34
 21
-31.15
  0
LINE
  8
0
 10
-25
 11
-25.957
 20
-31.15
 21
-31.34
  0
LINE
  8
0
 10
-25.957
 11
-26.768
 20
-31.34
 21
-31.882
  0
LINE
  8
0
 10
-26.768
 11
-27.31
 20
-31.882
 21
-32.693
  0
LINE
  8
0
 10
-27.31
 11
-27.5
 20
-32.693
 21
-33.65
  0
LINE
  8
0
 10
-27.5
 11
-27.31
 20
-33.65
 21
-34.607
  0
LINE
  8
0
 10
-27.31
 11
-26.768
 20
-34.607
 21
-35.418
  0
LINE
  8
0
 10
-26.768
 11
-25.957
 20
-35.418
 21
-35.96
  0
LINE
  8
0
 10
-25.957
 11
-25.75
 20
-35.96
 21
-36.001
  0
LINE
  8
0
 10
-25.75
 11
-25.75
 20
-36.001
 21
-38.65
  0
LINE
  8
0
 10
-25.75
 11
-30
 20
-38.65
 21
-38.65
  0
LINE
  8
0
 10
-30
 11
-30.849
 20
-38.65
 21
-38.299
  0
LINE
  8
0
 10
-30.849
 11
-31.2
 20
-38.299
 21
-37.45
  0
LINE
  8
0
 10
-11.45
 11
-11.45
 20
-16.3
 21
-4.05
  0
LINE
  8
0
 10
-11.45
 11
11.5
 20
-4.05
 21
-4.05
  0
LINE
  8
0
 10
11.5
 11
11.5
 20
-4.05
 21
-7.74
  0
LINE
  8
0
 10
11.5
 11
11.968
 20
-7.74
 21
-7.833
  0
LINE
  8
0
 10
11.968
 11
12.747
 20
-7.833
 21
-8.353
  0
LINE
  8
0
 10
12.747
 11
13.267
 20
-8.353
 21
-9.132
  0
LINE
  8
0
 10
13.267
 11
13.45
 20
-9.132
 21
-10.05
  0
LINE
  8
0
 10
13.45
 11
13.267
 20
-10.05
 21
-10.968
  0
LINE
  8
0
 10
13.267
 11
12.747
 20
-10.968
 21
-11.747
  0
LINE
  8
0
 10
12.747
 11
11.968
 20
-11.747
 21
-12.267
  0
LINE
  8
0
 10
11.968
 11
11.5
 20
-12.267
 21
-12.36
  0
LINE
  8
0
 10
11.5
 11
11.5
 20
-12.36
 21
-16.3
  0
LINE
  8
0
 10
11.5
 11
-11.45
 20
-16.3
 21
-16.3
  0
ENDSEC
  0
SECTION
  2
OBJECTS
  0
DICTIONARY
  0
ENDSEC
  0
EOF
