  0
SECTION
  2
BLOCKS
  0
ENDSEC
  0
SECTION
  2
ENTITIES
  0
LINE
  8
0
 10
-30
 11
-30
 20
-27.3
 21
-1.5
  0
LINE
  8
0
 10
-30
 11
-15
 20
-1.5
 21
-1.5
  0
LINE
  8
0
 10
-15
 11
-15
 20
-1.5
 21
1.5
  0
LINE
  8
0
 10
-15
 11
15
 20
1.5
 21
1.5
  0
LINE
  8
0
 10
15
 11
15
 20
1.5
 21
-1.5
  0
LINE
  8
0
 10
15
 11
30
 20
-1.5
 21
-1.5
  0
LINE
  8
0
 10
30
 11
30
 20
-1.5
 21
-27.3
  0
LINE
  8
0
 10
30
 11
29.649
 20
-27.3
 21
-28.149
  0
LINE
  8
0
 10
29.649
 11
28.8
 20
-28.149
 21
-28.5
  0
LINE
  8
0
 10
28.8
 11
24.55
 20
-28.5
 21
-28.5
  0
LINE
  8
0
 10
24.55
 11
24.55
 20
-28.5
 21
-25.851
  0
LINE
  8
0
 10
24.55
 11
24.757
 20
-25.851
 21
-25.81
  0
LINE
  8
0
 10
24.757
 11
25.568
 20
-25.81
 21
-25.268
  0
LINE
  8
0
 10
25.568
 11
26.11
 20
-25.268
 21
-24.457
  0
LINE
  8
0
 10
26.11
 11
26.3
 20
-24.457
 21
-23.5
  0
LINE
  8
0
 10
26.3
 11
26.11
 20
-23.5
 21
-22.543
  0
LINE
  8
0
 10
26.11
 11
25.568
 20
-22.543
 21
-21.732
  0
LINE
  8
0
 10
25.568
 11
24.757
 20
-21.732
 21
-21.19
  0
LINE
  8
0
 10
24.757
 11
23.8
 20
-21.19
 21
-21
  0
LINE
  8
0
 10
23.8
 11
22.843
 20
-21
 21
-21.19
  0
LINE
  8
0
 10
22.843
 11
22.032
 20
-21.19
 21
-21.732
  0
LINE
  8
0
 10
22.032
 11
21.49
 20
-21.732
 21
-22.543
  0
LINE
  8
0
 10
21.49
 11
21.3
 20
-22.543
 21
-23.5
  0
LINE
  8
0
 10
21.3
 11
21.49
 20
-23.5
 21
-24.457
  0
LINE
  8
0
 10
21.49
 11
22.032
 20
-24.457
 21
-25.268
  0
LINE
  8
0
 10
22.032
 11
22.843
 20
-25.268
 21
-25.81
  0
LINE
  8
0
 10
22.843
 11
23.05
 20
-25.81
 21
-25.851
  0
LINE
  8
0
 10
23.05
 11
23.05
 20
-25.851
 21
-28.5
  0
LINE
  8
0
 10
23.05
 11
-23.05
 20
-28.5
 21
-28.5
  0
LINE
  8
0
 10
-23.05
 11
-23.05
 20
-28.5
 21
-25.851
  0
LINE
  8
0
 10
-23.05
 11
-22.843
 20
-25.851
 21
-25.81
  0
LINE
  8
0
 10
-22.843
 11
-22.032
 20
-25.81
 21
-25.268
  0
LINE
  8
0
 10
-22.032
 11
-21.49
 20
-25.268
 21
-24.457
  0
LINE
  8
0
 10
-21.49
 11
-21.3
 20
-24.457
 21
-23.5
  0
LINE
  8
0
 10
-21.3
 11
-21.49
 20
-23.5
 21
-22.543
  0
LINE
  8
0
 10
-21.49
 11
-22.032
 20
-22.543
 21
-21.732
  0
LINE
  8
0
 10
-22.032
 11
-22.843
 20
-21.732
 21
-21.19
  0
LINE
  8
0
 10
-22.843
 11
-23.8
 20
-21.19
 21
-21
  0
LINE
  8
0
 10
-23.8
 11
-24.757
 20
-21
 21
-21.19
  0
LINE
  8
0
 10
-24.757
 11
-25.568
 20
-21.19
 21
-21.732
  0
LINE
  8
0
 10
-25.568
 11
-26.11
 20
-21.732
 21
-22.543
  0
LINE
  8
0
 10
-26.11
 11
-26.3
 20
-22.543
 21
-23.5
  0
LINE
  8
0
 10
-26.3
 11
-26.11
 20
-23.5
 21
-24.457
  0
LINE
  8
0
 10
-26.11
 11
-25.568
 20
-24.457
 21
-25.268
  0
LINE
  8
0
 10
-25.568
 11
-24.757
 20
-25.268
 21
-25.81
  0
LINE
  8
0
 10
-24.757
 11
-24.55
 20
-25.81
 21
-25.851
  0
LINE
  8
0
 10
-24.55
 11
-24.55
 20
-25.851
 21
-28.5
  0
LINE
  8
0
 10
-24.55
 11
-28.8
 20
-28.5
 21
-28.5
  0
LINE
  8
0
 10
-28.8
 11
-29.649
 20
-28.5
 21
-28.149
  0
LINE
  8
0
 10
-29.649
 11
-30
 20
-28.149
 21
-27.3
  0
LINE
  8
0
 10
-11.45
 11
-11.45
 20
-16.75
 21
-4.5
  0
LINE
  8
0
 10
-11.45
 11
11.5
 20
-4.5
 21
-4.5
  0
LINE
  8
0
 10
11.5
 11
11.5
 20
-4.5
 21
-8.19
  0
LINE
  8
0
 10
11.5
 11
11.968
 20
-8.19
 21
-8.283
  0
LINE
  8
0
 10
11.968
 11
12.747
 20
-8.283
 21
-8.803
  0
LINE
  8
0
 10
12.747
 11
13.267
 20
-8.803
 21
-9.582
  0
LINE
  8
0
 10
13.267
 11
13.45
 20
-9.582
 21
-10.5
  0
LINE
  8
0
 10
13.45
 11
13.267
 20
-10.5
 21
-11.418
  0
LINE
  8
0
 10
13.267
 11
12.747
 20
-11.418
 21
-12.197
  0
LINE
  8
0
 10
12.747
 11
11.968
 20
-12.197
 21
-12.717
  0
LINE
  8
0
 10
11.968
 11
11.5
 20
-12.717
 21
-12.81
  0
LINE
  8
0
 10
11.5
 11
11.5
 20
-12.81
 21
-16.75
  0
LINE
  8
0
 10
11.5
 11
-11.45
 20
-16.75
 21
-16.75
  0
ENDSEC
  0
SECTION
  2
OBJECTS
  0
DICTIONARY
  0
ENDSEC
  0
EOF
