  0
SECTION
  2
BLOCKS
  0
ENDSEC
  0
SECTION
  2
ENTITIES
  0
LINE
  8
0
 10
-31.2
 11
-31.2
 20
-17.8
 21
0.15
  0
LINE
  8
0
 10
-31.2
 11
-30.849
 20
0.15
 21
0.999
  0
LINE
  8
0
 10
-30.849
 11
-30
 20
0.999
 21
1.35
  0
LINE
  8
0
 10
-30
 11
30
 20
1.35
 21
1.35
  0
LINE
  8
0
 10
30
 11
30.849
 20
1.35
 21
0.999
  0
LINE
  8
0
 10
30.849
 11
31.2
 20
0.999
 21
0.15
  0
LINE
  8
0
 10
31.2
 11
31.2
 20
0.15
 21
-17.8
  0
LINE
  8
0
 10
31.2
 11
30.849
 20
-17.8
 21
-18.649
  0
LINE
  8
0
 10
30.849
 11
30
 20
-18.649
 21
-19
  0
LINE
  8
0
 10
30
 11
25.5
 20
-19
 21
-19
  0
LINE
  8
0
 10
25.5
 11
25.5
 20
-19
 21
-16.401
  0
LINE
  8
0
 10
25.5
 11
25.957
 20
-16.401
 21
-16.31
  0
LINE
  8
0
 10
25.957
 11
26.768
 20
-16.31
 21
-15.768
  0
LINE
  8
0
 10
26.768
 11
27.31
 20
-15.768
 21
-14.957
  0
LINE
  8
0
 10
27.31
 11
27.5
 20
-14.957
 21
-14
  0
LINE
  8
0
 10
27.5
 11
27.31
 20
-14
 21
-13.043
  0
LINE
  8
0
 10
27.31
 11
26.768
 20
-13.043
 21
-12.232
  0
LINE
  8
0
 10
26.768
 11
25.957
 20
-12.232
 21
-11.69
  0
LINE
  8
0
 10
25.957
 11
25
 20
-11.69
 21
-11.5
  0
LINE
  8
0
 10
25
 11
24.043
 20
-11.5
 21
-11.69
  0
LINE
  8
0
 10
24.043
 11
23.232
 20
-11.69
 21
-12.232
  0
LINE
  8
0
 10
23.232
 11
22.69
 20
-12.232
 21
-13.043
  0
LINE
  8
0
 10
22.69
 11
22.5
 20
-13.043
 21
-14
  0
LINE
  8
0
 10
22.5
 11
22.69
 20
-14
 21
-14.957
  0
LINE
  8
0
 10
22.69
 11
23.232
 20
-14.957
 21
-15.768
  0
LINE
  8
0
 10
23.232
 11
24.043
 20
-15.768
 21
-16.31
  0
LINE
  8
0
 10
24.043
 11
24.5
 20
-16.31
 21
-16.401
  0
LINE
  8
0
 10
24.5
 11
24.5
 20
-16.401
 21
-19
  0
LINE
  8
0
 10
24.5
 11
-24.5
 20
-19
 21
-19
  0
LINE
  8
0
 10
-24.5
 11
-24.5
 20
-19
 21
-16.401
  0
LINE
  8
0
 10
-24.5
 11
-24.043
 20
-16.401
 21
-16.31
  0
LINE
  8
0
 10
-24.043
 11
-23.232
 20
-16.31
 21
-15.768
  0
LINE
  8
0
 10
-23.232
 11
-22.69
 20
-15.768
 21
-14.957
  0
LINE
  8
0
 10
-22.69
 11
-22.5
 20
-14.957
 21
-14
  0
LINE
  8
0
 10
-22.5
 11
-22.69
 20
-14
 21
-13.043
  0
LINE
  8
0
 10
-22.69
 11
-23.232
 20
-13.043
 21
-12.232
  0
LINE
  8
0
 10
-23.232
 11
-24.043
 20
-12.232
 21
-11.69
  0
LINE
  8
0
 10
-24.043
 11
-25
 20
-11.69
 21
-11.5
  0
LINE
  8
0
 10
-25
 11
-25.957
 20
-11.5
 21
-11.69
  0
LINE
  8
0
 10
-25.957
 11
-26.768
 20
-11.69
 21
-12.232
  0
LINE
  8
0
 10
-26.768
 11
-27.31
 20
-12.232
 21
-13.043
  0
LINE
  8
0
 10
-27.31
 11
-27.5
 20
-13.043
 21
-14
  0
LINE
  8
0
 10
-27.5
 11
-27.31
 20
-14
 21
-14.957
  0
LINE
  8
0
 10
-27.31
 11
-26.768
 20
-14.957
 21
-15.768
  0
LINE
  8
0
 10
-26.768
 11
-25.957
 20
-15.768
 21
-16.31
  0
LINE
  8
0
 10
-25.957
 11
-25.5
 20
-16.31
 21
-16.401
  0
LINE
  8
0
 10
-25.5
 11
-25.5
 20
-16.401
 21
-19
  0
LINE
  8
0
 10
-25.5
 11
-30
 20
-19
 21
-19
  0
LINE
  8
0
 10
-30
 11
-30.849
 20
-19
 21
-18.649
  0
LINE
  8
0
 10
-30.849
 11
-31.2
 20
-18.649
 21
-17.8
  0
LINE
  8
0
 10
-11.35
 11
-11.35
 20
-16.3
 21
-4.05
  0
LINE
  8
0
 10
-11.35
 11
11.5
 20
-4.05
 21
-4.05
  0
LINE
  8
0
 10
11.5
 11
11.5
 20
-4.05
 21
-7.74
  0
LINE
  8
0
 10
11.5
 11
11.968
 20
-7.74
 21
-7.833
  0
LINE
  8
0
 10
11.968
 11
12.747
 20
-7.833
 21
-8.353
  0
LINE
  8
0
 10
12.747
 11
13.267
 20
-8.353
 21
-9.132
  0
LINE
  8
0
 10
13.267
 11
13.45
 20
-9.132
 21
-10.05
  0
LINE
  8
0
 10
13.45
 11
13.267
 20
-10.05
 21
-10.968
  0
LINE
  8
0
 10
13.267
 11
12.747
 20
-10.968
 21
-11.747
  0
LINE
  8
0
 10
12.747
 11
11.968
 20
-11.747
 21
-12.267
  0
LINE
  8
0
 10
11.968
 11
11.5
 20
-12.267
 21
-12.36
  0
LINE
  8
0
 10
11.5
 11
11.5
 20
-12.36
 21
-16.3
  0
LINE
  8
0
 10
11.5
 11
-11.35
 20
-16.3
 21
-16.3
  0
ENDSEC
  0
SECTION
  2
OBJECTS
  0
DICTIONARY
  0
ENDSEC
  0
EOF
