  0
SECTION
  2
BLOCKS
  0
ENDSEC
  0
SECTION
  2
ENTITIES
  0
LINE
  8
0
 10
-31.2
 11
-31.2
 20
-19.05
 21
0.35
  0
LINE
  8
0
 10
-31.2
 11
-30.849
 20
0.35
 21
1.199
  0
LINE
  8
0
 10
-30.849
 11
-30
 20
1.199
 21
1.55
  0
LINE
  8
0
 10
-30
 11
30
 20
1.55
 21
1.55
  0
LINE
  8
0
 10
30
 11
30.849
 20
1.55
 21
1.199
  0
LINE
  8
0
 10
30.849
 11
31.2
 20
1.199
 21
0.35
  0
LINE
  8
0
 10
31.2
 11
31.2
 20
0.35
 21
-19.05
  0
LINE
  8
0
 10
31.2
 11
30.849
 20
-19.05
 21
-19.899
  0
LINE
  8
0
 10
30.849
 11
30
 20
-19.899
 21
-20.25
  0
LINE
  8
0
 10
30
 11
25.5
 20
-20.25
 21
-20.25
  0
LINE
  8
0
 10
25.5
 11
25.5
 20
-20.25
 21
-17.651
  0
LINE
  8
0
 10
25.5
 11
25.957
 20
-17.651
 21
-17.56
  0
LINE
  8
0
 10
25.957
 11
26.768
 20
-17.56
 21
-17.018
  0
LINE
  8
0
 10
26.768
 11
27.31
 20
-17.018
 21
-16.207
  0
LINE
  8
0
 10
27.31
 11
27.5
 20
-16.207
 21
-15.25
  0
LINE
  8
0
 10
27.5
 11
27.31
 20
-15.25
 21
-14.293
  0
LINE
  8
0
 10
27.31
 11
26.768
 20
-14.293
 21
-13.482
  0
LINE
  8
0
 10
26.768
 11
25.957
 20
-13.482
 21
-12.94
  0
LINE
  8
0
 10
25.957
 11
25
 20
-12.94
 21
-12.75
  0
LINE
  8
0
 10
25
 11
24.043
 20
-12.75
 21
-12.94
  0
LINE
  8
0
 10
24.043
 11
23.232
 20
-12.94
 21
-13.482
  0
LINE
  8
0
 10
23.232
 11
22.69
 20
-13.482
 21
-14.293
  0
LINE
  8
0
 10
22.69
 11
22.5
 20
-14.293
 21
-15.25
  0
LINE
  8
0
 10
22.5
 11
22.69
 20
-15.25
 21
-16.207
  0
LINE
  8
0
 10
22.69
 11
23.232
 20
-16.207
 21
-17.018
  0
LINE
  8
0
 10
23.232
 11
24.043
 20
-17.018
 21
-17.56
  0
LINE
  8
0
 10
24.043
 11
24.5
 20
-17.56
 21
-17.651
  0
LINE
  8
0
 10
24.5
 11
24.5
 20
-17.651
 21
-20.25
  0
LINE
  8
0
 10
24.5
 11
-24.5
 20
-20.25
 21
-20.25
  0
LINE
  8
0
 10
-24.5
 11
-24.5
 20
-20.25
 21
-17.651
  0
LINE
  8
0
 10
-24.5
 11
-24.043
 20
-17.651
 21
-17.56
  0
LINE
  8
0
 10
-24.043
 11
-23.232
 20
-17.56
 21
-17.018
  0
LINE
  8
0
 10
-23.232
 11
-22.69
 20
-17.018
 21
-16.207
  0
LINE
  8
0
 10
-22.69
 11
-22.5
 20
-16.207
 21
-15.25
  0
LINE
  8
0
 10
-22.5
 11
-22.69
 20
-15.25
 21
-14.293
  0
LINE
  8
0
 10
-22.69
 11
-23.232
 20
-14.293
 21
-13.482
  0
LINE
  8
0
 10
-23.232
 11
-24.043
 20
-13.482
 21
-12.94
  0
LINE
  8
0
 10
-24.043
 11
-25
 20
-12.94
 21
-12.75
  0
LINE
  8
0
 10
-25
 11
-25.957
 20
-12.75
 21
-12.94
  0
LINE
  8
0
 10
-25.957
 11
-26.768
 20
-12.94
 21
-13.482
  0
LINE
  8
0
 10
-26.768
 11
-27.31
 20
-13.482
 21
-14.293
  0
LINE
  8
0
 10
-27.31
 11
-27.5
 20
-14.293
 21
-15.25
  0
LINE
  8
0
 10
-27.5
 11
-27.31
 20
-15.25
 21
-16.207
  0
LINE
  8
0
 10
-27.31
 11
-26.768
 20
-16.207
 21
-17.018
  0
LINE
  8
0
 10
-26.768
 11
-25.957
 20
-17.018
 21
-17.56
  0
LINE
  8
0
 10
-25.957
 11
-25.5
 20
-17.56
 21
-17.651
  0
LINE
  8
0
 10
-25.5
 11
-25.5
 20
-17.651
 21
-20.25
  0
LINE
  8
0
 10
-25.5
 11
-30
 20
-20.25
 21
-20.25
  0
LINE
  8
0
 10
-30
 11
-30.849
 20
-20.25
 21
-19.899
  0
LINE
  8
0
 10
-30.849
 11
-31.2
 20
-19.899
 21
-19.05
  0
LINE
  8
0
 10
-11.6
 11
-11.6
 20
-17.35
 21
-4.65
  0
LINE
  8
0
 10
-11.6
 11
11.5
 20
-4.65
 21
-4.65
  0
LINE
  8
0
 10
11.5
 11
11.5
 20
-4.65
 21
-8.29
  0
LINE
  8
0
 10
11.5
 11
12.218
 20
-8.29
 21
-8.433
  0
LINE
  8
0
 10
12.218
 11
12.997
 20
-8.433
 21
-8.953
  0
LINE
  8
0
 10
12.997
 11
13.517
 20
-8.953
 21
-9.732
  0
LINE
  8
0
 10
13.517
 11
13.7
 20
-9.732
 21
-10.65
  0
LINE
  8
0
 10
13.7
 11
13.517
 20
-10.65
 21
-11.568
  0
LINE
  8
0
 10
13.517
 11
12.997
 20
-11.568
 21
-12.347
  0
LINE
  8
0
 10
12.997
 11
12.218
 20
-12.347
 21
-12.867
  0
LINE
  8
0
 10
12.218
 11
11.5
 20
-12.867
 21
-13.01
  0
LINE
  8
0
 10
11.5
 11
11.5
 20
-13.01
 21
-17.35
  0
LINE
  8
0
 10
11.5
 11
-11.6
 20
-17.35
 21
-17.35
  0
ENDSEC
  0
SECTION
  2
OBJECTS
  0
DICTIONARY
  0
ENDSEC
  0
EOF
