<?xml version="1.0" encoding="UTF-8" standalone="no"?>
<svg
   xmlns:dc="http://purl.org/dc/elements/1.1/"
   xmlns:cc="http://creativecommons.org/ns#"
   xmlns:rdf="http://www.w3.org/1999/02/22-rdf-syntax-ns#"
   xmlns:svg="http://www.w3.org/2000/svg"
   xmlns="http://www.w3.org/2000/svg"
   xmlns:sodipodi="http://sodipodi.sourceforge.net/DTD/sodipodi-0.dtd"
   xmlns:inkscape="http://www.inkscape.org/namespaces/inkscape"
   width="400"
   height="400"
   version="1.1"
   id="svg7225"
   inkscape:version="0.48.1 r9760"
   sodipodi:docname="tree_init.svg">
  <metadata
     id="metadata11444">
    <rdf:RDF>
      <cc:Work
         rdf:about="">
        <dc:format>image/svg+xml</dc:format>
        <dc:type
           rdf:resource="http://purl.org/dc/dcmitype/StillImage" />
        <dc:title></dc:title>
      </cc:Work>
    </rdf:RDF>
  </metadata>
  <sodipodi:namedview
     pagecolor="#ffffff"
     bordercolor="#666666"
     borderopacity="1"
     objecttolerance="10"
     gridtolerance="10"
     guidetolerance="10"
     inkscape:pageopacity="0"
     inkscape:pageshadow="2"
     inkscape:window-width="1280"
     inkscape:window-height="776"
     id="namedview11442"
     showgrid="false"
     inkscape:zoom="1.152"
     inkscape:cx="202.23027"
     inkscape:cy="198.47755"
     inkscape:window-x="0"
     inkscape:window-y="24"
     inkscape:window-maximized="1"
     inkscape:current-layer="svg7225" />
  <defs
     id="defs7227">
    <polygon
       id="TRIANGLE"
       points="-0.5,-0.288675 0.5,-0.288675 0,0.57735 " />
  </defs>
  <path
     d="m 268.77195,18.03111 -0.19628,0.349219 -0.19628,0.324275 -0.19628,0.349219 -0.19628,0.324275 -0.17175,0.349218 -0.19627,0.324275 -0.19629,0.349219 -0.19628,0.349219 -0.0735,0.09978 -0.0981,0.04989 -0.36803,0.124722 -0.34349,0.124721 -0.36802,0.149665 -0.36803,0.124721 -0.36803,0.124721 -0.34349,0.149665 -0.36802,0.124721 -0.36803,0.149666 0.14721,0.349219 0.34349,-0.124722 0.36802,-0.124721 0.36803,-0.149665 0.34349,-0.124721 0.36803,-0.149665 0.36802,-0.124721 0.36803,-0.124721 0.24536,-0.09978 0.39256,0.47394 0.44163,0.523828 0.44163,0.523829 0.44164,0.548772 0.44162,0.523829 0.44164,0.523828 0.44163,0.548773 0.31896,0.374163 -0.53977,0.94788 -0.61343,1.072602 -0.61337,1.072601 -0.58884,1.072601 -0.61338,1.072601 -0.61338,1.072601 -0.61338,1.072601 -0.58884,1.072602 -0.19628,0.349219 -0.36803,0.12472 -1.15315,0.424052 -1.12862,0.399108 -1.15315,0.424051 -1.12861,0.424052 -1.15315,0.424052 -1.12862,0.424051 -1.15315,0.424052 -1.12862,0.424051 0.0245,0.07483 -0.53977,-0.324275 -0.58885,-0.324275 -0.58884,-0.349219 -0.61337,-0.349218 -0.58885,-0.34922 -0.58884,-0.349219 -0.58885,-0.349219 -0.51523,-0.29933 0.049,-0.299331 0.049,-0.374163 0.0735,-0.399107 0.0735,-0.374164 0.0735,-0.399107 0.049,-0.374164 0.0737,-0.374162 0.0735,-0.399107 -0.39256,-0.07483 -0.049,0.399107 -0.0735,0.374163 -0.0735,0.399107 -0.049,0.374164 -0.0735,0.399107 -0.0735,0.374164 -0.0735,0.374163 -0.049,0.399107 -0.0245,0.07483 -0.0735,0.02495 -0.36803,0.149665 -0.36803,0.124721 -0.34349,0.124721 -0.36802,0.149665 -0.36827,0.124721 -0.34349,0.124722 -0.36802,0.149665 -0.36803,0.124721 0.12267,0.374163 0.36803,-0.124721 0.36802,-0.149666 0.36803,-0.124721 0.3435,-0.149664 0.36803,-0.124721 0.36802,-0.124722 0.36803,-0.149665 0.31896,-0.124721 -0.0245,0.04989 0.58884,0.349219 0.58884,0.349218 0.58884,0.349219 0.61339,0.349219 0.58884,0.34922 0.58884,0.349219 0.58884,0.349218 0.58884,0.324275 0.12269,0.07483 0,0.149665 0,0.698438 0,0.698438 0,0.698438 0,0.698438 0,0.698437 0,0.698439 0,0.673494 0,0.623605 -0.26989,0.09978 -0.34349,0.124722 -0.36803,0.149665 -0.36803,0.124721 -0.36802,0.124721 -0.34349,0.149666 -0.36807,0.12472 -0.36803,0.124721 0.14721,0.374164 0.34349,-0.124721 0.36803,-0.149665 0.36802,-0.124722 0.34349,-0.124721 0.36803,-0.149665 0.36803,-0.124721 0.36803,-0.124721 0.34349,-0.149665 0.12268,-0.04988 0.12267,0.04988 0.34349,0.149665 0.36803,0.124721 0.36803,0.124721 0.36803,0.149665 0.34349,0.124721 0.36803,0.124722 0.36802,0.149665 0.36803,0.124721 0.12267,-0.374164 -0.36803,-0.124721 -0.36802,-0.12472 -0.34349,-0.149666 -0.36803,-0.124721 -0.36803,-0.124721 -0.34349,-0.149665 -0.36802,-0.124722 -0.26989,-0.09978 0,-0.623605 0,-0.673494 0,-0.698439 0,-0.698437 0,-0.698438 0,-0.698438 0,-0.698438 0,-0.498884 1.00594,-0.374164 1.15315,-0.424051 1.12861,-0.424052 1.15315,-0.424052 1.12862,-0.424051 1.15315,-0.424052 1.12862,-0.424051 0.83419,-0.29933 1.2513,1.471708 1.37396,1.696206 1.3985,1.671263 1.37397,1.696206 1.3985,1.671262 1.3985,1.671262 1.37397,1.696207 1.03047,1.222267 -1.69292,2.993305 -1.91374,3.392413 -1.93827,3.367469 -1.91375,3.392413 -1.91373,3.392412 -1.93828,3.367469 -1.91374,3.392413 -1.91373,3.367468 -0.14721,0.274387 -0.29443,-0.09978 -3.60666,-1.346987 -3.60667,-1.322043 -3.63119,-1.346988 -3.60667,-1.322043 -3.60666,-1.346988 -3.60666,-1.322044 -3.60667,-1.346987 -3.60666,-1.322043 -0.0981,0.249442 -0.66245,-1.89576 -0.73605,-2.07037 -0.73605,-2.07037 -0.73606,-2.045424 -0.73605,-2.07037 -0.73605,-2.07037 -0.73606,-2.070369 -0.66245,-1.795984 0.68699,-0.598661 0.93233,-0.798215 0.93234,-0.798214 0.93233,-0.798215 0.93233,-0.773271 0.93233,-0.798215 0.93234,-0.798215 0.93233,-0.798214 -0.049,-0.04988 0.58884,0.09978 0.687,0.124721 0.66244,0.124721 0.68698,0.124721 0.66245,0.09978 0.68698,0.124721 0.66245,0.124721 0.66245,0.124721 0,-0.07483 0.19628,0.324275 0.19629,0.349219 0.17174,0.349219 0.19628,0.324274 0.19628,0.34922 0.19629,0.324275 0.19628,0.349219 0.19628,0.324274 0.31895,-0.174609 -0.19628,-0.349219 -0.17174,-0.349219 -0.19629,-0.324275 -0.19628,-0.349219 -0.19628,-0.324275 -0.19628,-0.349219 -0.19628,-0.324274 -0.17175,-0.349219 -0.049,-0.07483 0.049,-0.07483 0.17175,-0.324275 0.19628,-0.34922 0.19628,-0.324275 0.19628,-0.349218 0.19628,-0.349219 0.19629,-0.324275 0.17174,-0.349219 0.19628,-0.324275 -0.31895,-0.199553 -0.19628,0.324275 -0.19628,0.349219 -0.19629,0.349218 -0.19628,0.324275 -0.19628,0.349219 -0.17174,0.324275 -0.19629,0.349218 -0.1472,0.249443 -0.58885,-0.09978 -0.68699,-0.124721 -0.66244,-0.124721 -0.66245,-0.124721 -0.68699,-0.124721 -0.66244,-0.124722 -0.68698,-0.09978 -0.66246,-0.124721 -0.049,0 0,-0.07483 0,-0.698438 0,-0.698438 0,-0.673493 0,-0.698439 0,-0.698437 0,-0.698439 0,-0.698437 0,-0.598662 0.24535,-0.09978 0.36803,-0.149665 0.36803,-0.124722 0.36802,-0.149665 0.34349,-0.124721 0.36803,-0.124721 0.36803,-0.149665 0.34349,-0.124721 -0.12267,-0.374164 -0.36803,0.149665 -0.34349,0.124722 -0.36803,0.124721 -0.36802,0.149665 -0.36803,0.124722 -0.34349,0.12472 -0.36803,0.149665 -0.36803,0.124721 -0.0981,0.04988 -0.12267,-0.04988 -0.36803,-0.124721 -0.36803,-0.149665 -0.34349,-0.12472 -0.36803,-0.124722 -0.36803,-0.149665 -0.34349,-0.124721 -0.36803,-0.124722 -0.36802,-0.149665 -0.12268,0.374164 0.34349,0.124721 0.36803,0.149665 0.36803,0.124721 0.36802,0.124721 0.3435,0.149665 0.36802,0.124722 0.36803,0.149665 0.26989,0.09978 0,0.598662 0,0.698437 0,0.698439 0,0.698437 0,0.698439 0,0.673493 0,0.698438 0,0.623605 -0.049,-0.04988 -0.93234,0.798215 -0.93233,0.798214 -0.93234,0.798215 -0.93233,0.773271 -0.93234,0.798214 -0.93233,0.798215 -0.93234,0.798215 -0.93233,0.798215 -0.29442,0.249442 -0.39256,0 -1.20223,0 -1.22675,0 -1.20223,0 -1.22675,0 -1.20223,0 -1.22675,0 -1.20221,0 -1.22677,0 0,0.07483 -0.39256,-0.473941 -0.44163,-0.548772 -0.44163,-0.523828 -0.44164,-0.523829 -0.44162,-0.548772 -0.44164,-0.523829 -0.44163,-0.523829 -0.36802,-0.473939 0.12267,-0.249442 0.19628,-0.349219 0.19628,-0.324275 0.19628,-0.349219 0.19629,-0.324274 0.19628,-0.34922 0.17174,-0.349219 0.19628,-0.324275 -0.31896,-0.199553 -0.19628,0.349219 -0.19628,0.324274 -0.19628,0.349219 -0.19628,0.324275 -0.19628,0.349219 -0.17174,0.324275 -0.19628,0.349219 -0.19629,0.349219 -0.0245,0.04988 -0.0982,0 -0.39256,0 -0.36803,0 -0.39256,0 -0.39255,0 -0.36803,0 -0.39256,0 -0.39257,0 -0.36802,0 0,0.399108 0.36802,0 0.39257,0 0.39256,0 0.36803,0 0.39255,0 0.39256,0 0.36803,0 0.34349,0 -0.0245,0.02495 0.44163,0.548772 0.44164,0.523829 0.44162,0.523829 0.44164,0.548772 0.44164,0.523829 0.44162,0.523828 0.44164,0.548772 0.4171,0.52383 0.0981,0.12472 -0.049,0.124721 -0.22082,0.64855 -0.24534,0.648549 -0.22082,0.673494 -0.24535,0.64855 -0.22082,0.64855 -0.24535,0.648549 -0.24535,0.64855 -0.19628,0.573716 -0.26989,0 -0.39256,0 -0.39256,0 -0.36803,0 -0.39256,0 -0.39256,0 -0.39257,0 -0.36802,0 0,0.399108 0.36802,0 0.39257,0 0.39256,0 0.39256,0 0.36803,0 0.39256,0 0.39256,0 0.36802,0 0.0735,0 0.049,0.07483 0.19629,0.349219 0.19628,0.324274 0.19628,0.34922 0.19628,0.324275 0.17174,0.349219 0.19629,0.324275 0.19628,0.349218 0.19628,0.349219 0.31895,-0.199553 -0.17174,-0.349219 -0.19628,-0.324275 -0.19628,-0.349219 -0.19628,-0.349219 -0.19628,-0.324275 -0.19628,-0.349219 -0.17174,-0.324275 -0.17176,-0.29933 0.0245,0 0.24535,-0.64855 0.22082,-0.648549 0.24535,-0.673494 0.22081,-0.648549 0.24535,-0.64855 0.22082,-0.648549 0.24536,-0.64855 0.17174,-0.498884 1.07955,0 1.20221,0 1.22676,0 1.20222,0 1.22676,0 1.20222,0 1.22676,0 0.88326,0 0.66245,1.845871 0.73605,2.045426 0.73605,2.07037 0.73606,2.070369 0.73605,2.07037 0.73605,2.045426 0.76059,2.070369 0.73606,2.070369 0.14722,0.424052 -0.29443,0.349219 -1.3985,1.696207 -1.37397,1.671261 -1.3985,1.696207 -1.37397,1.671262 -1.3985,1.696207 -1.3985,1.671262 -1.37396,1.696207 -1.2513,1.471708 -0.80966,-0.299331 -1.15315,-0.424051 -1.12862,-0.424052 -1.15315,-0.424052 -1.15315,-0.424051 -1.12862,-0.424052 -1.15314,-0.424052 -1.00595,-0.374162 0,-0.498884 0,-0.698438 0,-0.698439 0,-0.698437 0,-0.698438 0,-0.698438 0,-0.698438 0,-0.673494 -0.049,0 0.26989,-0.224498 0.29442,-0.274386 0.29442,-0.249442 0.29442,-0.249443 0.29442,-0.249441 0.29443,-0.249443 0.29442,-0.249441 0.29442,-0.249443 -0.24535,-0.299331 -0.29443,0.249443 -0.29441,0.249441 -0.29442,0.249443 -0.29443,0.249442 -0.29442,0.249442 -0.29442,0.249443 -0.29442,0.274385 -0.29442,0.249443 -0.049,0.04988 -0.0735,-0.02495 -0.36807,-0.149665 -0.36802,-0.124721 -0.36803,-0.149665 -0.34349,-0.124721 -0.36803,-0.124722 -0.36803,-0.149665 -0.3435,-0.124721 -0.36802,-0.124721 -0.14721,0.349219 0.36803,0.149666 0.36802,0.124721 0.36803,0.149665 0.34349,0.124721 0.36803,0.124721 0.36802,0.149665 0.36803,0.124721 0.24535,0.09978 0,0.598661 0,0.698439 0,0.698437 0,0.698438 0,0.698438 0,0.698438 0,0.698438 0,0.698438 0,0.224498 -0.12267,0.149665 -0.44163,0.548773 -0.44163,0.523828 -0.44164,0.523829 -0.44163,0.548772 -0.44163,0.523829 -0.44163,0.523828 -0.44164,0.548772 -0.39255,0.448996 -0.24536,-0.09978 -0.36802,-0.124721 -0.36803,-0.124721 -0.36803,-0.149666 -0.34349,-0.124721 -0.36802,-0.12472 -0.36803,-0.149666 -0.3435,-0.124721 -0.14721,0.374163 0.36803,0.124721 0.36802,0.124722 0.34349,0.149665 0.36803,0.12472 0.36803,0.124721 0.36803,0.149666 0.34349,0.124721 0.36803,0.149665 0.0735,0.02495 0.0245,0.07483 0.0491,0.374163 0.0735,0.399107 0.0735,0.374164 0.0735,0.399107 0.049,0.374163 0.0735,0.399108 0.0735,0.374163 0.049,0.374164 0.39257,-0.04989 -0.0735,-0.399106 -0.0735,-0.374164 -0.0491,-0.399107 -0.0735,-0.374164 -0.0735,-0.374163 -0.049,-0.399107 -0.0735,-0.374164 -0.0735,-0.399107 0.049,0.07483 0.44163,-0.548773 0.44164,-0.523828 0.41709,-0.523829 0.44163,-0.548772 0.44164,-0.523828 0.44162,-0.52383 0.44164,-0.548772 0.31895,-0.374163 1.00595,0.374163 1.15315,0.424052 1.12862,0.424051 1.15314,0.399108 1.15315,0.424051 1.12862,0.424052 1.15315,0.424052 1.12862,0.424051 0.24534,0.09978 0.0491,0.249443 0.19628,1.222265 0.22082,1.222267 0.22081,1.197322 0.19628,1.222267 0.22081,1.222266 0.19629,1.222266 0.22081,1.222267 0.19629,1.072601 -0.44164,0.249442 -0.58884,0.349219 -0.58884,0.349219 -0.58884,0.349219 -0.61339,0.349219 -0.58884,0.349219 -0.58884,0.349219 -0.51524,0.274386 -0.22082,-0.174609 -0.29442,-0.249443 -0.29441,-0.249441 -0.29443,-0.249443 -0.29442,-0.249441 -0.29443,-0.249443 -0.29441,-0.249442 -0.29442,-0.249442 -0.24535,0.299331 0.29441,0.249441 0.29443,0.249443 0.29442,0.249441 0.29442,0.249443 0.29442,0.249442 0.29442,0.249442 0.29443,0.249443 0.29441,0.249441 0.0735,0.04989 -0.0245,0.09978 -0.0735,0.374163 -0.0735,0.399107 -0.049,0.374164 -0.0735,0.399107 -0.0735,0.374163 -0.049,0.374164 -0.0735,0.399107 -0.0735,0.374163 0.39257,0.07479 0.0491,-0.374163 0.0735,-0.399108 0.0735,-0.374163 0.049,-0.399108 0.0735,-0.374163 0.0735,-0.399107 0.0735,-0.374163 0.049,-0.374163 0.0245,0.07479 0.58883,-0.349219 0.58885,-0.349219 0.58884,-0.349219 0.58885,-0.349218 0.61338,-0.349219 0.58883,-0.34922 0.58885,-0.349219 0.58884,-0.349218 0.19629,-0.124722 0.19628,0.04989 0.68698,0.124722 0.66245,0.12472 0.68698,0.124721 0.66245,0.124721 0.68699,0.09978 0.66244,0.124721 0.66246,0.124721 0.68698,0.124722 0.17174,0.274386 0.19628,0.324275 0.19628,0.349219 0.19629,0.324274 0.19628,0.349219 0.17174,0.324275 0.19628,0.349219 0.19629,0.349219 0.34349,-0.199554 -0.19629,-0.349219 -0.19628,-0.324274 -0.19628,-0.349219 -0.19628,-0.349219 -0.17198,-0.324196 -0.19629,-0.349219 -0.19628,-0.324274 -0.19628,-0.349219 -0.049,-0.07479 0.049,-0.07479 0.19628,-0.324275 0.19628,-0.349219 0.19629,-0.324275 0.17174,-0.349219 0.19628,-0.349219 0.19628,-0.324275 0.19629,-0.349219 0.19628,-0.324274 -0.34349,-0.199554 -0.19629,0.349219 -0.19628,0.324275 -0.17174,0.349218 -0.19628,0.324275 -0.19628,0.349219 -0.19629,0.324275 -0.19628,0.349219 -0.14721,0.249442 -0.58884,-0.09978 -0.66245,-0.124722 -0.68699,-0.124721 -0.66244,-0.124715 -0.66244,-0.124721 -0.68699,-0.124722 -0.66245,-0.09978 -0.51523,-0.09978 -0.17175,-1.072602 -0.22082,-1.222265 -0.19628,-1.222267 -0.22082,-1.197322 -0.22081,-1.222267 -0.19629,-1.222266 -0.22081,-1.222266 -0.17175,-1.072602 0.0982,0.07483 1.37396,-1.696207 1.3985,-1.671262 1.37397,-1.696207 1.3985,-1.671262 1.3985,-1.696206 1.37397,-1.671263 1.3985,-1.671262 1.03048,-1.247211 3.16503,1.172379 3.6312,1.346987 3.60666,1.322043 3.60666,1.346988 3.60667,1.322043 3.60666,1.346987 3.60666,1.322044 3.26317,1.222266 -0.39255,0.149665 2.33083,6.51044 2.33083,6.535384 2.33084,6.510438 2.35537,6.535387 2.33085,6.51044 2.33083,6.53539 2.33084,6.51043 1.71745,4.83918 -8.19473,6.98438 -9.2988,7.93226 -9.29882,7.93226 -9.29881,7.93226 -9.32335,7.93226 -9.29881,7.93225 -9.29882,7.93227 -9.29881,7.93218 -0.73605,0.64855 -0.76059,-0.64855 -9.29881,-7.93227 -9.29881,-7.93225 -9.29881,-7.93226 -9.29882,-7.93226 -9.29881,-7.93226 -9.29881,-7.93226 -9.29881,-7.93226 -9.29882,-7.93226 -0.4907,0.59866 0,-6.28594 0,-6.95943 0,-6.9345 0,-6.93449 0,-6.959436 0,-6.934491 0,-6.934491 0,-6.136276 2.67434,-0.972824 3.60665,-1.346988 3.60667,-1.322043 3.60666,-1.346987 3.60667,-1.322044 3.60665,-1.346987 3.60667,-1.346988 3.18957,-1.172378 1.03047,1.247211 1.37397,1.671262 1.3985,1.696206 1.39851,1.671262 1.37396,1.696207 1.3985,1.671262 1.37397,1.696207 1.3985,1.671262 0.0981,-0.07483 -0.17175,1.097546 -0.22081,1.197322 -0.22081,1.222266 -0.19628,1.222267 -0.22082,1.222266 -0.19628,1.222267 -0.22082,1.197321 -0.22082,1.222267 0.0735,0 -0.51524,0.324275 -0.61338,0.349219 -0.58883,0.349218 -0.58885,0.34922 -0.58884,0.349219 -0.58885,0.349219 -0.58884,0.349219 -0.51524,0.29933 -0.22077,-0.174609 -0.29442,-0.249443 -0.29443,-0.249441 -0.29442,-0.249443 -0.29442,-0.274386 -0.29442,-0.249442 -0.29442,-0.249443 -0.29443,-0.249441 -0.26988,0.299331 0.31896,0.249441 0.29441,0.249443 0.29443,0.249441 0.29442,0.274387 0.29443,0.249442 0.29441,0.249442 0.29442,0.249443 0.29443,0.249441 0.049,0.04988 0,0.07479 -0.0735,0.399108 -0.0735,0.374163 -0.0735,0.399108 -0.0491,0.374163 -0.0735,0.374163 -0.0735,0.399108 -0.0735,0.374163 -0.049,0.399107 0.36802,0.04988 0.0735,-0.374163 0.0735,-0.374163 0.049,-0.399108 0.0735,-0.374163 0.0735,-0.399108 0.0735,-0.374163 0.049,-0.399108 0.0735,-0.374162 0.0245,0.07479 0.58885,-0.34922 0.58884,-0.349219 0.58885,-0.349219 0.58884,-0.349218 0.58884,-0.349219 0.58884,-0.34922 0.58885,-0.349219 0.61338,-0.349219 0.12267,-0.07479 0.12267,0.07479 0.58885,0.349219 0.58884,0.349219 0.58885,0.34922 0.58884,0.349219 0.58884,0.349218 0.61338,0.349219 0.58884,0.349219 0.51524,0.299331 -0.0491,0.29933 -0.0735,0.374163 -0.0491,0.399108 -0.0735,0.374163 -0.0735,0.374164 -0.0735,0.399107 -0.049,0.374163 -0.0735,0.399107 0.36802,0.04988 0.0735,-0.374163 0.0735,-0.374163 0.0735,-0.399108 0.049,-0.374163 0.0735,-0.399108 0.0735,-0.374163 0.049,-0.399107 0.0735,-0.374163 0.0245,-0.124721 0.0981,-0.07479 0.29442,-0.249442 0.29442,-0.249442 0.29442,-0.249443 0.29442,-0.249441 0.29443,-0.274387 0.29441,-0.249442 0.29443,-0.249442 0.29442,-0.249442 -0.24536,-0.29933 -0.29441,0.249441 -0.29442,0.249443 -0.29443,0.249442 -0.29442,0.274386 -0.29442,0.249442 -0.29442,0.249442 -0.29442,0.249443 -0.22082,0.174609 -0.51523,-0.29933 -0.58885,-0.349219 -0.61338,-0.34922 -0.58884,-0.349219 -0.58885,-0.349219 -0.58883,-0.349218 -0.58885,-0.349219 -0.44163,-0.249443 0.19628,-1.072601 0.19628,-1.222266 0.22082,-1.222267 0.19628,-1.197321 0.22082,-1.222267 0.22081,-1.222267 0.19628,-1.222266 0.22082,-1.222266 0,-0.07483 0.12267,0 1.20222,0 1.22676,0 1.20222,0 1.22675,0 1.20223,0 1.22675,0 1.20223,0 1.22675,0 0,-0.199554 0.0491,0.04988 0.41709,-0.523828 0.44164,-0.523829 0.44164,-0.548773 0.44162,-0.523828 0.44164,-0.523829 0.44162,-0.548772 0.44164,-0.523828 0.44164,-0.52383 0.39256,-0.47394 0.24534,0.09978 0.36803,0.124721 0.36803,0.124721 0.36802,0.149665 0.34349,0.124721 0.36803,0.149665 0.36803,0.124721 0.36803,0.124722 0.12268,-0.349219 -0.36803,-0.149666 -0.36803,-0.124721 -0.34349,-0.149665 -0.36802,-0.124721 -0.36803,-0.124722 -0.3435,-0.149665 -0.36803,-0.12472 -0.36802,-0.124722 -0.0981,-0.04989 -0.0735,-0.09978 -0.19628,-0.349219 -0.19628,-0.324274 -0.19628,-0.34922 -0.17175,-0.349219 -0.19628,-0.324275 -0.19628,-0.349219 -0.19628,-0.324274 -0.19628,-0.349219 -0.31896,0.199553 0.19628,0.324275 0.17175,0.349219 0.19628,0.349219 0.19628,0.324274 0.19628,0.34922 0.19628,0.324275 0.19629,0.349219 0.12267,0.224497 -0.39256,0.498884 -0.4171,0.52383 -0.44163,0.523828 -0.44164,0.548772 -0.44162,0.523829 -0.44164,0.523828 -0.44163,0.548773 -0.39257,0.47394 0,-0.07483 -1.22675,0 -1.20222,0 -1.22676,0 -1.20221,0 -1.22677,0 -1.20221,0 -1.22676,0 -1.10408,0 0.12268,-0.09978 -1.39851,-1.671262 -1.3985,-1.671262 -1.37397,-1.696206 -1.3985,-1.671263 -1.37397,-1.696206 -1.39849,-1.671263 -1.39851,-1.696206 -1.37396,-1.671262 -0.44164,-0.523828 0,-0.723383 0,-2.19509 0,-2.195091 0,-2.195091 0,-2.195091 0,-2.19509 0,-2.195091 0,-2.195091 0,-1.945648 0.83419,-0.299331 1.15315,-0.424051 1.12874,-0.424012 1.15315,-0.424052 1.12861,-0.424051 1.15316,-0.424052 1.12861,-0.424052 1.00594,-0.374163 0.3435,0.399107 0.41709,0.523829 0.44163,0.548773 0.44164,0.523828 0.44163,0.523829 0.44163,0.548772 0.44163,0.523829 0.39256,0.47394 -0.14721,0.249442 -0.19628,0.324275 -0.19628,0.349219 -0.19628,0.324274 -0.17175,0.349219 -0.19628,0.349219 -0.19628,0.324275 -0.19628,0.34922 0.3435,0.199553 0.19627,-0.349219 0.17175,-0.349219 0.19628,-0.324275 0.19628,-0.349219 0.19628,-0.324275 0.19628,-0.349219 0.19628,-0.324274 0.17175,-0.349219 0.049,-0.09978 0.14722,-0.04988 0.34349,-0.124722 0.36803,-0.149665 0.36802,-0.124721 0.36803,-0.124721 0.34349,-0.149665 0.36803,-0.124721 0.36802,-0.149666 0.34349,-0.124721 -0.12267,-0.374163 -0.36803,0.149666 -0.34349,0.12472 -0.36802,0.124721 -0.36803,0.149665 -0.36803,0.124722 -0.3435,0.149665 -0.36802,0.124721 -0.26988,0.09978 -0.39257,-0.47394 -0.44163,-0.523829 -0.44163,-0.548772 -0.4171,-0.523829 -0.44164,-0.523828 -0.44162,-0.548773 -0.44164,-0.523829 -0.44163,-0.523828 -0.14721,-0.174609 0,-0.224498 0,-0.698438 0,-0.698438 0,-0.698438 0,-0.673494 0,-0.698438 0,-0.698437 0,-0.698439 0,-0.623605 0.26989,-0.09978 0.36803,-0.124722 0.36802,-0.124721 0.34349,-0.149665 0.36803,-0.124722 0.36803,-0.12472 0.34349,-0.149665 0.36802,-0.124722 -0.12267,-0.374162 -0.36803,0.12472 -0.36802,0.149665 -0.34349,0.124721 -0.36803,0.149666 -0.36803,0.124721 -0.36802,0.124721 -0.3435,0.149665 -0.36803,0.124721 -0.12267,0.04988 -0.0981,-0.04988 -0.36802,-0.124721 -0.36803,-0.149665 -0.36803,-0.124721 -0.3435,-0.124721 -0.36802,-0.149666 -0.36803,-0.124721 -0.34349,-0.149665 -0.36803,-0.12472 -0.14721,0.374162 0.36803,0.124722 0.36803,0.149665 0.36802,0.12472 0.34349,0.124722 0.36803,0.149665 0.36803,0.124721 0.36802,0.124722 0.24536,0.09978 0,0.623605 0,0.698439 0,0.698437 0,0.698438 0,0.673494 0,0.698438 0,0.698438 0,0.523828 -1.00595,0.374164 -1.12861,0.399107 -1.15315,0.424052 -1.12861,0.424051 -1.15316,0.424051 -1.12861,0.424052 -1.15316,0.424052 -1.15315,0.424051 -0.22081,0.07483 -0.19628,-0.149665 -0.93233,-0.798215 -0.93234,-0.798214 -0.93233,-0.798215 -0.93234,-0.773271 -0.93233,-0.798215 -0.93234,-0.798215 -0.93233,-0.798214 -0.93234,-0.798215 -0.049,0.04988 0,-0.623606 0,-0.673494 0,-0.698438 0,-0.698437 0,-0.698439 0,-0.698437 0,-0.698438 0,-0.698439 -0.049,0 0.26988,-0.224497 0.29443,-0.249443 0.29441,-0.249441 0.29443,-0.249443 0.29442,-0.249441 0.29442,-0.249443 0.29442,-0.249442 0.29442,-0.249442 -0.24535,-0.299331 -0.29442,0.249443 -0.29442,0.249441 -0.29443,0.249443 -0.29441,0.249441 -0.29442,0.249443 -0.29443,0.249442 -0.29442,0.249442 -0.29442,0.249443 -0.0735,0.04988 -0.0735,-0.02495 -0.34349,-0.124722 -0.3681,-0.12472 -0.36803,-0.149665 -0.3435,-0.124721 -0.36802,-0.124722 -0.36803,-0.149665 -0.36803,-0.124721 -0.34349,-0.149666 -0.14721,0.374164 0.36803,0.149666 0.36803,0.12472 0.34349,0.124721 0.36802,0.149665 0.36803,0.124722 0.36803,0.124721 0.34349,0.149665 0.26989,0.09978 0,0.598661 0,0.698438 0,0.698438 0,0.698438 0,0.698437 0,0.698439 0,0.673493 0,0.698438 0,0.149665 -0.12267,0.07483 -0.58885,0.349218 -0.58884,0.349219 -0.58885,0.349219 -0.58884,0.34922 -0.61337,0.349218 -0.58885,0.349219 -0.58884,0.349219 -0.51524,0.299331 -0.22082,-0.17461 -0.29441,-0.274386 -0.29443,-0.249442 -0.29442,-0.249442 -0.29443,-0.249442 -0.29441,-0.249443 -0.29443,-0.249442 -0.29442,-0.249442 -0.24535,0.299331 0.29443,0.249442 0.29441,0.249442 0.29443,0.249442 0.29442,0.249442 0.29442,0.249443 0.29442,0.249441 0.29442,0.274387 0.29443,0.249442 0.0981,0.07483 0.0245,0.124721 0.049,0.374163 0.0735,0.399107 0.0735,0.374164 0.0735,0.374162 0.0491,0.399108 0.0735,0.374163 0.0735,0.399108 0.0491,0.374163 0.39256,-0.04989 -0.0735,-0.399107 -0.0735,-0.374163 -0.049,-0.399108 -0.0735,-0.374163 -0.0735,-0.399108 -0.049,-0.374162 -0.0735,-0.399108 -0.049,-0.274386 0.51524,-0.299331 0.58884,-0.349218 0.58885,-0.34922 0.61338,-0.349219 0.58883,-0.349219 0.58885,-0.349219 0.58884,-0.349218 0.44164,-0.249443 0.80965,0.698438 0.93233,0.798214 0.93234,0.798215 0.93233,0.798215 0.93234,0.773271 0.93233,0.798215 0.93234,0.798214 0.8342,0.723383 -0.12268,0 0,2.19509 0,2.195091 0,2.195091 0,2.195091 0,2.19509 0,2.195091 0,2.195091 0,1.621374 -3.18956,1.172377 -3.60667,1.346988 -3.60667,1.322043 -3.63119,1.346987 -3.60667,1.346988 -3.60666,1.322043 -3.60666,1.346988 -3.60666,1.322044 -1.15311,0.424051 -1.15316,-0.424051 -3.60666,-1.322044 -3.60666,-1.346988 -3.60667,-1.322043 -3.60681,-1.346988 -3.60666,-1.346987 -3.60666,-1.322043 -3.606668,-1.346988 -3.606663,-1.322043 -0.09814,0.249443 -0.662449,-1.895744 -0.736054,-2.07037 -0.736053,-2.045426 -0.736054,-2.070369 -0.736054,-2.07037 -0.760589,-2.07037 -0.736053,-2.045424 -0.736054,-2.07037 -0.392563,0.149665 0,-0.399108 -1.226755,0 -1.226756,0 -1.202222,0 -1.226755,0 -1.202222,0 -1.226756,0 -1.202221,0 -1.226757,0 -1.202221,0 0,0.09978 -0.392562,-0.498884 -0.441632,-0.523829 -0.441632,-0.548772 -0.441632,-0.523828 -0.441632,-0.523829 -0.441633,-0.548773 -0.441632,-0.523828 -0.441632,-0.523829 -0.02454,0.02495 0.04907,-0.349219 0.07361,-0.399107 0.07361,-0.374164 0.04907,-0.374162 0.07361,-0.399108 0.07361,-0.374163 0.07361,-0.399107 0.04907,-0.374164 -0.368027,-0.07483 -0.07361,0.374163 -0.04907,0.399108 -0.07361,0.374163 -0.07361,0.399106 -0.07361,0.374164 -0.04907,0.399107 -0.07361,0.374164 -0.07361,0.399107 -0.02454,0.07483 -0.07361,0.02495 -0.343492,0.12472 -0.368026,0.149666 -0.368027,0.124721 -0.343492,0.124721 -0.368027,0.149666 -0.368027,0.124721 -0.368026,0.12472 -0.343493,0.149666 0.122676,0.374163 0.368027,-0.149665 0.343492,-0.124721 0.368026,-0.149666 0.368027,-0.124721 0.368028,-0.124721 0.343491,-0.149664 0.368027,-0.124722 0.269887,-0.09978 0.392562,0.47394 0.441632,0.523828 0.441632,0.548774 0.417096,0.523828 0.441633,0.523828 0.441632,0.548773 0.441632,0.523828 0.441632,0.523829 0.04907,0.04988 -0.04907,0.04988 -0.441632,0.523829 -0.441632,0.523828 -0.441632,0.548772 -0.441633,0.52383 -0.417096,0.523828 -0.441632,0.548772 -0.441632,0.523829 -0.441633,0.548772 0.04907,0.02495 -0.368027,0 -0.392562,0 -0.368027,0 -0.392562,0 -0.392562,0 -0.368027,0 -0.392562,0 -0.392562,0 0,0.374162 0.392562,0 0.392562,0 0.368027,0 0.392562,0 0.392562,0 0.368027,0 0.392562,0 0.392562,0 0.07361,0 0.04907,0.07483 0.171746,0.349218 0.196281,0.324275 0.196281,0.349219 0.196281,0.324275 0.196281,0.349219 0.196281,0.349219 0.196281,0.324275 0.171746,0.349219 0.343492,-0.199554 L 73.693281,52.179735 73.497,51.85546 73.300718,51.506241 73.128973,51.181966 72.932692,50.832747 72.736411,50.483529 72.54013,50.159254 l -0.147211,-0.249443 0.392562,-0.47394 0.441632,-0.523828 0.441632,-0.548772 0.441633,-0.523829 0.441632,-0.523829 0.441632,-0.548772 0.441632,-0.523829 0.392562,-0.498884 0,0.09978 1.202221,0 1.226757,0 1.20222,0 1.226757,0 1.202221,0 1.226756,0 1.202222,0 0.907799,0 0.662448,1.820927 0.736054,2.07037 0.736054,2.045426 0.736054,2.070369 0.736053,2.07037 0.736054,2.07037 0.736054,2.045425 0.736053,2.07037 0.04907,0.174609 -0.122676,0.07483 -1.889205,1.097545 -1.864669,1.097546 -1.864669,1.097545 -1.864669,1.097546 -1.889206,1.097545 -1.864669,1.097544 -1.86467,1.097546 -1.864669,1.12249 0.07361,0.09978 -1.05501,-0.374163 -1.128616,-0.424052 -1.153151,-0.424052 -1.128615,-0.424051 -1.153151,-0.424052 -1.153151,-0.424052 -1.128711,-0.424051 -1.153151,-0.424052 -0.02454,0.07483 -0.196281,-0.573717 -0.245351,-0.673493 -0.220816,-0.64855 -0.245352,-0.648549 -0.220816,-0.64855 -0.24535,-0.64855 -0.220817,-0.64855 -0.245351,-0.673493 -0.02454,0 0.14721,-0.274386 0.196282,-0.34922 0.196281,-0.324275 0.19628,-0.349218 0.196282,-0.349219 0.19628,-0.324275 0.171746,-0.349219 0.196282,-0.324274 -0.318957,-0.199555 -0.196281,0.324275 -0.196281,0.34922 -0.196281,0.349218 -0.196281,0.324275 -0.171746,0.349219 -0.196281,0.324275 -0.196281,0.349219 -0.196281,0.324274 -0.02454,0.02495 -0.02454,0 -0.343491,-0.12472 -0.368028,-0.149665 -0.368026,-0.124722 -0.368027,-0.124721 -0.343491,-0.149665 -0.368028,-0.124721 -0.368027,-0.124721 -0.368026,-0.149665 -0.122676,0.374163 0.368027,0.124721 0.368027,0.149665 0.343491,0.124721 0.368028,0.124721 0.368026,0.149665 0.343492,0.124722 0.368026,0.124721 0.343493,0.124721 -0.04907,0.02495 0.220816,0.64855 0.245351,0.648549 0.220816,0.64855 0.245352,0.673493 0.220816,0.64855 0.245351,0.648549 0.245352,0.64855 0.220816,0.648549 0.04907,0.124721 -0.09814,0.124722 -0.441633,0.548772 -0.441632,0.523828 -0.417097,0.523829 -0.441632,0.548772 -0.441633,0.523829 -0.441632,0.523829 -0.441632,0.548772 -0.441632,0.523828 0.02454,0.02495 -0.343491,0 -0.368027,0 -0.392562,0 -0.392562,0 -0.392562,0 -0.368027,0 -0.392562,0 -0.392562,0 0,0.399108 0.392562,0 0.392562,0 0.368027,0 0.392562,0 0.392562,0 0.392562,0 0.368027,0 0.392562,0 0.07361,0 0.04907,0.07483 0.196282,0.324275 0.196281,0.34922 0.171746,0.349219 0.19628,0.324274 0.196282,0.349219 0.19628,0.324275 0.196281,0.349219 0.196282,0.324275 0.318963,-0.17461 -0.19628,-0.349219 -0.196282,-0.349218 -0.171745,-0.324275 -0.196282,-0.34922 -0.19628,-0.324275 -0.196282,-0.349219 -0.19628,-0.324274 -0.147211,-0.249442 0.392562,-0.47394 0.441632,-0.548773 0.441632,-0.523828 0.441632,-0.523829 0.441633,-0.548773 0.441632,-0.523828 0.441632,-0.523828 0.318957,-0.399108 1.00594,0.374164 1.153151,0.424051 1.128615,0.424052 1.153151,0.424052 1.128617,0.424051 1.15315,0.424052 1.128616,0.424052 1.15315,0.399106 1.128617,0.424052 0.04907,-0.09978 0.147211,0.274387 1.86467,-1.097546 1.864669,-1.097545 1.86467,-1.097546 1.889204,-1.097545 1.864669,-1.097546 1.86467,-1.097544 1.864669,-1.097546 1.692924,-0.972824 -0.07357,0.199554 3.606663,1.322043 3.606665,1.346988 3.60667,1.346987 3.60666,1.322043 3.6312,1.346988 3.60666,1.322043 3.60667,1.346987 2.64979,0.972824 0,6.136277 0,6.934491 0,6.934491 0,6.959442 0,6.93449 0,6.93449 0,6.95943 0,6.93449 0,1.47171 -1.2513,0.72338 -5.91296,3.46725 -5.91296,3.49219 -5.91297,3.46724 -5.912968,3.46725 -5.912965,3.46724 -5.912964,3.46725 -5.912962,3.46724 -5.912965,3.46725 0.220816,0.39911 -3.26321,-1.22227 -3.606664,-1.32204 -3.631198,-1.34699 -3.606663,-1.32204 -3.606663,-1.34699 -3.606664,-1.34699 -3.606662,-1.32204 -3.606664,-1.34699 -0.09814,0.24944 -0.662448,-1.87081 -0.736053,-2.07037 -0.736054,-2.07038 -0.736054,-2.07036 -0.736053,-2.04543 -0.736055,-2.07037 -0.736053,-2.07036 -0.760589,-2.07038 -0.09814,0.0499 0.539773,-0.94788 0.588843,-1.0726 0.613378,-1.07261 0.613378,-1.0726 0.613378,-1.07261 0.613378,-1.07259 0.588843,-1.0726 0.539773,-0.94788 0.490703,0.0998 0.686983,0.12471 0.662448,0.12473 0.686984,0.0998 0.662448,0.12471 0.686984,0.12473 0.662449,0.12471 0.588842,0.0998 0.04907,0.29934 0.07361,0.37416 0.07361,0.37416 0.04907,0.39911 0.07361,0.37416 0.07361,0.39911 0.07361,0.37416 0.04907,0.39911 0.392561,-0.0748 -0.07361,-0.39911 -0.07361,-0.37417 -0.04907,-0.37416 -0.07361,-0.39911 -0.07361,-0.37416 -0.07361,-0.39911 -0.04907,-0.37421 -0.07361,-0.3991 -0.02454,-0.0998 0.07361,-0.12471 0.171746,-0.32428 0.196281,-0.34922 0.19628,-0.34922 0.196282,-0.32427 0.19628,-0.34922 0.196282,-0.32427 0.171745,-0.34922 0.196282,-0.32428 -0.318957,-0.19955 -0.196281,0.32427 -0.196281,0.34922 -0.196281,0.32427 -0.196282,0.34922 -0.19628,0.34922 -0.171746,0.32428 -0.196281,0.34922 -0.14721,0.22449 -0.588844,-0.0998 -0.686983,-0.0998 -0.662442,-0.12472 -0.686983,-0.12472 -0.662448,-0.12472 -0.662449,-0.12472 -0.686984,-0.12473 -0.662448,-0.0998 -0.220816,-0.0499 -0.147211,-0.17461 -0.441632,-0.52383 -0.441633,-0.52383 -0.417096,-0.54877 -0.441632,-0.52383 -0.441632,-0.52383 -0.441633,-0.54877 -0.441632,-0.52383 -0.392562,-0.47394 0.14721,-0.24944 0.196282,-0.34922 0.19628,-0.32428 0.171746,-0.34922 0.196281,-0.32427 0.196282,-0.34922 0.19628,-0.32427 0.196282,-0.34922 -0.343493,-0.19955 -0.19628,0.34921 -0.171746,0.32428 -0.196281,0.34922 -0.196281,0.32428 -0.196281,0.34922 -0.196281,0.34921 -0.196281,0.32428 -0.196282,0.34921 -0.171745,0.32428 0.09814,0.0748 -0.09814,0.0748 0.441632,0.54877 0.441632,0.52383 0.417098,0.52383 0.441632,0.54877 0.441632,0.52383 0.441632,0.52383 0.441632,0.54877 0.318957,0.39911 -0.539773,0.92294 -0.588843,1.07259 -0.613378,1.0726 -0.613378,1.07268 -0.613378,1.07261 -0.588843,1.0726 -0.613378,1.0726 -0.613378,1.0726 -0.04907,0.0748 -0.09814,-0.0249 -1.128615,-0.42405 -1.153151,-0.42405 -1.128616,-0.42406 -1.153151,-0.42405 -1.128615,-0.42405 -1.153151,-0.42405 -1.153151,-0.42405 -1.128616,-0.42405 -0.02454,0.0748 -0.220816,-0.59866 -0.220816,-0.64855 -0.245352,-0.64855 -0.220816,-0.64855 -0.245351,-0.64854 -0.220816,-0.64856 -0.245351,-0.67349 -0.196281,-0.57372 0.196281,-0.17461 0.294422,-0.24944 0.294421,-0.24944 0.294421,-0.24944 0.318957,-0.24944 0.294421,-0.27439 0.294422,-0.24944 0.294421,-0.24945 -0.269886,-0.29933 -0.294421,0.24945 -0.294422,0.24944 -0.294422,0.27438 -0.294421,0.24944 -0.294422,0.24944 -0.294421,0.24944 -0.294421,0.24946 -0.294422,0.24944 -0.04907,0.0499 -0.07361,-0.0249 -0.368025,-0.12472 -0.368026,-0.14967 -0.343492,-0.12472 -0.368027,-0.14966 -0.368027,-0.12473 -0.368027,-0.12472 -0.343492,-0.14966 -0.368026,-0.12473 -0.122676,0.37417 0.343492,0.12472 0.368026,0.12472 0.368028,0.14967 0.343491,0.12472 0.368027,0.14967 0.368027,0.12471 0.368027,0.12473 0.318956,0.14966 -0.04907,0 0.245352,0.64855 0.220816,0.64855 0.24535,0.64855 0.220817,0.64854 0.245351,0.67351 0.245351,0.64854 0.220816,0.64855 0.245352,0.64856 0.04907,0.12471 -0.09814,0.12473 -0.441632,0.54876 -0.441633,0.52383 -0.441632,0.52383 -0.441633,0.54877 -0.441632,0.52383 -0.441632,0.52383 -0.441633,0.54877 -0.368026,0.47395 -0.269886,-0.0998 -0.368027,-0.14967 -0.368028,-0.12472 -0.343491,-0.14966 -0.368027,-0.12472 -0.368026,-0.12473 -0.368028,-0.14966 -0.343491,-0.12472 -0.147211,0.37416 0.368027,0.12472 0.368027,0.12472 0.368026,0.14967 0.343492,0.12472 0.368027,0.14967 0.368027,0.12471 0.343492,0.12473 0.368027,0.14966 0.07361,0.0249 0.02454,0.0748 0.07361,0.37415 0.04907,0.39911 0.07361,0.37417 0.07361,0.3991 0.04907,0.37417 0.07361,0.3991 0.07361,0.37417 0.07361,0.37416 0.368027,-0.0499 -0.07361,-0.3991 -0.04907,-0.37417 -0.07361,-0.3991 -0.07361,-0.37417 -0.07361,-0.37416 -0.04907,-0.39911 -0.07361,-0.37416 -0.07361,-0.37417 0.04907,0.0499 0.441632,-0.52383 0.441632,-0.54878 0.441633,-0.52383 0.441632,-0.52382 0.417097,-0.54878 0.441632,-0.52383 0.441633,-0.54877 0.318956,-0.37416 1.030476,0.37416 1.128615,0.42405 1.153151,0.42406 1.128616,0.42405 1.153151,0.3991 1.128615,0.42405 1.153151,0.42406 1.05501,0.3991 -0.14721,0.0499 0.736053,2.04542 0.736054,2.07037 0.736054,2.07037 0.736053,2.07036 0.736054,2.04543 0.736054,2.07037 0.760589,2.07037 0.736053,2.07037 0.04907,0.14967 -0.147211,0.0998 -1.86467,1.09755 -1.889204,1.09754 -1.864669,1.09755 -1.86467,1.09754 -1.864669,1.09755 -1.889205,1.09754 -1.864669,1.09755 -1.643853,0.97283 -0.686983,-0.59866 -0.932335,-0.77328 -0.932335,-0.79821 -0.932335,-0.79821 -0.932334,-0.79822 -0.932335,-0.79821 -0.932335,-0.79822 -0.834194,-0.67349 0.19628,-0.49889 0.220817,-0.64854 0.245351,-0.64856 0.220816,-0.67349 0.245351,-0.64855 0.220816,-0.64855 0.245352,-0.64855 0.220816,-0.64855 -0.04907,-0.0249 0.343491,-0.12471 0.368024,-0.12473 0.368027,-0.12471 0.343492,-0.14967 0.368026,-0.12472 0.368027,-0.14967 0.343492,-0.12472 0.368027,-0.12472 -0.122675,-0.37416 -0.368027,0.12472 -0.368028,0.14966 -0.343491,0.12473 -0.368027,0.12472 -0.368026,0.14966 -0.368028,0.12472 -0.343491,0.14967 -0.368027,0.12472 -0.02454,0 -0.02454,-0.025 -0.196274,-0.32428 -0.171746,-0.34922 -0.196281,-0.32427 -0.196282,-0.34922 -0.19628,-0.34922 -0.196281,-0.32427 -0.196281,-0.34922 -0.171746,-0.32428 -0.343492,0.19955 0.196281,0.32428 0.196281,0.34922 0.171746,0.32428 0.196281,0.34921 0.196281,0.32428 0.196281,0.34921 0.196281,0.34922 0.171746,0.29934 -0.04907,-0.0249 -0.220816,0.64855 -0.245351,0.6735 -0.220816,0.64854 -0.245351,0.64855 -0.220816,0.64855 -0.245351,0.64855 -0.220816,0.64855 -0.245352,0.6735 -0.04907,0.12472 -0.14721,0.0249 -0.662449,0.12471 -0.686983,0.12473 -0.662454,0.12471 -0.686983,0.12473 -0.66245,0.0998 -0.662448,0.12472 -0.686983,0.12473 -0.662448,0.12472 0.02454,0.0748 -0.294424,-0.24963 -0.294422,-0.27439 -0.294424,-0.2492 -0.294424,-0.24945 -0.294421,-0.24944 -0.294422,-0.24944 -0.294421,-0.24944 L 10.245351,152.6051 10,152.90442 l 0.294422,0.24945 0.294421,0.24944 0.294422,0.24944 0.294421,0.24945 0.294422,0.24944 0.294421,0.24944 0.294421,0.27438 0.294422,0.24944 0.02454,0.0249 -0.02454,0.0249 -0.171746,0.32429 -0.196281,0.34922 -0.196281,0.32427 -0.196281,0.34922 -0.196281,0.32427 -0.196281,0.34922 -0.171746,0.34921 -0.196281,0.32429 0.318957,0.19954 0.196281,-0.34922 0.196281,-0.32427 0.196281,-0.34922 0.196281,-0.32427 0.171745,-0.34922 0.196282,-0.34922 0.196281,-0.32428 0.171746,-0.32427 0.02454,0.0499 0.662448,-0.0998 0.662448,-0.12473 0.686984,-0.12471 0.662449,-0.12473 0.686983,-0.12472 0.662448,-0.12472 0.686984,-0.12472 0.564308,-0.0748 -0.02454,0.0249 0.932335,0.79822 0.932335,0.79821 0.932334,0.79821 0.932335,0.79821 0.932334,0.79822 0.932335,0.79822 0.932335,0.77326 0.932335,0.79822 0.196281,0.17461 -0.04907,0.24944 -0.196281,1.22227 -0.220816,1.22227 -0.220816,1.22238 -0.196281,1.19732 -0.220816,1.22227 -0.196281,1.22226 -0.220816,1.22228 -0.220816,1.19732 0.122675,0.0249 -0.564307,0.32428 -0.613378,0.34921 -0.588844,0.32428 -0.588842,0.34921 -0.588843,0.34923 -0.588843,0.34922 -0.588844,0.34922 -0.588842,0.34922 0.04907,0.0499 -0.368027,-0.12472 -0.343492,-0.14966 -0.368027,-0.12472 -0.368027,-0.12472 -0.368026,-0.14967 -0.343493,-0.12472 -0.368026,-0.12472 -0.368027,-0.14967 -0.122675,0.37417 0.368026,0.12472 0.343492,0.14966 0.368027,0.12472 0.368027,0.12472 0.343491,0.14967 0.368027,0.12472 0.368027,0.14966 0.368027,0.12473 0.02454,0 0,0.0499 -0.07361,0.37417 -0.07361,0.37417 -0.07361,0.3991 -0.04907,0.37416 -0.07361,0.39911 -0.07361,0.37416 -0.04907,0.39912 -0.07361,0.37415 0.368027,0.0748 0.07361,-0.39911 0.07361,-0.37416 0.04907,-0.39911 0.07361,-0.37417 0.07361,-0.37415 0.07361,-0.39912 0.04907,-0.37416 0.07361,-0.3991 0.02454,0.0748 0.588844,-0.34922 0.588842,-0.34923 0.588843,-0.34922 0.588843,-0.32427 0.588843,-0.34922 0.588843,-0.34922 0.613378,-0.34922 0.588843,-0.34922 0.122676,-0.0748 0.122676,0.0748 0.588842,0.34922 0.588843,0.34922 0.588844,0.34922 0.588842,0.34922 0.588843,0.32427 0.613378,0.34922 0.588843,0.34923 0.588844,0.34922 0.07361,0.32427 0.07361,0.37416 0.07361,0.39911 0.04907,0.37416 0.07361,0.37416 0.07361,0.39911 0.07361,0.37417 0.04907,0.3991 0.392562,-0.0748 -0.07361,-0.37417 -0.07361,-0.39911 -0.04907,-0.37415 -0.07361,-0.39912 -0.07361,-0.37415 -0.07361,-0.39912 -0.04907,-0.37416 -0.07361,-0.37416 0,-0.0499 0.02454,0 0.368027,-0.12472 0.343492,-0.14967 0.368027,-0.12472 0.368027,-0.14967 0.368026,-0.12471 0.343493,-0.12473 0.368026,-0.14966 0.368027,-0.12473 -0.147211,-0.37415 -0.343492,0.14966 -0.368027,0.12472 -0.368026,0.12472 -0.368027,0.14966 -0.343492,0.12473 -0.368027,0.12472 -0.368027,0.14967 -0.294421,0.0998 0,-0.0249 -0.588843,-0.34922 -0.588844,-0.34922 -0.613378,-0.34922 -0.588842,-0.34922 -0.588843,-0.34921 -0.588843,-0.32429 -0.588844,-0.34921 -0.441632,-0.24945 0.196282,-1.09754 0.196281,-1.19732 0.220816,-1.22223 0.220816,-1.22226 0.196281,-1.22227 0.220816,-1.22227 0.196281,-1.19732 0.196281,-1.12249 0.07361,0.12472 1.864669,-1.09755 1.86467,-1.09754 1.889204,-1.09755 1.864669,-1.09754 1.86467,-1.09755 1.864669,-1.09754 1.889204,-1.09755 1.668389,-0.97282 -0.07361,0.19955 3.606663,1.34699 3.631197,1.34699 3.606663,1.32204 3.606664,1.34699 3.606662,1.32204 3.606665,1.34699 3.606664,1.32205 3.606662,1.34698 0.294422,0.0998 -0.04907,0.32427 -0.662448,3.84142 -0.686985,3.8414 -0.662449,3.84141 -0.662448,3.84141 -0.662447,3.8414 -0.66245,3.86636 -0.662447,3.84141 -0.686985,3.84141 0.220816,0.0499 -1.668388,0.97283 -1.864669,1.09755 -1.864669,1.09754 -1.889204,1.09755 -1.86467,1.12249 -1.864669,1.09754 -1.889204,1.09755 -1.643854,0.97282 -0.686984,-0.59866 -0.932334,-0.79821 -0.932335,-0.79822 -0.932335,-0.79821 -0.932334,-0.77327 -0.932334,-0.79822 -0.9078,-0.79821 -0.932335,-0.79822 -0.04907,0.0748 0,-0.64854 0,-0.69844 0,-0.6735 0,-0.69844 0,-0.69844 0,-0.69843 0,-0.69844 0,-0.69844 -0.04907,0 0.269886,-0.22449 0.294422,-0.24944 0.294421,-0.24944 0.294422,-0.24945 0.294421,-0.24945 0.294421,-0.24944 0.294421,-0.24944 0.294422,-0.24944 -0.245352,-0.29933 -0.294421,0.24944 -0.294421,0.24944 -0.294421,0.24945 -0.294421,0.24944 -0.294422,0.24944 -0.294421,0.24944 -0.294422,0.24944 -0.294422,0.24944 -0.02454,0.0249 -0.02454,-0.0249 -0.294421,-0.24944 -0.294421,-0.24944 -0.294422,-0.24944 -0.294421,-0.24944 -0.294421,-0.24944 -0.294422,-0.24945 -0.294422,-0.24944 -0.294421,-0.24944 -0.245352,0.29933 0.294423,0.24944 0.294421,0.24944 0.294421,0.24944 0.294422,0.24945 0.294421,0.24945 0.294421,0.24944 0.294422,0.24944 0.269887,0.22449 -0.04907,0 0,0.69844 0,0.69844 0,0.69843 0,0.69844 0,0.69844 0,0.6735 0,0.69844 0,0.69843 0,0.0748 -0.04907,0 -0.686984,0.12473 -0.662448,0.0998 -0.686984,0.12471 -0.662448,0.12473 -0.686984,0.12472 -0.662448,0.12472 -0.686984,0.12472 -0.588843,0.0998 -0.147211,-0.24945 -0.171745,-0.34922 -0.196281,-0.32427 -0.196282,-0.34922 -0.196281,-0.32427 -0.19628,-0.34922 -0.196281,-0.32428 -0.171746,-0.34922 -0.343491,0.19956 0.196281,0.32427 0.19628,0.34922 0.196282,0.32428 0.171746,0.34922 0.19628,0.34922 0.196281,0.32427 0.196281,0.34922 0.196281,0.32427 0.04907,0.0998 -0.02454,0.14967 -0.04907,0.37416 -0.07361,0.37416 -0.07361,0.39911 -0.07361,0.37416 -0.04907,0.39911 -0.07361,0.37416 -0.07361,0.39911 -0.04907,0.37417 0.368027,0.0748 0.07361,-0.39911 0.04907,-0.37416 0.07361,-0.39911 0.07361,-0.37416 0.07361,-0.37417 0.04907,-0.3991 0.07361,-0.37417 0.04907,-0.29933 0.588844,-0.0998 0.686983,-0.12471 0.662448,-0.12473 0.686984,-0.0998 0.662448,-0.12471 0.686983,-0.12473 0.66245,-0.12471 0.613377,-0.12473 -0.04907,0.0748 0.932335,0.79821 0.932334,0.79821 0.932335,0.79822 0.932335,0.77327 0.907799,0.79821 0.932335,0.79822 0.932335,0.79821 0.932334,0.79822 0.318957,0.27439 0.04907,0.34922 0.220816,1.22226 0.19628,1.22227 0.220816,1.22226 0.220816,1.22227 0.196282,1.19733 0.220816,1.22226 0.19628,1.22227 0.220817,1.22227 0.07361,0 -0.392561,0.44899 -0.441633,0.54877 -0.441632,0.52383 -0.441632,0.52382 -0.441632,0.54878 -0.441632,0.52383 -0.441633,0.52383 -0.392562,0.47394 -0.245351,-0.0998 -0.368027,-0.12472 -0.368027,-0.12472 -0.343492,-0.14967 -0.368026,-0.12472 -0.368027,-0.12472 -0.368028,-0.14966 -0.343491,-0.12473 -0.147211,0.37417 0.368027,0.12472 0.368027,0.12472 0.343492,0.14967 0.368027,0.12472 0.368026,0.12472 0.368027,0.14966 0.343492,0.12473 0.368026,0.12471 0.07361,0.0249 0.02454,0.0998 0.04907,0.37416 0.07361,0.39911 0.07361,0.37416 0.07361,0.39911 0.04907,0.37416 0.07361,0.37417 0.07361,0.3991 0.07361,0.37416 0.368027,-0.0499 -0.07361,-0.39911 -0.04907,-0.37417 -0.07361,-0.3991 -0.07361,-0.37417 -0.07361,-0.3991 -0.04907,-0.37417 -0.07361,-0.37416 -0.07361,-0.37396 0.04907,0.0499 0.441631,-0.54878 0.441632,-0.52383 0.417099,-0.52383 0.441631,-0.54876 0.441632,-0.52383 0.441634,-0.52383 0.441631,-0.54877 0.441632,-0.52383 0.04907,-0.0499 0.02454,0.0249 0.61338,0.34922 0.588842,0.34922 0.588842,0.34922 0.588844,0.34922 0.588842,0.34921 0.588843,0.34922 0.588843,0.34922 0.515238,0.32428 -0.02454,0.27439 -0.07361,0.37416 -0.07361,0.37416 -0.07361,0.39911 -0.04907,0.37416 -0.07361,0.39912 -0.07361,0.37419 -0.04907,0.39912 0.368027,0.0499 0.07361,-0.37417 0.04907,-0.3991 0.07361,-0.37416 0.07361,-0.37417 0.07361,-0.3991 0.04907,-0.37417 0.07361,-0.3991 0.07361,-0.37417 0.02454,-0.14966 0.07361,-0.0499 0.294421,-0.24944 0.294421,-0.24945 0.294422,-0.24944 0.294421,-0.27438 0.318957,-0.24944 0.294421,-0.24944 0.294422,-0.24945 0.294422,-0.24945 -0.269887,-0.29932 -0.294421,0.24944 -0.294422,0.24944 -0.294421,0.24944 -0.294421,0.24944 -0.294422,0.27439 -0.294422,0.24944 -0.294421,0.24945 -0.220833,0.17461 -0.515237,-0.29933 -0.588843,-0.34922 -0.588842,-0.34922 -0.588843,-0.34922 -0.588843,-0.34922 -0.588843,-0.34922 -0.613378,-0.34922 -0.515238,-0.32427 0.07361,0 -0.220816,-1.22227 -0.19628,-1.19732 -0.220816,-1.22227 -0.220816,-1.22227 -0.196282,-1.22226 -0.220816,-1.22227 -0.19628,-1.19732 -0.171747,-0.89799 1.643853,-0.97282 1.889205,-1.09756 1.86467,-1.09754 1.864669,-1.09755 1.889205,-1.09754 1.864669,-1.09755 1.86467,-1.09754 1.864669,-1.09754 0.392562,-0.2245 0.417096,0.2245 1.864669,1.09754 1.86467,1.09754 1.864669,1.09755 1.889205,1.09754 1.864669,1.09755 1.86467,1.09754 1.86467,1.09756 1.668389,0.97282 -0.171746,0.89799 -0.196281,1.19732 -0.220817,1.22227 -0.196281,1.22226 -0.220816,1.22227 -0.220816,1.22227 -0.196281,1.19732 -0.196281,1.0726 -0.490703,0.0998 -0.662448,0.12472 -0.686983,0.12472 -0.662448,0.0998 -0.686984,0.12472 -0.662448,0.12472 -0.686983,0.12472 -0.588844,0.0998 -0.147211,-0.24944 -0.171745,-0.32428 -0.196281,-0.34922 -0.196282,-0.32427 -0.343492,0.17461 0.196281,0.34921 0.196281,0.32428 0.196281,0.34922 0.196281,0.34921 0.04907,0.0998 -0.02454,0.12473 -0.04907,0.37416 -0.07361,0.39911 -0.07361,0.37416 -0.07361,0.39911 -0.04907,0.37416 -0.07361,0.37417 -0.07361,0.3991 -0.07361,0.37417 0.392562,0.0748 0.07361,-0.37415 0.04907,-0.39911 0.07361,-0.37417 0.07361,-0.3991 0.07361,-0.37417 0.04907,-0.3991 0.07361,-0.37417 0.04907,-0.29933 0.588844,-0.0998 0.686983,-0.0998 0.662448,-0.12472 0.686984,-0.12472 0.662448,-0.12472 0.662448,-0.12473 0.686983,-0.12472 0.66245,-0.0998 0.24535,-0.0499 0.171746,0.0998 0.588843,0.34922 0.588844,0.34922 0.588842,0.34922 0.588843,0.34922 0.588844,0.34921 0.588842,0.34922 0.613379,0.34922 0.515237,0.29934 -0.04907,0.29933 -0.07357,0.37416 -0.07357,0.37416 -0.04907,0.39911 -0.07357,0.37416 -0.07357,0.39912 -0.04907,0.37415 -0.07357,0.39911 0.368028,0.0499 0.07357,-0.37416 0.07357,-0.39911 0.04907,-0.37417 0.07357,-0.37415 0.07357,-0.39912 0.07357,-0.37415 0.04907,-0.39911 0.07357,-0.37417 0.02449,-0.12472 0.09814,-0.0748 0.294421,-0.24944 0.294422,-0.24945 0.294422,-0.24944 0.294421,-0.27438 0.294421,-0.24944 0.294421,-0.24944 0.294421,-0.24945 0.294421,-0.24945 -0.24535,-0.29932 -0.294422,0.24944 -0.294421,0.24944 -0.294421,0.24944 -0.294421,0.24944 -0.294422,0.27439 -0.294421,0.24944 -0.294421,0.24945 -0.220807,0.17461 -0.515238,-0.29933 -0.613378,-0.34922 -0.588843,-0.34922 -0.588843,-0.34922 -0.588843,-0.34922 -0.588843,-0.34922 -0.588843,-0.34922 -0.441633,-0.24944 0.196282,-1.0726 0.196281,-1.22227 0.220816,-1.22226 0.196281,-1.19733 0.220816,-1.22227 0.220816,-1.22226 0.196281,-1.22227 0.220817,-1.22227 0.04907,-0.24944 0.220816,-0.0748 1.153151,-0.42406 1.153151,-0.42405 1.128615,-0.42405 1.153151,-0.42405 1.128615,-0.42405 1.153151,-0.42405 1.128615,-0.42406 1.030475,-0.37416 0.318957,0.3991 0.417097,0.52383 0.441632,0.52383 0.441632,0.54877 0.441632,0.52383 0.441633,0.52383 0.441632,0.54878 0.441632,0.52382 0.0245,-0.0499 -0.04907,0.37417 -0.07357,0.37416 -0.07357,0.3991 -0.04907,0.37417 -0.07357,0.3991 -0.07357,0.37417 -0.07357,0.39911 -0.04915,0.37413 0.368027,0.0748 0.07357,-0.3991 0.07357,-0.37416 0.04907,-0.39912 0.07357,-0.37415 0.07357,-0.37417 0.04907,-0.39911 0.07357,-0.37416 0.07357,-0.39911 0.02449,-0.0748 0.07357,-0.0249 0.343491,-0.14967 0.368034,-0.12472 0.368021,-0.12473 0.36803,-0.14966 0.343491,-0.12472 0.36803,-0.12472 0.368021,-0.14966 0.343491,-0.12473 -0.122674,-0.37416 -0.36802,0.14967 -0.343501,0.12471 -0.36802,0.12473 -0.36803,0.14966 -0.36803,0.12473 -0.343491,0.12471 -0.368027,0.14967 -0.269887,0.0998 -0.392561,-0.47393 -0.441633,-0.52383 -0.441632,-0.54877 -0.416779,-0.52387 -0.441632,-0.54878 -0.441633,-0.52383 -0.441632,-0.52383 -0.441632,-0.54876 -0.09814,-0.0998 0.04907,-0.14967 0.245351,-0.64855 0.220816,-0.64855 0.245351,-0.64854 0.220817,-0.64856 0.24535,-0.67349 0.220816,-0.64855 0.245352,-0.64855 0.220816,-0.64855 -0.04907,-0.0249 0.343491,-0.0998 0.368027,-0.14966 0.368027,-0.12473 0.343492,-0.14966 0.368026,-0.12473 0.368027,-0.12471 0.343492,-0.14967 0.36803,-0.12472 -0.122683,-0.37416 -0.368021,0.14966 -0.368029,0.12468 -0.343491,0.12473 -0.368027,0.14966 -0.368026,0.12472 -0.368028,0.12472 -0.343491,0.14967 -0.368027,0.12472 -0.07357,0.0249 -0.07357,-0.0499 -0.294421,-0.24945 -0.294422,-0.24944 -0.294422,-0.24944 -0.294421,-0.24944 -0.294422,-0.24944 -0.294421,-0.24945 -0.294421,-0.24944 -0.294422,-0.24945 -0.245351,0.29934 0.294421,0.24944 0.294422,0.24944 0.294421,0.24944 0.294421,0.24945 0.294423,0.24944 0.294421,0.24944 0.294421,0.24944 0.220816,0.17461 -0.19628,0.59866 -0.245352,0.64855 -0.220816,0.64855 -0.245351,0.64855 -0.220816,0.64855 -0.245352,0.6735 -0.220816,0.64855 -0.220816,0.57371 -0.02449,-0.0748 -1.153151,0.42405 -1.128615,0.42405 -1.153151,0.42405 -1.128616,0.42405 -1.153151,0.42405 -1.128614,0.42406 -1.153269,0.42405 -1.005941,0.37416 0.04907,-0.0998 -1.889204,-1.09755 -1.86467,-1.09754 -1.86467,-1.09755 -1.86467,-1.12249 -1.889204,-1.09755 -1.86467,-1.09754 -1.864669,-1.09755 -1.373967,-0.79821 0.588843,-3.39242 0.662449,-3.8414 0.662448,-3.84141 0.662448,-3.86635 0.662448,-3.84141 0.686983,-3.84141 0.662449,-3.84141 0.588843,-3.46724 0.220816,0.37416 5.912965,-3.4922 5.912965,-3.46724 5.912965,-3.46725 5.912962,-3.46724 5.912971,-3.46724 5.91296,-3.46725 5.91297,-3.49219 4.34272,-2.54431 8.21926,7.00932 9.29881,7.93226 9.29881,7.93226 9.29881,7.93227 9.29882,7.93225 9.29881,7.93226 9.29881,7.93226 8.39101,7.15899 -1.32489,0 0,21.9509 0,21.95091 0,21.92597 0,21.95091 0,21.9509 0,21.92597 0,21.9509 0,21.92596 0,21.95091 21.5909,0 0,-21.95091 0,-21.92596 0,-21.9509 0,-21.92597 0,-21.9509 0,-21.95091 0,-21.92597 0,-21.95091 0,-21.9509 -1.34943,0 8.39101,-7.15899 9.32335,-7.93226 9.29882,-7.93226 9.29881,-7.93225 9.29881,-7.93227 9.29881,-7.93226 9.29881,-7.93226 8.21927,-7.00932 4.34272,2.54431 5.91296,3.49219 5.91297,3.46725 5.91296,3.46724 5.91296,3.46724 5.91297,3.46725 5.91296,3.46724 5.22598,3.09309 -0.51523,2.8187 -0.66245,3.8414 -0.66245,3.84141 -0.66244,3.84142 -0.66246,3.8414 -0.66244,3.86636 -0.68698,3.8414 -0.58885,3.39241 -1.54571,0.27439 -2.13455,0.37417 -2.13456,0.3991 -2.13456,0.37416 -2.11002,0.37417 -2.13455,0.3991 -2.13456,0.37417 -1.88921,0.32427 -0.44162,-0.77327 -0.58885,-1.0726 -0.61338,-1.0726 -0.61338,-1.0726 -0.61337,-1.0726 -0.58885,-1.0726 -0.61338,-1.07261 -0.61338,-1.07259 -0.12267,0.0748 0,-0.0249 -0.68698,-0.12471 -0.66246,-0.12473 -0.68698,-0.12472 -0.66244,-0.12472 -0.66245,-0.12472 -0.68699,-0.12472 -0.66244,-0.0998 -0.68699,-0.12472 -0.58884,-0.0998 -0.0491,-0.29933 -0.0735,-0.37416 -0.049,-0.3991 -0.0735,-0.37417 -0.0735,-0.39911 -0.0735,-0.37416 -0.0491,-0.37417 -0.0735,-0.39911 -0.36803,0.0748 0.049,0.37417 0.0735,0.3991 0.0735,0.37417 0.049,0.3991 0.0735,0.37416 0.0735,0.37417 0.0735,0.3991 0.049,0.37417 0.0245,0.14966 -0.049,0.0998 -0.19628,0.32427 -0.19628,0.34922 -0.19627,0.32428 -0.19629,0.34922 -0.19628,0.32427 -0.17174,0.34922 -0.19628,0.34922 -0.19628,0.32427 0.34349,0.19956 0.17174,-0.34922 0.19628,-0.32427 0.19628,-0.34922 0.19629,-0.32427 0.19628,-0.34922 0.19628,-0.32428 0.17174,-0.34922 0.14721,-0.24944 0.58885,0.0998 0.68698,0.12471 0.66245,0.12473 0.68698,0.12472 0.66245,0.12472 0.68698,0.0998 0.66245,0.12473 0.58885,0.12472 -0.0491,0.0249 0.61338,1.0726 0.61338,1.07261 0.58884,1.0726 0.61338,1.07259 0.61338,1.07261 0.61338,1.0726 0.61337,1.04766 0.58885,1.0726 0.19628,0.34922 -0.0735,0.3991 -0.19628,1.19732 -0.22082,1.22228 -0.19628,1.22226 -0.22081,1.22227 -0.22081,1.19732 -0.19629,1.22226 -0.22081,1.22227 -0.19629,1.22226 0.0735,0 -0.53977,0.32428 -0.58884,0.34923 -0.58885,0.34921 -0.61337,0.34922 -0.58885,0.34922 -0.58884,0.34922 -0.58884,0.34922 -0.51524,0.27438 -0.22082,-0.17461 -0.29442,-0.24944 -0.29442,-0.24944 -0.29442,-0.24944 -0.29443,-0.24944 -0.29441,-0.24945 -0.29442,-0.24944 -0.29443,-0.24945 -0.24535,0.29934 0.29442,0.24944 0.29442,0.24944 0.29443,0.24944 0.29442,0.24945 0.29442,0.24944 0.29442,0.24944 0.29442,0.24944 0.29442,0.24944 0.0981,0.0998 0.0245,0.12473 0.049,0.37415 0.0735,0.37417 0.0735,0.39911 0.0491,0.37416 0.0735,0.39911 0.0735,0.37416 0.0735,0.39911 0.049,0.37416 0.39257,-0.0748 -0.0735,-0.37417 -0.0735,-0.3991 -0.049,-0.37417 -0.0735,-0.37416 -0.0735,-0.39911 -0.0735,-0.37416 -0.049,-0.39911 -0.049,-0.27438 0.51523,-0.29934 0.58885,-0.34922 0.58884,-0.34922 0.58884,-0.34922 0.61346,-0.34917 0.58884,-0.34922 0.58884,-0.34922 0.58885,-0.34922 0.0245,-0.0249 0.0491,0.0499 0.44163,0.52383 0.44164,0.52383 0.44162,0.54876 0.44164,0.52383 0.44163,0.52383 0.44163,0.54877 0.44164,0.52383 0.44163,0.52383 -0.049,0.32428 -0.049,0.3991 -0.0735,0.37417 -0.0735,0.3991 -0.049,0.37417 -0.0735,0.37416 -0.0735,0.39911 -0.0735,0.37416 0.39256,0.0748 0.0735,-0.37415 0.049,-0.39912 0.0735,-0.37416 0.0735,-0.3991 0.0491,-0.37417 0.0735,-0.3991 0.0735,-0.37417 0.0735,-0.37417 0,-0.0998 0.0735,-0.0249 0.36803,-0.12471 0.36802,-0.14967 0.34349,-0.12472 0.36803,-0.12473 0.36803,-0.14966 0.36802,-0.12471 0.34349,-0.12473 0.36803,-0.14966 -0.12267,-0.34922 -0.36803,0.12471 -0.36803,0.12473 -0.34349,0.14966 -0.36802,0.12473 -0.36803,0.12471 -0.36803,0.14968 -0.34349,0.12471 -0.29442,0.0998 -0.36803,-0.47395 -0.44163,-0.52382 -0.44163,-0.52383 -0.44164,-0.54877 -0.44162,-0.52383 -0.44164,-0.54877 -0.4171,-0.52383 -0.41709,-0.49888 0.0735,0.0249 0.22081,-1.19733 0.22081,-1.22227 0.19629,-1.22227 0.22081,-1.22226 0.19629,-1.22227 0.22081,-1.19732 0.22081,-1.22226 0.14722,-0.898 1.86467,-0.32428 2.13455,-0.3991 2.13456,-0.37417 2.13455,-0.37415 2.11003,-0.39911 2.13455,-0.37417 2.13456,-0.37416 2.13455,-0.39911 0.4171,-0.0748 0.31895,0.37416 1.37397,1.67126 1.3985,1.67126 1.39851,1.69621 1.37396,1.67127 1.39851,1.69621 1.37396,1.67126 1.39851,1.6962 1.22675,1.4717 -0.44163,0.79822 -0.61338,1.0726 -0.61338,1.07261 -0.61337,1.0726 -0.58885,1.04766 -0.61338,1.07259 -0.61338,1.0726 -0.53977,0.94788 -0.4907,-0.0748 -0.66245,-0.12472 -0.68698,-0.12472 -0.66245,-0.12472 -0.68699,-0.12472 -0.66244,-0.12472 -0.66245,-0.12473 -0.68699,-0.0998 -0.17174,-0.27438 -0.19628,-0.32429 -0.19629,-0.34921 -0.19628,-0.34922 -0.19628,-0.32428 -0.19628,-0.34921 -0.17175,-0.32428 -0.19628,-0.34921 -0.34349,0.19954 0.19628,0.32428 0.19629,0.34922 0.19628,0.34922 0.19628,0.32427 0.17174,0.34922 0.19629,0.32427 0.19628,0.34922 0.19628,0.34922 0,0.0249 -0.29442,0.24945 -0.29443,0.27438 -0.29441,0.24944 -0.29443,0.24945 -0.29442,0.24944 -0.29442,0.24944 -0.29442,0.24944 -0.29442,0.24944 0.24534,0.29933 0.29443,-0.24944 0.29442,-0.24944 0.29443,-0.24944 0.29441,-0.24945 0.29442,-0.24944 0.29443,-0.24944 0.29442,-0.27439 0.24535,-0.19956 0,0.0249 0.68698,0.12471 0.66245,0.12473 0.68699,0.12472 0.66244,0.0998 0.66245,0.12473 0.68698,0.12471 0.66246,0.12473 0.68698,0.12471 0.14721,0.0249 0.049,0.12473 0.22082,0.67349 0.24535,0.64855 0.22081,0.64855 0.24536,0.64855 0.22081,0.64855 0.24535,0.64854 0.22082,0.6735 0.22081,0.57372 -0.22081,0.17461 -0.29442,0.24944 -0.29442,0.24944 -0.29443,0.24945 -0.29441,0.24944 -0.29443,0.27439 -0.29442,0.24944 -0.29443,0.24944 0.24536,0.29933 0.29443,-0.24945 0.29441,-0.24944 0.29442,-0.27439 0.29443,-0.24944 0.29442,-0.24944 0.29442,-0.24944 0.29442,-0.24944 0.29442,-0.24944 0.0735,-0.0499 0.0735,0.0249 0.3435,0.12473 0.36803,0.14966 0.36803,0.12472 0.34349,0.14967 0.36802,0.12471 0.36803,0.12473 0.36803,0.14966 0.34349,0.12472 0.14721,-0.37416 -0.36803,-0.12472 -0.36803,-0.12472 -0.34349,-0.14966 -0.36802,-0.12473 -0.36803,-0.14966 -0.36803,-0.12473 -0.34326,-0.12464 -0.34349,-0.12471 0.049,-0.0249 -0.24534,-0.64855 -0.22082,-0.64856 -0.24535,-0.64854 -0.22082,-0.64855 -0.24535,-0.67349 -0.22081,-0.64856 -0.24536,-0.64854 -0.19628,-0.57372 0.049,0.0249 0.61338,-1.0726 0.61338,-1.07259 0.61338,-1.07261 0.58884,-1.0726 0.61338,-1.07261 0.61338,-1.07259 0.61337,-1.04766 0.58885,-1.0726 0.19628,-0.32428 0.36803,-0.14966 1.15315,-0.42405 1.12862,-0.42405 1.15315,-0.42405 1.12861,-0.42406 1.15315,-0.42405 1.12862,-0.42405 1.15315,-0.42405 1.15315,-0.42405 -0.0245,-0.0499 0.51523,0.29934 0.58885,0.34922 0.61337,0.34922 0.58884,0.34921 0.58885,0.34922 0.58884,0.32428 0.58885,0.34921 0.58884,0.34922 0.0245,-0.0748 0.0735,0.39911 0.0491,0.37416 0.0735,0.39911 0.0735,0.37416 0.0491,0.39911 0.0735,0.37416 0.0735,0.37417 0.0735,0.3991 0.36825,-0.0749 -0.0735,-0.37416 -0.0491,-0.39911 -0.0735,-0.37416 -0.0735,-0.39911 -0.0735,-0.37417 -0.049,-0.37415 -0.0735,-0.39912 -0.0735,-0.37416 0,-0.0499 0.0245,0 0.36802,-0.12472 0.36803,-0.14966 0.34349,-0.12472 0.36803,-0.12472 0.36802,-0.14967 0.36803,-0.12472 0.34349,-0.14966 0.36803,-0.12473 -0.12268,-0.37417 -0.36802,0.14968 -0.36803,0.12471 -0.36803,0.12473 -0.34349,0.14966 -0.36802,0.12472 -0.36803,0.14967 -0.34349,0.12472 -0.36803,0.12472 0.0491,-0.0499 -0.58885,-0.34922 -0.58884,-0.34921 -0.58884,-0.34922 -0.58884,-0.34922 -0.61338,-0.32428 -0.58885,-0.34922 -0.58884,-0.34922 -0.58884,-0.34922 -0.049,-0.0249 0.0245,-0.0499 0.22081,-0.6735 0.24536,-0.64854 0.22082,-0.64856 0.24535,-0.64854 0.24534,-0.64855 0.22082,-0.67349 0.24536,-0.64856 0.22081,-0.64855 -0.049,0 0.34349,-0.12472 0.36803,-0.14966 0.34349,-0.12472 0.36803,-0.12473 0.36802,-0.14966 0.34349,-0.12472 0.36803,-0.14967 0.36803,-0.12471 -0.12283,-0.37421 -0.36803,0.14966 -0.36802,0.12473 -0.36803,0.12472 -0.3435,0.14966 -0.36803,0.12473 -0.36803,0.14966 -0.36802,0.12472 -0.34349,0.12472 -0.0735,0.0249 -0.0735,-0.0499 -0.29442,-0.24944 -0.29442,-0.24944 -0.2945,-0.2494 -0.29442,-0.24944 -0.29442,-0.24945 -0.29442,-0.24944 -0.29442,-0.24944 -0.29443,-0.24944 -0.24534,0.29933 0.29441,0.24944 0.29442,0.24945 0.29443,0.24944 0.29442,0.24944 0.29442,0.24944 0.29442,0.24945 0.29442,0.24944 0.22082,0.19954 -0.22082,0.57373 -0.22081,0.64854 -0.24536,0.64855 -0.22081,0.64856 -0.24535,0.64854 -0.22082,0.6735 -0.24535,0.64854 -0.19628,0.59866 -0.0245,-0.0748 -1.15315,0.42405 -1.15315,0.39911 -1.12861,0.42405 -1.15315,0.42405 -1.12862,0.42405 -1.15315,0.42405 -1.12862,0.42405 -0.85872,0.32428 -1.20223,-1.49665 -1.3985,-1.67127 -1.3985,-1.69621 -1.37397,-1.67126 -1.3985,-1.6962 -1.37396,-1.67126 -1.39851,-1.69621 -1.27583,-1.5216 0.24536,0.0499 0.68698,-3.8414 0.66245,-3.84142 0.66245,-3.84141 0.66244,-3.86635 0.66245,-3.84141 0.66245,-3.84141 0.68699,-3.8414 0.66244,-3.84142 0.22082,-1.22226 0.93234,-0.79822 2.94421,-2.51936 2.91968,-2.51937 2.94421,-2.49442 2.94421,-2.51936 2.94423,-2.49442 2.94421,-2.51937 2.94421,-2.51937 2.94422,-2.49442 -0.17175,-0.19955 1.93827,0.34922 2.13456,0.37416 2.13455,0.39911 2.11003,0.37417 2.13456,0.37415 2.13455,0.37417 2.11002,0.39911 1.8892,0.32427 0.14722,0.898 0.22081,1.22226 0.22082,1.22227 0.19628,1.19732 0.22081,1.22226 0.19629,1.22227 0.22081,1.22226 0.19629,1.07261 -0.44164,0.24944 -0.58884,0.34922 -0.58885,0.34922 -0.61341,0.34917 -0.58885,0.34922 -0.58884,0.34923 -0.58884,0.34922 -0.58884,0.34922 0.049,0.0499 -0.36802,-0.14966 -0.34349,-0.12473 -0.36803,-0.12471 -0.36803,-0.14967 -0.3435,-0.12472 -0.36803,-0.14967 -0.36802,-0.12472 -0.36803,-0.12472 -0.12267,0.34922 0.36803,0.14967 0.34349,0.12471 0.36802,0.14967 0.36803,0.12472 0.36803,0.12473 0.34349,0.14966 0.36802,0.12472 0.36803,0.12472 0.0735,0.0249 0,0.0998 0.0735,0.37417 0.0735,0.3991 0.0735,0.37417 0.049,0.3991 0.0735,0.37417 0.0735,0.37416 0.0735,0.39911 0.049,0.37416 0.39256,-0.0499 -0.0735,-0.39911 -0.0735,-0.37416 -0.049,-0.3991 -0.0735,-0.37417 -0.0735,-0.3991 -0.0735,-0.37417 -0.049,-0.39911 -0.049,-0.27438 0.51524,-0.29933 0.58884,-0.34922 0.58884,-0.34922 0.58885,-0.34922 0.58884,-0.34922 0.61338,-0.34922 0.58884,-0.34922 0.58884,-0.34922 0.12268,-0.0748 0.12268,0.0748 0.58884,0.34922 0.58883,0.34922 0.58885,0.34922 0.61338,0.34922 0.58885,0.34922 0.58884,0.34922 0.58883,0.34922 0.51525,0.29933 -0.0491,0.27438 -0.0491,0.39911 -0.0735,0.37417 -0.0735,0.3991 -0.0735,0.37417 -0.049,0.3991 -0.0735,0.37416 -0.0735,0.39911 0.39256,0.0499 0.0491,-0.37416 0.0735,-0.39911 0.0735,-0.37416 0.0735,-0.37417 0.049,-0.3991 0.0735,-0.37417 0.0735,-0.3991 0.049,-0.37417 0.0245,-0.0998 0.0735,-0.0249 0.36802,-0.12472 0.36803,-0.12472 0.34349,-0.14966 0.36803,-0.12473 0.36802,-0.12472 0.34349,-0.14967 0.36803,-0.12471 0.36804,-0.14967 -0.12269,-0.34922 -0.36802,0.12472 -0.36803,0.12472 -0.36803,0.14967 -0.34349,0.12472 -0.36802,0.14967 -0.36803,0.12471 -0.36803,0.12473 -0.31895,0.14966 0.0245,-0.0499 -0.58885,-0.34922 -0.58884,-0.34922 -0.58885,-0.34923 -0.61337,-0.34922 -0.58884,-0.34922 -0.58885,-0.34922 -0.58884,-0.34921 -0.53978,-0.32428 0.0735,0 -0.19628,-1.22226 -0.22082,-1.22227 -0.19628,-1.19732 -0.22082,-1.22226 -0.2208,-1.22227 -0.19629,-1.22227 -0.22081,-1.19732 -0.19629,-1.22227 -0.049,-0.24944 0.19628,-0.17461 0.93234,-0.79821 0.93233,-0.79822 0.93234,-0.79822 0.93233,-0.79821 0.9078,-0.79822 0.93234,-0.77327 0.93233,-0.79821 0.93234,-0.79822 -0.0491,-0.0748 0.61338,0.12472 0.68698,0.12472 0.66246,0.12473 0.66244,0.0998 0.68698,0.12472 0.66246,0.12473 0.68698,0.12471 0.66245,0.12473 0,-0.0748 0.19628,0.32428 0.17175,0.34922 0.19628,0.34922 0.19628,0.32427 0.19627,0.34922 0.19629,0.32427 0.19628,0.34922 0.17204,0.3242 0.34349,-0.17461 -0.19628,-0.34922 -0.19628,-0.34922 -0.19628,-0.32427 -0.17175,-0.34922 -0.19628,-0.32428 -0.19628,-0.34922 -0.19628,-0.32427 -0.19629,-0.34922 -0.049,-0.0748 0.049,-0.0748 0.19629,-0.32427 0.19628,-0.34922 0.19628,-0.32428 0.19628,-0.34922 0.17175,-0.34922 0.19628,-0.32427 0.19628,-0.34922 0.19628,-0.32427 -0.34349,-0.19956 -0.17175,0.32427 -0.19628,0.34922 -0.19628,0.34922 -0.19628,0.32428 -0.19628,0.34922 -0.19628,0.32427 -0.17175,0.34922 -0.14721,0.24944 -0.58884,-0.0998 -0.68698,-0.12471 -0.66246,-0.12473 -0.68698,-0.12472 -0.66245,-0.12472 -0.68698,-0.12472 -0.66245,-0.0998 -0.66245,-0.12471 -0.0735,-0.0249 0,-0.0499 0,-0.69844 0,-0.69844 0,-0.69844 0,-0.67349 0,-0.69843 0,-0.69844 0,-0.69844 0,-0.62361 0.26989,-0.0998 0.36803,-0.12472 0.36803,-0.12473 0.34349,-0.14966 0.36802,-0.12472 0.36803,-0.12472 0.36803,-0.14967 0.34349,-0.12472 -0.12267,-0.37416 -0.36803,0.14966 -0.36803,0.12473 -0.34349,0.12471 -0.36803,0.14967 -0.36802,0.12472 -0.34349,0.12472 -0.36803,0.14967 -0.36803,0.12472 -0.0735,0.0249 -0.0735,-0.0499 -0.29443,-0.24944 -0.29442,-0.24944 -0.29442,-0.24944 -0.29442,-0.24944 -0.29442,-0.24945 -0.29443,-0.24944 -0.29441,-0.24944 -0.29443,-0.24944 -0.24534,0.29933 0.29441,0.24944 0.29442,0.24944 0.29443,0.24944 0.29441,0.24945 0.29443,0.24944 0.29442,0.24944 0.29442,0.24945 0.26989,0.22449 -0.0491,0 0,0.69844 0,0.69844 0,0.69843 0,0.69844 0,0.6735 0,0.69844 0,0.69844 0,0.64854 -0.049,-0.0748 -0.9078,0.79822 -0.93233,0.7982 -0.93234,0.79822 -0.93233,0.77328 -0.93234,0.7982 -0.93233,0.79822 -0.93233,0.79821 -0.85873,0.74834 0.0245,-0.17461 -2.11002,-0.37417 -2.13455,-0.37417 -2.13456,-0.3991 -2.11002,-0.37416 -2.13456,-0.37417 -2.13455,-0.37416 -2.13456,-0.39911 -2.11001,-0.37416 -0.17175,-0.0249 0,-0.17461 0,-2.19509 0,-2.19509 0,-2.22003 0,-2.19509 0,-2.19509 0,-2.19509 0,-2.19509 0,-1.94565 0.83419,-0.29934 1.15315,-0.42405 1.12862,-0.42405 1.15315,-0.42405 1.12862,-0.42405 1.15314,-0.42405 1.12862,-0.42406 1.00594,-0.37415 0.34349,0.3991 0.4171,0.52383 0.44163,0.54877 0.44163,0.52383 0.44164,0.52383 0.44163,0.54877 0.44163,0.52383 0.44164,0.54878 0.0245,-0.0249 -0.049,0.32427 -0.0735,0.39911 -0.0735,0.37416 -0.049,0.39911 -0.0735,0.37416 -0.0735,0.39912 -0.0735,0.37415 -0.049,0.37417 0.36803,0.0748 0.0735,-0.37417 0.0735,-0.39911 0.0491,-0.37416 0.0735,-0.39911 0.0735,-0.37417 0.049,-0.37415 0.0735,-0.39912 0.0735,-0.37415 0,-0.0499 0.0245,0 0.39256,0 0.39257,0 0.36802,0 0.39257,0 0.39256,0 0.36803,0 0.39256,0 0.39255,0 0,-0.37416 -0.39255,0 -0.39256,0 -0.36803,0 -0.39256,0 -0.39257,0 -0.36802,0 -0.39257,0 -0.31895,0 0,-0.0249 -0.44164,-0.54876 -0.44163,-0.52384 -0.41709,-0.52383 -0.44164,-0.54876 -0.44163,-0.52383 -0.44163,-0.52383 -0.44164,-0.54878 -0.44162,-0.52382 -0.14722,-0.17461 0,-0.22451 0,-0.69843 0,-0.69844 0,-0.67349 0,-0.69844 0,-0.69844 0,-0.69844 0,-0.69843 0,-0.59866 0.26989,-0.0998 0.36803,-0.14967 0.36802,-0.12472 0.34349,-0.12472 0.36803,-0.14966 0.36803,-0.12473 0.34349,-0.14966 0.36802,-0.12472 -0.12267,-0.37416 -0.36802,0.14966 -0.36803,0.12472 -0.34349,0.12472 -0.36803,0.14967 -0.36802,0.12472 -0.36803,0.14966 -0.34349,0.12473 -0.36803,0.12472 -0.12268,0.0499 -0.0981,-0.0499 -0.36802,-0.12472 -0.36803,-0.12473 -0.36803,-0.14966 -0.34349,-0.12472 -0.36802,-0.14967 -0.36803,-0.12472 -0.3435,-0.12472 -0.36803,-0.14966 -0.14721,0.37416 0.36803,0.12472 0.36803,0.14966 0.36802,0.12473 0.34349,0.14966 0.36803,0.12472 0.36803,0.12472 0.36802,0.14967 0.24536,0.0998 0,0.59866 0,0.69843 0,0.69844 0,0.69844 0,0.69844 0,0.67349 0,0.69844 0,0.52382 -1.00595,0.37417 -1.1286,0.42405 -1.15315,0.42406 -1.12862,0.42405 -1.15315,0.42405 -1.12862,0.42405 -1.15315,0.3991 -1.12862,0.42406 -0.36803,0.12472 -0.36802,-0.12472 -1.15315,-0.42406 -1.12861,-0.3991 -1.15316,-0.42405 -1.12861,-0.42405 -1.15316,-0.42405 -1.12861,-0.42406 -1.15315,-0.42405 -1.00594,-0.37417 0,-0.52382 0,-0.69844 0,-0.67349 0,-0.69844 0,-0.69844 0,-0.69844 0,-0.69843 0,-0.69844 -0.049,0 0.26989,-0.2245 0.29442,-0.24944 0.29441,-0.24944 0.29443,-0.24945 0.29442,-0.24944 0.29443,-0.24944 0.29441,-0.24944 0.29442,-0.24944 -0.24534,-0.29933 -0.29443,0.24944 -0.29442,0.24944 -0.29443,0.24944 -0.29441,0.24944 -0.29442,0.24945 -0.29443,0.24944 -0.29442,0.24944 -0.29442,0.24944 -0.0735,0.0499 -0.0735,-0.0249 -0.34349,-0.12472 -0.36803,-0.12472 -0.36802,-0.14967 -0.36803,-0.12472 -0.34349,-0.14967 -0.36803,-0.12472 -0.36802,-0.12472 -0.34349,-0.14966 -0.14721,0.37416 0.36802,0.12472 0.36803,0.14967 0.34349,0.12472 0.36803,0.14966 0.36802,0.12472 0.36803,0.12472 0.34349,0.14967 0.26989,0.0998 0,0.59866 0,0.69844 0,0.69844 0,0.69843 0,0.69844 0,0.67349 0,0.69844 0,0.69844 0,0.14967 -0.12268,0.0748 -0.58884,0.34922 -0.58884,0.34921 -0.58884,0.34922 -0.58885,0.34922 -0.61338,0.34922 -0.58884,0.34922 -0.58884,0.34922 -0.51524,0.29933 -0.22081,-0.19955 -0.29443,-0.24944 -0.29442,-0.24944 -0.29442,-0.24945 -0.29442,-0.24945 -0.29442,-0.24944 -0.29443,-0.24944 -0.29441,-0.24944 -0.24536,0.29934 0.29442,0.24944 0.29443,0.24944 0.29441,0.24944 0.29443,0.24944 0.29442,0.24944 0.29442,0.24944 0.29442,0.24945 0.29442,0.27438 0.0735,0.0499 -0.0245,0.0748 -0.0735,0.37417 -0.0735,0.39911 -0.0491,0.37416 -0.0735,0.39911 -0.0735,0.37417 -0.049,0.3991 -0.0735,0.37416 -0.0735,0.37417 0.39256,0.0748 0.0491,-0.37417 0.0735,-0.3991 0.0735,-0.37417 0.049,-0.3991 0.0735,-0.37416 0.0735,-0.37417 0.0735,-0.3991 0.049,-0.37417 0.0245,0.0748 0.58884,-0.34922 0.58885,-0.34922 0.58884,-0.34922 0.58885,-0.34921 0.61337,-0.34922 0.58884,-0.34922 0.58885,-0.34922 0.53977,-0.32427 -0.0245,0.0748 1.12862,0.42405 1.15315,0.42405 1.12862,0.42405 1.15314,0.42405 1.12862,0.42405 1.15315,0.42406 1.12862,0.42405 0.85872,0.32427 0,1.9207 0,2.19509 0,2.19509 0,2.19509 0,2.1951 0,2.22003 0,2.19509 0,1.99554 -0.17174,-0.19956 -2.94422,2.49443 -2.91967,2.51936 -2.94422,2.51936 -2.94421,2.49443 -2.94422,2.51936 -2.94422,2.49443 -2.94421,2.51936 -2.15909,1.84587 -5.22598,-3.06814 -5.91296,-3.46725 -5.91297,-3.46724 -5.91296,-3.46724 -5.91297,-3.46725 -5.91297,-3.46724 -5.91296,-3.4922 -5.91297,-3.46724 -1.8892,-1.09755 -0.73606,-2.07036 -2.33083,-6.53538 -2.35538,-6.51045 -2.33083,-6.53538 -2.33083,-6.51044 -2.33084,-6.535383 -2.33084,-6.51044 -2.35537,-6.535384 -2.33084,-6.510439 -0.4171,0.149665 1.76654,-3.068138 1.91373,-3.392413 1.91374,-3.367468 1.93828,-3.392413 1.91374,-3.367469 1.91374,-3.392413 1.91374,-3.392413 1.71745,-2.968361 1.54572,0.274386 2.13456,0.374164 2.13455,0.399107 2.11002,0.374162 2.13455,0.374164 2.13457,0.399107 2.13455,0.374164 2.11002,0.374163 0.0245,-0.149665 0.5643,0.972824 0.58885,1.072601 0.61337,1.072602 0.61338,1.0726 0.61338,1.072602 0.61337,1.072601 0.58885,1.0726 0.53977,0.947881 -0.31895,0.374163 -0.44164,0.548773 -0.44163,0.523828 -0.44163,0.523829 -0.44163,0.548772 -0.44163,0.523828 -0.4171,0.548774 -0.39257,0.448996 -0.26988,-0.09978 -0.36802,-0.124721 -0.36807,-0.124761 -0.34349,-0.149665 -0.36803,-0.124721 -0.36803,-0.124721 -0.34349,-0.149665 -0.36802,-0.124722 -0.14722,0.374164 0.36803,0.12472 0.36802,0.124722 0.36803,0.149665 0.3435,0.124721 0.36803,0.124722 0.36802,0.149665 0.36803,0.12472 0.34349,0.124722 0.0981,0.04989 0.0735,0.12472 0.19628,0.324275 0.19629,0.34922 0.19628,0.324274 0.19628,0.349219 0.19628,0.324275 0.17175,0.349219 0.19628,0.349218 0.19628,0.324275 0.34349,-0.199553 -0.19628,-0.324275 -0.19628,-0.349219 -0.19629,-0.324275 -0.19628,-0.349218 -0.19628,-0.34922 -0.1717,-0.324275 -0.19628,-0.349219 -0.14721,-0.249441 0.39256,-0.47394 0.44163,-0.52383 0.44163,-0.523828 0.44164,-0.548772 0.41709,-0.523829 0.44163,-0.523828 0.44164,-0.548773 0.44163,-0.523829 0.12268,-0.149664 0.24534,-0.04988 0.66246,-0.124722 0.68698,-0.124721 0.66244,-0.12472 0.66246,-0.124721 0.68698,-0.124722 0.66245,-0.09978 0.68698,-0.12472 0.58885,-0.09978 0.1472,0.249442 0.19629,0.324275 0.17174,0.349219 0.19628,0.324274 0.19628,0.349219 0.19629,0.324275 0.19628,0.349219 0.19628,0.349219 0.31895,-0.199554 -0.19628,-0.349219 -0.19628,-0.324274 -0.17175,-0.349219 -0.19628,-0.349219 -0.19628,-0.324275 -0.19628,-0.34922 -0.19628,-0.324274 -0.19628,-0.349219 -0.0491,-0.09978 0.0245,-0.124722 0.0735,-0.399108 0.049,-0.374162 0.0735,-0.374163 0.0735,-0.399108 0.049,-0.374163 0.0735,-0.399108 0.0735,-0.374163 0.0735,-0.399108 -0.39256,-0.04988 -0.0735,0.374163 -0.049,0.399108 -0.0735,0.374163 -0.0735,0.374163 -0.049,0.399108 -0.0735,0.374162 -0.0735,0.399108 -0.049,0.274387 -0.58884,0.09978 -0.68698,0.124722 -0.66246,0.124721 -0.66244,0.12472 -0.68698,0.124721 -0.66246,0.124722 -0.68698,0.09978 -0.49071,0.09978 -0.53977,-0.94788 -0.61337,-1.0726 -0.58884,-1.072602 -0.61339,-1.072601 -0.61338,-1.047657 -0.61337,-1.072601 -0.58884,-1.072602 -0.61338,-1.0726 -0.12268,-0.224499 0.12268,-0.224497 0.61338,-1.072601 0.58884,-1.072602 0.61337,-1.0726 0.61338,-1.072602 0.61339,-1.072601 0.58884,-1.072601 0.61337,-1.072601 0.61338,-1.047657 -0.12267,-0.04988 0.66244,-0.09978 0.68699,-0.124721 0.66245,-0.12472 0.66244,-0.124722 0.68699,-0.124721 0.66245,-0.124721 0.68698,-0.09978 0.66245,-0.124722 -0.0245,-0.07483 0.29441,0.249443 0.29443,0.249441 0.29442,0.249443 0.29442,0.249442 0.29442,0.249442 0.29442,0.249443 0.29443,0.274385 0.29442,0.249443 0.24535,-0.299331 -0.29443,-0.249442 -0.29441,-0.274386 -0.29442,-0.249443 -0.29443,-0.249441 -0.29442,-0.249443 -0.29442,-0.249441 -0.29442,-0.249443 -0.29442,-0.249443 -0.0245,-0.02495 0,-0.02495 0.19627,-0.324274 0.19628,-0.349219 0.19628,-0.349219 0.19628,-0.324275 0.19628,-0.349219 0.17175,-0.324274 0.19628,-0.349219 0.19628,-0.324275 -0.31895,-0.199554 -0.19628,0.324274 -0.19628,0.34922 -0.19629,0.324275 -0.19628,0.349219 -0.19628,0.349219 -0.17174,0.324274 -0.19629,0.349219 -0.19628,0.324275 0,-0.07483 -0.66244,0.12472 -0.68698,0.124721 -0.66246,0.124722 -0.66244,0.124721 -0.68699,0.09978 -0.66244,0.124721 -0.68699,0.124722 -0.66245,0.124721 -0.14721,0.02495 -0.0981,-0.09978 -0.44164,-0.548773 -0.44164,-0.523829 -0.44162,-0.548772 -0.4171,-0.523828 -0.44164,-0.523829 -0.44162,-0.548773 -0.44164,-0.523828 -0.39256,-0.47394 0.14721,-0.249442 0.19628,-0.324275 0.17174,-0.349219 0.19628,-0.324275 0.19629,-0.349218 0.19628,-0.349219 0.19628,-0.324275 0.19628,-0.34922 -0.34349,-0.199553 -0.19628,0.349219 -0.19628,0.349219 -0.17175,0.324275 -0.19628,0.349219 -0.19628,0.324275 -0.19628,0.349218 -0.19628,0.324275 -0.19629,0.349219 -0.049,0.07483 -0.0735,0 -0.36802,0 -0.39257,0 -0.39255,0 -0.36804,0 -0.39255,0 -0.39256,0 -0.36803,0 -0.39256,0 0,0.399107 0.39256,0 0.36803,0 0.39256,0 0.39255,0 0.36804,0 0.39255,0 0.39257,0 0.36802,0 -0.049,0.02495 0.44164,0.523828 0.4171,0.523829 0.44162,0.548773 0.44164,0.523828 0.44163,0.523829 0.44163,0.548772 0.44164,0.523829 0.31895,0.399107 -0.53977,0.947881 -0.58885,1.072601 -0.61338,1.047656 -0.61337,1.072602 -0.61342,1.0726 -0.61337,1.072602 -0.58885,1.072601 -0.44163,0.773271 -1.88921,-0.324275 -2.13455,-0.374164 -2.13456,-0.374163 -2.11002,-0.399107 -2.13456,-0.374163 -2.13455,-0.374163 -2.11002,-0.399108 -2.13455,-0.374163 -0.68699,-0.124721 -0.44163,-0.523828 -1.37397,-1.696207 -1.3985,-1.671262 -1.3985,-1.696207 -1.37397,-1.671262 -1.3985,-1.696207 -1.37397,-1.671261 -1.3985,-1.671263 -1.22675,-1.496653 0.44162,-0.798214 0.61338,-1.047658 0.61338,-1.0726 0.61338,-1.072602 0.58884,-1.072601 0.61338,-1.072601 0.61338,-1.072601 0.53977,-0.94788 0.4907,0.09978 0.66245,0.124721 0.68699,0.09978 0.66244,0.124721 0.68698,0.124721 0.66246,0.124721 0.68698,0.124721 0.58884,0.09978 0.0491,0.274386 0.0735,0.399108 0.0491,0.374163 0.0735,0.399107 0.0735,0.374163 0.049,0.399108 0.0735,0.374163 0.0735,0.374163 0.36803,-0.04988 -0.0491,-0.399108 -0.0735,-0.374163 -0.0735,-0.399107 -0.0735,-0.374164 -0.0491,-0.374163 -0.0735,-0.399107 -0.0735,-0.374163 -0.049,-0.399108 -0.0245,-0.07483 0.0735,-0.04989 0.29442,-0.249443 0.29443,-0.249442 0.29441,-0.249442 0.29443,-0.249442 0.29442,-0.274386 0.29442,-0.249442 0.29442,-0.249443 0.29442,-0.249442 -0.26988,-0.29933 -0.29443,0.249442 -0.29442,0.249442 -0.29441,0.249442 -0.29443,0.274386 -0.29442,0.249443 -0.29442,0.249442 -0.29442,0.249442 -0.24536,0.224498 0,-0.04989 -0.68696,-0.124721 -0.66245,-0.124721 -0.66245,-0.09978 -0.68698,-0.124721 -0.66245,-0.124721 -0.68698,-0.124721 -0.66244,-0.124721 -0.68699,-0.124721 -0.19629,-0.02494 -0.14721,-0.174609 -0.44162,-0.523829 -0.44164,-0.548773 -0.44163,-0.523828 -0.44163,-0.523829 -0.44164,-0.548772 -0.44163,-0.523829 -0.41709,-0.523828 -0.39256,-0.47394 0.1472,-0.249442 0.17175,-0.349219 0.19628,-0.324275 0.19628,-0.349219 0.19628,-0.324275 0.19629,-0.349219 0.19628,-0.349219 0.17174,-0.324274 -0.31895,-0.199554 z m -194.244574,196.5604 0.343492,-0.19956 -0.196282,-0.32427 -0.19628,-0.34922 -0.196281,-0.32428 -0.171746,-0.34922 -0.343492,0.19955 0.196281,0.34922 0.196281,0.32429 0.171746,0.34921 0.196281,0.32428 z"
     id="rect7230"
     inkscape:connector-curvature="0" />
</svg>
