<?xml version="1.0" encoding="ISO-8859-1" standalone="no"?><svg xmlns="http://www.w3.org/2000/svg" height="500px" width="500px" version="1.1" xmlns:xlink="http://www.w3.org/1999/xlink" id="svg7225"  >





















  <metadata id="metadata11444"  >





















    
  </metadata>





















  
  <defs id="defs7227"  >





















    <polygon points="0,0.57735 -0.5,-0.288675 0.5,-0.288675" id="TRIANGLE"  />





















  </defs>





















  <path d="M 337.59375 19.96875 L 337.34375 20.40625 L 337.09375 20.8125 L 336.84375 21.25 L 336.59375 21.65625 L 336.375 22.09375 L 336.125 22.5 L 335.875 22.9375 L 335.625 23.375 L 335.53125 23.5 L 335.40625 23.5625 L 334.9375 23.71875 L 334.5 23.875 L 334.03125 24.0625 L 333.5625 24.21875 L 333.09375 24.375 L 332.65625 24.5625 L 332.1875 24.71875 L 331.71875 24.90625 L 331.90625 25.34375 L 332.34375 25.1875 L 332.8125 25.03125 L 333.28125 24.84375 L 333.71875 24.6875 L 334.1875 24.5 L 334.65625 24.34375 L 335.125 24.1875 L 335.4375 24.0625 L 335.9375 24.65625 L 336.5 25.3125 L 337.0625 25.96875 L 337.625 26.65625 L 338.1875 27.3125 L 338.75 27.96875 L 339.3125 28.65625 L 339.71875 29.125 L 339.03125 30.3125 L 338.25 31.65625 L 337.46875 33 L 336.71875 34.34375 L 335.9375 35.6875 L 335.15625 37.03125 L 334.375 38.375 L 333.625 39.71875 L 333.375 40.15625 L 332.90625 40.3125 L 331.4375 40.84375 L 330 41.34375 L 328.53125 41.875 L 327.09375 42.40625 L 325.625 42.9375 L 324.1875 43.46875 L 322.71875 44 L 321.28125 44.53125 L 321.3125 44.625 L 320.625 44.21875 L 319.875 43.8125 L 319.125 43.375 L 318.34375 42.9375 L 317.59375 42.5 L 316.84375 42.0625 L 316.09375 41.625 L 315.4375 41.25 L 315.5 40.875 L 315.5625 40.40625 L 315.65625 39.90625 L 315.75 39.4375 L 315.84375 38.9375 L 315.90625 38.46875 L 316 38 L 316.09375 37.5 L 315.59375 37.40625 L 315.53125 37.90625 L 315.4375 38.375 L 315.34375 38.875 L 315.28125 39.34375 L 315.1875 39.84375 L 315.09375 40.3125 L 315 40.78125 L 314.9375 41.28125 L 314.90625 41.375 L 314.8125 41.40625 L 314.34375 41.59375 L 313.875 41.75 L 313.4375 41.90625 L 312.96875 42.09375 L 312.5 42.25 L 312.0625 42.40625 L 311.59375 42.59375 L 311.125 42.75 L 311.28125 43.21875 L 311.75 43.0625 L 312.21875 42.875 L 312.6875 42.71875 L 313.125 42.53125 L 313.59375 42.375 L 314.0625 42.21875 L 314.53125 42.03125 L 314.9375 41.875 L 314.90625 41.9375 L 315.65625 42.375 L 316.40625 42.8125 L 317.15625 43.25 L 317.9375 43.6875 L 318.6875 44.125 L 319.4375 44.5625 L 320.1875 45 L 320.9375 45.40625 L 321.09375 45.5 L 321.09375 45.6875 L 321.09375 46.5625 L 321.09375 47.4375 L 321.09375 48.3125 L 321.09375 49.1875 L 321.09375 50.0625 L 321.09375 50.9375 L 321.09375 51.78125 L 321.09375 52.5625 L 320.75 52.6875 L 320.3125 52.84375 L 319.84375 53.03125 L 319.375 53.1875 L 318.90625 53.34375 L 318.46875 53.53125 L 318 53.6875 L 317.53125 53.84375 L 317.71875 54.3125 L 318.15625 54.15625 L 318.625 53.96875 L 319.09375 53.8125 L 319.53125 53.65625 L 320 53.46875 L 320.46875 53.3125 L 320.9375 53.15625 L 321.375 52.96875 L 321.53125 52.90625 L 321.6875 52.96875 L 322.125 53.15625 L 322.59375 53.3125 L 323.0625 53.46875 L 323.53125 53.65625 L 323.96875 53.8125 L 324.4375 53.96875 L 324.90625 54.15625 L 325.375 54.3125 L 325.53125 53.84375 L 325.0625 53.6875 L 324.59375 53.53125 L 324.15625 53.34375 L 323.6875 53.1875 L 323.21875 53.03125 L 322.78125 52.84375 L 322.3125 52.6875 L 321.96875 52.5625 L 321.96875 51.78125 L 321.96875 50.9375 L 321.96875 50.0625 L 321.96875 49.1875 L 321.96875 48.3125 L 321.96875 47.4375 L 321.96875 46.5625 L 321.96875 45.9375 L 323.25 45.46875 L 324.71875 44.9375 L 326.15625 44.40625 L 327.625 43.875 L 329.0625 43.34375 L 330.53125 42.8125 L 331.96875 42.28125 L 333.03125 41.90625 L 334.625 43.75 L 336.375 45.875 L 338.15625 47.96875 L 339.90625 50.09375 L 341.6875 52.1875 L 343.46875 54.28125 L 345.21875 56.40625 L 346.53125 57.9375 L 344.375 61.6875 L 341.9375 65.9375 L 339.46875 70.15625 L 337.03125 74.40625 L 334.59375 78.65625 L 332.125 82.875 L 329.6875 87.125 L 327.25 91.34375 L 327.0625 91.6875 L 326.6875 91.5625 L 322.09375 89.875 L 317.5 88.21875 L 312.875 86.53125 L 308.28125 84.875 L 303.6875 83.1875 L 299.09375 81.53125 L 294.5 79.84375 L 289.90625 78.1875 L 289.78125 78.5 L 288.9375 76.125 L 288 73.53125 L 287.0625 70.9375 L 286.125 68.375 L 285.1875 65.78125 L 284.25 63.1875 L 283.3125 60.59375 L 282.46875 58.34375 L 283.34375 57.59375 L 284.53125 56.59375 L 285.71875 55.59375 L 286.90625 54.59375 L 288.09375 53.625 L 289.28125 52.625 L 290.46875 51.625 L 291.65625 50.625 L 291.59375 50.5625 L 292.34375 50.6875 L 293.21875 50.84375 L 294.0625 51 L 294.9375 51.15625 L 295.78125 51.28125 L 296.65625 51.4375 L 297.5 51.59375 L 298.34375 51.75 L 298.34375 51.65625 L 298.59375 52.0625 L 298.84375 52.5 L 299.0625 52.9375 L 299.3125 53.34375 L 299.5625 53.78125 L 299.8125 54.1875 L 300.0625 54.625 L 300.3125 55.03125 L 300.71875 54.8125 L 300.46875 54.375 L 300.25 53.9375 L 300 53.53125 L 299.75 53.09375 L 299.5 52.6875 L 299.25 52.25 L 299 51.84375 L 298.78125 51.40625 L 298.71875 51.3125 L 298.78125 51.21875 L 299 50.8125 L 299.25 50.375 L 299.5 49.96875 L 299.75 49.53125 L 300 49.09375 L 300.25 48.6875 L 300.46875 48.25 L 300.71875 47.84375 L 300.3125 47.59375 L 300.0625 48 L 299.8125 48.4375 L 299.5625 48.875 L 299.3125 49.28125 L 299.0625 49.71875 L 298.84375 50.125 L 298.59375 50.5625 L 298.40625 50.875 L 297.65625 50.75 L 296.78125 50.59375 L 295.9375 50.4375 L 295.09375 50.28125 L 294.21875 50.125 L 293.375 49.96875 L 292.5 49.84375 L 291.65625 49.6875 L 291.59375 49.6875 L 291.59375 49.59375 L 291.59375 48.71875 L 291.59375 47.84375 L 291.59375 47 L 291.59375 46.125 L 291.59375 45.25 L 291.59375 44.375 L 291.59375 43.5 L 291.59375 42.75 L 291.90625 42.625 L 292.375 42.4375 L 292.84375 42.28125 L 293.3125 42.09375 L 293.75 41.9375 L 294.21875 41.78125 L 294.6875 41.59375 L 295.125 41.4375 L 294.96875 40.96875 L 294.5 41.15625 L 294.0625 41.3125 L 293.59375 41.46875 L 293.125 41.65625 L 292.65625 41.8125 L 292.21875 41.96875 L 291.75 42.15625 L 291.28125 42.3125 L 291.15625 42.375 L 291 42.3125 L 290.53125 42.15625 L 290.0625 41.96875 L 289.625 41.8125 L 289.15625 41.65625 L 288.6875 41.46875 L 288.25 41.3125 L 287.78125 41.15625 L 287.3125 40.96875 L 287.15625 41.4375 L 287.59375 41.59375 L 288.0625 41.78125 L 288.53125 41.9375 L 289 42.09375 L 289.4375 42.28125 L 289.90625 42.4375 L 290.375 42.625 L 290.71875 42.75 L 290.71875 43.5 L 290.71875 44.375 L 290.71875 45.25 L 290.71875 46.125 L 290.71875 47 L 290.71875 47.84375 L 290.71875 48.71875 L 290.71875 49.5 L 290.65625 49.4375 L 289.46875 50.4375 L 288.28125 51.4375 L 287.09375 52.4375 L 285.90625 53.40625 L 284.71875 54.40625 L 283.53125 55.40625 L 282.34375 56.40625 L 281.15625 57.40625 L 280.78125 57.71875 L 280.28125 57.71875 L 278.75 57.71875 L 277.1875 57.71875 L 275.65625 57.71875 L 274.09375 57.71875 L 272.5625 57.71875 L 271 57.71875 L 269.46875 57.71875 L 267.90625 57.71875 L 267.90625 57.8125 L 267.40625 57.21875 L 266.84375 56.53125 L 266.28125 55.875 L 265.71875 55.21875 L 265.15625 54.53125 L 264.59375 53.875 L 264.03125 53.21875 L 263.5625 52.625 L 263.71875 52.3125 L 263.96875 51.875 L 264.21875 51.46875 L 264.46875 51.03125 L 264.71875 50.625 L 264.96875 50.1875 L 265.1875 49.75 L 265.4375 49.34375 L 265.03125 49.09375 L 264.78125 49.53125 L 264.53125 49.9375 L 264.28125 50.375 L 264.03125 50.78125 L 263.78125 51.21875 L 263.5625 51.625 L 263.3125 52.0625 L 263.0625 52.5 L 263.03125 52.5625 L 262.90625 52.5625 L 262.40625 52.5625 L 261.9375 52.5625 L 261.4375 52.5625 L 260.9375 52.5625 L 260.46875 52.5625 L 259.96875 52.5625 L 259.46875 52.5625 L 259 52.5625 L 259 53.0625 L 259.46875 53.0625 L 259.96875 53.0625 L 260.46875 53.0625 L 260.9375 53.0625 L 261.4375 53.0625 L 261.9375 53.0625 L 262.40625 53.0625 L 262.84375 53.0625 L 262.8125 53.09375 L 263.375 53.78125 L 263.9375 54.4375 L 264.5 55.09375 L 265.0625 55.78125 L 265.625 56.4375 L 266.1875 57.09375 L 266.75 57.78125 L 267.28125 58.4375 L 267.40625 58.59375 L 267.34375 58.75 L 267.0625 59.5625 L 266.75 60.375 L 266.46875 61.21875 L 266.15625 62.03125 L 265.875 62.84375 L 265.5625 63.65625 L 265.25 64.46875 L 265 65.1875 L 264.65625 65.1875 L 264.15625 65.1875 L 263.65625 65.1875 L 263.1875 65.1875 L 262.6875 65.1875 L 262.1875 65.1875 L 261.6875 65.1875 L 261.21875 65.1875 L 261.21875 65.6875 L 261.6875 65.6875 L 262.1875 65.6875 L 262.6875 65.6875 L 263.1875 65.6875 L 263.65625 65.6875 L 264.15625 65.6875 L 264.65625 65.6875 L 265.125 65.6875 L 265.21875 65.6875 L 265.28125 65.78125 L 265.53125 66.21875 L 265.78125 66.625 L 266.03125 67.0625 L 266.28125 67.46875 L 266.5 67.90625 L 266.75 68.3125 L 267 68.75 L 267.25 69.1875 L 267.65625 68.9375 L 267.4375 68.5 L 267.1875 68.09375 L 266.9375 67.65625 L 266.6875 67.21875 L 266.4375 66.8125 L 266.1875 66.375 L 265.96875 65.96875 L 265.75 65.59375 L 265.78125 65.59375 L 266.09375 64.78125 L 266.375 63.96875 L 266.6875 63.125 L 266.96875 62.3125 L 267.28125 61.5 L 267.5625 60.6875 L 267.875 59.875 L 268.09375 59.25 L 269.46875 59.25 L 271 59.25 L 272.5625 59.25 L 274.09375 59.25 L 275.65625 59.25 L 277.1875 59.25 L 278.75 59.25 L 279.875 59.25 L 280.71875 61.5625 L 281.65625 64.125 L 282.59375 66.71875 L 283.53125 69.3125 L 284.46875 71.90625 L 285.40625 74.46875 L 286.375 77.0625 L 287.3125 79.65625 L 287.5 80.1875 L 287.125 80.625 L 285.34375 82.75 L 283.59375 84.84375 L 281.8125 86.96875 L 280.0625 89.0625 L 278.28125 91.1875 L 276.5 93.28125 L 274.75 95.40625 L 273.15625 97.25 L 272.125 96.875 L 270.65625 96.34375 L 269.21875 95.8125 L 267.75 95.28125 L 266.28125 94.75 L 264.84375 94.21875 L 263.375 93.6875 L 262.09375 93.21875 L 262.09375 92.59375 L 262.09375 91.71875 L 262.09375 90.84375 L 262.09375 89.96875 L 262.09375 89.09375 L 262.09375 88.21875 L 262.09375 87.34375 L 262.09375 86.5 L 262.03125 86.5 L 262.375 86.21875 L 262.75 85.875 L 263.125 85.5625 L 263.5 85.25 L 263.875 84.9375 L 264.25 84.625 L 264.625 84.3125 L 265 84 L 264.6875 83.625 L 264.3125 83.9375 L 263.9375 84.25 L 263.5625 84.5625 L 263.1875 84.875 L 262.8125 85.1875 L 262.4375 85.5 L 262.0625 85.84375 L 261.6875 86.15625 L 261.625 86.21875 L 261.53125 86.1875 L 261.0625 86 L 260.59375 85.84375 L 260.125 85.65625 L 259.6875 85.5 L 259.21875 85.34375 L 258.75 85.15625 L 258.3125 85 L 257.84375 84.84375 L 257.65625 85.28125 L 258.125 85.46875 L 258.59375 85.625 L 259.0625 85.8125 L 259.5 85.96875 L 259.96875 86.125 L 260.4375 86.3125 L 260.90625 86.46875 L 261.21875 86.59375 L 261.21875 87.34375 L 261.21875 88.21875 L 261.21875 89.09375 L 261.21875 89.96875 L 261.21875 90.84375 L 261.21875 91.71875 L 261.21875 92.59375 L 261.21875 93.46875 L 261.21875 93.75 L 261.0625 93.9375 L 260.5 94.625 L 259.9375 95.28125 L 259.375 95.9375 L 258.8125 96.625 L 258.25 97.28125 L 257.6875 97.9375 L 257.125 98.625 L 256.625 99.1875 L 256.3125 99.0625 L 255.84375 98.90625 L 255.375 98.75 L 254.90625 98.5625 L 254.46875 98.40625 L 254 98.25 L 253.53125 98.0625 L 253.09375 97.90625 L 252.90625 98.375 L 253.375 98.53125 L 253.84375 98.6875 L 254.28125 98.875 L 254.75 99.03125 L 255.21875 99.1875 L 255.6875 99.375 L 256.125 99.53125 L 256.59375 99.71875 L 256.6875 99.75 L 256.71875 99.84375 L 256.78125 100.3125 L 256.875 100.8125 L 256.96875 101.28125 L 257.0625 101.78125 L 257.125 102.25 L 257.21875 102.75 L 257.3125 103.21875 L 257.375 103.6875 L 257.875 103.625 L 257.78125 103.125 L 257.6875 102.65625 L 257.625 102.15625 L 257.53125 101.6875 L 257.4375 101.21875 L 257.375 100.71875 L 257.28125 100.25 L 257.1875 99.75 L 257.25 99.84375 L 257.8125 99.15625 L 258.375 98.5 L 258.90625 97.84375 L 259.46875 97.15625 L 260.03125 96.5 L 260.59375 95.84375 L 261.15625 95.15625 L 261.5625 94.6875 L 262.84375 95.15625 L 264.3125 95.6875 L 265.75 96.21875 L 267.21875 96.71875 L 268.6875 97.25 L 270.125 97.78125 L 271.59375 98.3125 L 273.03125 98.84375 L 273.34375 98.96875 L 273.40625 99.28125 L 273.65625 100.8125 L 273.9375 102.34375 L 274.21875 103.84375 L 274.46875 105.375 L 274.75 106.90625 L 275 108.4375 L 275.28125 109.96875 L 275.53125 111.3125 L 274.96875 111.625 L 274.21875 112.0625 L 273.46875 112.5 L 272.71875 112.9375 L 271.9375 113.375 L 271.1875 113.8125 L 270.4375 114.25 L 269.78125 114.59375 L 269.5 114.375 L 269.125 114.0625 L 268.75 113.75 L 268.375 113.4375 L 268 113.125 L 267.625 112.8125 L 267.25 112.5 L 266.875 112.1875 L 266.5625 112.5625 L 266.9375 112.875 L 267.3125 113.1875 L 267.6875 113.5 L 268.0625 113.8125 L 268.4375 114.125 L 268.8125 114.4375 L 269.1875 114.75 L 269.5625 115.0625 L 269.65625 115.125 L 269.625 115.25 L 269.53125 115.71875 L 269.4375 116.21875 L 269.375 116.6875 L 269.28125 117.1875 L 269.1875 117.65625 L 269.125 118.125 L 269.03125 118.625 L 268.9375 119.09375 L 269.4375 119.1875 L 269.5 118.71875 L 269.59375 118.21875 L 269.6875 117.75 L 269.75 117.25 L 269.84375 116.78125 L 269.9375 116.28125 L 270.03125 115.8125 L 270.09375 115.34375 L 270.125 115.4375 L 270.875 115 L 271.625 114.5625 L 272.375 114.125 L 273.125 113.6875 L 273.90625 113.25 L 274.65625 112.8125 L 275.40625 112.375 L 276.15625 111.9375 L 276.40625 111.78125 L 276.65625 111.84375 L 277.53125 112 L 278.375 112.15625 L 279.25 112.3125 L 280.09375 112.46875 L 280.96875 112.59375 L 281.8125 112.75 L 282.65625 112.90625 L 283.53125 113.0625 L 283.75 113.40625 L 284 113.8125 L 284.25 114.25 L 284.5 114.65625 L 284.75 115.09375 L 284.96875 115.5 L 285.21875 115.9375 L 285.46875 116.375 L 285.90625 116.125 L 285.65625 115.6875 L 285.40625 115.28125 L 285.15625 114.84375 L 284.90625 114.40625 L 284.6875 114 L 284.4375 113.5625 L 284.1875 113.15625 L 283.9375 112.71875 L 283.875 112.625 L 283.9375 112.53125 L 284.1875 112.125 L 284.4375 111.6875 L 284.6875 111.28125 L 284.90625 110.84375 L 285.15625 110.40625 L 285.40625 110 L 285.65625 109.5625 L 285.90625 109.15625 L 285.46875 108.90625 L 285.21875 109.34375 L 284.96875 109.75 L 284.75 110.1875 L 284.5 110.59375 L 284.25 111.03125 L 284 111.4375 L 283.75 111.875 L 283.5625 112.1875 L 282.8125 112.0625 L 281.96875 111.90625 L 281.09375 111.75 L 280.25 111.59375 L 279.40625 111.4375 L 278.53125 111.28125 L 277.6875 111.15625 L 277.03125 111.03125 L 276.8125 109.6875 L 276.53125 108.15625 L 276.28125 106.625 L 276 105.125 L 275.71875 103.59375 L 275.46875 102.0625 L 275.1875 100.53125 L 274.96875 99.1875 L 275.09375 99.28125 L 276.84375 97.15625 L 278.625 95.0625 L 280.375 92.9375 L 282.15625 90.84375 L 283.9375 88.71875 L 285.6875 86.625 L 287.46875 84.53125 L 288.78125 82.96875 L 292.8125 84.4375 L 297.4375 86.125 L 302.03125 87.78125 L 306.625 89.46875 L 311.21875 91.125 L 315.8125 92.8125 L 320.40625 94.46875 L 324.5625 96 L 324.0625 96.1875 L 327.03125 104.34375 L 330 112.53125 L 332.96875 120.6875 L 335.96875 128.875 L 338.9375 137.03125 L 341.90625 145.21875 L 344.875 153.375 L 347.0625 159.4375 L 336.625 168.1875 L 324.78125 178.125 L 312.9375 188.0625 L 301.09375 198 L 289.21875 207.9375 L 277.375 217.875 L 265.53125 227.8125 L 253.6875 237.75 L 252.75 238.5625 L 251.78125 237.75 L 239.9375 227.8125 L 228.09375 217.875 L 216.25 207.9375 L 204.40625 198 L 192.5625 188.0625 L 180.71875 178.125 L 168.875 168.1875 L 157.03125 158.25 L 156.40625 159 L 156.40625 151.125 L 156.40625 142.40625 L 156.40625 133.71875 L 156.40625 125.03125 L 156.40625 116.3125 L 156.40625 107.625 L 156.40625 98.9375 L 156.40625 91.25 L 159.8125 90.03125 L 164.40625 88.34375 L 169 86.6875 L 173.59375 85 L 178.1875 83.34375 L 182.78125 81.65625 L 187.375 79.96875 L 191.4375 78.5 L 192.75 80.0625 L 194.5 82.15625 L 196.28125 84.28125 L 198.0625 86.375 L 199.8125 88.5 L 201.59375 90.59375 L 203.34375 92.71875 L 205.125 94.8125 L 205.25 94.71875 L 205.03125 96.09375 L 204.75 97.59375 L 204.46875 99.125 L 204.21875 100.65625 L 203.9375 102.1875 L 203.6875 103.71875 L 203.40625 105.21875 L 203.125 106.75 L 203.21875 106.75 L 202.5625 107.15625 L 201.78125 107.59375 L 201.03125 108.03125 L 200.28125 108.46875 L 199.53125 108.90625 L 198.78125 109.34375 L 198.03125 109.78125 L 197.375 110.15625 L 197.09375 109.9375 L 196.71875 109.625 L 196.34375 109.3125 L 195.96875 109 L 195.59375 108.65625 L 195.21875 108.34375 L 194.84375 108.03125 L 194.46875 107.71875 L 194.125 108.09375 L 194.53125 108.40625 L 194.90625 108.71875 L 195.28125 109.03125 L 195.65625 109.375 L 196.03125 109.6875 L 196.40625 110 L 196.78125 110.3125 L 197.15625 110.625 L 197.21875 110.6875 L 197.21875 110.78125 L 197.125 111.28125 L 197.03125 111.75 L 196.9375 112.25 L 196.875 112.71875 L 196.78125 113.1875 L 196.6875 113.6875 L 196.59375 114.15625 L 196.53125 114.65625 L 197 114.71875 L 197.09375 114.25 L 197.1875 113.78125 L 197.25 113.28125 L 197.34375 112.8125 L 197.4375 112.3125 L 197.53125 111.84375 L 197.59375 111.34375 L 197.6875 110.875 L 197.71875 110.96875 L 198.46875 110.53125 L 199.21875 110.09375 L 199.96875 109.65625 L 200.71875 109.21875 L 201.46875 108.78125 L 202.21875 108.34375 L 202.96875 107.90625 L 203.75 107.46875 L 203.90625 107.375 L 204.0625 107.46875 L 204.8125 107.90625 L 205.5625 108.34375 L 206.3125 108.78125 L 207.0625 109.21875 L 207.8125 109.65625 L 208.59375 110.09375 L 209.34375 110.53125 L 210 110.90625 L 209.9375 111.28125 L 209.84375 111.75 L 209.78125 112.25 L 209.6875 112.71875 L 209.59375 113.1875 L 209.5 113.6875 L 209.4375 114.15625 L 209.34375 114.65625 L 209.8125 114.71875 L 209.90625 114.25 L 210 113.78125 L 210.09375 113.28125 L 210.15625 112.8125 L 210.25 112.3125 L 210.34375 111.84375 L 210.40625 111.34375 L 210.5 110.875 L 210.53125 110.71875 L 210.65625 110.625 L 211.03125 110.3125 L 211.40625 110 L 211.78125 109.6875 L 212.15625 109.375 L 212.53125 109.03125 L 212.90625 108.71875 L 213.28125 108.40625 L 213.65625 108.09375 L 213.34375 107.71875 L 212.96875 108.03125 L 212.59375 108.34375 L 212.21875 108.65625 L 211.84375 109 L 211.46875 109.3125 L 211.09375 109.625 L 210.71875 109.9375 L 210.4375 110.15625 L 209.78125 109.78125 L 209.03125 109.34375 L 208.25 108.90625 L 207.5 108.46875 L 206.75 108.03125 L 206 107.59375 L 205.25 107.15625 L 204.6875 106.84375 L 204.9375 105.5 L 205.1875 103.96875 L 205.46875 102.4375 L 205.71875 100.9375 L 206 99.40625 L 206.28125 97.875 L 206.53125 96.34375 L 206.8125 94.8125 L 206.8125 94.71875 L 206.96875 94.71875 L 208.5 94.71875 L 210.0625 94.71875 L 211.59375 94.71875 L 213.15625 94.71875 L 214.6875 94.71875 L 216.25 94.71875 L 217.78125 94.71875 L 219.34375 94.71875 L 219.34375 94.46875 L 219.40625 94.53125 L 219.9375 93.875 L 220.5 93.21875 L 221.0625 92.53125 L 221.625 91.875 L 222.1875 91.21875 L 222.75 90.53125 L 223.3125 89.875 L 223.875 89.21875 L 224.375 88.625 L 224.6875 88.75 L 225.15625 88.90625 L 225.625 89.0625 L 226.09375 89.25 L 226.53125 89.40625 L 227 89.59375 L 227.46875 89.75 L 227.9375 89.90625 L 228.09375 89.46875 L 227.625 89.28125 L 227.15625 89.125 L 226.71875 88.9375 L 226.25 88.78125 L 225.78125 88.625 L 225.34375 88.4375 L 224.875 88.28125 L 224.40625 88.125 L 224.28125 88.0625 L 224.1875 87.9375 L 223.9375 87.5 L 223.6875 87.09375 L 223.4375 86.65625 L 223.21875 86.21875 L 222.96875 85.8125 L 222.71875 85.375 L 222.46875 84.96875 L 222.21875 84.53125 L 221.8125 84.78125 L 222.0625 85.1875 L 222.28125 85.625 L 222.53125 86.0625 L 222.78125 86.46875 L 223.03125 86.90625 L 223.28125 87.3125 L 223.53125 87.75 L 223.6875 88.03125 L 223.1875 88.65625 L 222.65625 89.3125 L 222.09375 89.96875 L 221.53125 90.65625 L 220.96875 91.3125 L 220.40625 91.96875 L 219.84375 92.65625 L 219.34375 93.25 L 219.34375 93.15625 L 217.78125 93.15625 L 216.25 93.15625 L 214.6875 93.15625 L 213.15625 93.15625 L 211.59375 93.15625 L 210.0625 93.15625 L 208.5 93.15625 L 207.09375 93.15625 L 207.25 93.03125 L 205.46875 90.9375 L 203.6875 88.84375 L 201.9375 86.71875 L 200.15625 84.625 L 198.40625 82.5 L 196.625 80.40625 L 194.84375 78.28125 L 193.09375 76.1875 L 192.53125 75.53125 L 192.53125 74.625 L 192.53125 71.875 L 192.53125 69.125 L 192.53125 66.375 L 192.53125 63.625 L 192.53125 60.875 L 192.53125 58.125 L 192.53125 55.375 L 192.53125 52.9375 L 193.59375 52.5625 L 195.0625 52.03125 L 196.5 51.5 L 197.96875 50.96875 L 199.40625 50.4375 L 200.875 49.90625 L 202.3125 49.375 L 203.59375 48.90625 L 204.03125 49.40625 L 204.5625 50.0625 L 205.125 50.75 L 205.6875 51.40625 L 206.25 52.0625 L 206.8125 52.75 L 207.375 53.40625 L 207.875 54 L 207.6875 54.3125 L 207.4375 54.71875 L 207.1875 55.15625 L 206.9375 55.5625 L 206.71875 56 L 206.46875 56.4375 L 206.21875 56.84375 L 205.96875 57.28125 L 206.40625 57.53125 L 206.65625 57.09375 L 206.875 56.65625 L 207.125 56.25 L 207.375 55.8125 L 207.625 55.40625 L 207.875 54.96875 L 208.125 54.5625 L 208.34375 54.125 L 208.40625 54 L 208.59375 53.9375 L 209.03125 53.78125 L 209.5 53.59375 L 209.96875 53.4375 L 210.4375 53.28125 L 210.875 53.09375 L 211.34375 52.9375 L 211.8125 52.75 L 212.25 52.59375 L 212.09375 52.125 L 211.625 52.3125 L 211.1875 52.46875 L 210.71875 52.625 L 210.25 52.8125 L 209.78125 52.96875 L 209.34375 53.15625 L 208.875 53.3125 L 208.53125 53.4375 L 208.03125 52.84375 L 207.46875 52.1875 L 206.90625 51.5 L 206.375 50.84375 L 205.8125 50.1875 L 205.25 49.5 L 204.6875 48.84375 L 204.125 48.1875 L 203.9375 47.96875 L 203.9375 47.6875 L 203.9375 46.8125 L 203.9375 45.9375 L 203.9375 45.0625 L 203.9375 44.21875 L 203.9375 43.34375 L 203.9375 42.46875 L 203.9375 41.59375 L 203.9375 40.8125 L 204.28125 40.6875 L 204.75 40.53125 L 205.21875 40.375 L 205.65625 40.1875 L 206.125 40.03125 L 206.59375 39.875 L 207.03125 39.6875 L 207.5 39.53125 L 207.34375 39.0625 L 206.875 39.21875 L 206.40625 39.40625 L 205.96875 39.5625 L 205.5 39.75 L 205.03125 39.90625 L 204.5625 40.0625 L 204.125 40.25 L 203.65625 40.40625 L 203.5 40.46875 L 203.375 40.40625 L 202.90625 40.25 L 202.4375 40.0625 L 201.96875 39.90625 L 201.53125 39.75 L 201.0625 39.5625 L 200.59375 39.40625 L 200.15625 39.21875 L 199.6875 39.0625 L 199.5 39.53125 L 199.96875 39.6875 L 200.4375 39.875 L 200.90625 40.03125 L 201.34375 40.1875 L 201.8125 40.375 L 202.28125 40.53125 L 202.75 40.6875 L 203.0625 40.8125 L 203.0625 41.59375 L 203.0625 42.46875 L 203.0625 43.34375 L 203.0625 44.21875 L 203.0625 45.0625 L 203.0625 45.9375 L 203.0625 46.8125 L 203.0625 47.46875 L 201.78125 47.9375 L 200.34375 48.4375 L 198.875 48.96875 L 197.4375 49.5 L 195.96875 50.03125 L 194.53125 50.5625 L 193.0625 51.09375 L 191.59375 51.625 L 191.3125 51.71875 L 191.0625 51.53125 L 189.875 50.53125 L 188.6875 49.53125 L 187.5 48.53125 L 186.3125 47.5625 L 185.125 46.5625 L 183.9375 45.5625 L 182.75 44.5625 L 181.5625 43.5625 L 181.5 43.625 L 181.5 42.84375 L 181.5 42 L 181.5 41.125 L 181.5 40.25 L 181.5 39.375 L 181.5 38.5 L 181.5 37.625 L 181.5 36.75 L 181.4375 36.75 L 181.78125 36.46875 L 182.15625 36.15625 L 182.53125 35.84375 L 182.90625 35.53125 L 183.28125 35.21875 L 183.65625 34.90625 L 184.03125 34.59375 L 184.40625 34.28125 L 184.09375 33.90625 L 183.71875 34.21875 L 183.34375 34.53125 L 182.96875 34.84375 L 182.59375 35.15625 L 182.21875 35.46875 L 181.84375 35.78125 L 181.46875 36.09375 L 181.09375 36.40625 L 181 36.46875 L 180.90625 36.4375 L 180.46875 36.28125 L 180 36.125 L 179.53125 35.9375 L 179.09375 35.78125 L 178.625 35.625 L 178.15625 35.4375 L 177.6875 35.28125 L 177.25 35.09375 L 177.0625 35.5625 L 177.53125 35.75 L 178 35.90625 L 178.4375 36.0625 L 178.90625 36.25 L 179.375 36.40625 L 179.84375 36.5625 L 180.28125 36.75 L 180.625 36.875 L 180.625 37.625 L 180.625 38.5 L 180.625 39.375 L 180.625 40.25 L 180.625 41.125 L 180.625 42 L 180.625 42.84375 L 180.625 43.71875 L 180.625 43.90625 L 180.46875 44 L 179.71875 44.4375 L 178.96875 44.875 L 178.21875 45.3125 L 177.46875 45.75 L 176.6875 46.1875 L 175.9375 46.625 L 175.1875 47.0625 L 174.53125 47.4375 L 174.25 47.21875 L 173.875 46.875 L 173.5 46.5625 L 173.125 46.25 L 172.75 45.9375 L 172.375 45.625 L 172 45.3125 L 171.625 45 L 171.3125 45.375 L 171.6875 45.6875 L 172.0625 46 L 172.4375 46.3125 L 172.8125 46.625 L 173.1875 46.9375 L 173.5625 47.25 L 173.9375 47.59375 L 174.3125 47.90625 L 174.4375 48 L 174.46875 48.15625 L 174.53125 48.625 L 174.625 49.125 L 174.71875 49.59375 L 174.8125 50.0625 L 174.875 50.5625 L 174.96875 51.03125 L 175.0625 51.53125 L 175.125 52 L 175.625 51.9375 L 175.53125 51.4375 L 175.4375 50.96875 L 175.375 50.46875 L 175.28125 50 L 175.1875 49.5 L 175.125 49.03125 L 175.03125 48.53125 L 174.96875 48.1875 L 175.625 47.8125 L 176.375 47.375 L 177.125 46.9375 L 177.90625 46.5 L 178.65625 46.0625 L 179.40625 45.625 L 180.15625 45.1875 L 180.71875 44.875 L 181.75 45.75 L 182.9375 46.75 L 184.125 47.75 L 185.3125 48.75 L 186.5 49.71875 L 187.6875 50.71875 L 188.875 51.71875 L 189.9375 52.625 L 189.78125 52.625 L 189.78125 55.375 L 189.78125 58.125 L 189.78125 60.875 L 189.78125 63.625 L 189.78125 66.375 L 189.78125 69.125 L 189.78125 71.875 L 189.78125 73.90625 L 185.71875 75.375 L 181.125 77.0625 L 176.53125 78.71875 L 171.90625 80.40625 L 167.3125 82.09375 L 162.71875 83.75 L 158.125 85.4375 L 153.53125 87.09375 L 152.0625 87.625 L 150.59375 87.09375 L 146 85.4375 L 141.40625 83.75 L 136.8125 82.09375 L 132.21875 80.40625 L 127.625 78.71875 L 123.03125 77.0625 L 118.4375 75.375 L 113.84375 73.71875 L 113.71875 74.03125 L 112.875 71.65625 L 111.9375 69.0625 L 111 66.5 L 110.0625 63.90625 L 109.125 61.3125 L 108.15625 58.71875 L 107.21875 56.15625 L 106.28125 53.5625 L 105.78125 53.75 L 105.78125 53.25 L 104.21875 53.25 L 102.65625 53.25 L 101.125 53.25 L 99.5625 53.25 L 98.03125 53.25 L 96.46875 53.25 L 94.9375 53.25 L 93.375 53.25 L 91.84375 53.25 L 91.84375 53.375 L 91.34375 52.75 L 90.78125 52.09375 L 90.21875 51.40625 L 89.65625 50.75 L 89.09375 50.09375 L 88.53125 49.40625 L 87.96875 48.75 L 87.40625 48.09375 L 87.375 48.125 L 87.4375 47.6875 L 87.53125 47.1875 L 87.625 46.71875 L 87.6875 46.25 L 87.78125 45.75 L 87.875 45.28125 L 87.96875 44.78125 L 88.03125 44.3125 L 87.5625 44.21875 L 87.46875 44.6875 L 87.40625 45.1875 L 87.3125 45.65625 L 87.21875 46.15625 L 87.125 46.625 L 87.0625 47.125 L 86.96875 47.59375 L 86.875 48.09375 L 86.84375 48.1875 L 86.75 48.21875 L 86.3125 48.375 L 85.84375 48.5625 L 85.375 48.71875 L 84.9375 48.875 L 84.46875 49.0625 L 84 49.21875 L 83.53125 49.375 L 83.09375 49.5625 L 83.25 50.03125 L 83.71875 49.84375 L 84.15625 49.6875 L 84.625 49.5 L 85.09375 49.34375 L 85.5625 49.1875 L 86 49 L 86.46875 48.84375 L 86.8125 48.71875 L 87.3125 49.3125 L 87.875 49.96875 L 88.4375 50.65625 L 88.96875 51.3125 L 89.53125 51.96875 L 90.09375 52.65625 L 90.65625 53.3125 L 91.21875 53.96875 L 91.28125 54.03125 L 91.21875 54.09375 L 90.65625 54.75 L 90.09375 55.40625 L 89.53125 56.09375 L 88.96875 56.75 L 88.4375 57.40625 L 87.875 58.09375 L 87.3125 58.75 L 86.75 59.4375 L 86.8125 59.46875 L 86.34375 59.46875 L 85.84375 59.46875 L 85.375 59.46875 L 84.875 59.46875 L 84.375 59.46875 L 83.90625 59.46875 L 83.40625 59.46875 L 82.90625 59.46875 L 82.90625 59.9375 L 83.40625 59.9375 L 83.90625 59.9375 L 84.375 59.9375 L 84.875 59.9375 L 85.375 59.9375 L 85.84375 59.9375 L 86.34375 59.9375 L 86.84375 59.9375 L 86.9375 59.9375 L 87 60.03125 L 87.21875 60.46875 L 87.46875 60.875 L 87.71875 61.3125 L 87.96875 61.71875 L 88.21875 62.15625 L 88.46875 62.59375 L 88.71875 63 L 88.9375 63.4375 L 89.375 63.1875 L 89.125 62.75 L 88.875 62.34375 L 88.625 61.90625 L 88.40625 61.5 L 88.15625 61.0625 L 87.90625 60.625 L 87.65625 60.21875 L 87.46875 59.90625 L 87.96875 59.3125 L 88.53125 58.65625 L 89.09375 57.96875 L 89.65625 57.3125 L 90.21875 56.65625 L 90.78125 55.96875 L 91.34375 55.3125 L 91.84375 54.6875 L 91.84375 54.8125 L 93.375 54.8125 L 94.9375 54.8125 L 96.46875 54.8125 L 98.03125 54.8125 L 99.5625 54.8125 L 101.125 54.8125 L 102.65625 54.8125 L 103.8125 54.8125 L 104.65625 57.09375 L 105.59375 59.6875 L 106.53125 62.25 L 107.46875 64.84375 L 108.40625 67.4375 L 109.34375 70.03125 L 110.28125 72.59375 L 111.21875 75.1875 L 111.28125 75.40625 L 111.125 75.5 L 108.71875 76.875 L 106.34375 78.25 L 103.96875 79.625 L 101.59375 81 L 99.1875 82.375 L 96.8125 83.75 L 94.4375 85.125 L 92.0625 86.53125 L 92.15625 86.65625 L 90.8125 86.1875 L 89.375 85.65625 L 87.90625 85.125 L 86.46875 84.59375 L 85 84.0625 L 83.53125 83.53125 L 82.09375 83 L 80.625 82.46875 L 80.59375 82.5625 L 80.34375 81.84375 L 80.03125 81 L 79.75 80.1875 L 79.4375 79.375 L 79.15625 78.5625 L 78.84375 77.75 L 78.5625 76.9375 L 78.25 76.09375 L 78.21875 76.09375 L 78.40625 75.75 L 78.65625 75.3125 L 78.90625 74.90625 L 79.15625 74.46875 L 79.40625 74.03125 L 79.65625 73.625 L 79.875 73.1875 L 80.125 72.78125 L 79.71875 72.53125 L 79.46875 72.9375 L 79.21875 73.375 L 78.96875 73.8125 L 78.71875 74.21875 L 78.5 74.65625 L 78.25 75.0625 L 78 75.5 L 77.75 75.90625 L 77.71875 75.9375 L 77.6875 75.9375 L 77.25 75.78125 L 76.78125 75.59375 L 76.3125 75.4375 L 75.84375 75.28125 L 75.40625 75.09375 L 74.9375 74.9375 L 74.46875 74.78125 L 74 74.59375 L 73.84375 75.0625 L 74.3125 75.21875 L 74.78125 75.40625 L 75.21875 75.5625 L 75.6875 75.71875 L 76.15625 75.90625 L 76.59375 76.0625 L 77.0625 76.21875 L 77.5 76.375 L 77.4375 76.40625 L 77.71875 77.21875 L 78.03125 78.03125 L 78.3125 78.84375 L 78.625 79.6875 L 78.90625 80.5 L 79.21875 81.3125 L 79.53125 82.125 L 79.8125 82.9375 L 79.875 83.09375 L 79.75 83.25 L 79.1875 83.9375 L 78.625 84.59375 L 78.09375 85.25 L 77.53125 85.9375 L 76.96875 86.59375 L 76.40625 87.25 L 75.84375 87.9375 L 75.28125 88.59375 L 75.3125 88.625 L 74.875 88.625 L 74.40625 88.625 L 73.90625 88.625 L 73.40625 88.625 L 72.90625 88.625 L 72.4375 88.625 L 71.9375 88.625 L 71.4375 88.625 L 71.4375 89.125 L 71.9375 89.125 L 72.4375 89.125 L 72.90625 89.125 L 73.40625 89.125 L 73.90625 89.125 L 74.40625 89.125 L 74.875 89.125 L 75.375 89.125 L 75.46875 89.125 L 75.53125 89.21875 L 75.78125 89.625 L 76.03125 90.0625 L 76.25 90.5 L 76.5 90.90625 L 76.75 91.34375 L 77 91.75 L 77.25 92.1875 L 77.5 92.59375 L 77.90625 92.375 L 77.65625 91.9375 L 77.40625 91.5 L 77.1875 91.09375 L 76.9375 90.65625 L 76.6875 90.25 L 76.4375 89.8125 L 76.1875 89.40625 L 76 89.09375 L 76.5 88.5 L 77.0625 87.8125 L 77.625 87.15625 L 78.1875 86.5 L 78.75 85.8125 L 79.3125 85.15625 L 79.875 84.5 L 80.28125 84 L 81.5625 84.46875 L 83.03125 85 L 84.46875 85.53125 L 85.9375 86.0625 L 87.375 86.59375 L 88.84375 87.125 L 90.28125 87.65625 L 91.75 88.15625 L 93.1875 88.6875 L 93.25 88.5625 L 93.4375 88.90625 L 95.8125 87.53125 L 98.1875 86.15625 L 100.5625 84.78125 L 102.96875 83.40625 L 105.34375 82.03125 L 107.71875 80.65625 L 110.09375 79.28125 L 112.25 78.0625 L 112.15625 78.3125 L 116.75 79.96875 L 121.34375 81.65625 L 125.9375 83.34375 L 130.53125 85 L 135.15625 86.6875 L 139.75 88.34375 L 144.34375 90.03125 L 147.71875 91.25 L 147.71875 98.9375 L 147.71875 107.625 L 147.71875 116.3125 L 147.71875 125.03125 L 147.71875 133.71875 L 147.71875 142.40625 L 147.71875 151.125 L 147.71875 159.8125 L 147.71875 161.65625 L 146.125 162.5625 L 138.59375 166.90625 L 131.0625 171.28125 L 123.53125 175.625 L 116 179.96875 L 108.46875 184.3125 L 100.9375 188.65625 L 93.40625 193 L 85.875 197.34375 L 86.15625 197.84375 L 82 196.3125 L 77.40625 194.65625 L 72.78125 192.96875 L 68.1875 191.3125 L 63.59375 189.625 L 59 187.9375 L 54.40625 186.28125 L 49.8125 184.59375 L 49.6875 184.90625 L 48.84375 182.5625 L 47.90625 179.96875 L 46.96875 177.375 L 46.03125 174.78125 L 45.09375 172.21875 L 44.15625 169.625 L 43.21875 167.03125 L 42.25 164.4375 L 42.125 164.5 L 42.8125 163.3125 L 43.5625 161.96875 L 44.34375 160.625 L 45.125 159.28125 L 45.90625 157.9375 L 46.6875 156.59375 L 47.4375 155.25 L 48.125 154.0625 L 48.75 154.1875 L 49.625 154.34375 L 50.46875 154.5 L 51.34375 154.625 L 52.1875 154.78125 L 53.0625 154.9375 L 53.90625 155.09375 L 54.65625 155.21875 L 54.71875 155.59375 L 54.8125 156.0625 L 54.90625 156.53125 L 54.96875 157.03125 L 55.0625 157.5 L 55.15625 158 L 55.25 158.46875 L 55.3125 158.96875 L 55.8125 158.875 L 55.71875 158.375 L 55.625 157.90625 L 55.5625 157.4375 L 55.46875 156.9375 L 55.375 156.46875 L 55.28125 155.96875 L 55.21875 155.5 L 55.125 155 L 55.09375 154.875 L 55.1875 154.71875 L 55.40625 154.3125 L 55.65625 153.875 L 55.90625 153.4375 L 56.15625 153.03125 L 56.40625 152.59375 L 56.65625 152.1875 L 56.875 151.75 L 57.125 151.34375 L 56.71875 151.09375 L 56.46875 151.5 L 56.21875 151.9375 L 55.96875 152.34375 L 55.71875 152.78125 L 55.46875 153.21875 L 55.25 153.625 L 55 154.0625 L 54.8125 154.34375 L 54.0625 154.21875 L 53.1875 154.09375 L 52.34375 153.9375 L 51.46875 153.78125 L 50.625 153.625 L 49.78125 153.46875 L 48.90625 153.3125 L 48.0625 153.1875 L 47.78125 153.125 L 47.59375 152.90625 L 47.03125 152.25 L 46.46875 151.59375 L 45.9375 150.90625 L 45.375 150.25 L 44.8125 149.59375 L 44.25 148.90625 L 43.6875 148.25 L 43.1875 147.65625 L 43.375 147.34375 L 43.625 146.90625 L 43.875 146.5 L 44.09375 146.0625 L 44.34375 145.65625 L 44.59375 145.21875 L 44.84375 144.8125 L 45.09375 144.375 L 44.65625 144.125 L 44.40625 144.5625 L 44.1875 144.96875 L 43.9375 145.40625 L 43.6875 145.8125 L 43.4375 146.25 L 43.1875 146.6875 L 42.9375 147.09375 L 42.6875 147.53125 L 42.46875 147.9375 L 42.59375 148.03125 L 42.46875 148.125 L 43.03125 148.8125 L 43.59375 149.46875 L 44.125 150.125 L 44.6875 150.8125 L 45.25 151.46875 L 45.8125 152.125 L 46.375 152.8125 L 46.78125 153.3125 L 46.09375 154.46875 L 45.34375 155.8125 L 44.5625 157.15625 L 43.78125 158.5 L 43 159.84375 L 42.25 161.1875 L 41.46875 162.53125 L 40.6875 163.875 L 40.625 163.96875 L 40.5 163.9375 L 39.0625 163.40625 L 37.59375 162.875 L 36.15625 162.34375 L 34.6875 161.8125 L 33.25 161.28125 L 31.78125 160.75 L 30.3125 160.21875 L 28.875 159.6875 L 28.84375 159.78125 L 28.5625 159.03125 L 28.28125 158.21875 L 27.96875 157.40625 L 27.6875 156.59375 L 27.375 155.78125 L 27.09375 154.96875 L 26.78125 154.125 L 26.53125 153.40625 L 26.78125 153.1875 L 27.15625 152.875 L 27.53125 152.5625 L 27.90625 152.25 L 28.3125 151.9375 L 28.6875 151.59375 L 29.0625 151.28125 L 29.4375 150.96875 L 29.09375 150.59375 L 28.71875 150.90625 L 28.34375 151.21875 L 27.96875 151.5625 L 27.59375 151.875 L 27.21875 152.1875 L 26.84375 152.5 L 26.46875 152.8125 L 26.09375 153.125 L 26.03125 153.1875 L 25.9375 153.15625 L 25.46875 153 L 25 152.8125 L 24.5625 152.65625 L 24.09375 152.46875 L 23.625 152.3125 L 23.15625 152.15625 L 22.71875 151.96875 L 22.25 151.8125 L 22.09375 152.28125 L 22.53125 152.4375 L 23 152.59375 L 23.46875 152.78125 L 23.90625 152.9375 L 24.375 153.125 L 24.84375 153.28125 L 25.3125 153.4375 L 25.71875 153.625 L 25.65625 153.625 L 25.96875 154.4375 L 26.25 155.25 L 26.5625 156.0625 L 26.84375 156.875 L 27.15625 157.71875 L 27.46875 158.53125 L 27.75 159.34375 L 28.0625 160.15625 L 28.125 160.3125 L 28 160.46875 L 27.4375 161.15625 L 26.875 161.8125 L 26.3125 162.46875 L 25.75 163.15625 L 25.1875 163.8125 L 24.625 164.46875 L 24.0625 165.15625 L 23.59375 165.75 L 23.25 165.625 L 22.78125 165.4375 L 22.3125 165.28125 L 21.875 165.09375 L 21.40625 164.9375 L 20.9375 164.78125 L 20.46875 164.59375 L 20.03125 164.4375 L 19.84375 164.90625 L 20.3125 165.0625 L 20.78125 165.21875 L 21.25 165.40625 L 21.6875 165.5625 L 22.15625 165.75 L 22.625 165.90625 L 23.0625 166.0625 L 23.53125 166.25 L 23.625 166.28125 L 23.65625 166.375 L 23.75 166.84375 L 23.8125 167.34375 L 23.90625 167.8125 L 24 168.3125 L 24.0625 168.78125 L 24.15625 169.28125 L 24.25 169.75 L 24.34375 170.21875 L 24.8125 170.15625 L 24.71875 169.65625 L 24.65625 169.1875 L 24.5625 168.6875 L 24.46875 168.21875 L 24.375 167.75 L 24.3125 167.25 L 24.21875 166.78125 L 24.125 166.3125 L 24.1875 166.375 L 24.75 165.71875 L 25.3125 165.03125 L 25.875 164.375 L 26.4375 163.71875 L 26.96875 163.03125 L 27.53125 162.375 L 28.09375 161.6875 L 28.5 161.21875 L 29.8125 161.6875 L 31.25 162.21875 L 32.71875 162.75 L 34.15625 163.28125 L 35.625 163.78125 L 37.0625 164.3125 L 38.53125 164.84375 L 39.875 165.34375 L 39.6875 165.40625 L 40.625 167.96875 L 41.5625 170.5625 L 42.5 173.15625 L 43.4375 175.75 L 44.375 178.3125 L 45.3125 180.90625 L 46.28125 183.5 L 47.21875 186.09375 L 47.28125 186.28125 L 47.09375 186.40625 L 44.71875 187.78125 L 42.3125 189.15625 L 39.9375 190.53125 L 37.5625 191.90625 L 35.1875 193.28125 L 32.78125 194.65625 L 30.40625 196.03125 L 28.3125 197.25 L 27.4375 196.5 L 26.25 195.53125 L 25.0625 194.53125 L 23.875 193.53125 L 22.6875 192.53125 L 21.5 191.53125 L 20.3125 190.53125 L 19.25 189.6875 L 19.5 189.0625 L 19.78125 188.25 L 20.09375 187.4375 L 20.375 186.59375 L 20.6875 185.78125 L 20.96875 184.96875 L 21.28125 184.15625 L 21.5625 183.34375 L 21.5 183.3125 L 21.9375 183.15625 L 22.40625 183 L 22.875 182.84375 L 23.3125 182.65625 L 23.78125 182.5 L 24.25 182.3125 L 24.6875 182.15625 L 25.15625 182 L 25 181.53125 L 24.53125 181.6875 L 24.0625 181.875 L 23.625 182.03125 L 23.15625 182.1875 L 22.6875 182.375 L 22.21875 182.53125 L 21.78125 182.71875 L 21.3125 182.875 L 21.28125 182.875 L 21.25 182.84375 L 21 182.4375 L 20.78125 182 L 20.53125 181.59375 L 20.28125 181.15625 L 20.03125 180.71875 L 19.78125 180.3125 L 19.53125 179.875 L 19.3125 179.46875 L 18.875 179.71875 L 19.125 180.125 L 19.375 180.5625 L 19.59375 180.96875 L 19.84375 181.40625 L 20.09375 181.8125 L 20.34375 182.25 L 20.59375 182.6875 L 20.8125 183.0625 L 20.75 183.03125 L 20.46875 183.84375 L 20.15625 184.6875 L 19.875 185.5 L 19.5625 186.3125 L 19.28125 187.125 L 18.96875 187.9375 L 18.6875 188.75 L 18.375 189.59375 L 18.3125 189.75 L 18.125 189.78125 L 17.28125 189.9375 L 16.40625 190.09375 L 15.5625 190.25 L 14.6875 190.40625 L 13.84375 190.53125 L 13 190.6875 L 12.125 190.84375 L 11.28125 191 L 11.3125 191.09375 L 10.9375 190.78125 L 10.5625 190.4375 L 10.1875 190.125 L 9.8125 189.8125 L 9.4375 189.5 L 9.0625 189.1875 L 8.6875 188.875 L 8.3125 188.5625 L 8 188.9375 L 8.375 189.25 L 8.75 189.5625 L 9.125 189.875 L 9.5 190.1875 L 9.875 190.5 L 10.25 190.8125 L 10.625 191.15625 L 11 191.46875 L 11.03125 191.5 L 11 191.53125 L 10.78125 191.9375 L 10.53125 192.375 L 10.28125 192.78125 L 10.03125 193.21875 L 9.78125 193.625 L 9.53125 194.0625 L 9.3125 194.5 L 9.0625 194.90625 L 9.46875 195.15625 L 9.71875 194.71875 L 9.96875 194.3125 L 10.21875 193.875 L 10.46875 193.46875 L 10.6875 193.03125 L 10.9375 192.59375 L 11.1875 192.1875 L 11.40625 191.78125 L 11.4375 191.84375 L 12.28125 191.71875 L 13.125 191.5625 L 14 191.40625 L 14.84375 191.25 L 15.71875 191.09375 L 16.5625 190.9375 L 17.4375 190.78125 L 18.15625 190.6875 L 18.125 190.71875 L 19.3125 191.71875 L 20.5 192.71875 L 21.6875 193.71875 L 22.875 194.71875 L 24.0625 195.71875 L 25.25 196.71875 L 26.4375 197.6875 L 27.625 198.6875 L 27.875 198.90625 L 27.8125 199.21875 L 27.5625 200.75 L 27.28125 202.28125 L 27 203.8125 L 26.75 205.3125 L 26.46875 206.84375 L 26.21875 208.375 L 25.9375 209.90625 L 25.65625 211.40625 L 25.8125 211.4375 L 25.09375 211.84375 L 24.3125 212.28125 L 23.5625 212.6875 L 22.8125 213.125 L 22.0625 213.5625 L 21.3125 214 L 20.5625 214.4375 L 19.8125 214.875 L 19.875 214.9375 L 19.40625 214.78125 L 18.96875 214.59375 L 18.5 214.4375 L 18.03125 214.28125 L 17.5625 214.09375 L 17.125 213.9375 L 16.65625 213.78125 L 16.1875 213.59375 L 16.03125 214.0625 L 16.5 214.21875 L 16.9375 214.40625 L 17.40625 214.5625 L 17.875 214.71875 L 18.3125 214.90625 L 18.78125 215.0625 L 19.25 215.25 L 19.71875 215.40625 L 19.75 215.40625 L 19.75 215.46875 L 19.65625 215.9375 L 19.5625 216.40625 L 19.46875 216.90625 L 19.40625 217.375 L 19.3125 217.875 L 19.21875 218.34375 L 19.15625 218.84375 L 19.0625 219.3125 L 19.53125 219.40625 L 19.625 218.90625 L 19.71875 218.4375 L 19.78125 217.9375 L 19.875 217.46875 L 19.96875 217 L 20.0625 216.5 L 20.125 216.03125 L 20.21875 215.53125 L 20.25 215.625 L 21 215.1875 L 21.75 214.75 L 22.5 214.3125 L 23.25 213.90625 L 24 213.46875 L 24.75 213.03125 L 25.53125 212.59375 L 26.28125 212.15625 L 26.4375 212.0625 L 26.59375 212.15625 L 27.34375 212.59375 L 28.09375 213.03125 L 28.84375 213.46875 L 29.59375 213.90625 L 30.34375 214.3125 L 31.125 214.75 L 31.875 215.1875 L 32.625 215.625 L 32.71875 216.03125 L 32.8125 216.5 L 32.90625 217 L 32.96875 217.46875 L 33.0625 217.9375 L 33.15625 218.4375 L 33.25 218.90625 L 33.3125 219.40625 L 33.8125 219.3125 L 33.71875 218.84375 L 33.625 218.34375 L 33.5625 217.875 L 33.46875 217.375 L 33.375 216.90625 L 33.28125 216.40625 L 33.21875 215.9375 L 33.125 215.46875 L 33.125 215.40625 L 33.15625 215.40625 L 33.625 215.25 L 34.0625 215.0625 L 34.53125 214.90625 L 35 214.71875 L 35.46875 214.5625 L 35.90625 214.40625 L 36.375 214.21875 L 36.84375 214.0625 L 36.65625 213.59375 L 36.21875 213.78125 L 35.75 213.9375 L 35.28125 214.09375 L 34.8125 214.28125 L 34.375 214.4375 L 33.90625 214.59375 L 33.4375 214.78125 L 33.0625 214.90625 L 33.0625 214.875 L 32.3125 214.4375 L 31.5625 214 L 30.78125 213.5625 L 30.03125 213.125 L 29.28125 212.6875 L 28.53125 212.28125 L 27.78125 211.84375 L 27.21875 211.53125 L 27.46875 210.15625 L 27.71875 208.65625 L 28 207.125 L 28.28125 205.59375 L 28.53125 204.0625 L 28.8125 202.53125 L 29.0625 201.03125 L 29.3125 199.625 L 29.40625 199.78125 L 31.78125 198.40625 L 34.15625 197.03125 L 36.5625 195.65625 L 38.9375 194.28125 L 41.3125 192.90625 L 43.6875 191.53125 L 46.09375 190.15625 L 48.21875 188.9375 L 48.125 189.1875 L 52.71875 190.875 L 57.34375 192.5625 L 61.9375 194.21875 L 66.53125 195.90625 L 71.125 197.5625 L 75.71875 199.25 L 80.3125 200.90625 L 84.90625 202.59375 L 85.28125 202.71875 L 85.21875 203.125 L 84.375 207.9375 L 83.5 212.75 L 82.65625 217.5625 L 81.8125 222.375 L 80.96875 227.1875 L 80.125 232.03125 L 79.28125 236.84375 L 78.40625 241.65625 L 78.6875 241.71875 L 76.5625 242.9375 L 74.1875 244.3125 L 71.8125 245.6875 L 69.40625 247.0625 L 67.03125 248.46875 L 64.65625 249.84375 L 62.25 251.21875 L 60.15625 252.4375 L 59.28125 251.6875 L 58.09375 250.6875 L 56.90625 249.6875 L 55.71875 248.6875 L 54.53125 247.71875 L 53.34375 246.71875 L 52.1875 245.71875 L 51 244.71875 L 50.9375 244.8125 L 50.9375 244 L 50.9375 243.125 L 50.9375 242.28125 L 50.9375 241.40625 L 50.9375 240.53125 L 50.9375 239.65625 L 50.9375 238.78125 L 50.9375 237.90625 L 50.875 237.90625 L 51.21875 237.625 L 51.59375 237.3125 L 51.96875 237 L 52.34375 236.6875 L 52.71875 236.375 L 53.09375 236.0625 L 53.46875 235.75 L 53.84375 235.4375 L 53.53125 235.0625 L 53.15625 235.375 L 52.78125 235.6875 L 52.40625 236 L 52.03125 236.3125 L 51.65625 236.625 L 51.28125 236.9375 L 50.90625 237.25 L 50.53125 237.5625 L 50.5 237.59375 L 50.46875 237.5625 L 50.09375 237.25 L 49.71875 236.9375 L 49.34375 236.625 L 48.96875 236.3125 L 48.59375 236 L 48.21875 235.6875 L 47.84375 235.375 L 47.46875 235.0625 L 47.15625 235.4375 L 47.53125 235.75 L 47.90625 236.0625 L 48.28125 236.375 L 48.65625 236.6875 L 49.03125 237 L 49.40625 237.3125 L 49.78125 237.625 L 50.125 237.90625 L 50.0625 237.90625 L 50.0625 238.78125 L 50.0625 239.65625 L 50.0625 240.53125 L 50.0625 241.40625 L 50.0625 242.28125 L 50.0625 243.125 L 50.0625 244 L 50.0625 244.875 L 50.0625 244.96875 L 50 244.96875 L 49.125 245.125 L 48.28125 245.25 L 47.40625 245.40625 L 46.5625 245.5625 L 45.6875 245.71875 L 44.84375 245.875 L 43.96875 246.03125 L 43.21875 246.15625 L 43.03125 245.84375 L 42.8125 245.40625 L 42.5625 245 L 42.3125 244.5625 L 42.0625 244.15625 L 41.8125 243.71875 L 41.5625 243.3125 L 41.34375 242.875 L 40.90625 243.125 L 41.15625 243.53125 L 41.40625 243.96875 L 41.65625 244.375 L 41.875 244.8125 L 42.125 245.25 L 42.375 245.65625 L 42.625 246.09375 L 42.875 246.5 L 42.9375 246.625 L 42.90625 246.8125 L 42.84375 247.28125 L 42.75 247.75 L 42.65625 248.25 L 42.5625 248.71875 L 42.5 249.21875 L 42.40625 249.6875 L 42.3125 250.1875 L 42.25 250.65625 L 42.71875 250.75 L 42.8125 250.25 L 42.875 249.78125 L 42.96875 249.28125 L 43.0625 248.8125 L 43.15625 248.34375 L 43.21875 247.84375 L 43.3125 247.375 L 43.375 247 L 44.125 246.875 L 45 246.71875 L 45.84375 246.5625 L 46.71875 246.4375 L 47.5625 246.28125 L 48.4375 246.125 L 49.28125 245.96875 L 50.0625 245.8125 L 50 245.90625 L 51.1875 246.90625 L 52.375 247.90625 L 53.5625 248.90625 L 54.75 249.875 L 55.90625 250.875 L 57.09375 251.875 L 58.28125 252.875 L 59.46875 253.875 L 59.875 254.21875 L 59.9375 254.65625 L 60.21875 256.1875 L 60.46875 257.71875 L 60.75 259.25 L 61.03125 260.78125 L 61.28125 262.28125 L 61.5625 263.8125 L 61.8125 265.34375 L 62.09375 266.875 L 62.1875 266.875 L 61.6875 267.4375 L 61.125 268.125 L 60.5625 268.78125 L 60 269.4375 L 59.4375 270.125 L 58.875 270.78125 L 58.3125 271.4375 L 57.8125 272.03125 L 57.5 271.90625 L 57.03125 271.75 L 56.5625 271.59375 L 56.125 271.40625 L 55.65625 271.25 L 55.1875 271.09375 L 54.71875 270.90625 L 54.28125 270.75 L 54.09375 271.21875 L 54.5625 271.375 L 55.03125 271.53125 L 55.46875 271.71875 L 55.9375 271.875 L 56.40625 272.03125 L 56.875 272.21875 L 57.3125 272.375 L 57.78125 272.53125 L 57.875 272.5625 L 57.90625 272.6875 L 57.96875 273.15625 L 58.0625 273.65625 L 58.15625 274.125 L 58.25 274.625 L 58.3125 275.09375 L 58.40625 275.5625 L 58.5 276.0625 L 58.59375 276.53125 L 59.0625 276.46875 L 58.96875 275.96875 L 58.90625 275.5 L 58.8125 275 L 58.71875 274.53125 L 58.625 274.03125 L 58.5625 273.5625 L 58.46875 273.09375 L 58.375 272.625 L 58.4375 272.6875 L 59 272 L 59.5625 271.34375 L 60.09375 270.6875 L 60.65625 270 L 61.21875 269.34375 L 61.78125 268.6875 L 62.34375 268 L 62.90625 267.34375 L 62.96875 267.28125 L 63 267.3125 L 63.78125 267.75 L 64.53125 268.1875 L 65.28125 268.625 L 66.03125 269.0625 L 66.78125 269.5 L 67.53125 269.9375 L 68.28125 270.375 L 68.9375 270.78125 L 68.90625 271.125 L 68.8125 271.59375 L 68.71875 272.0625 L 68.625 272.5625 L 68.5625 273.03125 L 68.46875 273.53125 L 68.375 274 L 68.3125 274.5 L 68.78125 274.5625 L 68.875 274.09375 L 68.9375 273.59375 L 69.03125 273.125 L 69.125 272.65625 L 69.21875 272.15625 L 69.28125 271.6875 L 69.375 271.1875 L 69.46875 270.71875 L 69.5 270.53125 L 69.59375 270.46875 L 69.96875 270.15625 L 70.34375 269.84375 L 70.71875 269.53125 L 71.09375 269.1875 L 71.5 268.875 L 71.875 268.5625 L 72.25 268.25 L 72.625 267.9375 L 72.28125 267.5625 L 71.90625 267.875 L 71.53125 268.1875 L 71.15625 268.5 L 70.78125 268.8125 L 70.40625 269.15625 L 70.03125 269.46875 L 69.65625 269.78125 L 69.375 270 L 68.71875 269.625 L 67.96875 269.1875 L 67.21875 268.75 L 66.46875 268.3125 L 65.71875 267.875 L 64.96875 267.4375 L 64.1875 267 L 63.53125 266.59375 L 63.625 266.59375 L 63.34375 265.0625 L 63.09375 263.5625 L 62.8125 262.03125 L 62.53125 260.5 L 62.28125 258.96875 L 62 257.4375 L 61.75 255.9375 L 61.53125 254.8125 L 63.625 253.59375 L 66.03125 252.21875 L 68.40625 250.84375 L 70.78125 249.46875 L 73.1875 248.09375 L 75.5625 246.71875 L 77.9375 245.34375 L 80.3125 243.96875 L 80.8125 243.6875 L 81.34375 243.96875 L 83.71875 245.34375 L 86.09375 246.71875 L 88.46875 248.09375 L 90.875 249.46875 L 93.25 250.84375 L 95.625 252.21875 L 98 253.59375 L 100.125 254.8125 L 99.90625 255.9375 L 99.65625 257.4375 L 99.375 258.96875 L 99.125 260.5 L 98.84375 262.03125 L 98.5625 263.5625 L 98.3125 265.0625 L 98.0625 266.40625 L 97.4375 266.53125 L 96.59375 266.6875 L 95.71875 266.84375 L 94.875 266.96875 L 94 267.125 L 93.15625 267.28125 L 92.28125 267.4375 L 91.53125 267.5625 L 91.34375 267.25 L 91.125 266.84375 L 90.875 266.40625 L 90.625 266 L 90.1875 266.21875 L 90.4375 266.65625 L 90.6875 267.0625 L 90.9375 267.5 L 91.1875 267.9375 L 91.25 268.0625 L 91.21875 268.21875 L 91.15625 268.6875 L 91.0625 269.1875 L 90.96875 269.65625 L 90.875 270.15625 L 90.8125 270.625 L 90.71875 271.09375 L 90.625 271.59375 L 90.53125 272.0625 L 91.03125 272.15625 L 91.125 271.6875 L 91.1875 271.1875 L 91.28125 270.71875 L 91.375 270.21875 L 91.46875 269.75 L 91.53125 269.25 L 91.625 268.78125 L 91.6875 268.40625 L 92.4375 268.28125 L 93.3125 268.15625 L 94.15625 268 L 95.03125 267.84375 L 95.875 267.6875 L 96.71875 267.53125 L 97.59375 267.375 L 98.4375 267.25 L 98.75 267.1875 L 98.96875 267.3125 L 99.71875 267.75 L 100.46875 268.1875 L 101.21875 268.625 L 101.96875 269.0625 L 102.71875 269.5 L 103.46875 269.9375 L 104.25 270.375 L 104.90625 270.75 L 104.84375 271.125 L 104.75 271.59375 L 104.65625 272.0625 L 104.59375 272.5625 L 104.5 273.03125 L 104.40625 273.53125 L 104.34375 274 L 104.25 274.5 L 104.71875 274.5625 L 104.8125 274.09375 L 104.90625 273.59375 L 104.96875 273.125 L 105.0625 272.65625 L 105.15625 272.15625 L 105.25 271.6875 L 105.3125 271.1875 L 105.40625 270.71875 L 105.4375 270.5625 L 105.5625 270.46875 L 105.9375 270.15625 L 106.3125 269.84375 L 106.6875 269.53125 L 107.0625 269.1875 L 107.4375 268.875 L 107.8125 268.5625 L 108.1875 268.25 L 108.5625 267.9375 L 108.25 267.5625 L 107.875 267.875 L 107.5 268.1875 L 107.125 268.5 L 106.75 268.8125 L 106.375 269.15625 L 106 269.46875 L 105.625 269.78125 L 105.34375 270 L 104.6875 269.625 L 103.90625 269.1875 L 103.15625 268.75 L 102.40625 268.3125 L 101.65625 267.875 L 100.90625 267.4375 L 100.15625 267 L 99.59375 266.6875 L 99.84375 265.34375 L 100.09375 263.8125 L 100.375 262.28125 L 100.625 260.78125 L 100.90625 259.25 L 101.1875 257.71875 L 101.4375 256.1875 L 101.71875 254.65625 L 101.78125 254.34375 L 102.0625 254.25 L 103.53125 253.71875 L 105 253.1875 L 106.4375 252.65625 L 107.90625 252.125 L 109.34375 251.59375 L 110.8125 251.0625 L 112.25 250.53125 L 113.5625 250.0625 L 113.96875 250.5625 L 114.5 251.21875 L 115.0625 251.875 L 115.625 252.5625 L 116.1875 253.21875 L 116.75 253.875 L 117.3125 254.5625 L 117.875 255.21875 L 117.90625 255.15625 L 117.84375 255.625 L 117.75 256.09375 L 117.65625 256.59375 L 117.59375 257.0625 L 117.5 257.5625 L 117.40625 258.03125 L 117.3125 258.53125 L 117.25 259 L 117.71875 259.09375 L 117.8125 258.59375 L 117.90625 258.125 L 117.96875 257.625 L 118.0625 257.15625 L 118.15625 256.6875 L 118.21875 256.1875 L 118.3125 255.71875 L 118.40625 255.21875 L 118.4375 255.125 L 118.53125 255.09375 L 118.96875 254.90625 L 119.4375 254.75 L 119.90625 254.59375 L 120.375 254.40625 L 120.8125 254.25 L 121.28125 254.09375 L 121.75 253.90625 L 122.1875 253.75 L 122.03125 253.28125 L 121.5625 253.46875 L 121.125 253.625 L 120.65625 253.78125 L 120.1875 253.96875 L 119.71875 254.125 L 119.28125 254.28125 L 118.8125 254.46875 L 118.46875 254.59375 L 117.96875 254 L 117.40625 253.34375 L 116.84375 252.65625 L 116.3125 252 L 115.75 251.3125 L 115.1875 250.65625 L 114.625 250 L 114.0625 249.3125 L 113.9375 249.1875 L 114 249 L 114.3125 248.1875 L 114.59375 247.375 L 114.90625 246.5625 L 115.1875 245.75 L 115.5 244.90625 L 115.78125 244.09375 L 116.09375 243.28125 L 116.375 242.46875 L 116.3125 242.4375 L 116.75 242.3125 L 117.21875 242.125 L 117.6875 241.96875 L 118.125 241.78125 L 118.59375 241.625 L 119.0625 241.46875 L 119.5 241.28125 L 119.96875 241.125 L 119.8125 240.65625 L 119.34375 240.84375 L 118.875 241 L 118.4375 241.15625 L 117.96875 241.34375 L 117.5 241.5 L 117.03125 241.65625 L 116.59375 241.84375 L 116.125 242 L 116.03125 242.03125 L 115.9375 241.96875 L 115.5625 241.65625 L 115.1875 241.34375 L 114.8125 241.03125 L 114.4375 240.71875 L 114.0625 240.40625 L 113.6875 240.09375 L 113.3125 239.78125 L 112.9375 239.46875 L 112.625 239.84375 L 113 240.15625 L 113.375 240.46875 L 113.75 240.78125 L 114.125 241.09375 L 114.5 241.40625 L 114.875 241.71875 L 115.25 242.03125 L 115.53125 242.25 L 115.28125 243 L 114.96875 243.8125 L 114.6875 244.625 L 114.375 245.4375 L 114.09375 246.25 L 113.78125 247.09375 L 113.5 247.90625 L 113.21875 248.625 L 113.1875 248.53125 L 111.71875 249.0625 L 110.28125 249.59375 L 108.8125 250.125 L 107.375 250.65625 L 105.90625 251.1875 L 104.46875 251.71875 L 103 252.25 L 101.71875 252.71875 L 101.78125 252.59375 L 99.375 251.21875 L 97 249.84375 L 94.625 248.46875 L 92.25 247.0625 L 89.84375 245.6875 L 87.46875 244.3125 L 85.09375 242.9375 L 83.34375 241.9375 L 84.09375 237.6875 L 84.9375 232.875 L 85.78125 228.0625 L 86.625 223.21875 L 87.46875 218.40625 L 88.34375 213.59375 L 89.1875 208.78125 L 89.9375 204.4375 L 90.21875 204.90625 L 97.75 200.53125 L 105.28125 196.1875 L 112.8125 191.84375 L 120.34375 187.5 L 127.875 183.15625 L 135.40625 178.8125 L 142.9375 174.4375 L 148.46875 171.25 L 158.9375 180.03125 L 170.78125 189.96875 L 182.625 199.90625 L 194.46875 209.84375 L 206.3125 219.78125 L 218.15625 229.71875 L 230 239.65625 L 240.6875 248.625 L 239 248.625 L 239 276.125 L 239 303.625 L 239 331.09375 L 239 358.59375 L 239 386.09375 L 239 413.5625 L 239 441.0625 L 239 468.53125 L 239 496.03125 L 266.5 496.03125 L 266.5 468.53125 L 266.5 441.0625 L 266.5 413.5625 L 266.5 386.09375 L 266.5 358.59375 L 266.5 331.09375 L 266.5 303.625 L 266.5 276.125 L 266.5 248.625 L 264.78125 248.625 L 275.46875 239.65625 L 287.34375 229.71875 L 299.1875 219.78125 L 311.03125 209.84375 L 322.875 199.90625 L 334.71875 189.96875 L 346.5625 180.03125 L 357.03125 171.25 L 362.5625 174.4375 L 370.09375 178.8125 L 377.625 183.15625 L 385.15625 187.5 L 392.6875 191.84375 L 400.21875 196.1875 L 407.75 200.53125 L 414.40625 204.40625 L 413.75 207.9375 L 412.90625 212.75 L 412.0625 217.5625 L 411.21875 222.375 L 410.375 227.1875 L 409.53125 232.03125 L 408.65625 236.84375 L 407.90625 241.09375 L 405.9375 241.4375 L 403.21875 241.90625 L 400.5 242.40625 L 397.78125 242.875 L 395.09375 243.34375 L 392.375 243.84375 L 389.65625 244.3125 L 387.25 244.71875 L 386.6875 243.75 L 385.9375 242.40625 L 385.15625 241.0625 L 384.375 239.71875 L 383.59375 238.375 L 382.84375 237.03125 L 382.0625 235.6875 L 381.28125 234.34375 L 381.125 234.4375 L 381.125 234.40625 L 380.25 234.25 L 379.40625 234.09375 L 378.53125 233.9375 L 377.6875 233.78125 L 376.84375 233.625 L 375.96875 233.46875 L 375.125 233.34375 L 374.25 233.1875 L 373.5 233.0625 L 373.4375 232.6875 L 373.34375 232.21875 L 373.28125 231.71875 L 373.1875 231.25 L 373.09375 230.75 L 373 230.28125 L 372.9375 229.8125 L 372.84375 229.3125 L 372.375 229.40625 L 372.4375 229.875 L 372.53125 230.375 L 372.625 230.84375 L 372.6875 231.34375 L 372.78125 231.8125 L 372.875 232.28125 L 372.96875 232.78125 L 373.03125 233.25 L 373.0625 233.4375 L 373 233.5625 L 372.75 233.96875 L 372.5 234.40625 L 372.25 234.8125 L 372 235.25 L 371.75 235.65625 L 371.53125 236.09375 L 371.28125 236.53125 L 371.03125 236.9375 L 371.46875 237.1875 L 371.6875 236.75 L 371.9375 236.34375 L 372.1875 235.90625 L 372.4375 235.5 L 372.6875 235.0625 L 372.9375 234.65625 L 373.15625 234.21875 L 373.34375 233.90625 L 374.09375 234.03125 L 374.96875 234.1875 L 375.8125 234.34375 L 376.6875 234.5 L 377.53125 234.65625 L 378.40625 234.78125 L 379.25 234.9375 L 380 235.09375 L 379.9375 235.125 L 380.71875 236.46875 L 381.5 237.8125 L 382.25 239.15625 L 383.03125 240.5 L 383.8125 241.84375 L 384.59375 243.1875 L 385.375 244.5 L 386.125 245.84375 L 386.375 246.28125 L 386.28125 246.78125 L 386.03125 248.28125 L 385.75 249.8125 L 385.5 251.34375 L 385.21875 252.875 L 384.9375 254.375 L 384.6875 255.90625 L 384.40625 257.4375 L 384.15625 258.96875 L 384.25 258.96875 L 383.5625 259.375 L 382.8125 259.8125 L 382.0625 260.25 L 381.28125 260.6875 L 380.53125 261.125 L 379.78125 261.5625 L 379.03125 262 L 378.375 262.34375 L 378.09375 262.125 L 377.71875 261.8125 L 377.34375 261.5 L 376.96875 261.1875 L 376.59375 260.875 L 376.21875 260.5625 L 375.84375 260.25 L 375.46875 259.9375 L 375.15625 260.3125 L 375.53125 260.625 L 375.90625 260.9375 L 376.28125 261.25 L 376.65625 261.5625 L 377.03125 261.875 L 377.40625 262.1875 L 377.78125 262.5 L 378.15625 262.8125 L 378.28125 262.9375 L 378.3125 263.09375 L 378.375 263.5625 L 378.46875 264.03125 L 378.5625 264.53125 L 378.625 265 L 378.71875 265.5 L 378.8125 265.96875 L 378.90625 266.46875 L 378.96875 266.9375 L 379.46875 266.84375 L 379.375 266.375 L 379.28125 265.875 L 379.21875 265.40625 L 379.125 264.9375 L 379.03125 264.4375 L 378.9375 263.96875 L 378.875 263.46875 L 378.8125 263.125 L 379.46875 262.75 L 380.21875 262.3125 L 380.96875 261.875 L 381.71875 261.4375 L 382.5 261 L 383.25 260.5625 L 384 260.125 L 384.75 259.6875 L 384.78125 259.65625 L 384.84375 259.71875 L 385.40625 260.375 L 385.96875 261.03125 L 386.53125 261.71875 L 387.09375 262.375 L 387.65625 263.03125 L 388.21875 263.71875 L 388.78125 264.375 L 389.34375 265.03125 L 389.28125 265.4375 L 389.21875 265.9375 L 389.125 266.40625 L 389.03125 266.90625 L 388.96875 267.375 L 388.875 267.84375 L 388.78125 268.34375 L 388.6875 268.8125 L 389.1875 268.90625 L 389.28125 268.4375 L 389.34375 267.9375 L 389.4375 267.46875 L 389.53125 266.96875 L 389.59375 266.5 L 389.6875 266 L 389.78125 265.53125 L 389.875 265.0625 L 389.875 264.9375 L 389.96875 264.90625 L 390.4375 264.75 L 390.90625 264.5625 L 391.34375 264.40625 L 391.8125 264.25 L 392.28125 264.0625 L 392.75 263.90625 L 393.1875 263.75 L 393.65625 263.5625 L 393.5 263.125 L 393.03125 263.28125 L 392.5625 263.4375 L 392.125 263.625 L 391.65625 263.78125 L 391.1875 263.9375 L 390.71875 264.125 L 390.28125 264.28125 L 389.90625 264.40625 L 389.4375 263.8125 L 388.875 263.15625 L 388.3125 262.5 L 387.75 261.8125 L 387.1875 261.15625 L 386.625 260.46875 L 386.09375 259.8125 L 385.5625 259.1875 L 385.65625 259.21875 L 385.9375 257.71875 L 386.21875 256.1875 L 386.46875 254.65625 L 386.75 253.125 L 387 251.59375 L 387.28125 250.09375 L 387.5625 248.5625 L 387.75 247.4375 L 390.125 247.03125 L 392.84375 246.53125 L 395.5625 246.0625 L 398.28125 245.59375 L 400.96875 245.09375 L 403.6875 244.625 L 406.40625 244.15625 L 409.125 243.65625 L 409.65625 243.5625 L 410.0625 244.03125 L 411.8125 246.125 L 413.59375 248.21875 L 415.375 250.34375 L 417.125 252.4375 L 418.90625 254.5625 L 420.65625 256.65625 L 422.4375 258.78125 L 424 260.625 L 423.4375 261.625 L 422.65625 262.96875 L 421.875 264.3125 L 421.09375 265.65625 L 420.34375 266.96875 L 419.5625 268.3125 L 418.78125 269.65625 L 418.09375 270.84375 L 417.46875 270.75 L 416.625 270.59375 L 415.75 270.4375 L 414.90625 270.28125 L 414.03125 270.125 L 413.1875 269.96875 L 412.34375 269.8125 L 411.46875 269.6875 L 411.25 269.34375 L 411 268.9375 L 410.75 268.5 L 410.5 268.0625 L 410.25 267.65625 L 410 267.21875 L 409.78125 266.8125 L 409.53125 266.375 L 409.09375 266.625 L 409.34375 267.03125 L 409.59375 267.46875 L 409.84375 267.90625 L 410.09375 268.3125 L 410.3125 268.75 L 410.5625 269.15625 L 410.8125 269.59375 L 411.0625 270.03125 L 411.0625 270.0625 L 410.6875 270.375 L 410.3125 270.71875 L 409.9375 271.03125 L 409.5625 271.34375 L 409.1875 271.65625 L 408.8125 271.96875 L 408.4375 272.28125 L 408.0625 272.59375 L 408.375 272.96875 L 408.75 272.65625 L 409.125 272.34375 L 409.5 272.03125 L 409.875 271.71875 L 410.25 271.40625 L 410.625 271.09375 L 411 270.75 L 411.3125 270.5 L 411.3125 270.53125 L 412.1875 270.6875 L 413.03125 270.84375 L 413.90625 271 L 414.75 271.125 L 415.59375 271.28125 L 416.46875 271.4375 L 417.3125 271.59375 L 418.1875 271.75 L 418.375 271.78125 L 418.4375 271.9375 L 418.71875 272.78125 L 419.03125 273.59375 L 419.3125 274.40625 L 419.625 275.21875 L 419.90625 276.03125 L 420.21875 276.84375 L 420.5 277.6875 L 420.78125 278.40625 L 420.5 278.625 L 420.125 278.9375 L 419.75 279.25 L 419.375 279.5625 L 419 279.875 L 418.625 280.21875 L 418.25 280.53125 L 417.875 280.84375 L 418.1875 281.21875 L 418.5625 280.90625 L 418.9375 280.59375 L 419.3125 280.25 L 419.6875 279.9375 L 420.0625 279.625 L 420.4375 279.3125 L 420.8125 279 L 421.1875 278.6875 L 421.28125 278.625 L 421.375 278.65625 L 421.8125 278.8125 L 422.28125 279 L 422.75 279.15625 L 423.1875 279.34375 L 423.65625 279.5 L 424.125 279.65625 L 424.59375 279.84375 L 425.03125 280 L 425.21875 279.53125 L 424.75 279.375 L 424.28125 279.21875 L 423.84375 279.03125 L 423.375 278.875 L 422.90625 278.6875 L 422.4375 278.53125 L 422 278.375 L 421.5625 278.21875 L 421.625 278.1875 L 421.3125 277.375 L 421.03125 276.5625 L 420.71875 275.75 L 420.4375 274.9375 L 420.125 274.09375 L 419.84375 273.28125 L 419.53125 272.46875 L 419.28125 271.75 L 419.34375 271.78125 L 420.125 270.4375 L 420.90625 269.09375 L 421.6875 267.75 L 422.4375 266.40625 L 423.21875 265.0625 L 424 263.71875 L 424.78125 262.40625 L 425.53125 261.0625 L 425.78125 260.65625 L 426.25 260.46875 L 427.71875 259.9375 L 429.15625 259.40625 L 430.625 258.875 L 432.0625 258.34375 L 433.53125 257.8125 L 434.96875 257.28125 L 436.4375 256.75 L 437.90625 256.21875 L 437.875 256.15625 L 438.53125 256.53125 L 439.28125 256.96875 L 440.0625 257.40625 L 440.8125 257.84375 L 441.5625 258.28125 L 442.3125 258.6875 L 443.0625 259.125 L 443.8125 259.5625 L 443.84375 259.46875 L 443.9375 259.96875 L 444 260.4375 L 444.09375 260.9375 L 444.1875 261.40625 L 444.25 261.90625 L 444.34375 262.375 L 444.4375 262.84375 L 444.53125 263.34375 L 445 263.25 L 444.90625 262.78125 L 444.84375 262.28125 L 444.75 261.8125 L 444.65625 261.3125 L 444.5625 260.84375 L 444.5 260.375 L 444.40625 259.875 L 444.3125 259.40625 L 444.3125 259.34375 L 444.34375 259.34375 L 444.8125 259.1875 L 445.28125 259 L 445.71875 258.84375 L 446.1875 258.6875 L 446.65625 258.5 L 447.125 258.34375 L 447.5625 258.15625 L 448.03125 258 L 447.875 257.53125 L 447.40625 257.71875 L 446.9375 257.875 L 446.46875 258.03125 L 446.03125 258.21875 L 445.5625 258.375 L 445.09375 258.5625 L 444.65625 258.71875 L 444.1875 258.875 L 444.25 258.8125 L 443.5 258.375 L 442.75 257.9375 L 442 257.5 L 441.25 257.0625 L 440.46875 256.65625 L 439.71875 256.21875 L 438.96875 255.78125 L 438.21875 255.34375 L 438.15625 255.3125 L 438.1875 255.25 L 438.46875 254.40625 L 438.78125 253.59375 L 439.0625 252.78125 L 439.375 251.96875 L 439.6875 251.15625 L 439.96875 250.3125 L 440.28125 249.5 L 440.5625 248.6875 L 440.5 248.6875 L 440.9375 248.53125 L 441.40625 248.34375 L 441.84375 248.1875 L 442.3125 248.03125 L 442.78125 247.84375 L 443.21875 247.6875 L 443.6875 247.5 L 444.15625 247.34375 L 444 246.875 L 443.53125 247.0625 L 443.0625 247.21875 L 442.59375 247.375 L 442.15625 247.5625 L 441.6875 247.71875 L 441.21875 247.90625 L 440.75 248.0625 L 440.3125 248.21875 L 440.21875 248.25 L 440.125 248.1875 L 439.75 247.875 L 439.375 247.5625 L 439 247.25 L 438.625 246.9375 L 438.25 246.625 L 437.875 246.3125 L 437.5 246 L 437.125 245.6875 L 436.8125 246.0625 L 437.1875 246.375 L 437.5625 246.6875 L 437.9375 247 L 438.3125 247.3125 L 438.6875 247.625 L 439.0625 247.9375 L 439.4375 248.25 L 439.71875 248.5 L 439.4375 249.21875 L 439.15625 250.03125 L 438.84375 250.84375 L 438.5625 251.65625 L 438.25 252.46875 L 437.96875 253.3125 L 437.65625 254.125 L 437.40625 254.875 L 437.375 254.78125 L 435.90625 255.3125 L 434.4375 255.8125 L 433 256.34375 L 431.53125 256.875 L 430.09375 257.40625 L 428.625 257.9375 L 427.1875 258.46875 L 426.09375 258.875 L 424.5625 257 L 422.78125 254.90625 L 421 252.78125 L 419.25 250.6875 L 417.46875 248.5625 L 415.71875 246.46875 L 413.9375 244.34375 L 412.3125 242.4375 L 412.625 242.5 L 413.5 237.6875 L 414.34375 232.875 L 415.1875 228.0625 L 416.03125 223.21875 L 416.875 218.40625 L 417.71875 213.59375 L 418.59375 208.78125 L 419.4375 203.96875 L 419.71875 202.4375 L 420.90625 201.4375 L 424.65625 198.28125 L 428.375 195.125 L 432.125 192 L 435.875 188.84375 L 439.625 185.71875 L 443.375 182.5625 L 447.125 179.40625 L 450.875 176.28125 L 450.65625 176.03125 L 453.125 176.46875 L 455.84375 176.9375 L 458.5625 177.4375 L 461.25 177.90625 L 463.96875 178.375 L 466.6875 178.84375 L 469.375 179.34375 L 471.78125 179.75 L 471.96875 180.875 L 472.25 182.40625 L 472.53125 183.9375 L 472.78125 185.4375 L 473.0625 186.96875 L 473.3125 188.5 L 473.59375 190.03125 L 473.84375 191.375 L 473.28125 191.6875 L 472.53125 192.125 L 471.78125 192.5625 L 471 193 L 470.25 193.4375 L 469.5 193.875 L 468.75 194.3125 L 468 194.75 L 468.0625 194.8125 L 467.59375 194.625 L 467.15625 194.46875 L 466.6875 194.3125 L 466.21875 194.125 L 465.78125 193.96875 L 465.3125 193.78125 L 464.84375 193.625 L 464.375 193.46875 L 464.21875 193.90625 L 464.6875 194.09375 L 465.125 194.25 L 465.59375 194.4375 L 466.0625 194.59375 L 466.53125 194.75 L 466.96875 194.9375 L 467.4375 195.09375 L 467.90625 195.25 L 468 195.28125 L 468 195.40625 L 468.09375 195.875 L 468.1875 196.375 L 468.28125 196.84375 L 468.34375 197.34375 L 468.4375 197.8125 L 468.53125 198.28125 L 468.625 198.78125 L 468.6875 199.25 L 469.1875 199.1875 L 469.09375 198.6875 L 469 198.21875 L 468.9375 197.71875 L 468.84375 197.25 L 468.75 196.75 L 468.65625 196.28125 L 468.59375 195.78125 L 468.53125 195.4375 L 469.1875 195.0625 L 469.9375 194.625 L 470.6875 194.1875 L 471.4375 193.75 L 472.1875 193.3125 L 472.96875 192.875 L 473.71875 192.4375 L 474.46875 192 L 474.625 191.90625 L 474.78125 192 L 475.53125 192.4375 L 476.28125 192.875 L 477.03125 193.3125 L 477.8125 193.75 L 478.5625 194.1875 L 479.3125 194.625 L 480.0625 195.0625 L 480.71875 195.4375 L 480.65625 195.78125 L 480.59375 196.28125 L 480.5 196.75 L 480.40625 197.25 L 480.3125 197.71875 L 480.25 198.21875 L 480.15625 198.6875 L 480.0625 199.1875 L 480.5625 199.25 L 480.625 198.78125 L 480.71875 198.28125 L 480.8125 197.8125 L 480.90625 197.34375 L 480.96875 196.84375 L 481.0625 196.375 L 481.15625 195.875 L 481.21875 195.40625 L 481.25 195.28125 L 481.34375 195.25 L 481.8125 195.09375 L 482.28125 194.9375 L 482.71875 194.75 L 483.1875 194.59375 L 483.65625 194.4375 L 484.09375 194.25 L 484.5625 194.09375 L 485.03125 193.90625 L 484.875 193.46875 L 484.40625 193.625 L 483.9375 193.78125 L 483.46875 193.96875 L 483.03125 194.125 L 482.5625 194.3125 L 482.09375 194.46875 L 481.625 194.625 L 481.21875 194.8125 L 481.25 194.75 L 480.5 194.3125 L 479.75 193.875 L 479 193.4375 L 478.21875 193 L 477.46875 192.5625 L 476.71875 192.125 L 475.96875 191.6875 L 475.28125 191.28125 L 475.375 191.28125 L 475.125 189.75 L 474.84375 188.21875 L 474.59375 186.71875 L 474.3125 185.1875 L 474.03125 183.65625 L 473.78125 182.125 L 473.5 180.625 L 473.25 179.09375 L 473.1875 178.78125 L 473.4375 178.5625 L 474.625 177.5625 L 475.8125 176.5625 L 477 175.5625 L 478.1875 174.5625 L 479.34375 173.5625 L 480.53125 172.59375 L 481.71875 171.59375 L 482.90625 170.59375 L 482.84375 170.5 L 483.625 170.65625 L 484.5 170.8125 L 485.34375 170.96875 L 486.1875 171.09375 L 487.0625 171.25 L 487.90625 171.40625 L 488.78125 171.5625 L 489.625 171.71875 L 489.625 171.625 L 489.875 172.03125 L 490.09375 172.46875 L 490.34375 172.90625 L 490.59375 173.3125 L 490.84375 173.75 L 491.09375 174.15625 L 491.34375 174.59375 L 491.5625 175 L 492 174.78125 L 491.75 174.34375 L 491.5 173.90625 L 491.25 173.5 L 491.03125 173.0625 L 490.78125 172.65625 L 490.53125 172.21875 L 490.28125 171.8125 L 490.03125 171.375 L 489.96875 171.28125 L 490.03125 171.1875 L 490.28125 170.78125 L 490.53125 170.34375 L 490.78125 169.9375 L 491.03125 169.5 L 491.25 169.0625 L 491.5 168.65625 L 491.75 168.21875 L 492 167.8125 L 491.5625 167.5625 L 491.34375 167.96875 L 491.09375 168.40625 L 490.84375 168.84375 L 490.59375 169.25 L 490.34375 169.6875 L 490.09375 170.09375 L 489.875 170.53125 L 489.6875 170.84375 L 488.9375 170.71875 L 488.0625 170.5625 L 487.21875 170.40625 L 486.34375 170.25 L 485.5 170.09375 L 484.625 169.9375 L 483.78125 169.8125 L 482.9375 169.65625 L 482.84375 169.625 L 482.84375 169.5625 L 482.84375 168.6875 L 482.84375 167.8125 L 482.84375 166.9375 L 482.84375 166.09375 L 482.84375 165.21875 L 482.84375 164.34375 L 482.84375 163.46875 L 482.84375 162.6875 L 483.1875 162.5625 L 483.65625 162.40625 L 484.125 162.25 L 484.5625 162.0625 L 485.03125 161.90625 L 485.5 161.75 L 485.96875 161.5625 L 486.40625 161.40625 L 486.25 160.9375 L 485.78125 161.125 L 485.3125 161.28125 L 484.875 161.4375 L 484.40625 161.625 L 483.9375 161.78125 L 483.5 161.9375 L 483.03125 162.125 L 482.5625 162.28125 L 482.46875 162.3125 L 482.375 162.25 L 482 161.9375 L 481.625 161.625 L 481.25 161.3125 L 480.875 161 L 480.5 160.6875 L 480.125 160.375 L 479.75 160.0625 L 479.375 159.75 L 479.0625 160.125 L 479.4375 160.4375 L 479.8125 160.75 L 480.1875 161.0625 L 480.5625 161.375 L 480.9375 161.6875 L 481.3125 162 L 481.6875 162.3125 L 482.03125 162.59375 L 481.96875 162.59375 L 481.96875 163.46875 L 481.96875 164.34375 L 481.96875 165.21875 L 481.96875 166.09375 L 481.96875 166.9375 L 481.96875 167.8125 L 481.96875 168.6875 L 481.96875 169.5 L 481.90625 169.40625 L 480.75 170.40625 L 479.5625 171.40625 L 478.375 172.40625 L 477.1875 173.375 L 476 174.375 L 474.8125 175.375 L 473.625 176.375 L 472.53125 177.3125 L 472.5625 177.09375 L 469.875 176.625 L 467.15625 176.15625 L 464.4375 175.65625 L 461.75 175.1875 L 459.03125 174.71875 L 456.3125 174.25 L 453.59375 173.75 L 450.90625 173.28125 L 450.6875 173.25 L 450.6875 173.03125 L 450.6875 170.28125 L 450.6875 167.53125 L 450.6875 164.75 L 450.6875 162 L 450.6875 159.25 L 450.6875 156.5 L 450.6875 153.75 L 450.6875 151.3125 L 451.75 150.9375 L 453.21875 150.40625 L 454.65625 149.875 L 456.125 149.34375 L 457.5625 148.8125 L 459.03125 148.28125 L 460.46875 147.75 L 461.75 147.28125 L 462.1875 147.78125 L 462.71875 148.4375 L 463.28125 149.125 L 463.84375 149.78125 L 464.40625 150.4375 L 464.96875 151.125 L 465.53125 151.78125 L 466.09375 152.46875 L 466.125 152.4375 L 466.0625 152.84375 L 465.96875 153.34375 L 465.875 153.8125 L 465.8125 154.3125 L 465.71875 154.78125 L 465.625 155.28125 L 465.53125 155.75 L 465.46875 156.21875 L 465.9375 156.3125 L 466.03125 155.84375 L 466.125 155.34375 L 466.1875 154.875 L 466.28125 154.375 L 466.375 153.90625 L 466.4375 153.4375 L 466.53125 152.9375 L 466.625 152.46875 L 466.625 152.40625 L 466.65625 152.40625 L 467.15625 152.40625 L 467.65625 152.40625 L 468.125 152.40625 L 468.625 152.40625 L 469.125 152.40625 L 469.59375 152.40625 L 470.09375 152.40625 L 470.59375 152.40625 L 470.59375 151.9375 L 470.09375 151.9375 L 469.59375 151.9375 L 469.125 151.9375 L 468.625 151.9375 L 468.125 151.9375 L 467.65625 151.9375 L 467.15625 151.9375 L 466.75 151.9375 L 466.75 151.90625 L 466.1875 151.21875 L 465.625 150.5625 L 465.09375 149.90625 L 464.53125 149.21875 L 463.96875 148.5625 L 463.40625 147.90625 L 462.84375 147.21875 L 462.28125 146.5625 L 462.09375 146.34375 L 462.09375 146.0625 L 462.09375 145.1875 L 462.09375 144.3125 L 462.09375 143.46875 L 462.09375 142.59375 L 462.09375 141.71875 L 462.09375 140.84375 L 462.09375 139.96875 L 462.09375 139.21875 L 462.4375 139.09375 L 462.90625 138.90625 L 463.375 138.75 L 463.8125 138.59375 L 464.28125 138.40625 L 464.75 138.25 L 465.1875 138.0625 L 465.65625 137.90625 L 465.5 137.4375 L 465.03125 137.625 L 464.5625 137.78125 L 464.125 137.9375 L 463.65625 138.125 L 463.1875 138.28125 L 462.71875 138.46875 L 462.28125 138.625 L 461.8125 138.78125 L 461.65625 138.84375 L 461.53125 138.78125 L 461.0625 138.625 L 460.59375 138.46875 L 460.125 138.28125 L 459.6875 138.125 L 459.21875 137.9375 L 458.75 137.78125 L 458.3125 137.625 L 457.84375 137.4375 L 457.65625 137.90625 L 458.125 138.0625 L 458.59375 138.25 L 459.0625 138.40625 L 459.5 138.59375 L 459.96875 138.75 L 460.4375 138.90625 L 460.90625 139.09375 L 461.21875 139.21875 L 461.21875 139.96875 L 461.21875 140.84375 L 461.21875 141.71875 L 461.21875 142.59375 L 461.21875 143.46875 L 461.21875 144.3125 L 461.21875 145.1875 L 461.21875 145.84375 L 459.9375 146.3125 L 458.5 146.84375 L 457.03125 147.375 L 455.59375 147.90625 L 454.125 148.4375 L 452.6875 148.96875 L 451.21875 149.46875 L 449.78125 150 L 449.3125 150.15625 L 448.84375 150 L 447.375 149.46875 L 445.9375 148.96875 L 444.46875 148.4375 L 443.03125 147.90625 L 441.5625 147.375 L 440.125 146.84375 L 438.65625 146.3125 L 437.375 145.84375 L 437.375 145.1875 L 437.375 144.3125 L 437.375 143.46875 L 437.375 142.59375 L 437.375 141.71875 L 437.375 140.84375 L 437.375 139.96875 L 437.375 139.09375 L 437.3125 139.09375 L 437.65625 138.8125 L 438.03125 138.5 L 438.40625 138.1875 L 438.78125 137.875 L 439.15625 137.5625 L 439.53125 137.25 L 439.90625 136.9375 L 440.28125 136.625 L 439.96875 136.25 L 439.59375 136.5625 L 439.21875 136.875 L 438.84375 137.1875 L 438.46875 137.5 L 438.09375 137.8125 L 437.71875 138.125 L 437.34375 138.4375 L 436.96875 138.75 L 436.875 138.8125 L 436.78125 138.78125 L 436.34375 138.625 L 435.875 138.46875 L 435.40625 138.28125 L 434.9375 138.125 L 434.5 137.9375 L 434.03125 137.78125 L 433.5625 137.625 L 433.125 137.4375 L 432.9375 137.90625 L 433.40625 138.0625 L 433.875 138.25 L 434.3125 138.40625 L 434.78125 138.59375 L 435.25 138.75 L 435.71875 138.90625 L 436.15625 139.09375 L 436.5 139.21875 L 436.5 139.96875 L 436.5 140.84375 L 436.5 141.71875 L 436.5 142.59375 L 436.5 143.46875 L 436.5 144.3125 L 436.5 145.1875 L 436.5 146.0625 L 436.5 146.25 L 436.34375 146.34375 L 435.59375 146.78125 L 434.84375 147.21875 L 434.09375 147.65625 L 433.34375 148.09375 L 432.5625 148.53125 L 431.8125 148.96875 L 431.0625 149.40625 L 430.40625 149.78125 L 430.125 149.53125 L 429.75 149.21875 L 429.375 148.90625 L 429 148.59375 L 428.625 148.28125 L 428.25 147.96875 L 427.875 147.65625 L 427.5 147.34375 L 427.1875 147.71875 L 427.5625 148.03125 L 427.9375 148.34375 L 428.3125 148.65625 L 428.6875 148.96875 L 429.0625 149.28125 L 429.4375 149.59375 L 429.8125 149.90625 L 430.1875 150.25 L 430.28125 150.3125 L 430.25 150.40625 L 430.15625 150.875 L 430.0625 151.375 L 430 151.84375 L 429.90625 152.34375 L 429.8125 152.8125 L 429.75 153.3125 L 429.65625 153.78125 L 429.5625 154.25 L 430.0625 154.34375 L 430.125 153.875 L 430.21875 153.375 L 430.3125 152.90625 L 430.375 152.40625 L 430.46875 151.9375 L 430.5625 151.46875 L 430.65625 150.96875 L 430.71875 150.5 L 430.75 150.59375 L 431.5 150.15625 L 432.25 149.71875 L 433 149.28125 L 433.75 148.84375 L 434.53125 148.40625 L 435.28125 147.96875 L 436.03125 147.53125 L 436.71875 147.125 L 436.6875 147.21875 L 438.125 147.75 L 439.59375 148.28125 L 441.03125 148.8125 L 442.5 149.34375 L 443.9375 149.875 L 445.40625 150.40625 L 446.84375 150.9375 L 447.9375 151.34375 L 447.9375 153.75 L 447.9375 156.5 L 447.9375 159.25 L 447.9375 162 L 447.9375 164.75 L 447.9375 167.53125 L 447.9375 170.28125 L 447.9375 172.78125 L 447.71875 172.53125 L 443.96875 175.65625 L 440.25 178.8125 L 436.5 181.96875 L 432.75 185.09375 L 429 188.25 L 425.25 191.375 L 421.5 194.53125 L 418.75 196.84375 L 412.09375 193 L 404.5625 188.65625 L 397.03125 184.3125 L 389.5 179.96875 L 381.96875 175.625 L 374.4375 171.28125 L 366.90625 166.90625 L 359.375 162.5625 L 356.96875 161.1875 L 356.03125 158.59375 L 353.0625 150.40625 L 350.0625 142.25 L 347.09375 134.0625 L 344.125 125.90625 L 341.15625 117.71875 L 338.1875 109.5625 L 335.1875 101.375 L 332.21875 93.21875 L 331.6875 93.40625 L 333.9375 89.5625 L 336.375 85.3125 L 338.8125 81.09375 L 341.28125 76.84375 L 343.71875 72.625 L 346.15625 68.375 L 348.59375 64.125 L 350.78125 60.40625 L 352.75 60.75 L 355.46875 61.21875 L 358.1875 61.71875 L 360.875 62.1875 L 363.59375 62.65625 L 366.3125 63.15625 L 369.03125 63.625 L 371.71875 64.09375 L 371.75 63.90625 L 372.46875 65.125 L 373.21875 66.46875 L 374 67.8125 L 374.78125 69.15625 L 375.5625 70.5 L 376.34375 71.84375 L 377.09375 73.1875 L 377.78125 74.375 L 377.375 74.84375 L 376.8125 75.53125 L 376.25 76.1875 L 375.6875 76.84375 L 375.125 77.53125 L 374.5625 78.1875 L 374.03125 78.875 L 373.53125 79.4375 L 373.1875 79.3125 L 372.71875 79.15625 L 372.25 79 L 371.8125 78.8125 L 371.34375 78.65625 L 370.875 78.5 L 370.4375 78.3125 L 369.96875 78.15625 L 369.78125 78.625 L 370.25 78.78125 L 370.71875 78.9375 L 371.1875 79.125 L 371.625 79.28125 L 372.09375 79.4375 L 372.5625 79.625 L 373.03125 79.78125 L 373.46875 79.9375 L 373.59375 80 L 373.6875 80.15625 L 373.9375 80.5625 L 374.1875 81 L 374.4375 81.40625 L 374.6875 81.84375 L 374.9375 82.25 L 375.15625 82.6875 L 375.40625 83.125 L 375.65625 83.53125 L 376.09375 83.28125 L 375.84375 82.875 L 375.59375 82.4375 L 375.34375 82.03125 L 375.09375 81.59375 L 374.84375 81.15625 L 374.625 80.75 L 374.375 80.3125 L 374.1875 80 L 374.6875 79.40625 L 375.25 78.75 L 375.8125 78.09375 L 376.375 77.40625 L 376.90625 76.75 L 377.46875 76.09375 L 378.03125 75.40625 L 378.59375 74.75 L 378.75 74.5625 L 379.0625 74.5 L 379.90625 74.34375 L 380.78125 74.1875 L 381.625 74.03125 L 382.46875 73.875 L 383.34375 73.71875 L 384.1875 73.59375 L 385.0625 73.4375 L 385.8125 73.3125 L 386 73.625 L 386.25 74.03125 L 386.46875 74.46875 L 386.71875 74.875 L 386.96875 75.3125 L 387.21875 75.71875 L 387.46875 76.15625 L 387.71875 76.59375 L 388.125 76.34375 L 387.875 75.90625 L 387.625 75.5 L 387.40625 75.0625 L 387.15625 74.625 L 386.90625 74.21875 L 386.65625 73.78125 L 386.40625 73.375 L 386.15625 72.9375 L 386.09375 72.8125 L 386.125 72.65625 L 386.21875 72.15625 L 386.28125 71.6875 L 386.375 71.21875 L 386.46875 70.71875 L 386.53125 70.25 L 386.625 69.75 L 386.71875 69.28125 L 386.8125 68.78125 L 386.3125 68.71875 L 386.21875 69.1875 L 386.15625 69.6875 L 386.0625 70.15625 L 385.96875 70.625 L 385.90625 71.125 L 385.8125 71.59375 L 385.71875 72.09375 L 385.65625 72.4375 L 384.90625 72.5625 L 384.03125 72.71875 L 383.1875 72.875 L 382.34375 73.03125 L 381.46875 73.1875 L 380.625 73.34375 L 379.75 73.46875 L 379.125 73.59375 L 378.4375 72.40625 L 377.65625 71.0625 L 376.90625 69.71875 L 376.125 68.375 L 375.34375 67.0625 L 374.5625 65.71875 L 373.8125 64.375 L 373.03125 63.03125 L 372.875 62.75 L 373.03125 62.46875 L 373.8125 61.125 L 374.5625 59.78125 L 375.34375 58.4375 L 376.125 57.09375 L 376.90625 55.75 L 377.65625 54.40625 L 378.4375 53.0625 L 379.21875 51.75 L 379.0625 51.6875 L 379.90625 51.5625 L 380.78125 51.40625 L 381.625 51.25 L 382.46875 51.09375 L 383.34375 50.9375 L 384.1875 50.78125 L 385.0625 50.65625 L 385.90625 50.5 L 385.875 50.40625 L 386.25 50.71875 L 386.625 51.03125 L 387 51.34375 L 387.375 51.65625 L 387.75 51.96875 L 388.125 52.28125 L 388.5 52.625 L 388.875 52.9375 L 389.1875 52.5625 L 388.8125 52.25 L 388.4375 51.90625 L 388.0625 51.59375 L 387.6875 51.28125 L 387.3125 50.96875 L 386.9375 50.65625 L 386.5625 50.34375 L 386.1875 50.03125 L 386.15625 50 L 386.15625 49.96875 L 386.40625 49.5625 L 386.65625 49.125 L 386.90625 48.6875 L 387.15625 48.28125 L 387.40625 47.84375 L 387.625 47.4375 L 387.875 47 L 388.125 46.59375 L 387.71875 46.34375 L 387.46875 46.75 L 387.21875 47.1875 L 386.96875 47.59375 L 386.71875 48.03125 L 386.46875 48.46875 L 386.25 48.875 L 386 49.3125 L 385.75 49.71875 L 385.75 49.625 L 384.90625 49.78125 L 384.03125 49.9375 L 383.1875 50.09375 L 382.34375 50.25 L 381.46875 50.375 L 380.625 50.53125 L 379.75 50.6875 L 378.90625 50.84375 L 378.71875 50.875 L 378.59375 50.75 L 378.03125 50.0625 L 377.46875 49.40625 L 376.90625 48.71875 L 376.375 48.0625 L 375.8125 47.40625 L 375.25 46.71875 L 374.6875 46.0625 L 374.1875 45.46875 L 374.375 45.15625 L 374.625 44.75 L 374.84375 44.3125 L 375.09375 43.90625 L 375.34375 43.46875 L 375.59375 43.03125 L 375.84375 42.625 L 376.09375 42.1875 L 375.65625 41.9375 L 375.40625 42.375 L 375.15625 42.8125 L 374.9375 43.21875 L 374.6875 43.65625 L 374.4375 44.0625 L 374.1875 44.5 L 373.9375 44.90625 L 373.6875 45.34375 L 373.625 45.4375 L 373.53125 45.4375 L 373.0625 45.4375 L 372.5625 45.4375 L 372.0625 45.4375 L 371.59375 45.4375 L 371.09375 45.4375 L 370.59375 45.4375 L 370.125 45.4375 L 369.625 45.4375 L 369.625 45.9375 L 370.125 45.9375 L 370.59375 45.9375 L 371.09375 45.9375 L 371.59375 45.9375 L 372.0625 45.9375 L 372.5625 45.9375 L 373.0625 45.9375 L 373.53125 45.9375 L 373.46875 45.96875 L 374.03125 46.625 L 374.5625 47.28125 L 375.125 47.96875 L 375.6875 48.625 L 376.25 49.28125 L 376.8125 49.96875 L 377.375 50.625 L 377.78125 51.125 L 377.09375 52.3125 L 376.34375 53.65625 L 375.5625 54.96875 L 374.78125 56.3125 L 374 57.65625 L 373.21875 59 L 372.46875 60.34375 L 371.90625 61.3125 L 369.5 60.90625 L 366.78125 60.4375 L 364.0625 59.96875 L 361.375 59.46875 L 358.65625 59 L 355.9375 58.53125 L 353.25 58.03125 L 350.53125 57.5625 L 349.65625 57.40625 L 349.09375 56.75 L 347.34375 54.625 L 345.5625 52.53125 L 343.78125 50.40625 L 342.03125 48.3125 L 340.25 46.1875 L 338.5 44.09375 L 336.71875 42 L 335.15625 40.125 L 335.71875 39.125 L 336.5 37.8125 L 337.28125 36.46875 L 338.0625 35.125 L 338.8125 33.78125 L 339.59375 32.4375 L 340.375 31.09375 L 341.0625 29.90625 L 341.6875 30.03125 L 342.53125 30.1875 L 343.40625 30.3125 L 344.25 30.46875 L 345.125 30.625 L 345.96875 30.78125 L 346.84375 30.9375 L 347.59375 31.0625 L 347.65625 31.40625 L 347.75 31.90625 L 347.8125 32.375 L 347.90625 32.875 L 348 33.34375 L 348.0625 33.84375 L 348.15625 34.3125 L 348.25 34.78125 L 348.71875 34.71875 L 348.65625 34.21875 L 348.5625 33.75 L 348.46875 33.25 L 348.375 32.78125 L 348.3125 32.3125 L 348.21875 31.8125 L 348.125 31.34375 L 348.0625 30.84375 L 348.03125 30.75 L 348.125 30.6875 L 348.5 30.375 L 348.875 30.0625 L 349.25 29.75 L 349.625 29.4375 L 350 29.09375 L 350.375 28.78125 L 350.75 28.46875 L 351.125 28.15625 L 350.78125 27.78125 L 350.40625 28.09375 L 350.03125 28.40625 L 349.65625 28.71875 L 349.28125 29.0625 L 348.90625 29.375 L 348.53125 29.6875 L 348.15625 30 L 347.84375 30.28125 L 347.84375 30.21875 L 346.96875 30.0625 L 346.125 29.90625 L 345.28125 29.78125 L 344.40625 29.625 L 343.5625 29.46875 L 342.6875 29.3125 L 341.84375 29.15625 L 340.96875 29 L 340.71875 28.96875 L 340.53125 28.75 L 339.96875 28.09375 L 339.40625 27.40625 L 338.84375 26.75 L 338.28125 26.09375 L 337.71875 25.40625 L 337.15625 24.75 L 336.625 24.09375 L 336.125 23.5 L 336.3125 23.1875 L 336.53125 22.75 L 336.78125 22.34375 L 337.03125 21.90625 L 337.28125 21.5 L 337.53125 21.0625 L 337.78125 20.625 L 338 20.21875 L 337.59375 19.96875 z M 90.1875 266.21875 L 90.625 265.96875 L 90.375 265.5625 L 90.125 265.125 L 89.875 264.71875 L 89.65625 264.28125 L 89.21875 264.53125 L 89.46875 264.96875 L 89.71875 265.375 L 89.9375 265.8125 L 90.1875 266.21875 z " id="rect7230"  />





















<path style="color:#000000" d="m17.142 55.5c32-24 0-53 0-53m-0.142 53c-32-24 0-53 0-53m0 67v-54" fill-opacity="0.5" transform="translate(380,217) scale(1.0 1.0) rotate(107) " stroke="#000" id="0" fill="green"  />



















<path style="color:#000000" d="m17.142 55.5c32-24 0-53 0-53m-0.142 53c-32-24 0-53 0-53m0 67v-54" fill-opacity="0.5" transform="translate(142,154) scale(0.5 0.5) rotate(220) " stroke="#000" id="0" fill="green"  />


















<path style="color:#000000" d="m17.142 55.5c32-24 0-53 0-53m-0.142 53c-32-24 0-53 0-53m0 67v-54" fill-opacity="0.5" transform="translate(157,200) scale(0.5 0.5) rotate(136) " stroke="#000" id="0" fill="green"  />

















<path style="color:#000000" d="m17.142 55.5c32-24 0-53 0-53m-0.142 53c-32-24 0-53 0-53m0 67v-54" fill-opacity="0.5" transform="translate(275,220) scale(0.5 0.5) rotate(46) " stroke="#000" id="0" fill="green"  />
















<path style="color:#000000" d="m17.142 55.5c32-24 0-53 0-53m-0.142 53c-32-24 0-53 0-53m0 67v-54" fill-opacity="0.5" transform="translate(435,125) scale(0.5 0.5) rotate(303) " stroke="#000" id="0" fill="green"  />















<path style="color:#000000" d="m17.142 55.5c32-24 0-53 0-53m-0.142 53c-32-24 0-53 0-53m0 67v-54" fill-opacity="0.5" transform="translate(407,51) scale(0.5 0.5) rotate(137) " stroke="#000" id="0" fill="green"  />














<path style="color:#000000" d="m17.142 55.5c32-24 0-53 0-53m-0.142 53c-32-24 0-53 0-53m0 67v-54" fill-opacity="0.5" transform="translate(71,213) scale(0.5 0.5) rotate(6) " stroke="#000" id="0" fill="green"  />













<path style="color:#000000" d="m17.142 55.5c32-24 0-53 0-53m-0.142 53c-32-24 0-53 0-53m0 67v-54" fill-opacity="0.5" transform="translate(447,94) scale(0.5 0.5) rotate(182) " stroke="#000" id="0" fill="green"  />












<path style="color:#000000" d="m17.142 55.5c32-24 0-53 0-53m-0.142 53c-32-24 0-53 0-53m0 67v-54" fill-opacity="0.5" transform="translate(372,115) scale(0.5 0.5) rotate(345) " stroke="#000" id="0" fill="green"  />











<path style="color:#000000" d="m17.142 55.5c32-24 0-53 0-53m-0.142 53c-32-24 0-53 0-53m0 67v-54" fill-opacity="0.5" transform="translate(284,222) scale(0.5 0.5) rotate(294) " stroke="#000" id="0" fill="green"  />










<path style="color:#000000" d="m17.142 55.5c32-24 0-53 0-53m-0.142 53c-32-24 0-53 0-53m0 67v-54" fill-opacity="0.5" transform="translate(112,83) scale(0.5 0.5) rotate(1) " stroke="#000" id="0" fill="green"  />









<path style="color:#000000" d="m17.142 55.5c32-24 0-53 0-53m-0.142 53c-32-24 0-53 0-53m0 67v-54" fill-opacity="0.5" transform="translate(80,197) scale(0.5 0.5) rotate(124) " stroke="#000" id="0" fill="green"  />








<path style="color:#000000" d="m17.142 55.5c32-24 0-53 0-53m-0.142 53c-32-24 0-53 0-53m0 67v-54" fill-opacity="0.5" transform="translate(348,220) scale(0.5 0.5) rotate(92) " stroke="#000" id="0" fill="green"  />







<path style="color:#000000" d="m17.142 55.5c32-24 0-53 0-53m-0.142 53c-32-24 0-53 0-53m0 67v-54" fill-opacity="0.5" transform="translate(355,169) scale(0.5 0.5) rotate(311) " stroke="#000" id="0" fill="green"  />






<path style="color:#000000" d="m17.142 55.5c32-24 0-53 0-53m-0.142 53c-32-24 0-53 0-53m0 67v-54" fill-opacity="0.5" transform="translate(446,232) scale(0.5 0.5) rotate(275) " stroke="#000" id="0" fill="green"  />





<path style="color:#000000" d="m17.142 55.5c32-24 0-53 0-53m-0.142 53c-32-24 0-53 0-53m0 67v-54" fill-opacity="0.5" transform="translate(366,166) scale(0.5 0.5) rotate(43) " stroke="#000" id="0" fill="green"  />




<path style="color:#000000" d="m17.142 55.5c32-24 0-53 0-53m-0.142 53c-32-24 0-53 0-53m0 67v-54" fill-opacity="0.5" transform="translate(213,60) scale(0.5 0.5) rotate(165) " stroke="#000" id="0" fill="green"  />



<path style="color:#000000" d="m17.142 55.5c32-24 0-53 0-53m-0.142 53c-32-24 0-53 0-53m0 67v-54" fill-opacity="0.5" transform="translate(90,217) scale(0.5 0.5) rotate(351) " stroke="#000" id="0" fill="green"  />


<path style="color:#000000" d="m17.142 55.5c32-24 0-53 0-53m-0.142 53c-32-24 0-53 0-53m0 67v-54" fill-opacity="0.5" transform="translate(310,60) scale(0.5 0.5) rotate(163) " stroke="#000" id="0" fill="green"  />

<path style="color:#000000" d="m17.142 55.5c32-24 0-53 0-53m-0.142 53c-32-24 0-53 0-53m0 67v-54" fill-opacity="0.5" transform="translate(433,201) scale(0.5 0.5) rotate(331) " stroke="#000" id="0" fill="green"  />
</svg>
