  0
SECTION
  2
BLOCKS
  0
ENDSEC
  0
SECTION
  2
ENTITIES
  0
LINE
  8
0
 10
-25.35
 11
-25.35
 20
-16.7
 21
10.425
  0
LINE
  8
0
 10
-25.35
 11
-12.8
 20
10.425
 21
10.425
  0
LINE
  8
0
 10
-12.8
 11
-12.8
 20
10.425
 21
12.975
  0
LINE
  8
0
 10
-12.8
 11
-25.35
 20
12.975
 21
12.975
  0
LINE
  8
0
 10
-25.35
 11
-25.35
 20
12.975
 21
16.7
  0
LINE
  8
0
 10
-25.35
 11
-25.198
 20
16.7
 21
17.465
  0
LINE
  8
0
 10
-25.198
 11
-24.764
 20
17.465
 21
18.114
  0
LINE
  8
0
 10
-24.764
 11
-24.115
 20
18.114
 21
18.548
  0
LINE
  8
0
 10
-24.115
 11
-23.35
 20
18.548
 21
18.7
  0
LINE
  8
0
 10
-23.35
 11
23.35
 20
18.7
 21
18.7
  0
LINE
  8
0
 10
23.35
 11
24.115
 20
18.7
 21
18.548
  0
LINE
  8
0
 10
24.115
 11
24.764
 20
18.548
 21
18.114
  0
LINE
  8
0
 10
24.764
 11
25.198
 20
18.114
 21
17.465
  0
LINE
  8
0
 10
25.198
 11
25.35
 20
17.465
 21
16.7
  0
LINE
  8
0
 10
25.35
 11
25.35
 20
16.7
 21
12.975
  0
LINE
  8
0
 10
25.35
 11
12.8
 20
12.975
 21
12.975
  0
LINE
  8
0
 10
12.8
 11
12.8
 20
12.975
 21
10.425
  0
LINE
  8
0
 10
12.8
 11
25.35
 20
10.425
 21
10.425
  0
LINE
  8
0
 10
25.35
 11
25.35
 20
10.425
 21
-16.7
  0
LINE
  8
0
 10
25.35
 11
25.198
 20
-16.7
 21
-17.465
  0
LINE
  8
0
 10
25.198
 11
24.764
 20
-17.465
 21
-18.114
  0
LINE
  8
0
 10
24.764
 11
24.115
 20
-18.114
 21
-18.548
  0
LINE
  8
0
 10
24.115
 11
23.35
 20
-18.548
 21
-18.7
  0
LINE
  8
0
 10
23.35
 11
-23.35
 20
-18.7
 21
-18.7
  0
LINE
  8
0
 10
-23.35
 11
-24.115
 20
-18.7
 21
-18.548
  0
LINE
  8
0
 10
-24.115
 11
-24.764
 20
-18.548
 21
-18.114
  0
LINE
  8
0
 10
-24.764
 11
-25.198
 20
-18.114
 21
-17.465
  0
LINE
  8
0
 10
-25.198
 11
-25.35
 20
-17.465
 21
-16.7
  0
LINE
  8
0
 10
-22.35
 11
-22.198
 20
0
 21
0.765
  0
LINE
  8
0
 10
-22.198
 11
-21.764
 20
0.765
 21
1.414
  0
LINE
  8
0
 10
-21.764
 11
-21.115
 20
1.414
 21
1.848
  0
LINE
  8
0
 10
-21.115
 11
-20.35
 20
1.848
 21
2
  0
LINE
  8
0
 10
-20.35
 11
-19.585
 20
2
 21
1.848
  0
LINE
  8
0
 10
-19.585
 11
-18.936
 20
1.848
 21
1.414
  0
LINE
  8
0
 10
-18.936
 11
-18.502
 20
1.414
 21
0.765
  0
LINE
  8
0
 10
-18.502
 11
-18.35
 20
0.765
 21
0
  0
LINE
  8
0
 10
-18.35
 11
-18.502
 20
0
 21
-0.765
  0
LINE
  8
0
 10
-18.502
 11
-18.936
 20
-0.765
 21
-1.414
  0
LINE
  8
0
 10
-18.936
 11
-19.585
 20
-1.414
 21
-1.848
  0
LINE
  8
0
 10
-19.585
 11
-20.35
 20
-1.848
 21
-2
  0
LINE
  8
0
 10
-20.35
 11
-21.115
 20
-2
 21
-1.848
  0
LINE
  8
0
 10
-21.115
 11
-21.764
 20
-1.848
 21
-1.414
  0
LINE
  8
0
 10
-21.764
 11
-22.198
 20
-1.414
 21
-0.765
  0
LINE
  8
0
 10
-22.198
 11
-22.35
 20
-0.765
 21
0
  0
LINE
  8
0
 10
-13.855
 11
-13.855
 20
6.979
 21
7.721
  0
LINE
  8
0
 10
-13.855
 11
-13.51
 20
7.721
 21
8.378
  0
LINE
  8
0
 10
-13.51
 11
-12.9
 20
8.378
 21
8.799
  0
LINE
  8
0
 10
-12.9
 11
-12.163
 20
8.799
 21
8.889
  0
LINE
  8
0
 10
-12.163
 11
-11.47
 20
8.889
 21
8.626
  0
LINE
  8
0
 10
-11.47
 11
-10.978
 20
8.626
 21
8.07
  0
LINE
  8
0
 10
-10.978
 11
-10.8
 20
8.07
 21
7.35
  0
LINE
  8
0
 10
-10.8
 11
-10.978
 20
7.35
 21
6.63
  0
LINE
  8
0
 10
-10.978
 11
-11.47
 20
6.63
 21
6.074
  0
LINE
  8
0
 10
-11.47
 11
-12.163
 20
6.074
 21
5.811
  0
LINE
  8
0
 10
-12.163
 11
-12.9
 20
5.811
 21
5.901
  0
LINE
  8
0
 10
-12.9
 11
-13.51
 20
5.901
 21
6.322
  0
LINE
  8
0
 10
-13.51
 11
-13.855
 20
6.322
 21
6.979
  0
LINE
  8
0
 10
-3.555
 11
-3.555
 20
-15.221
 21
-14.479
  0
LINE
  8
0
 10
-3.555
 11
-3.21
 20
-14.479
 21
-13.822
  0
LINE
  8
0
 10
-3.21
 11
-2.6
 20
-13.822
 21
-13.401
  0
LINE
  8
0
 10
-2.6
 11
-1.863
 20
-13.401
 21
-13.311
  0
LINE
  8
0
 10
-1.863
 11
-1.17
 20
-13.311
 21
-13.574
  0
LINE
  8
0
 10
-1.17
 11
-0.678
 20
-13.574
 21
-14.13
  0
LINE
  8
0
 10
-0.678
 11
-0.5
 20
-14.13
 21
-14.85
  0
LINE
  8
0
 10
-0.5
 11
-0.678
 20
-14.85
 21
-15.57
  0
LINE
  8
0
 10
-0.678
 11
-1.17
 20
-15.57
 21
-16.126
  0
LINE
  8
0
 10
-1.17
 11
-1.863
 20
-16.126
 21
-16.389
  0
LINE
  8
0
 10
-1.863
 11
-2.6
 20
-16.389
 21
-16.299
  0
LINE
  8
0
 10
-2.6
 11
-3.21
 20
-16.299
 21
-15.878
  0
LINE
  8
0
 10
-3.21
 11
-3.555
 20
-15.878
 21
-15.221
  0
LINE
  8
0
 10
10.845
 11
10.845
 20
5.379
 21
6.121
  0
LINE
  8
0
 10
10.845
 11
11.19
 20
6.121
 21
6.778
  0
LINE
  8
0
 10
11.19
 11
11.8
 20
6.778
 21
7.199
  0
LINE
  8
0
 10
11.8
 11
12.537
 20
7.199
 21
7.289
  0
LINE
  8
0
 10
12.537
 11
13.23
 20
7.289
 21
7.026
  0
LINE
  8
0
 10
13.23
 11
13.722
 20
7.026
 21
6.47
  0
LINE
  8
0
 10
13.722
 11
13.9
 20
6.47
 21
5.75
  0
LINE
  8
0
 10
13.9
 11
13.722
 20
5.75
 21
5.03
  0
LINE
  8
0
 10
13.722
 11
13.23
 20
5.03
 21
4.474
  0
LINE
  8
0
 10
13.23
 11
12.537
 20
4.474
 21
4.211
  0
LINE
  8
0
 10
12.537
 11
11.8
 20
4.211
 21
4.301
  0
LINE
  8
0
 10
11.8
 11
11.19
 20
4.301
 21
4.722
  0
LINE
  8
0
 10
11.19
 11
10.845
 20
4.722
 21
5.379
  0
LINE
  8
0
 10
18.35
 11
18.502
 20
0
 21
0.765
  0
LINE
  8
0
 10
18.502
 11
18.936
 20
0.765
 21
1.414
  0
LINE
  8
0
 10
18.936
 11
19.585
 20
1.414
 21
1.848
  0
LINE
  8
0
 10
19.585
 11
20.35
 20
1.848
 21
2
  0
LINE
  8
0
 10
20.35
 11
21.115
 20
2
 21
1.848
  0
LINE
  8
0
 10
21.115
 11
21.764
 20
1.848
 21
1.414
  0
LINE
  8
0
 10
21.764
 11
22.198
 20
1.414
 21
0.765
  0
LINE
  8
0
 10
22.198
 11
22.35
 20
0.765
 21
0
  0
LINE
  8
0
 10
22.35
 11
22.198
 20
0
 21
-0.765
  0
LINE
  8
0
 10
22.198
 11
21.764
 20
-0.765
 21
-1.414
  0
LINE
  8
0
 10
21.764
 11
21.115
 20
-1.414
 21
-1.848
  0
LINE
  8
0
 10
21.115
 11
20.35
 20
-1.848
 21
-2
  0
LINE
  8
0
 10
20.35
 11
19.585
 20
-2
 21
-1.848
  0
LINE
  8
0
 10
19.585
 11
18.936
 20
-1.848
 21
-1.414
  0
LINE
  8
0
 10
18.936
 11
18.502
 20
-1.414
 21
-0.765
  0
LINE
  8
0
 10
18.502
 11
18.35
 20
-0.765
 21
0
  0
ENDSEC
  0
SECTION
  2
OBJECTS
  0
DICTIONARY
  0
ENDSEC
  0
EOF
