  0
SECTION
  2
BLOCKS
  0
ENDSEC
  0
SECTION
  2
ENTITIES
  0
LINE
  8
0
 10
-25.35
 11
-25.35
 20
-15.2
 21
11.9
  0
LINE
  8
0
 10
-25.35
 11
-8.55
 20
11.9
 21
11.9
  0
LINE
  8
0
 10
-8.55
 11
-8.55
 20
11.9
 21
14.4
  0
LINE
  8
0
 10
-8.55
 11
-25.35
 20
14.4
 21
14.4
  0
LINE
  8
0
 10
-25.35
 11
-25.35
 20
14.4
 21
15.2
  0
LINE
  8
0
 10
-25.35
 11
-25.198
 20
15.2
 21
15.965
  0
LINE
  8
0
 10
-25.198
 11
-24.764
 20
15.965
 21
16.614
  0
LINE
  8
0
 10
-24.764
 11
-24.115
 20
16.614
 21
17.048
  0
LINE
  8
0
 10
-24.115
 11
-23.35
 20
17.048
 21
17.2
  0
LINE
  8
0
 10
-23.35
 11
23.35
 20
17.2
 21
17.2
  0
LINE
  8
0
 10
23.35
 11
24.115
 20
17.2
 21
17.048
  0
LINE
  8
0
 10
24.115
 11
24.764
 20
17.048
 21
16.614
  0
LINE
  8
0
 10
24.764
 11
25.198
 20
16.614
 21
15.965
  0
LINE
  8
0
 10
25.198
 11
25.35
 20
15.965
 21
15.2
  0
LINE
  8
0
 10
25.35
 11
25.35
 20
15.2
 21
14.4
  0
LINE
  8
0
 10
25.35
 11
8.55
 20
14.4
 21
14.4
  0
LINE
  8
0
 10
8.55
 11
8.55
 20
14.4
 21
11.9
  0
LINE
  8
0
 10
8.55
 11
25.35
 20
11.9
 21
11.9
  0
LINE
  8
0
 10
25.35
 11
25.35
 20
11.9
 21
-15.2
  0
LINE
  8
0
 10
25.35
 11
25.198
 20
-15.2
 21
-15.965
  0
LINE
  8
0
 10
25.198
 11
24.764
 20
-15.965
 21
-16.614
  0
LINE
  8
0
 10
24.764
 11
24.115
 20
-16.614
 21
-17.048
  0
LINE
  8
0
 10
24.115
 11
23.35
 20
-17.048
 21
-17.2
  0
LINE
  8
0
 10
23.35
 11
-23.35
 20
-17.2
 21
-17.2
  0
LINE
  8
0
 10
-23.35
 11
-24.115
 20
-17.2
 21
-17.048
  0
LINE
  8
0
 10
-24.115
 11
-24.764
 20
-17.048
 21
-16.614
  0
LINE
  8
0
 10
-24.764
 11
-25.198
 20
-16.614
 21
-15.965
  0
LINE
  8
0
 10
-25.198
 11
-25.35
 20
-15.965
 21
-15.2
  0
LINE
  8
0
 10
-22.35
 11
-22.198
 20
0
 21
0.765
  0
LINE
  8
0
 10
-22.198
 11
-21.764
 20
0.765
 21
1.414
  0
LINE
  8
0
 10
-21.764
 11
-21.115
 20
1.414
 21
1.848
  0
LINE
  8
0
 10
-21.115
 11
-20.35
 20
1.848
 21
2
  0
LINE
  8
0
 10
-20.35
 11
-19.585
 20
2
 21
1.848
  0
LINE
  8
0
 10
-19.585
 11
-18.936
 20
1.848
 21
1.414
  0
LINE
  8
0
 10
-18.936
 11
-18.502
 20
1.414
 21
0.765
  0
LINE
  8
0
 10
-18.502
 11
-18.35
 20
0.765
 21
0
  0
LINE
  8
0
 10
-18.35
 11
-18.502
 20
0
 21
-0.765
  0
LINE
  8
0
 10
-18.502
 11
-18.936
 20
-0.765
 21
-1.414
  0
LINE
  8
0
 10
-18.936
 11
-19.585
 20
-1.414
 21
-1.848
  0
LINE
  8
0
 10
-19.585
 11
-20.35
 20
-1.848
 21
-2
  0
LINE
  8
0
 10
-20.35
 11
-21.115
 20
-2
 21
-1.848
  0
LINE
  8
0
 10
-21.115
 11
-21.764
 20
-1.848
 21
-1.414
  0
LINE
  8
0
 10
-21.764
 11
-22.198
 20
-1.414
 21
-0.765
  0
LINE
  8
0
 10
-22.198
 11
-22.35
 20
-0.765
 21
0
  0
LINE
  8
0
 10
-13.855
 11
-13.855
 20
8.479
 21
9.221
  0
LINE
  8
0
 10
-13.855
 11
-13.51
 20
9.221
 21
9.878
  0
LINE
  8
0
 10
-13.51
 11
-12.9
 20
9.878
 21
10.299
  0
LINE
  8
0
 10
-12.9
 11
-12.163
 20
10.299
 21
10.389
  0
LINE
  8
0
 10
-12.163
 11
-11.47
 20
10.389
 21
10.126
  0
LINE
  8
0
 10
-11.47
 11
-10.978
 20
10.126
 21
9.57
  0
LINE
  8
0
 10
-10.978
 11
-10.8
 20
9.57
 21
8.85
  0
LINE
  8
0
 10
-10.8
 11
-10.978
 20
8.85
 21
8.13
  0
LINE
  8
0
 10
-10.978
 11
-11.47
 20
8.13
 21
7.574
  0
LINE
  8
0
 10
-11.47
 11
-12.163
 20
7.574
 21
7.311
  0
LINE
  8
0
 10
-12.163
 11
-12.9
 20
7.311
 21
7.401
  0
LINE
  8
0
 10
-12.9
 11
-13.51
 20
7.401
 21
7.822
  0
LINE
  8
0
 10
-13.51
 11
-13.855
 20
7.822
 21
8.479
  0
LINE
  8
0
 10
-3.555
 11
-3.555
 20
-13.721
 21
-12.979
  0
LINE
  8
0
 10
-3.555
 11
-3.21
 20
-12.979
 21
-12.322
  0
LINE
  8
0
 10
-3.21
 11
-2.6
 20
-12.322
 21
-11.901
  0
LINE
  8
0
 10
-2.6
 11
-1.863
 20
-11.901
 21
-11.811
  0
LINE
  8
0
 10
-1.863
 11
-1.17
 20
-11.811
 21
-12.074
  0
LINE
  8
0
 10
-1.17
 11
-0.678
 20
-12.074
 21
-12.63
  0
LINE
  8
0
 10
-0.678
 11
-0.5
 20
-12.63
 21
-13.35
  0
LINE
  8
0
 10
-0.5
 11
-0.678
 20
-13.35
 21
-14.07
  0
LINE
  8
0
 10
-0.678
 11
-1.17
 20
-14.07
 21
-14.626
  0
LINE
  8
0
 10
-1.17
 11
-1.863
 20
-14.626
 21
-14.889
  0
LINE
  8
0
 10
-1.863
 11
-2.6
 20
-14.889
 21
-14.799
  0
LINE
  8
0
 10
-2.6
 11
-3.21
 20
-14.799
 21
-14.378
  0
LINE
  8
0
 10
-3.21
 11
-3.555
 20
-14.378
 21
-13.721
  0
LINE
  8
0
 10
10.845
 11
10.845
 20
6.879
 21
7.621
  0
LINE
  8
0
 10
10.845
 11
11.19
 20
7.621
 21
8.278
  0
LINE
  8
0
 10
11.19
 11
11.8
 20
8.278
 21
8.699
  0
LINE
  8
0
 10
11.8
 11
12.537
 20
8.699
 21
8.789
  0
LINE
  8
0
 10
12.537
 11
13.23
 20
8.789
 21
8.526
  0
LINE
  8
0
 10
13.23
 11
13.722
 20
8.526
 21
7.97
  0
LINE
  8
0
 10
13.722
 11
13.9
 20
7.97
 21
7.25
  0
LINE
  8
0
 10
13.9
 11
13.722
 20
7.25
 21
6.53
  0
LINE
  8
0
 10
13.722
 11
13.23
 20
6.53
 21
5.974
  0
LINE
  8
0
 10
13.23
 11
12.537
 20
5.974
 21
5.711
  0
LINE
  8
0
 10
12.537
 11
11.8
 20
5.711
 21
5.801
  0
LINE
  8
0
 10
11.8
 11
11.19
 20
5.801
 21
6.222
  0
LINE
  8
0
 10
11.19
 11
10.845
 20
6.222
 21
6.879
  0
LINE
  8
0
 10
18.35
 11
18.502
 20
0
 21
0.765
  0
LINE
  8
0
 10
18.502
 11
18.936
 20
0.765
 21
1.414
  0
LINE
  8
0
 10
18.936
 11
19.585
 20
1.414
 21
1.848
  0
LINE
  8
0
 10
19.585
 11
20.35
 20
1.848
 21
2
  0
LINE
  8
0
 10
20.35
 11
21.115
 20
2
 21
1.848
  0
LINE
  8
0
 10
21.115
 11
21.764
 20
1.848
 21
1.414
  0
LINE
  8
0
 10
21.764
 11
22.198
 20
1.414
 21
0.765
  0
LINE
  8
0
 10
22.198
 11
22.35
 20
0.765
 21
0
  0
LINE
  8
0
 10
22.35
 11
22.198
 20
0
 21
-0.765
  0
LINE
  8
0
 10
22.198
 11
21.764
 20
-0.765
 21
-1.414
  0
LINE
  8
0
 10
21.764
 11
21.115
 20
-1.414
 21
-1.848
  0
LINE
  8
0
 10
21.115
 11
20.35
 20
-1.848
 21
-2
  0
LINE
  8
0
 10
20.35
 11
19.585
 20
-2
 21
-1.848
  0
LINE
  8
0
 10
19.585
 11
18.936
 20
-1.848
 21
-1.414
  0
LINE
  8
0
 10
18.936
 11
18.502
 20
-1.414
 21
-0.765
  0
LINE
  8
0
 10
18.502
 11
18.35
 20
-0.765
 21
0
  0
ENDSEC
  0
SECTION
  2
OBJECTS
  0
DICTIONARY
  0
ENDSEC
  0
EOF
