  0
SECTION
  2
BLOCKS
  0
ENDSEC
  0
SECTION
  2
ENTITIES
  0
LINE
  8
0
 10
-25.35
 11
-25.35
 20
-17
 21
10.125
  0
LINE
  8
0
 10
-25.35
 11
-12.8
 20
10.125
 21
10.125
  0
LINE
  8
0
 10
-12.8
 11
-12.8
 20
10.125
 21
12.875
  0
LINE
  8
0
 10
-12.8
 11
-25.35
 20
12.875
 21
12.875
  0
LINE
  8
0
 10
-25.35
 11
-25.35
 20
12.875
 21
17
  0
LINE
  8
0
 10
-25.35
 11
-25.198
 20
17
 21
17.765
  0
LINE
  8
0
 10
-25.198
 11
-24.764
 20
17.765
 21
18.414
  0
LINE
  8
0
 10
-24.764
 11
-24.115
 20
18.414
 21
18.848
  0
LINE
  8
0
 10
-24.115
 11
-23.35
 20
18.848
 21
19
  0
LINE
  8
0
 10
-23.35
 11
23.35
 20
19
 21
19
  0
LINE
  8
0
 10
23.35
 11
24.115
 20
19
 21
18.848
  0
LINE
  8
0
 10
24.115
 11
24.764
 20
18.848
 21
18.414
  0
LINE
  8
0
 10
24.764
 11
25.198
 20
18.414
 21
17.765
  0
LINE
  8
0
 10
25.198
 11
25.35
 20
17.765
 21
17
  0
LINE
  8
0
 10
25.35
 11
25.35
 20
17
 21
12.875
  0
LINE
  8
0
 10
25.35
 11
12.8
 20
12.875
 21
12.875
  0
LINE
  8
0
 10
12.8
 11
12.8
 20
12.875
 21
10.125
  0
LINE
  8
0
 10
12.8
 11
25.35
 20
10.125
 21
10.125
  0
LINE
  8
0
 10
25.35
 11
25.35
 20
10.125
 21
-17
  0
LINE
  8
0
 10
25.35
 11
25.198
 20
-17
 21
-17.765
  0
LINE
  8
0
 10
25.198
 11
24.764
 20
-17.765
 21
-18.414
  0
LINE
  8
0
 10
24.764
 11
24.115
 20
-18.414
 21
-18.848
  0
LINE
  8
0
 10
24.115
 11
23.35
 20
-18.848
 21
-19
  0
LINE
  8
0
 10
23.35
 11
-23.35
 20
-19
 21
-19
  0
LINE
  8
0
 10
-23.35
 11
-24.115
 20
-19
 21
-18.848
  0
LINE
  8
0
 10
-24.115
 11
-24.764
 20
-18.848
 21
-18.414
  0
LINE
  8
0
 10
-24.764
 11
-25.198
 20
-18.414
 21
-17.765
  0
LINE
  8
0
 10
-25.198
 11
-25.35
 20
-17.765
 21
-17
  0
LINE
  8
0
 10
-22.35
 11
-22.198
 20
0
 21
0.765
  0
LINE
  8
0
 10
-22.198
 11
-21.764
 20
0.765
 21
1.414
  0
LINE
  8
0
 10
-21.764
 11
-21.115
 20
1.414
 21
1.848
  0
LINE
  8
0
 10
-21.115
 11
-20.35
 20
1.848
 21
2
  0
LINE
  8
0
 10
-20.35
 11
-19.585
 20
2
 21
1.848
  0
LINE
  8
0
 10
-19.585
 11
-18.936
 20
1.848
 21
1.414
  0
LINE
  8
0
 10
-18.936
 11
-18.502
 20
1.414
 21
0.765
  0
LINE
  8
0
 10
-18.502
 11
-18.35
 20
0.765
 21
0
  0
LINE
  8
0
 10
-18.35
 11
-18.502
 20
0
 21
-0.765
  0
LINE
  8
0
 10
-18.502
 11
-18.936
 20
-0.765
 21
-1.414
  0
LINE
  8
0
 10
-18.936
 11
-19.585
 20
-1.414
 21
-1.848
  0
LINE
  8
0
 10
-19.585
 11
-20.35
 20
-1.848
 21
-2
  0
LINE
  8
0
 10
-20.35
 11
-21.115
 20
-2
 21
-1.848
  0
LINE
  8
0
 10
-21.115
 11
-21.764
 20
-1.848
 21
-1.414
  0
LINE
  8
0
 10
-21.764
 11
-22.198
 20
-1.414
 21
-0.765
  0
LINE
  8
0
 10
-22.198
 11
-22.35
 20
-0.765
 21
0
  0
LINE
  8
0
 10
-13.855
 11
-13.855
 20
6.679
 21
7.421
  0
LINE
  8
0
 10
-13.855
 11
-13.51
 20
7.421
 21
8.078
  0
LINE
  8
0
 10
-13.51
 11
-12.9
 20
8.078
 21
8.499
  0
LINE
  8
0
 10
-12.9
 11
-12.163
 20
8.499
 21
8.589
  0
LINE
  8
0
 10
-12.163
 11
-11.47
 20
8.589
 21
8.326
  0
LINE
  8
0
 10
-11.47
 11
-10.978
 20
8.326
 21
7.77
  0
LINE
  8
0
 10
-10.978
 11
-10.8
 20
7.77
 21
7.05
  0
LINE
  8
0
 10
-10.8
 11
-10.978
 20
7.05
 21
6.33
  0
LINE
  8
0
 10
-10.978
 11
-11.47
 20
6.33
 21
5.774
  0
LINE
  8
0
 10
-11.47
 11
-12.163
 20
5.774
 21
5.511
  0
LINE
  8
0
 10
-12.163
 11
-12.9
 20
5.511
 21
5.601
  0
LINE
  8
0
 10
-12.9
 11
-13.51
 20
5.601
 21
6.022
  0
LINE
  8
0
 10
-13.51
 11
-13.855
 20
6.022
 21
6.679
  0
LINE
  8
0
 10
-3.555
 11
-3.555
 20
-15.521
 21
-14.779
  0
LINE
  8
0
 10
-3.555
 11
-3.21
 20
-14.779
 21
-14.122
  0
LINE
  8
0
 10
-3.21
 11
-2.6
 20
-14.122
 21
-13.701
  0
LINE
  8
0
 10
-2.6
 11
-1.863
 20
-13.701
 21
-13.611
  0
LINE
  8
0
 10
-1.863
 11
-1.17
 20
-13.611
 21
-13.874
  0
LINE
  8
0
 10
-1.17
 11
-0.678
 20
-13.874
 21
-14.43
  0
LINE
  8
0
 10
-0.678
 11
-0.5
 20
-14.43
 21
-15.15
  0
LINE
  8
0
 10
-0.5
 11
-0.678
 20
-15.15
 21
-15.87
  0
LINE
  8
0
 10
-0.678
 11
-1.17
 20
-15.87
 21
-16.426
  0
LINE
  8
0
 10
-1.17
 11
-1.863
 20
-16.426
 21
-16.689
  0
LINE
  8
0
 10
-1.863
 11
-2.6
 20
-16.689
 21
-16.599
  0
LINE
  8
0
 10
-2.6
 11
-3.21
 20
-16.599
 21
-16.178
  0
LINE
  8
0
 10
-3.21
 11
-3.555
 20
-16.178
 21
-15.521
  0
LINE
  8
0
 10
10.845
 11
10.845
 20
5.079
 21
5.821
  0
LINE
  8
0
 10
10.845
 11
11.19
 20
5.821
 21
6.478
  0
LINE
  8
0
 10
11.19
 11
11.8
 20
6.478
 21
6.899
  0
LINE
  8
0
 10
11.8
 11
12.537
 20
6.899
 21
6.989
  0
LINE
  8
0
 10
12.537
 11
13.23
 20
6.989
 21
6.726
  0
LINE
  8
0
 10
13.23
 11
13.722
 20
6.726
 21
6.17
  0
LINE
  8
0
 10
13.722
 11
13.9
 20
6.17
 21
5.45
  0
LINE
  8
0
 10
13.9
 11
13.722
 20
5.45
 21
4.73
  0
LINE
  8
0
 10
13.722
 11
13.23
 20
4.73
 21
4.174
  0
LINE
  8
0
 10
13.23
 11
12.537
 20
4.174
 21
3.911
  0
LINE
  8
0
 10
12.537
 11
11.8
 20
3.911
 21
4.001
  0
LINE
  8
0
 10
11.8
 11
11.19
 20
4.001
 21
4.422
  0
LINE
  8
0
 10
11.19
 11
10.845
 20
4.422
 21
5.079
  0
LINE
  8
0
 10
18.35
 11
18.502
 20
0
 21
0.765
  0
LINE
  8
0
 10
18.502
 11
18.936
 20
0.765
 21
1.414
  0
LINE
  8
0
 10
18.936
 11
19.585
 20
1.414
 21
1.848
  0
LINE
  8
0
 10
19.585
 11
20.35
 20
1.848
 21
2
  0
LINE
  8
0
 10
20.35
 11
21.115
 20
2
 21
1.848
  0
LINE
  8
0
 10
21.115
 11
21.764
 20
1.848
 21
1.414
  0
LINE
  8
0
 10
21.764
 11
22.198
 20
1.414
 21
0.765
  0
LINE
  8
0
 10
22.198
 11
22.35
 20
0.765
 21
0
  0
LINE
  8
0
 10
22.35
 11
22.198
 20
0
 21
-0.765
  0
LINE
  8
0
 10
22.198
 11
21.764
 20
-0.765
 21
-1.414
  0
LINE
  8
0
 10
21.764
 11
21.115
 20
-1.414
 21
-1.848
  0
LINE
  8
0
 10
21.115
 11
20.35
 20
-1.848
 21
-2
  0
LINE
  8
0
 10
20.35
 11
19.585
 20
-2
 21
-1.848
  0
LINE
  8
0
 10
19.585
 11
18.936
 20
-1.848
 21
-1.414
  0
LINE
  8
0
 10
18.936
 11
18.502
 20
-1.414
 21
-0.765
  0
LINE
  8
0
 10
18.502
 11
18.35
 20
-0.765
 21
0
  0
ENDSEC
  0
SECTION
  2
OBJECTS
  0
DICTIONARY
  0
ENDSEC
  0
EOF
