  0
SECTION
  2
BLOCKS
  0
ENDSEC
  0
SECTION
  2
ENTITIES
  0
LINE
  8
0
 10
-20
 11
-20
 20
-18
 21
18
  0
LINE
  8
0
 10
-20
 11
-19.848
 20
18
 21
18.765
  0
LINE
  8
0
 10
-19.848
 11
-19.414
 20
18.765
 21
19.414
  0
LINE
  8
0
 10
-19.414
 11
-18.765
 20
19.414
 21
19.848
  0
LINE
  8
0
 10
-18.765
 11
-18
 20
19.848
 21
20
  0
LINE
  8
0
 10
-18
 11
18
 20
20
 21
20
  0
LINE
  8
0
 10
18
 11
18.765
 20
20
 21
19.848
  0
LINE
  8
0
 10
18.765
 11
19.414
 20
19.848
 21
19.414
  0
LINE
  8
0
 10
19.414
 11
19.848
 20
19.414
 21
18.765
  0
LINE
  8
0
 10
19.848
 11
20
 20
18.765
 21
18
  0
LINE
  8
0
 10
20
 11
20
 20
18
 21
-18
  0
LINE
  8
0
 10
20
 11
19.848
 20
-18
 21
-18.765
  0
LINE
  8
0
 10
19.848
 11
19.414
 20
-18.765
 21
-19.414
  0
LINE
  8
0
 10
19.414
 11
18.765
 20
-19.414
 21
-19.848
  0
LINE
  8
0
 10
18.765
 11
18
 20
-19.848
 21
-20
  0
LINE
  8
0
 10
18
 11
-18
 20
-20
 21
-20
  0
LINE
  8
0
 10
-18
 11
-18.765
 20
-20
 21
-19.848
  0
LINE
  8
0
 10
-18.765
 11
-19.414
 20
-19.848
 21
-19.414
  0
LINE
  8
0
 10
-19.414
 11
-19.848
 20
-19.414
 21
-18.765
  0
LINE
  8
0
 10
-19.848
 11
-20
 20
-18.765
 21
-18
  0
LINE
  8
0
 10
-17.005
 11
-17.005
 20
-15.871
 21
-15.129
  0
LINE
  8
0
 10
-17.005
 11
-16.66
 20
-15.129
 21
-14.472
  0
LINE
  8
0
 10
-16.66
 11
-16.05
 20
-14.472
 21
-14.051
  0
LINE
  8
0
 10
-16.05
 11
-15.313
 20
-14.051
 21
-13.961
  0
LINE
  8
0
 10
-15.313
 11
-14.619
 20
-13.961
 21
-14.224
  0
LINE
  8
0
 10
-14.619
 11
-14.128
 20
-14.224
 21
-14.78
  0
LINE
  8
0
 10
-14.128
 11
-13.95
 20
-14.78
 21
-15.5
  0
LINE
  8
0
 10
-13.95
 11
-14.128
 20
-15.5
 21
-16.22
  0
LINE
  8
0
 10
-14.128
 11
-14.619
 20
-16.22
 21
-16.776
  0
LINE
  8
0
 10
-14.619
 11
-15.313
 20
-16.776
 21
-17.039
  0
LINE
  8
0
 10
-15.313
 11
-16.05
 20
-17.039
 21
-16.949
  0
LINE
  8
0
 10
-16.05
 11
-16.66
 20
-16.949
 21
-16.528
  0
LINE
  8
0
 10
-16.66
 11
-17.005
 20
-16.528
 21
-15.871
  0
LINE
  8
0
 10
-17.005
 11
-17.005
 20
15.129
 21
15.871
  0
LINE
  8
0
 10
-17.005
 11
-16.66
 20
15.871
 21
16.528
  0
LINE
  8
0
 10
-16.66
 11
-16.05
 20
16.528
 21
16.949
  0
LINE
  8
0
 10
-16.05
 11
-15.313
 20
16.949
 21
17.039
  0
LINE
  8
0
 10
-15.313
 11
-14.619
 20
17.039
 21
16.776
  0
LINE
  8
0
 10
-14.619
 11
-14.128
 20
16.776
 21
16.22
  0
LINE
  8
0
 10
-14.128
 11
-13.95
 20
16.22
 21
15.5
  0
LINE
  8
0
 10
-13.95
 11
-14.128
 20
15.5
 21
14.78
  0
LINE
  8
0
 10
-14.128
 11
-14.619
 20
14.78
 21
14.224
  0
LINE
  8
0
 10
-14.619
 11
-15.313
 20
14.224
 21
13.961
  0
LINE
  8
0
 10
-15.313
 11
-16.05
 20
13.961
 21
14.051
  0
LINE
  8
0
 10
-16.05
 11
-16.66
 20
14.051
 21
14.472
  0
LINE
  8
0
 10
-16.66
 11
-17.005
 20
14.472
 21
15.129
  0
LINE
  8
0
 10
-6
 11
-6
 20
-5.25
 21
5.25
  0
LINE
  8
0
 10
-6
 11
-5.707
 20
5.25
 21
5.957
  0
LINE
  8
0
 10
-5.707
 11
-5
 20
5.957
 21
6.25
  0
LINE
  8
0
 10
-5
 11
13
 20
6.25
 21
6.25
  0
LINE
  8
0
 10
13
 11
13.707
 20
6.25
 21
5.957
  0
LINE
  8
0
 10
13.707
 11
14
 20
5.957
 21
5.25
  0
LINE
  8
0
 10
14
 11
13.707
 20
5.25
 21
4.543
  0
LINE
  8
0
 10
13.707
 11
13
 20
4.543
 21
4.25
  0
LINE
  8
0
 10
13
 11
-4
 20
4.25
 21
4.25
  0
LINE
  8
0
 10
-4
 11
-4
 20
4.25
 21
-4.25
  0
LINE
  8
0
 10
-4
 11
13
 20
-4.25
 21
-4.25
  0
LINE
  8
0
 10
13
 11
13.707
 20
-4.25
 21
-4.543
  0
LINE
  8
0
 10
13.707
 11
14
 20
-4.543
 21
-5.25
  0
LINE
  8
0
 10
14
 11
13.707
 20
-5.25
 21
-5.957
  0
LINE
  8
0
 10
13.707
 11
13
 20
-5.957
 21
-6.25
  0
LINE
  8
0
 10
13
 11
-5
 20
-6.25
 21
-6.25
  0
LINE
  8
0
 10
-5
 11
-5.707
 20
-6.25
 21
-5.957
  0
LINE
  8
0
 10
-5.707
 11
-6
 20
-5.957
 21
-5.25
  0
LINE
  8
0
 10
-1.75
 11
-1.577
 20
0
 21
0.759
  0
LINE
  8
0
 10
-1.577
 11
-1.091
 20
0.759
 21
1.368
  0
LINE
  8
0
 10
-1.091
 11
-0.389
 20
1.368
 21
1.706
  0
LINE
  8
0
 10
-0.389
 11
0.389
 20
1.706
 21
1.706
  0
LINE
  8
0
 10
0.389
 11
1.091
 20
1.706
 21
1.368
  0
LINE
  8
0
 10
1.091
 11
1.577
 20
1.368
 21
0.759
  0
LINE
  8
0
 10
1.577
 11
1.75
 20
0.759
 21
0
  0
LINE
  8
0
 10
1.75
 11
1.577
 20
0
 21
-0.759
  0
LINE
  8
0
 10
1.577
 11
1.091
 20
-0.759
 21
-1.368
  0
LINE
  8
0
 10
1.091
 11
0.389
 20
-1.368
 21
-1.706
  0
LINE
  8
0
 10
0.389
 11
-0.389
 20
-1.706
 21
-1.706
  0
LINE
  8
0
 10
-0.389
 11
-1.091
 20
-1.706
 21
-1.368
  0
LINE
  8
0
 10
-1.091
 11
-1.577
 20
-1.368
 21
-0.759
  0
LINE
  8
0
 10
-1.577
 11
-1.75
 20
-0.759
 21
0
  0
LINE
  8
0
 10
13.995
 11
13.995
 20
-15.871
 21
-15.129
  0
LINE
  8
0
 10
13.995
 11
14.34
 20
-15.129
 21
-14.472
  0
LINE
  8
0
 10
14.34
 11
14.95
 20
-14.472
 21
-14.051
  0
LINE
  8
0
 10
14.95
 11
15.687
 20
-14.051
 21
-13.961
  0
LINE
  8
0
 10
15.687
 11
16.38
 20
-13.961
 21
-14.224
  0
LINE
  8
0
 10
16.38
 11
16.872
 20
-14.224
 21
-14.78
  0
LINE
  8
0
 10
16.872
 11
17.05
 20
-14.78
 21
-15.5
  0
LINE
  8
0
 10
17.05
 11
16.872
 20
-15.5
 21
-16.22
  0
LINE
  8
0
 10
16.872
 11
16.38
 20
-16.22
 21
-16.776
  0
LINE
  8
0
 10
16.38
 11
15.687
 20
-16.776
 21
-17.039
  0
LINE
  8
0
 10
15.687
 11
14.95
 20
-17.039
 21
-16.949
  0
LINE
  8
0
 10
14.95
 11
14.34
 20
-16.949
 21
-16.528
  0
LINE
  8
0
 10
14.34
 11
13.995
 20
-16.528
 21
-15.871
  0
LINE
  8
0
 10
13.995
 11
13.995
 20
15.129
 21
15.871
  0
LINE
  8
0
 10
13.995
 11
14.34
 20
15.871
 21
16.528
  0
LINE
  8
0
 10
14.34
 11
14.95
 20
16.528
 21
16.949
  0
LINE
  8
0
 10
14.95
 11
15.687
 20
16.949
 21
17.039
  0
LINE
  8
0
 10
15.687
 11
16.38
 20
17.039
 21
16.776
  0
LINE
  8
0
 10
16.38
 11
16.872
 20
16.776
 21
16.22
  0
LINE
  8
0
 10
16.872
 11
17.05
 20
16.22
 21
15.5
  0
LINE
  8
0
 10
17.05
 11
16.872
 20
15.5
 21
14.78
  0
LINE
  8
0
 10
16.872
 11
16.38
 20
14.78
 21
14.224
  0
LINE
  8
0
 10
16.38
 11
15.687
 20
14.224
 21
13.961
  0
LINE
  8
0
 10
15.687
 11
14.95
 20
13.961
 21
14.051
  0
LINE
  8
0
 10
14.95
 11
14.34
 20
14.051
 21
14.472
  0
LINE
  8
0
 10
14.34
 11
13.995
 20
14.472
 21
15.129
  0
ENDSEC
  0
SECTION
  2
OBJECTS
  0
DICTIONARY
  0
ENDSEC
  0
EOF
