<?xml version="1.0" encoding="UTF-8" standalone="no"?>
<!-- Created with Inkscape (http://www.inkscape.org/) -->
<svg id="svg2" xmlns:rdf="http://www.w3.org/1999/02/22-rdf-syntax-ns#" xmlns="http://www.w3.org/2000/svg" height="100.01" width="100.01" version="1.1" xmlns:cc="http://creativecommons.org/ns#" xmlns:dc="http://purl.org/dc/elements/1.1/">
 <metadata id="metadata7">
  <rdf:RDF>
   <cc:Work rdf:about="">
    <dc:format>image/svg+xml</dc:format>
    <dc:type rdf:resource="http://purl.org/dc/dcmitype/StillImage"/>
    <dc:title/>
   </cc:Work>
  </rdf:RDF>
 </metadata>
 <g id="layer2">
  <g id="g2984" transform="translate(-88.994416,-228.61938)">
   <path id="path2987" d="M114.31,229.39c-13.13-0.35-24.895,11.44-24.548,24.57m24.548-24.57c13.332-0.40238,25.506,12.046,24.473,25.416,0.46076,12.228,10.91,23.25,23.264,23.701,7.3549-0.0222,14.86,2.5162,19.749,8.2224,4.0803,4.4768,6.5655,10.476,6.4433,16.567m-98.479-49.334c-0.40314,13.324,12.009,25.523,25.382,24.509,12.051,0.43935,23.028,10.605,23.559,22.808-0.009,6.6565,1.7328,13.523,6.5262,18.395,4.6759,5.1055,11.496,8.3091,18.463,8.1935,13.128,0.3458,24.895-11.447,24.549-24.572" stroke="#000" stroke-dasharray="none" stroke-miterlimit="4" stroke-width="1.51142573" fill="none"/>
  </g>
 </g>
</svg>
