<?xml version="1.0" encoding="utf-8"?>
<!-- Generator: Adobe Illustrator 16.0.3, SVG Export Plug-In . SVG Version: 6.00 Build 0)  -->
<!DOCTYPE svg PUBLIC "-//W3C//DTD SVG 1.0//EN" "http://www.w3.org/TR/2001/REC-SVG-20010904/DTD/svg10.dtd" [
	<!ENTITY ns_flows "http://ns.adobe.com/Flows/1.0/">
	<!ENTITY ns_extend "http://ns.adobe.com/Extensibility/1.0/">
	<!ENTITY ns_ai "http://ns.adobe.com/AdobeIllustrator/10.0/">
	<!ENTITY ns_graphs "http://ns.adobe.com/Graphs/1.0/">
]>
<svg version="1.0" xmlns:x="&ns_extend;" xmlns:i="&ns_ai;" xmlns:graph="&ns_graphs;"
	 xmlns="http://www.w3.org/2000/svg" xmlns:xlink="http://www.w3.org/1999/xlink" xmlns:a="http://ns.adobe.com/AdobeSVGViewerExtensions/3.0/"
	 x="0px" y="0px" width="126.875px" height="126.876px" viewBox="0 0 126.875 126.876" enable-background="new 0 0 126.875 126.876"
	 xml:space="preserve">
<g id="Layer_1" display="none">
	<g display="inline">
		<defs>
			<rect id="SVGID_1_" x="26" y="21.445" width="15" height="64"/>
		</defs>
		<clipPath id="SVGID_2_">
			<use xlink:href="#SVGID_1_"  overflow="visible"/>
		</clipPath>
	</g>
	<g display="inline">
		<defs>
			<rect id="SVGID_3_" x="66.97" y="43.366" width="15" height="15"/>
		</defs>
		<clipPath id="SVGID_4_">
			<use xlink:href="#SVGID_3_"  overflow="visible"/>
		</clipPath>
		<path clip-path="url(#SVGID_4_)" fill="#95D600" d="M74.47,58.366c4.143,0,7.5-3.358,7.5-7.5s-3.357-7.5-7.5-7.5
			s-7.5,3.358-7.5,7.5S70.327,58.366,74.47,58.366"/>
	</g>
</g>
<g id="guides" display="none">
</g>
<g id="sun_1" display="none">
	<g display="inline">
		<defs>
			<rect id="SVGID_5_" x="29.933" y="28.808" width="68.135" height="68.135"/>
		</defs>
		<clipPath id="SVGID_6_">
			<use xlink:href="#SVGID_5_"  overflow="visible"/>
		</clipPath>
		<path clip-path="url(#SVGID_6_)" fill="#FFD100" d="M64,96.943c-18.814,0-34.067-15.253-34.067-34.067S45.186,28.808,64,28.808
			c18.815,0,34.067,15.253,34.067,34.067S82.815,96.943,64,96.943"/>
	</g>
</g>
<g id="sun_2" display="none">
	<path display="inline" fill="#FFD100" d="M64.051,96.944c-18.814,0-34.067-15.254-34.067-34.068s15.252-34.067,34.067-34.067
		c18.815,0,34.067,15.253,34.067,34.067S82.866,96.944,64.051,96.944"/>
	<path display="inline" fill="#D0D2D3" d="M107.956,78.669c0-3.981-3.192-7.209-7.129-7.209c-0.809,0-1.584,0.141-2.309,0.392
		c-0.844-3.029-3.59-5.252-6.855-5.252c-0.896,0-1.75,0.174-2.541,0.479c-1.127-2.479-3.598-4.204-6.473-4.204
		c-3.937,0-7.129,3.228-7.129,7.209c0,0.482,0.059,0.95,0.148,1.406c-0.193-0.016-0.387-0.03-0.585-0.03
		c-3.937,0-7.128,3.228-7.128,7.209c0,3.982,3.191,7.21,7.128,7.21c0.252,0,0.501-0.014,0.745-0.041v0.041h24.689v-0.016
		c0.104,0.004,0.204,0.016,0.309,0.016C104.764,85.879,107.956,82.652,107.956,78.669"/>
</g>
<g id="sun_3" display="none">
	<path display="inline" fill="#FFD100" d="M64.4,96.943c-18.814,0-34.067-15.253-34.067-34.067
		c0-18.815,15.252-34.068,34.067-34.068c18.815,0,34.067,15.253,34.067,34.068C98.468,81.689,83.216,96.943,64.4,96.943"/>
	<path display="inline" fill="#D0D2D3" d="M53.016,91.099c0-6.295,5.006-11.398,11.181-11.398c1.268,0,2.484,0.222,3.619,0.618
		c1.324-4.789,5.631-8.304,10.752-8.304c1.404,0,2.744,0.275,3.982,0.758c1.768-3.92,5.645-6.646,10.153-6.646
		c6.174,0,11.179,5.103,11.179,11.397c0,0.765-0.092,1.503-0.232,2.224c0.304-0.024,0.607-0.047,0.918-0.047
		c6.174,0,11.179,5.103,11.179,11.398s-5.005,11.4-11.179,11.4c-0.396,0-0.784-0.023-1.17-0.064v0.064H64.679v-0.025
		c-0.162,0.006-0.32,0.025-0.482,0.025C58.021,102.5,53.016,97.394,53.016,91.099"/>
</g>
<g id="sun_4" display="none">
	<path display="inline" fill="#FFD100" d="M63.84,96.877c-18.815,0-34.067-15.254-34.067-34.067
		c0-18.815,15.251-34.068,34.067-34.068s34.067,15.253,34.067,34.068C97.907,81.624,82.655,96.877,63.84,96.877"/>
	<path display="inline" fill="#D0D2D3" d="M62.839,51.467c0-4.446-3.564-8.052-7.961-8.052c-0.903,0-1.77,0.157-2.578,0.438
		c-0.942-3.383-4.01-5.865-7.656-5.865c-1.001,0-1.955,0.194-2.837,0.535c-1.259-2.77-4.019-4.695-7.229-4.695
		c-4.397,0-7.961,3.605-7.961,8.051c0,0.539,0.065,1.062,0.165,1.57c-0.216-0.017-0.433-0.033-0.654-0.033
		c-4.396,0-7.96,3.605-7.96,8.052s3.564,8.051,7.96,8.051c0.282,0,0.559-0.017,0.833-0.044v0.044h27.573V59.5
		c0.115,0.006,0.228,0.018,0.345,0.018C59.274,59.518,62.839,55.913,62.839,51.467"/>
	<path display="inline" fill="#D0D2D3" d="M59.542,93.6c0-6.295,5.005-11.398,11.18-11.398c1.269,0,2.484,0.223,3.62,0.619
		c1.323-4.789,5.63-8.304,10.751-8.304c1.405,0,2.745,0.275,3.983,0.758c1.768-3.92,5.644-6.646,10.153-6.646
		c6.174,0,11.179,5.103,11.179,11.398c0,0.764-0.093,1.502-0.232,2.223c0.304-0.023,0.607-0.047,0.917-0.047
		c6.174,0,11.18,5.104,11.18,11.398s-5.006,11.4-11.18,11.4c-0.395,0-0.783-0.023-1.169-0.064V105H71.205v-0.025
		c-0.162,0.006-0.32,0.025-0.483,0.025C64.547,105,59.542,99.895,59.542,93.6"/>
</g>
<g id="sun5" display="none">
	<path display="inline" fill="#FFD100" d="M64,97.505c-18.814,0-34.067-15.252-34.067-34.066c0-18.815,15.252-34.068,34.067-34.068
		c18.815,0,34.067,15.253,34.067,34.068C98.067,82.253,82.815,97.505,64,97.505"/>
	<path display="inline" fill="#D0D2D3" d="M60.954,92.79c0-3.98,3.193-7.209,7.13-7.209c0.808,0,1.584,0.141,2.308,0.393
		c0.844-3.029,3.59-5.252,6.855-5.252c0.896,0,1.75,0.174,2.541,0.479c1.127-2.479,3.598-4.203,6.473-4.203
		c3.938,0,7.129,3.227,7.129,7.209c0,0.482-0.059,0.949-0.148,1.406c0.193-0.016,0.388-0.031,0.586-0.031
		c3.936,0,7.127,3.229,7.127,7.209c0,3.982-3.191,7.209-7.127,7.209c-0.252,0-0.502-0.014-0.746-0.039v0.039H68.392v-0.016
		c-0.104,0.006-0.203,0.016-0.308,0.016C64.147,99.999,60.954,96.772,60.954,92.79"/>
	<path display="inline" fill="#D0D2D3" d="M72.397,68.068c0-6.295-5.006-11.398-11.18-11.398c-1.269,0-2.484,0.222-3.621,0.618
		c-1.322-4.789-5.629-8.304-10.751-8.304c-1.404,0-2.744,0.274-3.982,0.758c-1.768-3.92-5.644-6.647-10.153-6.647
		c-6.174,0-11.179,5.104-11.179,11.398c0,0.764,0.092,1.503,0.232,2.223c-0.303-0.023-0.607-0.046-0.917-0.046
		c-6.174,0-11.179,5.104-11.179,11.398s5.005,11.399,11.179,11.399c0.395,0,0.784-0.023,1.169-0.063v0.063h38.719v-0.025
		c0.162,0.008,0.319,0.025,0.483,0.025C67.392,79.467,72.397,74.363,72.397,68.068"/>
	<path display="inline" fill="#D0D2D3" d="M56.147,36.556c0-6.295,5.006-11.398,11.18-11.398c1.269,0,2.484,0.222,3.621,0.618
		c1.322-4.789,5.629-8.304,10.75-8.304c1.405,0,2.746,0.275,3.983,0.758c1.769-3.92,5.644-6.646,10.153-6.646
		c6.174,0,11.179,5.103,11.179,11.397c0,0.765-0.092,1.503-0.231,2.224c0.303-0.024,0.606-0.047,0.916-0.047
		c6.174,0,11.18,5.104,11.18,11.398s-5.006,11.399-11.18,11.399c-0.395,0-0.783-0.023-1.168-0.063v0.063h-38.72V47.93
		c-0.161,0.007-0.319,0.025-0.483,0.025C61.153,47.955,56.147,42.851,56.147,36.556"/>
</g>
<g id="clouds">
	<path fill="#D0D2D3" d="M9.26,42.958c0-7.347,5.943-13.302,13.273-13.302c1.506,0,2.949,0.259,4.299,0.722
		c1.57-5.589,6.685-9.69,12.764-9.69c1.67,0,3.26,0.321,4.73,0.885c2.099-4.575,6.701-7.757,12.052-7.757
		c7.332,0,13.273,5.955,13.273,13.302c0,0.891-0.107,1.753-0.275,2.594c0.361-0.028,0.721-0.055,1.09-0.055
		c7.33,0,13.273,5.955,13.273,13.302c0,7.348-5.943,13.304-13.273,13.304c-0.469,0-0.932-0.027-1.387-0.074v0.074H23.106v-0.03
		c-0.19,0.009-0.38,0.03-0.573,0.03C15.203,56.261,9.26,50.305,9.26,42.958"/>
	<path fill="#D0D2D3" d="M115.151,96.163c0-7.475-5.943-13.533-13.275-13.533c-1.504,0-2.947,0.264-4.297,0.734
		c-1.572-5.688-6.686-9.86-12.766-9.86c-1.668,0-3.258,0.327-4.729,0.9c-2.1-4.654-6.701-7.893-12.055-7.893
		c-7.33,0-13.273,6.059-13.273,13.534c0,0.906,0.109,1.784,0.275,2.639c-0.359-0.027-0.721-0.055-1.09-0.055
		c-7.33,0-13.271,6.059-13.271,13.533s5.941,13.535,13.271,13.535c0.471,0,0.932-0.027,1.389-0.076v0.076h45.973v-0.031
		c0.191,0.01,0.381,0.031,0.572,0.031C109.208,109.698,115.151,103.637,115.151,96.163"/>
	<path fill="#D0D2D3" d="M50.824,75.33c0-3.982-3.193-7.209-7.129-7.209c-0.808,0-1.584,0.14-2.308,0.391
		c-0.844-3.029-3.59-5.252-6.856-5.252c-0.896,0-1.75,0.174-2.54,0.48c-1.127-2.48-3.598-4.204-6.473-4.204
		c-3.937,0-7.129,3.227-7.129,7.209c0,0.481,0.059,0.949,0.148,1.405c-0.193-0.016-0.387-0.029-0.585-0.029
		c-3.936,0-7.128,3.227-7.128,7.209c0,3.981,3.192,7.209,7.128,7.209c0.252,0,0.501-0.015,0.746-0.04v0.04h24.689v-0.017
		c0.103,0.005,0.203,0.017,0.308,0.017C47.631,82.539,50.824,79.312,50.824,75.33"/>
	<path fill="#D0D2D3" d="M80.23,60.359c0-3.981,3.193-7.209,7.131-7.209c0.807,0,1.584,0.141,2.307,0.392
		c0.844-3.029,3.59-5.252,6.855-5.252c0.896,0,1.75,0.174,2.541,0.479c1.127-2.479,3.598-4.204,6.473-4.204
		c3.938,0,7.129,3.228,7.129,7.209c0,0.482-0.059,0.95-0.146,1.406c0.191-0.016,0.387-0.03,0.584-0.03
		c3.936,0,7.129,3.228,7.129,7.209c0,3.982-3.193,7.209-7.129,7.209c-0.252,0-0.5-0.014-0.746-0.04v0.04H87.668v-0.016
		c-0.104,0.005-0.203,0.016-0.307,0.016C83.424,67.568,80.23,64.341,80.23,60.359"/>
</g>
<g id="cloud" display="none">
	<path display="inline" fill="#D0D2D3" d="M26.197,67.208c0-7.347,5.943-13.302,13.273-13.302c1.506,0,2.949,0.259,4.299,0.722
		c1.57-5.589,6.685-9.69,12.764-9.69c1.67,0,3.26,0.321,4.73,0.885c2.1-4.575,6.701-7.757,12.053-7.757
		c7.332,0,13.273,5.955,13.273,13.302c0,0.891-0.107,1.753-0.275,2.594c0.361-0.028,0.721-0.055,1.09-0.055
		c7.33,0,13.273,5.955,13.273,13.302c0,7.348-5.943,13.304-13.273,13.304c-0.469,0-0.932-0.027-1.387-0.074v0.074H40.044v-0.03
		c-0.19,0.009-0.38,0.03-0.573,0.03C32.141,80.511,26.197,74.555,26.197,67.208"/>
</g>
</svg>
