<?xml version="1.0" encoding="UTF-8" standalone="no"?>
<!-- Generator: Adobe Illustrator 16.0.3, SVG Export Plug-In . SVG Version: 6.00 Build 0)  -->

<svg
   xmlns:dc="http://purl.org/dc/elements/1.1/"
   xmlns:cc="http://creativecommons.org/ns#"
   xmlns:rdf="http://www.w3.org/1999/02/22-rdf-syntax-ns#"
   xmlns:svg="http://www.w3.org/2000/svg"
   xmlns="http://www.w3.org/2000/svg"
   xmlns:sodipodi="http://sodipodi.sourceforge.net/DTD/sodipodi-0.dtd"
   xmlns:inkscape="http://www.inkscape.org/namespaces/inkscape"
   version="1.0"
   x="0px"
   y="0px"
   width="126.875px"
   height="126.876px"
   viewBox="0 0 126.875 126.876"
   enable-background="new 0 0 126.875 126.876"
   xml:space="preserve"
   id="svg3361"
   inkscape:version="0.48.4 r9939"
   sodipodi:docname="sun_5.svg"><metadata
     id="metadata3376"><rdf:RDF><cc:Work
         rdf:about=""><dc:format>image/svg+xml</dc:format><dc:type
           rdf:resource="http://purl.org/dc/dcmitype/StillImage" /></cc:Work></rdf:RDF></metadata><defs
     id="defs3374" /><sodipodi:namedview
     pagecolor="#ffffff"
     bordercolor="#666666"
     borderopacity="1"
     objecttolerance="10"
     gridtolerance="10"
     guidetolerance="10"
     inkscape:pageopacity="0"
     inkscape:pageshadow="2"
     inkscape:window-width="640"
     inkscape:window-height="480"
     id="namedview3372"
     showgrid="false"
     inkscape:zoom="1.8600839"
     inkscape:cx="63.4375"
     inkscape:cy="63.438"
     inkscape:window-x="0"
     inkscape:window-y="24"
     inkscape:window-maximized="0"
     inkscape:current-layer="svg3361" /><g
     id="g3389"><rect
       y="-3.7876625"
       x="-5.6692986"
       height="134.45132"
       width="137.13937"
       id="rect2990"
       style="fill:#ffffff;fill-opacity:1;stroke:none" /><path
       d="m 64,97.505 c -18.814,0 -34.067,-15.252 -34.067,-34.066 0,-18.815 15.252,-34.068 34.067,-34.068 18.815,0 34.067,15.253 34.067,34.068 0,18.814 -15.252,34.066 -34.067,34.066"
       id="path3364"
       inkscape:connector-curvature="0"
       style="fill:#ffd100" /><path
       d="m 60.954,92.79 c 0,-3.98 3.193,-7.209 7.13,-7.209 0.808,0 1.584,0.141 2.308,0.393 0.844,-3.029 3.59,-5.252 6.855,-5.252 0.896,0 1.75,0.174 2.541,0.479 1.127,-2.479 3.598,-4.203 6.473,-4.203 3.938,0 7.129,3.227 7.129,7.209 0,0.482 -0.059,0.949 -0.148,1.406 0.193,-0.016 0.388,-0.031 0.586,-0.031 3.936,0 7.127,3.229 7.127,7.209 0,3.982 -3.191,7.209 -7.127,7.209 -0.252,0 -0.502,-0.014 -0.746,-0.039 V 100 H 68.392 V 99.984 C 68.288,99.99 68.189,100 68.084,100 c -3.937,-0.001 -7.13,-3.228 -7.13,-7.21"
       id="path3366"
       inkscape:connector-curvature="0"
       style="fill:#d0d2d3" /><path
       d="m 72.397,68.068 c 0,-6.295 -5.006,-11.398 -11.18,-11.398 -1.269,0 -2.484,0.222 -3.621,0.618 -1.322,-4.789 -5.629,-8.304 -10.751,-8.304 -1.404,0 -2.744,0.274 -3.982,0.758 -1.768,-3.92 -5.644,-6.647 -10.153,-6.647 -6.174,0 -11.179,5.104 -11.179,11.398 0,0.764 0.092,1.503 0.232,2.223 -0.303,-0.023 -0.607,-0.046 -0.917,-0.046 -6.174,0 -11.179,5.104 -11.179,11.398 0,6.294 5.005,11.399 11.179,11.399 0.395,0 0.784,-0.023 1.169,-0.063 v 0.063 h 38.719 v -0.025 c 0.162,0.008 0.319,0.025 0.483,0.025 6.175,0 11.18,-5.104 11.18,-11.399"
       id="path3368"
       inkscape:connector-curvature="0"
       style="fill:#d0d2d3" /><path
       d="m 56.147,36.556 c 0,-6.295 5.006,-11.398 11.18,-11.398 1.269,0 2.484,0.222 3.621,0.618 1.322,-4.789 5.629,-8.304 10.75,-8.304 1.405,0 2.746,0.275 3.983,0.758 1.769,-3.92 5.644,-6.646 10.153,-6.646 6.174,0 11.179,5.103 11.179,11.397 0,0.765 -0.092,1.503 -0.231,2.224 0.303,-0.024 0.606,-0.047 0.916,-0.047 6.174,0 11.18,5.104 11.18,11.398 0,6.294 -5.006,11.399 -11.18,11.399 -0.395,0 -0.783,-0.023 -1.168,-0.063 v 0.063 H 67.81 V 47.93 c -0.161,0.007 -0.319,0.025 -0.483,0.025 -6.174,0 -11.18,-5.104 -11.18,-11.399"
       id="path3370"
       inkscape:connector-curvature="0"
       style="fill:#d0d2d3" /></g></svg>