<?xml version="1.0" encoding="UTF-8" standalone="no"?>
<!-- Generator: Adobe Illustrator 16.0.3, SVG Export Plug-In . SVG Version: 6.00 Build 0)  -->

<svg
   xmlns:dc="http://purl.org/dc/elements/1.1/"
   xmlns:cc="http://creativecommons.org/ns#"
   xmlns:rdf="http://www.w3.org/1999/02/22-rdf-syntax-ns#"
   xmlns:svg="http://www.w3.org/2000/svg"
   xmlns="http://www.w3.org/2000/svg"
   xmlns:sodipodi="http://sodipodi.sourceforge.net/DTD/sodipodi-0.dtd"
   xmlns:inkscape="http://www.inkscape.org/namespaces/inkscape"
   version="1.0"
   x="0px"
   y="0px"
   width="126.875px"
   height="126.876px"
   viewBox="0 0 126.875 126.876"
   enable-background="new 0 0 126.875 126.876"
   xml:space="preserve"
   id="svg3168"
   inkscape:version="0.48.4 r9939"
   sodipodi:docname="sun_2.svg"><metadata
     id="metadata3179"><rdf:RDF><cc:Work
         rdf:about=""><dc:format>image/svg+xml</dc:format><dc:type
           rdf:resource="http://purl.org/dc/dcmitype/StillImage" /></cc:Work></rdf:RDF></metadata><defs
     id="defs3177" /><sodipodi:namedview
     pagecolor="#ffffff"
     bordercolor="#666666"
     borderopacity="1"
     objecttolerance="10"
     gridtolerance="10"
     guidetolerance="10"
     inkscape:pageopacity="0"
     inkscape:pageshadow="2"
     inkscape:window-width="640"
     inkscape:window-height="480"
     id="namedview3175"
     showgrid="false"
     inkscape:zoom="1.8600839"
     inkscape:cx="63.4375"
     inkscape:cy="63.438"
     inkscape:window-x="0"
     inkscape:window-y="24"
     inkscape:window-maximized="0"
     inkscape:current-layer="svg3168" /><g
     id="g3407"><rect
       y="-2.1748319"
       x="-5.6692967"
       height="134.45132"
       width="137.13937"
       id="rect2990"
       style="fill:#ffffff;fill-opacity:1;stroke:none" /><path
       d="m 64.051,96.944 c -18.814,0 -34.067,-15.254 -34.067,-34.068 0,-18.814 15.252,-34.067 34.067,-34.067 18.815,0 34.067,15.253 34.067,34.067 0,18.814 -15.252,34.068 -34.067,34.068"
       id="path3171"
       inkscape:connector-curvature="0"
       style="fill:#ffd100" /><path
       d="m 107.956,78.669 c 0,-3.981 -3.192,-7.209 -7.129,-7.209 -0.809,0 -1.584,0.141 -2.309,0.392 -0.844,-3.029 -3.59,-5.252 -6.855,-5.252 -0.896,0 -1.75,0.174 -2.541,0.479 -1.127,-2.479 -3.598,-4.204 -6.473,-4.204 -3.937,0 -7.129,3.228 -7.129,7.209 0,0.482 0.059,0.95 0.148,1.406 -0.193,-0.016 -0.387,-0.03 -0.585,-0.03 -3.937,0 -7.128,3.228 -7.128,7.209 0,3.982 3.191,7.21 7.128,7.21 0.252,0 0.501,-0.014 0.745,-0.041 v 0.041 h 24.689 v -0.016 c 0.104,0.004 0.204,0.016 0.309,0.016 3.938,0 7.13,-3.227 7.13,-7.21"
       id="path3173"
       inkscape:connector-curvature="0"
       style="fill:#d0d2d3" /></g></svg>