<?xml version="1.0" encoding="UTF-8" standalone="no"?>
<!-- Generator: Adobe Illustrator 16.0.3, SVG Export Plug-In . SVG Version: 6.00 Build 0)  -->

<svg
   xmlns:dc="http://purl.org/dc/elements/1.1/"
   xmlns:cc="http://creativecommons.org/ns#"
   xmlns:rdf="http://www.w3.org/1999/02/22-rdf-syntax-ns#"
   xmlns:svg="http://www.w3.org/2000/svg"
   xmlns="http://www.w3.org/2000/svg"
   xmlns:sodipodi="http://sodipodi.sourceforge.net/DTD/sodipodi-0.dtd"
   xmlns:inkscape="http://www.inkscape.org/namespaces/inkscape"
   version="1.0"
   x="0px"
   y="0px"
   width="126.875px"
   height="126.876px"
   viewBox="0 0 126.875 126.876"
   enable-background="new 0 0 126.875 126.876"
   xml:space="preserve"
   id="svg3229"
   inkscape:version="0.48.4 r9939"
   sodipodi:docname="sun_3.svg"><metadata
     id="metadata3240"><rdf:RDF><cc:Work
         rdf:about=""><dc:format>image/svg+xml</dc:format><dc:type
           rdf:resource="http://purl.org/dc/dcmitype/StillImage" /></cc:Work></rdf:RDF></metadata><defs
     id="defs3238" /><sodipodi:namedview
     pagecolor="#ffffff"
     bordercolor="#666666"
     borderopacity="1"
     objecttolerance="10"
     gridtolerance="10"
     guidetolerance="10"
     inkscape:pageopacity="0"
     inkscape:pageshadow="2"
     inkscape:window-width="640"
     inkscape:window-height="480"
     id="namedview3236"
     showgrid="false"
     inkscape:zoom="1.8600839"
     inkscape:cx="63.4375"
     inkscape:cy="63.438"
     inkscape:window-x="0"
     inkscape:window-y="24"
     inkscape:window-maximized="0"
     inkscape:current-layer="svg3229" /><g
     id="g3402"><rect
       y="-3.2500529"
       x="-5.6692996"
       height="134.45132"
       width="137.13937"
       id="rect2990"
       style="fill:#ffffff;fill-opacity:1;stroke:none" /><path
       d="m 64.4,96.943 c -18.814,0 -34.067,-15.253 -34.067,-34.067 0,-18.815 15.252,-34.068 34.067,-34.068 18.815,0 34.067,15.253 34.067,34.068 C 98.468,81.689 83.216,96.943 64.4,96.943"
       id="path3232"
       inkscape:connector-curvature="0"
       style="fill:#ffd100" /><path
       d="m 53.016,91.099 c 0,-6.295 5.006,-11.398 11.181,-11.398 1.268,0 2.484,0.222 3.619,0.618 1.324,-4.789 5.631,-8.304 10.752,-8.304 1.404,0 2.744,0.275 3.982,0.758 1.768,-3.92 5.645,-6.646 10.153,-6.646 6.174,0 11.179,5.103 11.179,11.397 0,0.765 -0.092,1.503 -0.232,2.224 0.304,-0.024 0.607,-0.047 0.918,-0.047 6.174,0 11.179,5.103 11.179,11.398 0,6.295 -5.005,11.4 -11.179,11.4 -0.396,0 -0.784,-0.023 -1.17,-0.064 v 0.064 H 64.679 v -0.025 c -0.162,0.006 -0.32,0.025 -0.482,0.025 -6.176,0.001 -11.181,-5.105 -11.181,-11.4"
       id="path3234"
       inkscape:connector-curvature="0"
       style="fill:#d0d2d3" /></g></svg>