<?xml version="1.0" encoding="UTF-8" standalone="no"?>
<!-- Generator: Adobe Illustrator 16.0.3, SVG Export Plug-In . SVG Version: 6.00 Build 0)  -->

<svg
   xmlns:dc="http://purl.org/dc/elements/1.1/"
   xmlns:cc="http://creativecommons.org/ns#"
   xmlns:rdf="http://www.w3.org/1999/02/22-rdf-syntax-ns#"
   xmlns:svg="http://www.w3.org/2000/svg"
   xmlns="http://www.w3.org/2000/svg"
   xmlns:sodipodi="http://sodipodi.sourceforge.net/DTD/sodipodi-0.dtd"
   xmlns:inkscape="http://www.inkscape.org/namespaces/inkscape"
   version="1.0"
   x="0px"
   y="0px"
   width="126.875px"
   height="126.876px"
   viewBox="0 0 126.875 126.876"
   enable-background="new 0 0 126.875 126.876"
   xml:space="preserve"
   id="svg3292"
   inkscape:version="0.48.4 r9939"
   sodipodi:docname="sun_4.svg"><metadata
     id="metadata3305"><rdf:RDF><cc:Work
         rdf:about=""><dc:format>image/svg+xml</dc:format><dc:type
           rdf:resource="http://purl.org/dc/dcmitype/StillImage" /></cc:Work></rdf:RDF></metadata><defs
     id="defs3303" /><sodipodi:namedview
     pagecolor="#ffffff"
     bordercolor="#666666"
     borderopacity="1"
     objecttolerance="10"
     gridtolerance="10"
     guidetolerance="10"
     inkscape:pageopacity="0"
     inkscape:pageshadow="2"
     inkscape:window-width="640"
     inkscape:window-height="480"
     id="namedview3301"
     showgrid="false"
     inkscape:zoom="1.8600839"
     inkscape:cx="63.4375"
     inkscape:cy="63.438"
     inkscape:window-x="0"
     inkscape:window-y="24"
     inkscape:window-maximized="0"
     inkscape:current-layer="svg3292" /><g
     id="g3396"><path
       d="m 63.84,96.877 c -18.815,0 -34.067,-15.254 -34.067,-34.067 0,-18.815 15.251,-34.068 34.067,-34.068 18.816,0 34.067,15.253 34.067,34.068 0,18.814 -15.252,34.067 -34.067,34.067"
       id="path3295"
       inkscape:connector-curvature="0"
       style="fill:#ffd100" /><path
       d="m 62.839,51.467 c 0,-4.446 -3.564,-8.052 -7.961,-8.052 -0.903,0 -1.77,0.157 -2.578,0.438 -0.942,-3.383 -4.01,-5.865 -7.656,-5.865 -1.001,0 -1.955,0.194 -2.837,0.535 -1.259,-2.77 -4.019,-4.695 -7.229,-4.695 -4.397,0 -7.961,3.605 -7.961,8.051 0,0.539 0.065,1.062 0.165,1.57 -0.216,-0.017 -0.433,-0.033 -0.654,-0.033 -4.396,0 -7.96,3.605 -7.96,8.052 0,4.447 3.564,8.051 7.96,8.051 0.282,0 0.559,-0.017 0.833,-0.044 v 0.044 H 54.534 V 59.5 c 0.115,0.006 0.228,0.018 0.345,0.018 4.395,0 7.96,-3.605 7.96,-8.051"
       id="path3297"
       inkscape:connector-curvature="0"
       style="fill:#d0d2d3" /><path
       d="m 59.542,93.6 c 0,-6.295 5.005,-11.398 11.18,-11.398 1.269,0 2.484,0.223 3.62,0.619 1.323,-4.789 5.63,-8.304 10.751,-8.304 1.405,0 2.745,0.275 3.983,0.758 1.768,-3.92 5.644,-6.646 10.153,-6.646 6.174,0 11.179,5.103 11.179,11.398 0,0.764 -0.093,1.502 -0.232,2.223 0.304,-0.023 0.607,-0.047 0.917,-0.047 6.174,0 11.18,5.104 11.18,11.398 0,6.294 -5.006,11.4 -11.18,11.4 -0.395,0 -0.783,-0.023 -1.169,-0.064 V 105 H 71.205 v -0.025 c -0.162,0.006 -0.32,0.025 -0.483,0.025 -6.175,0 -11.18,-5.105 -11.18,-11.4"
       id="path3299"
       inkscape:connector-curvature="0"
       style="fill:#d0d2d3" /></g></svg>
