<?xml version="1.0" encoding="UTF-8" standalone="no"?>
<!-- Generator: Adobe Illustrator 16.0.3, SVG Export Plug-In . SVG Version: 6.00 Build 0)  -->

<svg
   xmlns:dc="http://purl.org/dc/elements/1.1/"
   xmlns:cc="http://creativecommons.org/ns#"
   xmlns:rdf="http://www.w3.org/1999/02/22-rdf-syntax-ns#"
   xmlns:svg="http://www.w3.org/2000/svg"
   xmlns="http://www.w3.org/2000/svg"
   xmlns:sodipodi="http://sodipodi.sourceforge.net/DTD/sodipodi-0.dtd"
   xmlns:inkscape="http://www.inkscape.org/namespaces/inkscape"
   version="1.0"
   id="Layer_1"
   x="0px"
   y="0px"
   width="800px"
   height="800px"
   viewBox="0 0 800 800"
   enable-background="new 0 0 800 800"
   xml:space="preserve"
   inkscape:version="0.48.4 r9939"
   sodipodi:docname="tree.svg"><metadata
     id="metadata4557"><rdf:RDF><cc:Work
         rdf:about=""><dc:format>image/svg+xml</dc:format><dc:type
           rdf:resource="http://purl.org/dc/dcmitype/StillImage" /></cc:Work></rdf:RDF></metadata><defs
     id="defs4555" /><sodipodi:namedview
     pagecolor="#ffffff"
     bordercolor="#666666"
     borderopacity="1"
     objecttolerance="10"
     gridtolerance="10"
     guidetolerance="10"
     inkscape:pageopacity="0"
     inkscape:pageshadow="2"
     inkscape:window-width="1440"
     inkscape:window-height="876"
     id="namedview4553"
     showgrid="false"
     inkscape:zoom="1.18"
     inkscape:cx="312.02118"
     inkscape:cy="336.59317"
     inkscape:window-x="0"
     inkscape:window-y="24"
     inkscape:window-maximized="1"
     inkscape:current-layer="Layer_1" /><g
     id="g7228"><path
       d="m 182.246,581.723 c 0,0 89.424,-0.223 188.885,-0.223 53.697,0 74.777,0.819 74.777,11.119 0,9.364 -39.244,11.237 -74.113,11.237 -34.871,0 -58.336,4.37 -58.336,12.758 0,8.389 23.863,10.886 59.662,10.886 35.797,0 190.168,-0.234 190.168,-0.234"
       id="path4399"
       inkscape:connector-curvature="0"
       style="fill:none;stroke:#336633;stroke-width:3;stroke-linecap:round;stroke-linejoin:round" /><polyline
       points="399.9,466.691   350.7,417.691 350.7,295.191 326.2,270.691 "
       id="polyline4401"
       style="fill:none;stroke:#336633;stroke-width:3;stroke-linecap:round;stroke-linejoin:round" /><polyline
       points="399.9,393.441   375.4,368.941 375.4,344.191 301.5,270.691 301.5,221.691 "
       id="polyline4403"
       style="fill:none;stroke:#336633;stroke-width:3;stroke-linecap:round;stroke-linejoin:round" /><line
       x1="276.89999"
       y1="246.19099"
       x2="301.5"
       y2="270.69101"
       id="line4405"
       style="fill:none;stroke:#336633;stroke-width:3;stroke-linecap:round;stroke-linejoin:round" /><polyline
       points="350.7,393.191   301.7,344.191 301.7,295.191 252.3,246.191 252.3,221.691 227.7,197.191 "
       id="polyline4407"
       style="fill:none;stroke:#336633;stroke-width:3;stroke-linecap:round;stroke-linejoin:round" /><polyline
       points="300.4,319.691   276.9,296.191 227.7,296.191 227.7,246.191 "
       id="polyline4409"
       style="fill:none;stroke:#336633;stroke-width:3;stroke-linecap:round;stroke-linejoin:round" /><polyline
       points="399.9,319.691   375.4,295.191 375.4,246.191 352.2,222.991 352.2,172.691 "
       id="polyline4411"
       style="fill:none;stroke:#336633;stroke-width:3;stroke-linecap:round;stroke-linejoin:round" /><polyline
       points="399.9,540.191   376.8,515.691 376.8,466.691 "
       id="polyline4413"
       style="fill:none;stroke:#336633;stroke-width:3;stroke-linecap:round;stroke-linejoin:round" /><polyline
       points="375.3,491.191   327.05,442.191 327.05,393.191 278.9,345.041 "
       id="polyline4415"
       style="fill:none;stroke:#336633;stroke-width:3;stroke-linecap:round;stroke-linejoin:round" /><polyline
       points="301.5,417.691   326.1,417.691 252.6,344.191 252.6,319.691 "
       id="polyline4417"
       style="fill:none;stroke:#336633;stroke-width:3;stroke-linecap:round;stroke-linejoin:round" /><line
       x1="276.89999"
       y1="368.69101"
       x2="203.10001"
       y2="368.69101"
       id="line4419"
       style="fill:none;stroke:#336633;stroke-width:3;stroke-linecap:round;stroke-linejoin:round" /><polyline
       points="251.8,342.691   227.7,342.691 178.5,295.191 "
       id="polyline4421"
       style="fill:none;stroke:#336633;stroke-width:3;stroke-linecap:round;stroke-linejoin:round" /><line
       x1="227.7"
       y1="368.69101"
       x2="227.7"
       y2="393.19101"
       id="line4423"
       style="fill:none;stroke:#336633;stroke-width:3;stroke-linecap:round;stroke-linejoin:round" /><line
       x1="326.10001"
       y1="319.69101"
       x2="350.60001"
       y2="344.19101"
       id="line4425"
       style="fill:none;stroke:#336633;stroke-width:3;stroke-linecap:round;stroke-linejoin:round" /><line
       x1="375.29999"
       y1="417.69101"
       x2="399.79999"
       y2="442.19101"
       id="line4427"
       style="fill:none;stroke:#336633;stroke-width:3;stroke-linecap:round;stroke-linejoin:round" /><line
       x1="373.79999"
       y1="246.19099"
       x2="327.60001"
       y2="246.19099"
       id="line4429"
       style="fill:none;stroke:#336633;stroke-width:3;stroke-linecap:round;stroke-linejoin:round" /><line
       x1="300.39999"
       y1="321.19101"
       x2="276.89999"
       y2="321.19101"
       id="line4431"
       style="fill:none;stroke:#336633;stroke-width:3;stroke-linecap:round;stroke-linejoin:round" /><line
       x1="252.3"
       y1="270.69101"
       x2="252.3"
       y2="295.19101"
       id="line4433"
       style="fill:none;stroke:#336633;stroke-width:3;stroke-linecap:round;stroke-linejoin:round" /><line
       x1="203.10001"
       y1="270.69101"
       x2="203.10001"
       y2="318.09201"
       id="line4435"
       style="fill:none;stroke:#336633;stroke-width:3;stroke-linecap:round;stroke-linejoin:round" /><line
       x1="350.70001"
       y1="269.19101"
       x2="350.70001"
       y2="296.69101"
       id="line4437"
       style="fill:none;stroke:#336633;stroke-width:3;stroke-linecap:round;stroke-linejoin:round" /><line
       x1="376.04999"
       y1="319.69101"
       x2="399.89999"
       y2="343.54099"
       id="line4439"
       style="fill:none;stroke:#336633;stroke-width:3;stroke-linecap:round;stroke-linejoin:round" /><line
       x1="326.10001"
       y1="345.04099"
       x2="326.10001"
       y2="368.69101"
       id="line4441"
       style="fill:none;stroke:#336633;stroke-width:3;stroke-linecap:round;stroke-linejoin:round" /><line
       x1="375.29999"
       y1="442.19101"
       x2="350.75"
       y2="442.19101"
       id="line4443"
       style="fill:none;stroke:#336633;stroke-width:3;stroke-linecap:round;stroke-linejoin:round" /><path
       d="M 399.9,370.191"
       id="path4445"
       inkscape:connector-curvature="0"
       style="fill:none;stroke:#336633;stroke-width:3;stroke-linecap:round;stroke-linejoin:round" /><line
       x1="350.70001"
       y1="466.69101"
       x2="326.10001"
       y2="466.69101"
       id="line4447"
       style="fill:none;stroke:#336633;stroke-width:3;stroke-linecap:round;stroke-linejoin:round" /><polyline
       points="326.1,442.191   276.9,442.191 252.4,417.691 252.4,393.191 "
       id="polyline4449"
       style="fill:none;stroke:#336633;stroke-width:3;stroke-linecap:round;stroke-linejoin:round" /><line
       x1="252.3"
       y1="419.19101"
       x2="227.75"
       y2="419.19101"
       id="line4451"
       style="fill:none;stroke:#336633;stroke-width:3;stroke-linecap:round;stroke-linejoin:round" /><line
       x1="276.89999"
       y1="442.19101"
       x2="276.89999"
       y2="394.69101"
       id="line4453"
       style="fill:none;stroke:#336633;stroke-width:3;stroke-linecap:round;stroke-linejoin:round" /><line
       x1="301.89999"
       y1="442.19101"
       x2="276.89999"
       y2="467.19101"
       id="line4455"
       style="fill:none;stroke:#336633;stroke-width:3;stroke-linecap:round;stroke-linejoin:round" /><polyline
       points="326.1,197.191   326.1,221.691 301.5,246.191 276.9,221.691 "
       id="polyline4457"
       style="fill:none;stroke:#336633;stroke-width:3;stroke-linecap:round;stroke-linejoin:round" /><line
       x1="375.29999"
       y1="270.69101"
       x2="399.89999"
       y2="246.19099"
       id="line4459"
       style="fill:none;stroke:#336633;stroke-width:3;stroke-linecap:round;stroke-linejoin:round" /><path
       d="M 375.3,246.191"
       id="path4461"
       inkscape:connector-curvature="0"
       style="fill:none;stroke:#336633;stroke-width:3;stroke-linecap:round;stroke-linejoin:round" /><line
       x1="252.3"
       y1="221.69099"
       x2="227.7"
       y2="221.69099"
       id="line4463"
       style="fill:none;stroke:#336633;stroke-width:3;stroke-linecap:round;stroke-linejoin:round" /><line
       x1="352.20001"
       y1="221.69099"
       x2="375.29999"
       y2="197.19099"
       id="line4465"
       style="fill:none;stroke:#336633;stroke-width:3;stroke-linecap:round;stroke-linejoin:round" /><line
       x1="400.065"
       y1="199.04201"
       x2="400.065"
       y2="610.59198"
       id="line4467"
       style="fill:none;stroke:#336633;stroke-width:8;stroke-linecap:round;stroke-linejoin:round" /><polyline
       points="400.065,466.691   449.266,417.691 449.266,295.191 473.766,270.691 "
       id="polyline4469"
       style="fill:none;stroke:#336633;stroke-width:3;stroke-linecap:round;stroke-linejoin:round" /><polyline
       points="424.565,393.191   424.565,344.191 498.465,270.691 498.465,221.691 "
       id="polyline4471"
       style="fill:none;stroke:#336633;stroke-width:3;stroke-linecap:round;stroke-linejoin:round" /><line
       x1="523.065"
       y1="246.19099"
       x2="498.465"
       y2="270.69101"
       id="line4473"
       style="fill:none;stroke:#336633;stroke-width:3;stroke-linecap:round;stroke-linejoin:round" /><polyline
       points="449.266,393.191   498.266,344.191 498.266,295.191 547.666,246.191 547.666,221.691 572.266,197.191 "
       id="polyline4475"
       style="fill:none;stroke:#336633;stroke-width:3;stroke-linecap:round;stroke-linejoin:round" /><polyline
       points="499.565,319.691   523.065,295.191 572.266,295.191 572.266,246.191 "
       id="polyline4477"
       style="fill:none;stroke:#336633;stroke-width:3;stroke-linecap:round;stroke-linejoin:round" /><polyline
       points="400.065,319.691   424.565,295.191 424.565,246.191 447.766,222.991 447.766,172.691 "
       id="polyline4479"
       style="fill:none;stroke:#336633;stroke-width:3;stroke-linecap:round;stroke-linejoin:round" /><polyline
       points="400.065,540.191   423.166,515.691 423.166,466.691 "
       id="polyline4481"
       style="fill:none;stroke:#336633;stroke-width:3;stroke-linecap:round;stroke-linejoin:round" /><polyline
       points="424.666,491.191   472.915,442.191 472.915,393.191 521.065,345.041 "
       id="polyline4483"
       style="fill:none;stroke:#336633;stroke-width:3;stroke-linecap:round;stroke-linejoin:round" /><polyline
       points="498.465,417.691   473.865,417.691 547.365,344.191 547.365,319.691 "
       id="polyline4485"
       style="fill:none;stroke:#336633;stroke-width:3;stroke-linecap:round;stroke-linejoin:round" /><line
       x1="523.065"
       y1="368.69101"
       x2="596.86499"
       y2="368.69101"
       id="line4487"
       style="fill:none;stroke:#336633;stroke-width:3;stroke-linecap:round;stroke-linejoin:round" /><polyline
       points="547.5,344.092   572.266,344.092 621.465,295.191 "
       id="polyline4489"
       style="fill:none;stroke:#336633;stroke-width:3;stroke-linecap:round;stroke-linejoin:round" /><line
       x1="572.26599"
       y1="368.69101"
       x2="572.26599"
       y2="393.19101"
       id="line4491"
       style="fill:none;stroke:#336633;stroke-width:3;stroke-linecap:round;stroke-linejoin:round" /><line
       x1="473.86499"
       y1="319.69101"
       x2="449.36499"
       y2="344.19101"
       id="line4493"
       style="fill:none;stroke:#336633;stroke-width:3;stroke-linecap:round;stroke-linejoin:round" /><line
       x1="424.5"
       y1="393.19101"
       x2="400.064"
       y2="417.59201"
       id="line4495"
       style="fill:none;stroke:#336633;stroke-width:3;stroke-linecap:round;stroke-linejoin:round" /><line
       x1="426.16599"
       y1="246.19099"
       x2="472.36499"
       y2="246.19099"
       id="line4497"
       style="fill:none;stroke:#336633;stroke-width:3;stroke-linecap:round;stroke-linejoin:round" /><line
       x1="498.79999"
       y1="319.69101"
       x2="523.06403"
       y2="319.69101"
       id="line4499"
       style="fill:none;stroke:#336633;stroke-width:3;stroke-linecap:round;stroke-linejoin:round" /><line
       x1="547.66602"
       y1="270.69101"
       x2="547.66602"
       y2="295.19101"
       id="line4501"
       style="fill:none;stroke:#336633;stroke-width:3;stroke-linecap:round;stroke-linejoin:round" /><line
       x1="596.86499"
       y1="270.69101"
       x2="596.86499"
       y2="319.69101"
       id="line4503"
       style="fill:none;stroke:#336633;stroke-width:3;stroke-linecap:round;stroke-linejoin:round" /><line
       x1="449.26599"
       y1="269.19101"
       x2="449.26599"
       y2="296.69101"
       id="line4505"
       style="fill:none;stroke:#336633;stroke-width:3;stroke-linecap:round;stroke-linejoin:round" /><line
       x1="423.91599"
       y1="319.69101"
       x2="400.065"
       y2="343.54099"
       id="line4507"
       style="fill:none;stroke:#336633;stroke-width:3;stroke-linecap:round;stroke-linejoin:round" /><line
       x1="473.86499"
       y1="345.04099"
       x2="473.86499"
       y2="368.69101"
       id="line4509"
       style="fill:none;stroke:#336633;stroke-width:3;stroke-linecap:round;stroke-linejoin:round" /><line
       x1="424.66599"
       y1="442.19101"
       x2="449.215"
       y2="442.19101"
       id="line4511"
       style="fill:none;stroke:#336633;stroke-width:3;stroke-linecap:round;stroke-linejoin:round" /><path
       d="M 400.065,370.191"
       id="path4513"
       inkscape:connector-curvature="0"
       style="fill:none;stroke:#336633;stroke-width:3;stroke-linecap:round;stroke-linejoin:round" /><path
       d="M 449.266,417.691"
       id="path4515"
       inkscape:connector-curvature="0"
       style="fill:none;stroke:#336633;stroke-width:3;stroke-linecap:round;stroke-linejoin:round" /><line
       x1="449.26599"
       y1="466.69101"
       x2="473.86499"
       y2="466.69101"
       id="line4517"
       style="fill:none;stroke:#336633;stroke-width:3;stroke-linecap:round;stroke-linejoin:round" /><line
       x1="350.85001"
       y1="515.591"
       x2="375.45001"
       y2="515.591"
       id="line4519"
       style="fill:none;stroke:#336633;stroke-width:3;stroke-linecap:round;stroke-linejoin:round" /><polyline
       points="473.865,442.191   523.065,442.191 547.565,417.691 547.565,393.191 "
       id="polyline4521"
       style="fill:none;stroke:#336633;stroke-width:3;stroke-linecap:round;stroke-linejoin:round" /><line
       x1="547.66602"
       y1="419.19101"
       x2="572.21503"
       y2="419.19101"
       id="line4523"
       style="fill:none;stroke:#336633;stroke-width:3;stroke-linecap:round;stroke-linejoin:round" /><line
       x1="523.065"
       y1="442.19101"
       x2="523.065"
       y2="394.69101"
       id="line4525"
       style="fill:none;stroke:#336633;stroke-width:3;stroke-linecap:round;stroke-linejoin:round" /><line
       x1="498.065"
       y1="442.19101"
       x2="523.065"
       y2="467.19101"
       id="line4527"
       style="fill:none;stroke:#336633;stroke-width:3;stroke-linecap:round;stroke-linejoin:round" /><polyline
       points="473.865,197.191   473.865,221.691 498.465,246.191 523.065,221.691 "
       id="polyline4529"
       style="fill:none;stroke:#336633;stroke-width:3;stroke-linecap:round;stroke-linejoin:round" /><path
       d="M 424.666,246.191"
       id="path4531"
       inkscape:connector-curvature="0"
       style="fill:none;stroke:#336633;stroke-width:3;stroke-linecap:round;stroke-linejoin:round" /><line
       x1="547.66602"
       y1="221.69099"
       x2="572.26599"
       y2="221.69099"
       id="line4533"
       style="fill:none;stroke:#336633;stroke-width:3;stroke-linecap:round;stroke-linejoin:round" /><line
       x1="447.76599"
       y1="221.69099"
       x2="424.45001"
       y2="221.69099"
       id="line4535"
       style="fill:none;stroke:#336633;stroke-width:3;stroke-linecap:round;stroke-linejoin:round" /><line
       x1="375.29999"
       y1="393.091"
       x2="399.89999"
       y2="393.091"
       id="line4537"
       style="fill:none;stroke:#336633;stroke-width:3;stroke-linecap:round;stroke-linejoin:round" /><line
       x1="449.44501"
       y1="466.892"
       x2="472.54599"
       y2="490.23001"
       id="line4539"
       style="fill:none;stroke:#336633;stroke-width:3;stroke-linecap:round;stroke-linejoin:round" /><rect
       x="171.33099"
       y="575.104"
       width="20.298"
       height="13.752"
       id="rect4541"
       style="fill:none;stroke:#336633;stroke-width:2.66199994;stroke-linecap:round;stroke-linejoin:round" /><path
       d="m 181.109,567.84 h 15.965 c 0,0 8.041,0 8.041,8.043 v 12.194 c 0,0 0,8.042 -8.041,8.042 H 181.109 V 567.84 z"
       id="path4543"
       inkscape:connector-curvature="0"
       style="fill:#336633" /><polygon
       points="193.424,579.722 197.748,579.722 188.948,590.482 192.826,582.122 188.948,582.122 192.826,574.443 197.002,574.443 "
       id="polygon4545"
       style="fill:#ffff00" /><line
       x1="171.47501"
       y1="581.84198"
       x2="186.95"
       y2="581.84198"
       id="line4547"
       style="fill:none;stroke:#336633;stroke-width:2.66199994;stroke-linecap:round;stroke-linejoin:round" /><path
       d="m 649.44,620.808 c 0,0 0,-2.325 -2.325,-2.325 h -2.138 v 13.372 h 2.138 c 0,0 2.325,0 2.325,-2.324 v -8.723 z"
       id="path4549"
       inkscape:connector-curvature="0"
       style="fill:none;stroke:#336633;stroke-width:2.66199994;stroke-linecap:round;stroke-linejoin:round" /><rect
       x="564.289"
       y="609.00299"
       width="80.704002"
       height="32.332001"
       id="rect4551"
       style="fill:none;stroke:#336633;stroke-width:2.66199994;stroke-linecap:round;stroke-linejoin:round" /><polygon
       id="polygon6992"
       points="110.499,117.262 106.235,113 100.207,113 95.944,117.262 95.944,123.291 100.207,127.554 106.235,127.554 110.499,123.291 "
       style="fill:#cc6600"
       transform="translate(40.478422,509.80845)" /><path
       id="path6994"
       d="m 137.30842,647.10945 c 0,0 -2.506,0 -2.506,2.506 v 24.611 c 0,0 0,2.506 2.506,2.506 h 13.366 c 0,0 2.506,0 2.506,-2.506 v -24.611 c 0,0 0,-2.506 -2.506,-2.506 h -13.366 z"
       inkscape:connector-curvature="0"
       style="fill:none;stroke:#336633;stroke-width:2" /><rect
       id="rect6996"
       height="17.891001"
       width="13.31"
       y="652.64447"
       x="137.33643"
       style="fill:none;stroke:#336633;stroke-width:2" /><circle
       id="circle6998"
       r="0.77499998"
       cy="163.929"
       cx="103.513"
       sodipodi:cx="103.513"
       sodipodi:cy="163.929"
       sodipodi:rx="0.77499998"
       sodipodi:ry="0.77499998"
       style="fill:none;stroke:#336633;stroke-width:2"
       transform="translate(40.478422,509.80845)" /><circle
       id="circle7000"
       r="0.27900001"
       cy="140.02699"
       cx="109.95"
       sodipodi:cx="109.95"
       sodipodi:cy="140.02699"
       sodipodi:rx="0.27900001"
       sodipodi:ry="0.27900001"
       style="fill:none;stroke:#336633;stroke-width:2"
       transform="translate(40.478422,509.80845)" /><path
       id="path7002"
       d="m 183.06742,647.10945 c 0,0 -2.506,0 -2.506,2.506 v 24.611 c 0,0 0,2.506 2.506,2.506 h 13.366 c 0,0 2.506,0 2.506,-2.506 v -24.611 c 0,0 0,-2.506 -2.506,-2.506 h -13.366 z"
       inkscape:connector-curvature="0"
       style="fill:none;stroke:#336633;stroke-width:2" /><rect
       id="rect7004"
       height="17.891001"
       width="13.31"
       y="652.64447"
       x="183.09543"
       style="fill:none;stroke:#336633;stroke-width:2" /><circle
       id="circle7006"
       r="0.77499998"
       cy="163.929"
       cx="149.272"
       sodipodi:cx="149.272"
       sodipodi:cy="163.929"
       sodipodi:rx="0.77499998"
       sodipodi:ry="0.77499998"
       style="fill:none;stroke:#336633;stroke-width:2"
       transform="translate(40.478422,509.80845)" /><circle
       id="circle7008"
       r="0.27900001"
       cy="140.02699"
       cx="155.709"
       sodipodi:cx="155.709"
       sodipodi:cy="140.02699"
       sodipodi:rx="0.27900001"
       sodipodi:ry="0.27900001"
       style="fill:none;stroke:#336633;stroke-width:2"
       transform="translate(40.478422,509.80845)" /><path
       id="path7010"
       d="m 228.82642,647.10945 c 0,0 -2.506,0 -2.506,2.506 v 24.611 c 0,0 0,2.506 2.506,2.506 h 13.366 c 0,0 2.506,0 2.506,-2.506 v -24.611 c 0,0 0,-2.506 -2.506,-2.506 h -13.366 z"
       inkscape:connector-curvature="0"
       style="fill:none;stroke:#336633;stroke-width:2" /><rect
       id="rect7012"
       height="17.891001"
       width="13.31"
       y="652.64447"
       x="228.85443"
       style="fill:none;stroke:#336633;stroke-width:2" /><circle
       id="circle7014"
       r="0.77499998"
       cy="163.929"
       cx="195.03101"
       sodipodi:cx="195.03101"
       sodipodi:cy="163.929"
       sodipodi:rx="0.77499998"
       sodipodi:ry="0.77499998"
       style="fill:none;stroke:#336633;stroke-width:2"
       transform="translate(40.478422,509.80845)" /><circle
       id="circle7016"
       r="0.27900001"
       cy="140.02699"
       cx="201.46899"
       sodipodi:cx="201.46899"
       sodipodi:cy="140.02699"
       sodipodi:rx="0.27900001"
       sodipodi:ry="0.27900001"
       style="fill:none;stroke:#336633;stroke-width:2"
       transform="translate(40.478422,509.80845)" /><path
       style="fill:#336633"
       inkscape:connector-curvature="0"
       d="m 138.37042,694.26045 -2.205,-2.892 c -0.176,-0.224 -0.24,-0.416 -0.24,-0.56 0,-0.352 0.256,-0.639 0.591,-0.639 0.319,0 0.463,0.144 0.607,0.319 l 2.061,2.748 2.061,-2.748 c 0.144,-0.176 0.288,-0.319 0.607,-0.319 0.335,0 0.591,0.287 0.591,0.639 0,0.144 -0.064,0.336 -0.239,0.56 l -2.205,2.892 2.508,3.291 c 0.224,0.304 0.288,0.511 0.288,0.671 0,0.352 -0.271,0.639 -0.639,0.639 -0.239,0 -0.479,-0.111 -0.623,-0.319 l -2.348,-3.259 -2.349,3.259 c -0.144,0.208 -0.383,0.319 -0.623,0.319 -0.367,0 -0.639,-0.287 -0.639,-0.639 0,-0.16 0.064,-0.367 0.288,-0.671 l 2.508,-3.291 z"
       id="path7020" /><path
       style="fill:#336633"
       inkscape:connector-curvature="0"
       d="m 149.50242,688.60445 h -1.47 c -0.335,0 -0.607,-0.271 -0.607,-0.606 0,-0.336 0.272,-0.607 0.607,-0.607 h 2.444 c 0.271,0 0.431,0.032 0.431,0.384 v 10.336 c 0,0.464 -0.271,0.751 -0.703,0.751 -0.431,0 -0.703,-0.287 -0.703,-0.751 v -9.507 z"
       id="path7022" /><polygon
       id="polygon7024"
       points="156.549,123.292 156.549,117.263 152.286,113 146.257,113 141.994,117.263 141.994,123.292 146.257,127.554 152.286,127.554 "
       style="fill:#cccc00"
       transform="translate(40.478422,509.80845)" /><path
       style="fill:#336633"
       inkscape:connector-curvature="0"
       d="m 179.84842,694.62345 -2.205,-2.892 c -0.176,-0.224 -0.24,-0.416 -0.24,-0.56 0,-0.352 0.256,-0.639 0.591,-0.639 0.319,0 0.463,0.144 0.607,0.319 l 2.061,2.748 2.061,-2.748 c 0.144,-0.176 0.288,-0.319 0.607,-0.319 0.335,0 0.591,0.287 0.591,0.639 0,0.144 -0.064,0.336 -0.239,0.56 l -2.204,2.892 2.508,3.291 c 0.224,0.304 0.288,0.511 0.288,0.671 0,0.352 -0.271,0.639 -0.639,0.639 -0.239,0 -0.479,-0.111 -0.623,-0.319 l -2.348,-3.259 -2.349,3.259 c -0.144,0.208 -0.383,0.319 -0.623,0.319 -0.367,0 -0.639,-0.287 -0.639,-0.639 0,-0.16 0.064,-0.367 0.288,-0.671 l 2.507,-3.291 z"
       id="path7028" /><path
       style="fill:#336633"
       inkscape:connector-curvature="0"
       d="m 190.98042,688.96745 h -1.47 c -0.335,0 -0.607,-0.271 -0.607,-0.606 0,-0.336 0.272,-0.607 0.607,-0.607 h 2.444 c 0.271,0 0.432,0.032 0.432,0.384 v 10.336 c 0,0.464 -0.271,0.751 -0.703,0.751 -0.431,0 -0.703,-0.287 -0.703,-0.751 v -9.507 z"
       id="path7030" /><path
       style="fill:#336633"
       inkscape:connector-curvature="0"
       d="m 198.26442,687.65845 c 2.077,0 3.755,2.125 3.755,5.783 0,3.658 -1.678,5.783 -3.755,5.783 -2.077,0 -3.755,-2.125 -3.755,-5.783 0,-3.658 1.678,-5.783 3.755,-5.783 z m 0,10.352 c 1.246,0 2.253,-1.39 2.253,-4.569 0,-3.179 -1.007,-4.569 -2.253,-4.569 -1.246,0 -2.253,1.391 -2.253,4.569 0,3.18 1.007,4.569 2.253,4.569 z"
       id="path7032" /><polygon
       id="polygon7034"
       points="202.309,123.292 202.309,117.263 198.045,113 192.016,113 187.754,117.263 187.754,123.292 192.016,127.554 198.045,127.554 "
       style="fill:#33cc66"
       transform="translate(40.478422,509.80845)" /><path
       style="fill:#336633"
       inkscape:connector-curvature="0"
       d="m 224.13842,694.26045 -2.205,-2.892 c -0.176,-0.224 -0.24,-0.416 -0.24,-0.56 0,-0.352 0.256,-0.639 0.592,-0.639 0.319,0 0.463,0.144 0.607,0.319 l 2.061,2.748 2.061,-2.748 c 0.145,-0.176 0.287,-0.319 0.607,-0.319 0.336,0 0.591,0.287 0.591,0.639 0,0.144 -0.063,0.336 -0.239,0.56 l -2.205,2.892 2.508,3.291 c 0.225,0.304 0.288,0.511 0.288,0.671 0,0.352 -0.271,0.639 -0.64,0.639 -0.238,0 -0.479,-0.111 -0.623,-0.319 l -2.348,-3.259 -2.349,3.259 c -0.144,0.208 -0.384,0.319 -0.623,0.319 -0.367,0 -0.64,-0.287 -0.64,-0.639 0,-0.16 0.064,-0.367 0.288,-0.671 l 2.509,-3.291 z"
       id="path7038" /><path
       style="fill:#336633"
       inkscape:connector-curvature="0"
       d="m 239.87142,697.55145 c 0.336,0 0.607,0.271 0.607,0.606 0,0.336 -0.271,0.607 -0.607,0.607 h -5.512 c -0.591,0 -0.767,-0.336 -0.767,-0.575 0,-0.176 0.063,-0.304 0.304,-0.639 l 3.93,-5.257 c 0.479,-0.623 0.831,-1.325 0.831,-2.013 0,-1.038 -0.782,-1.773 -1.806,-1.773 -1.357,0 -2.076,1.15 -2.076,2.572 0,0.495 -0.32,0.64 -0.623,0.64 -0.447,0 -0.688,-0.272 -0.688,-0.863 0,-1.885 1.278,-3.563 3.627,-3.563 1.885,0 3.067,1.358 3.067,2.828 0,0.654 -0.048,1.39 -0.782,2.348 l -3.818,5.081 h 4.313 z"
       id="path7040" /><path
       style="fill:#336633"
       inkscape:connector-curvature="0"
       d="m 245.49342,687.29445 c 2.077,0 3.755,2.125 3.755,5.783 0,3.658 -1.678,5.783 -3.755,5.783 -2.077,0 -3.755,-2.125 -3.755,-5.783 0,-3.658 1.678,-5.783 3.755,-5.783 z m 0,10.353 c 1.246,0 2.253,-1.39 2.253,-4.569 0,-3.179 -1.007,-4.569 -2.253,-4.569 -1.246,0 -2.253,1.391 -2.253,4.569 0,3.179 1.007,4.569 2.253,4.569 z"
       id="path7042" /></g></svg>